<?xml version="1.0" encoding="UTF-8"?><svg id="Layer_2" xmlns="http://www.w3.org/2000/svg" viewBox="0 0 168.65 65.93"><defs><style>.cls-1,.cls-2{fill:#000;}.cls-2{fill-rule:evenodd;}</style></defs><g id="Layer_1-2"><g><path class="cls-1" d="M116.79,23.8v-4.55h3.11l-3.11-7.59V5.47h2.44l10.03,23.58h-5.38l-2.14-5.25h-4.95Zm22.43,5.59c1.27,0,2.42-.16,3.47-.48,1.05-.32,1.96-.79,2.72-1.4,.76-.62,1.35-1.38,1.77-2.28,.42-.9,.63-1.93,.64-3.09v-.07c0-1.01-.17-1.9-.49-2.64-.33-.75-.81-1.39-1.44-1.93-.64-.54-1.41-1.01-2.33-1.4-.93-.4-1.98-.74-3.17-1.05-1.01-.26-1.84-.49-2.5-.7-.66-.21-1.17-.43-1.54-.65-.37-.22-.64-.47-.79-.74-.15-.28-.22-.61-.22-.99v-.07c0-.38,.12-.73,.34-1.04,.23-.31,.57-.55,1.01-.72,.45-.18,1-.27,1.66-.28,.99,0,1.99,.21,3,.61,1.02,.41,2.05,.97,3.08,1.69l2.68-3.88c-1.19-.96-2.51-1.69-3.96-2.2-1.45-.51-3.03-.77-4.74-.77-1.2,0-2.3,.17-3.3,.51-1,.33-1.86,.81-2.59,1.43-.73,.62-1.29,1.37-1.69,2.23-.4,.86-.6,1.83-.61,2.89v.07c0,1.15,.18,2.12,.55,2.91,.36,.79,.88,1.44,1.56,1.96,.68,.52,1.49,.96,2.45,1.32,.95,.35,2.02,.68,3.2,.97,.97,.25,1.77,.48,2.39,.7,.62,.22,1.1,.45,1.44,.67,.34,.22,.57,.47,.71,.72,.13,.26,.19,.55,.18,.88v.07c-.01,.69-.31,1.23-.9,1.62-.59,.39-1.42,.59-2.48,.59-.89,0-1.73-.12-2.53-.35-.8-.23-1.57-.56-2.31-.98-.74-.42-1.45-.93-2.15-1.51l-3.04,3.65c.94,.84,1.95,1.53,3.04,2.08,1.08,.56,2.2,.97,3.37,1.25,1.17,.27,2.34,.41,3.53,.41h0Zm11.42-.33h17.82v-4.58h-12.71v-4.92h11.04v-4.58h-11.04v-4.75h12.54V5.64h-17.66V29.05Zm-57.43,0h1.89c1.33,0,2.52-.13,3.6-.4,1.07-.27,1.99-.67,2.76-1.2,.77-.54,1.36-1.2,1.77-2.01,.41-.8,.62-1.74,.62-2.81v-.07c0-1.04-.18-1.93-.54-2.66-.35-.73-.85-1.34-1.5-1.84-.65-.5-1.43-.91-2.34-1.25,.56-.31,1.08-.69,1.54-1.14,.46-.45,.84-1,1.11-1.64,.27-.64,.42-1.4,.42-2.27v-.07c0-.8-.13-1.53-.4-2.19-.27-.66-.67-1.25-1.2-1.79-.67-.67-1.53-1.19-2.56-1.54-1.03-.36-2.22-.54-3.56-.54h-1.62v4.51h.85c1.09,0,1.93,.21,2.5,.62,.58,.42,.87,1.01,.88,1.78v.07c0,.58-.16,1.05-.46,1.42-.3,.36-.73,.63-1.28,.8-.55,.17-1.21,.26-1.97,.26h-.52v4.28h1.72c1.32,0,2.28,.23,2.9,.68,.61,.45,.92,1.07,.91,1.86v.07c0,.58-.15,1.05-.44,1.43-.29,.37-.71,.65-1.25,.84-.55,.18-1.19,.27-1.96,.27h-1.89v4.51h0ZM116.79,5.47v6.19l-3.11,7.59h3.11v4.55h-4.95l-2.14,5.25h-5.25l10.03-23.58h2.31Zm-32.83,23.58h9.25v-4.51h-4.23v-5.15h4.23v-4.28h-4.23v-4.95h4.23V5.64h-9.25V29.05Z"/><path class="cls-1" d="M156.21,60.61v-4.75h.03c1.04,0,1.99-.2,2.85-.57,.86-.38,1.59-.9,2.22-1.57,.62-.67,1.1-1.44,1.44-2.32,.34-.87,.51-1.82,.51-2.83v-.07c0-1.01-.18-1.96-.52-2.84-.35-.89-.84-1.67-1.47-2.34-.63-.67-1.38-1.2-2.24-1.59-.85-.38-1.8-.58-2.83-.58v-4.75h.03c1.45,0,2.8,.21,4.06,.61,1.26,.4,2.4,.98,3.42,1.71,1.03,.74,1.9,1.61,2.64,2.61,.73,1,1.29,2.1,1.69,3.31,.4,1.2,.59,2.47,.6,3.81v.07c0,1.34-.21,2.61-.6,3.81-.4,1.21-.97,2.31-1.71,3.32-.74,1.01-1.62,1.88-2.65,2.63-1.03,.74-2.18,1.32-3.44,1.73-1.26,.4-2.6,.61-4.04,.62Zm-65.19-.4h5.15v-18.66h7.12v-4.75h-19.4v4.75h7.12v18.66h0Zm65.19-23.81v4.75h-.03c-1.04,0-1.99,.2-2.85,.57-.85,.38-1.59,.9-2.22,1.57-.62,.67-1.1,1.44-1.44,2.32-.33,.87-.51,1.82-.51,2.83v.07c0,1.01,.18,1.96,.52,2.84,.35,.89,.84,1.67,1.47,2.34,.63,.67,1.38,1.2,2.24,1.59,.85,.38,1.8,.58,2.83,.59v4.75h-.03c-1.45,0-2.8-.21-4.06-.61-1.26-.4-2.4-.98-3.42-1.71-1.03-.74-1.9-1.61-2.64-2.61-.73-1-1.29-2.1-1.69-3.31-.4-1.2-.59-2.47-.6-3.81v-.07c0-1.34,.21-2.61,.6-3.81,.4-1.21,.97-2.31,1.71-3.32,.74-1.01,1.62-1.88,2.65-2.63,1.03-.74,2.18-1.32,3.44-1.73,1.26-.4,2.6-.61,4.04-.62h0Zm-42.09,23.98h4.48l5.28-15.32,5.28,15.32h4.48l7.99-23.58h-5.38l-4.85,15.85-5.25-15.92h-4.41l-5.25,15.92-4.85-15.85h-5.52l7.99,23.58Z"/><rect class="cls-1" x="67.34" y="0" width="1.75" height="65.9"/><path class="cls-2" d="M30.94,11.71c2.64,.17,4.78,.48,5.8,1.01,6.65,3.39,4.96,14.15-4.2,14.39-4.53,.12-9.17,0-13.72,0-3.3,.25-6.46,.96-9.54,2.74C4.82,32.44,.76,37.6,.09,44.8c-.07,.73-.09,1.3-.09,2.07v19.06c12.11,0,24.27-.02,36.35-.02,7.75,0,14.46-4.64,17.5-11.28H11.75v-8.66c1.21-5.3,4.4-7,8.59-7.48h13.36c4.88,.15,9.98,2.06,10.1,7.7h0v5.2h11.21c.64-2.44,.8-5,.36-7.54-.66-4.39-2.82-8.31-5.93-11.22-.34-.43-.68-.86-1.04-1.3,.13-.24,.26-.48,.38-.71,2.35-3.19,3.74-7.12,3.74-11.36h0C52.51,8.67,43.86,0,33.27,0s-22.18,0-33.27,0C3.16,6.88,10.12,11.69,18.15,11.69c4.25,0,8.51,.02,12.79,.02Z"/></g></g></svg>