<svg width="1433" height="359" viewBox="0 0 1433 359" fill="none" xmlns="http://www.w3.org/2000/svg">
<g clip-path="url(#clip0_5012_15478)">
<path d="M976.77 359.159C651.18 359.159 325.894 359.159 0.606934 359.159C0.606934 239.641 0.606934 120.123 0.606934 0.605469C478.274 0.605469 955.94 0.605469 1433.61 0.605469C1433.61 120.123 1433.61 239.641 1433.61 359.159C1281.43 359.159 1129.25 359.159 976.77 359.159ZM33.6715 9.00084C25.3312 9.00084 16.9908 9.00084 8.65996 9.00084C8.65996 121.524 8.65996 233.602 8.65996 345.746C121.097 345.746 233.367 345.746 345.68 345.746C345.68 233.433 345.68 121.287 345.68 9.00081C241.727 9.00081 138.002 9.00081 33.6715 9.00084ZM1316.23 193.466C1333.01 197.481 1349.93 199.022 1366.94 195.262C1380.7 192.219 1390.63 184.482 1393.96 170.229C1395.21 164.88 1395.64 159.235 1395.66 153.722C1395.81 119.763 1395.74 85.8028 1395.74 51.8429C1395.74 50.6605 1395.74 49.4781 1395.74 48.2434C1387.92 48.2434 1380.51 48.2434 1372.8 48.2434C1372.8 52.2121 1372.8 55.9647 1372.8 60.2218C1372.2 59.4409 1371.93 59.1526 1371.73 58.823C1363.8 45.8103 1348.77 43.5788 1337.12 47.0289C1325.95 50.3346 1319.84 58.804 1315.97 69.1551C1311.45 81.2328 1310.97 93.8048 1311.95 106.493C1312.67 115.919 1314.57 125.03 1318.97 133.545C1329.22 153.363 1357.65 154.723 1370.01 137.55C1370.81 136.442 1371.64 135.357 1372.45 134.261C1372.75 134.315 1373.05 134.369 1373.35 134.423C1372.89 142.92 1373.1 151.523 1371.8 159.889C1369.98 171.567 1363.37 177.172 1351.6 178.525C1339.86 179.875 1328.99 176.866 1318.61 171.613C1317.68 171.139 1316.72 170.712 1315.77 170.262C1315.77 178.168 1315.77 185.701 1316.23 193.466ZM1262.37 70.9043C1263.23 74.9069 1264.78 78.9002 1264.83 82.9136C1265.11 103.831 1265.01 124.753 1265.04 145.673C1265.05 146.839 1265.04 148.005 1265.04 149.137C1273.24 149.137 1280.97 149.137 1288.82 149.137C1288.87 148.349 1288.95 147.757 1288.95 147.165C1288.96 124.425 1289 101.684 1288.92 78.9444C1288.91 75.629 1288.54 72.2786 1287.98 69.0077C1285.89 56.9717 1278.34 48.5955 1267.71 46.3015C1253.48 43.2287 1239.87 49.918 1232.93 63.4011C1232.42 64.3803 1231.93 65.3677 1231.44 66.3513C1231.24 66.2736 1231.05 66.196 1230.85 66.1184C1230.85 60.1856 1230.85 54.2527 1230.85 48.2075C1222.93 48.2075 1215.21 48.2075 1207.44 48.2075C1207.44 81.9782 1207.44 115.563 1207.44 149.119C1215.38 149.119 1223.1 149.119 1230.97 149.119C1230.97 147.797 1230.97 146.696 1230.97 145.596C1230.97 132.255 1230.91 118.914 1231 105.574C1231.06 96.3434 1233.06 87.5474 1237.68 79.4763C1240.41 74.7221 1243.94 70.6833 1249.33 68.9565C1253.73 67.547 1258.24 66.8081 1262.37 70.9043ZM693.543 147.048C693.544 124.004 693.647 100.96 693.459 77.9183C693.423 73.4354 692.735 68.8264 691.509 64.5137C689.348 56.9085 684.742 51.0117 677.217 47.8729C663.418 42.1178 647.662 47.346 639.448 60.3743C638.257 62.2629 637.224 64.251 635.672 66.9779C635.672 60.1271 635.672 54.2008 635.672 48.2228C627.728 48.2228 620.007 48.2228 612.293 48.2228C612.293 82.0156 612.293 115.603 612.293 149.212C620.184 149.212 627.832 149.212 635.812 149.212C635.812 148.013 635.812 146.928 635.812 145.843C635.812 131.795 635.686 117.745 635.857 103.699C635.966 94.7734 638.227 86.3063 642.942 78.662C646.976 72.1198 652.443 67.6614 660.665 67.9634C665.097 68.1262 667.563 69.8451 668.447 74.1633C669.251 78.0904 669.696 82.1563 669.727 86.1655C669.882 106.074 669.848 125.984 669.881 145.894C669.883 146.969 669.881 148.044 669.881 149.329C677.546 149.329 684.81 149.362 692.072 149.257C692.569 149.25 693.05 148.203 693.543 147.048ZM506.549 65.8066C505.72 67.5336 504.771 69.2143 504.08 70.9949C498.264 85.9787 498.028 101.373 501.117 116.902C505.461 138.737 520.278 151.117 542.495 151.767C565.818 152.449 581.366 140.575 586.785 117.892C589.402 106.937 589.541 95.8563 587.83 84.7886C584.465 63.0357 572.2 47.5701 548.727 45.8809C531.222 44.6211 516.315 49.3916 506.549 65.8066ZM923.98 46.3488C916.52 45.3557 909.071 45.2738 901.66 46.7374C891.959 48.6533 883.667 52.8039 878.69 61.8526C875.982 66.7749 874.833 72.0951 875.065 77.8705C882.837 77.8705 890.277 77.8705 897.837 77.8705C898.015 76.8511 898.199 75.9711 898.32 75.0825C899.327 67.6852 902.981 63.8664 910.24 62.6447C918.555 61.2454 924.978 64.432 926.534 71.87C927.811 77.9712 927.652 84.3727 928.129 90.6346C922.443 90.9961 917.603 91.1475 912.797 91.6418C902.582 92.6926 892.6 94.6777 883.85 100.507C868.861 110.493 866.425 132.598 879.161 144.151C887.185 151.429 896.997 152.617 907.286 151.364C913.797 150.571 919.574 148.114 923.981 143.052C925.194 141.659 926.219 140.102 927.811 137.977C927.811 142.213 927.811 145.682 927.811 149.096C935.555 149.096 942.971 149.096 950.439 149.096C950.503 148.463 950.578 148.071 950.578 147.678C950.586 123.816 950.741 99.9526 950.538 76.0922C950.393 59.1174 941.322 49.0761 923.98 46.3488ZM990.73 53.0714C983.421 57.9785 978.341 64.6708 975.583 72.9575C969.937 89.9234 970.818 106.799 977.405 123.294C981.617 133.843 989.09 141.662 999.517 146.313C1017.78 154.457 1036.33 152.651 1054.89 147.41C1055.43 147.259 1056.08 146.311 1056.09 145.72C1056.2 141.49 1056.15 137.256 1056.15 132.954C1055.42 132.954 1054.93 132.906 1054.45 132.962C1048.76 133.611 1043.07 134.802 1037.38 134.839C1020.67 134.947 1007.66 126.023 1001.3 110.59C998.006 102.601 996.596 94.2033 997.637 85.6776C998.224 80.8672 999.62 75.9434 1001.71 71.5765C1005.11 64.4754 1012.61 61.2305 1019.95 62.7082C1026.78 64.0822 1030.41 68.6131 1031.5 77.1115C1031.74 78.9758 1031.96 80.8429 1032.18 82.6904C1040.55 82.6904 1048.69 82.6904 1056.83 82.6904C1056.99 82.2555 1057.18 81.9761 1057.17 81.7057C1057.08 79.7907 1057.06 77.865 1056.83 75.9658C1055.27 63.1904 1049.62 53.0013 1036.94 48.7164C1021.24 43.4084 1005.74 44.3252 990.73 53.0714ZM430.179 98.4381C430.06 97.4355 429.911 96.4353 429.825 95.4298C429.053 86.4072 429.687 77.6338 434.906 69.8285C438.875 63.8923 445.783 61.2551 452.646 62.84C458.916 64.2878 462.404 68.4976 463.572 76.1114C463.903 78.2755 464.103 80.4598 464.369 82.6769C472.729 82.6769 480.971 82.6769 489.527 82.6769C489.331 80.0834 489.201 77.6918 488.962 75.3111C487.518 60.9421 478.798 50.8186 464.801 47.2871C457.568 45.4623 450.228 45.1909 442.855 46.1332C425.642 48.3331 413.158 56.8797 407.568 73.7186C402.154 90.0301 403.057 106.424 409.23 122.342C414.706 136.461 425.285 145.246 439.821 149.348C449.103 151.968 458.566 152.417 468.046 151.238C474.881 150.389 481.627 148.83 488.264 147.614C488.264 142.156 488.264 137.529 488.264 133.368C482.079 133.897 475.986 134.801 469.885 134.856C458.453 134.96 448.486 131.075 440.733 122.411C434.761 115.737 431.757 107.667 430.179 98.4381ZM769.698 134.908C764.329 134.658 759.985 132.525 757.892 127.409C756.769 124.663 756.003 121.566 755.964 118.615C755.73 101.234 755.753 83.8486 755.714 66.4647C755.713 65.9076 755.971 65.3499 756.179 64.5081C766.017 64.5081 775.769 64.5081 785.47 64.5081C785.47 58.8728 785.47 53.5627 785.47 47.9664C775.519 47.9664 765.76 47.9664 755.609 47.9664C755.609 35.1455 755.609 22.6107 755.609 9.65887C748.129 14.1636 741.163 18.4386 734.105 22.554C732.305 23.6029 731.669 24.7929 731.71 26.8669C731.845 33.8114 731.761 40.7601 731.761 48.0395C725.055 48.0395 718.647 48.0395 712.183 48.0395C712.183 53.7519 712.183 59.1245 712.183 64.7574C718.795 64.7574 725.124 64.7574 731.762 64.7574C731.762 66.3098 731.762 67.5992 731.762 68.8886C731.762 85.164 731.728 101.439 731.783 117.715C731.797 122.052 731.9 126.405 732.281 130.723C733.172 140.811 738.299 147.096 748.033 149.902C758.987 153.06 770.061 151.793 781.096 150.289C781.634 150.215 782.454 149.289 782.465 148.745C782.571 143.715 782.528 138.682 782.528 133.782C778.253 134.182 774.262 134.555 769.698 134.908ZM1123.89 64.6723C1128 64.6723 1132.11 64.6723 1136.25 64.6723C1136.25 58.9433 1136.25 53.6329 1136.25 48.0215C1126.32 48.0215 1116.57 48.0215 1106.49 48.0215C1106.49 35.178 1106.49 22.6341 1106.49 9.60781C1099.47 13.8252 1093.02 17.9436 1086.33 21.6215C1083.31 23.2765 1082.26 25.2362 1082.52 28.567C1082.81 32.3847 1082.59 36.2426 1082.59 40.0831C1082.59 42.6616 1082.59 45.2402 1082.59 48.0695C1075.81 48.0695 1069.48 48.0695 1063.06 48.0695C1063.06 53.7083 1063.06 59.0764 1063.06 64.7516C1069.61 64.7516 1075.94 64.7516 1082.59 64.7516C1082.59 66.2369 1082.59 67.4244 1082.59 68.612C1082.59 86.2982 1082.57 103.985 1082.6 121.671C1082.61 124.596 1082.73 127.527 1082.96 130.444C1083.74 140.459 1089.14 147.168 1098.81 149.912C1110.17 153.137 1121.59 151.696 1133.07 150.187C1133.07 144.481 1133.07 139.021 1133.07 134.02C1128.26 134.273 1123.64 134.856 1119.05 134.67C1113.43 134.442 1109.57 131.192 1108.03 125.826C1107.1 122.572 1106.6 119.084 1106.57 115.696C1106.43 99.5266 1106.51 83.3556 1106.52 67.1853C1106.52 66.4104 1106.66 65.6356 1106.76 64.6721C1112.39 64.6721 1117.84 64.6721 1123.89 64.6723ZM573.215 296.973C573.657 303.815 573.538 310.75 574.657 317.48C577.154 332.509 586.469 342.016 601.176 344.944C609.989 346.698 618.859 346.318 627.622 344.123C640.399 340.921 648.595 332.928 651.302 320.118C652.688 313.561 653.019 306.691 653.068 299.957C653.258 273.673 653.146 247.385 653.146 221.099C653.146 220.032 653.146 218.965 653.146 217.832C648.083 217.832 643.462 217.832 638.511 217.832C638.511 219.156 638.511 220.345 638.511 221.535C638.511 249.034 638.519 276.534 638.498 304.033C638.496 306.558 638.433 309.094 638.178 311.603C637.207 321.17 633.771 329.455 623.68 332.153C618.264 333.601 612.252 333.854 606.64 333.305C597.304 332.39 591.581 326.515 589.328 317.474C588.553 314.359 587.961 311.104 587.946 307.911C587.809 278.997 587.818 250.083 587.784 221.169C587.783 220.092 587.784 219.014 587.784 217.921C582.744 217.921 578.061 217.921 573.433 217.921C573.336 218.337 573.252 218.529 573.252 218.722C573.235 244.603 573.225 270.485 573.215 296.973ZM688.712 331.521C684.528 330.232 680.345 328.943 676.115 327.64C676.115 332.589 676.115 337.299 676.115 342.498C682.773 343.519 689.313 344.831 695.918 345.465C707.364 346.564 718.652 345.962 729.602 341.721C754.151 332.215 754.734 299.704 740.453 287.664C734.643 282.765 727.975 278.831 721.479 274.811C714.622 270.567 707.413 266.894 700.535 262.682C696.361 260.126 692.83 256.705 691.15 251.908C687.636 241.876 693.892 231.576 705.112 228.716C712.652 226.794 720.174 227.556 727.625 229.074C732.312 230.03 736.896 231.492 741.714 232.777C741.714 228.627 741.829 224.591 741.612 220.573C741.572 219.813 740.312 218.662 739.449 218.481C735.111 217.572 730.739 216.734 726.338 216.222C715.51 214.962 704.786 215.203 694.386 219.06C670.719 227.835 669.691 256.328 682.555 267.863C687.383 272.192 693.083 275.627 698.65 279.036C706.735 283.988 715.188 288.341 723.243 293.337C729.766 297.383 733.679 303.366 733.985 311.283C734.414 322.38 727.278 330.739 715.304 333.031C706.511 334.714 697.812 333.681 688.712 331.521ZM471.489 226.501C464.688 220.596 456.517 218.147 447.775 217.869C436.873 217.522 425.953 217.725 415.04 217.703C414.061 217.701 413.082 217.788 411.977 217.839C411.977 259.925 411.977 301.807 411.977 343.844C416.699 343.844 421.298 343.844 426.228 343.844C426.228 325.124 426.228 306.487 426.228 287.574C427.742 287.574 428.937 287.602 430.13 287.569C437.091 287.376 444.11 287.669 450.999 286.857C463.641 285.366 474.048 280.076 478.898 267.306C481.728 259.852 481.756 252.1 480.595 244.313C479.583 237.521 476.824 231.584 471.489 226.501ZM830.532 57.9267C828.66 60.688 826.788 63.4494 824.916 66.2108C824.736 66.1397 824.556 66.0685 824.376 65.9974C824.376 60.08 824.376 54.1625 824.376 48.2505C816.407 48.2505 808.687 48.2505 800.988 48.2505C800.988 82.0092 800.988 115.538 800.988 149.167C808.869 149.167 816.591 149.167 824.591 149.167C824.591 147.703 824.581 146.413 824.593 145.123C824.743 129.056 824.486 112.972 825.169 96.9283C825.814 81.8077 833.651 73.6082 848.4 71.1694C851.451 70.6651 854.566 70.5561 857.64 70.2661C857.64 61.9688 857.64 53.8411 857.64 45.67C846.806 45.769 837.556 48.879 830.532 57.9267ZM1162.12 48.0248C1159.22 48.0248 1156.32 48.0248 1153.47 48.0248C1153.47 82.0351 1153.47 115.626 1153.47 149.132C1161.37 149.132 1169 149.132 1176.62 149.132C1176.62 115.337 1176.62 81.754 1176.62 48.0248C1171.81 48.0248 1167.27 48.0248 1162.12 48.0248ZM499.813 320.027C499.813 327.964 499.813 335.9 499.813 343.82C519.914 343.82 539.582 343.82 559.261 343.82C559.261 339.771 559.261 335.899 559.261 331.78C544.234 331.78 529.417 331.78 514.305 331.78C514.305 293.669 514.305 255.811 514.305 217.922C509.322 217.922 504.641 217.922 499.813 217.922C499.813 251.905 499.813 285.663 499.813 320.027ZM1153.22 7.61571C1153.22 13.722 1153.22 19.8283 1153.22 25.9399C1161.31 25.9399 1168.94 25.9399 1176.64 25.9399C1176.64 18.0953 1176.64 10.4045 1176.64 2.69087C1168.78 2.69087 1161.15 2.69087 1153.22 2.69087C1153.22 4.24793 1153.22 5.63497 1153.22 7.61571Z" fill="white"/>
<path d="M33.9746 9.00197C138.002 9.00195 241.726 9.00195 345.68 9.00195C345.68 121.288 345.68 233.434 345.68 345.747C233.366 345.747 121.096 345.747 8.65967 345.747C8.65967 233.603 8.65967 121.525 8.65967 9.00198C16.9905 9.00198 25.3309 9.00198 33.9746 9.00197ZM182.945 60.0622C180.19 60.4481 177.302 59.1703 174.77 61.8187C164.017 73.0654 153.066 84.1216 142.197 95.2574C140.148 97.3557 138.147 99.4994 135.576 102.197C175.114 102.197 213.779 102.197 252.835 102.197C252.835 141.079 252.835 179.674 252.835 218.269C253.128 218.43 253.42 218.59 253.713 218.751C254.013 218.213 254.206 217.566 254.628 217.153C267.054 205 279.435 192.801 292.013 180.807C294.154 178.765 294.805 176.777 294.799 173.987C294.728 137.09 294.751 100.194 294.75 63.2976C294.75 62.3157 294.75 61.3337 294.75 60.0622C257.483 60.0622 220.513 60.0622 182.945 60.0622Z" fill="#EE2D24"/>
<path d="M1316 193.351C1315.77 185.702 1315.77 178.169 1315.77 170.263C1316.72 170.713 1317.68 171.14 1318.61 171.614C1328.99 176.867 1339.86 179.875 1351.6 178.526C1363.37 177.173 1369.98 171.568 1371.8 159.89C1373.1 151.524 1372.89 142.921 1373.35 134.424C1373.05 134.37 1372.75 134.316 1372.45 134.262C1371.64 135.358 1370.81 136.443 1370.01 137.551C1357.65 154.724 1329.22 153.364 1318.97 133.546C1314.57 125.031 1312.67 115.919 1311.95 106.494C1310.97 93.8056 1311.45 81.2336 1315.97 69.156C1319.84 58.8049 1325.95 50.3354 1337.12 47.0298C1348.77 43.5797 1363.8 45.8112 1371.73 58.8238C1371.93 59.1535 1372.2 59.4418 1372.8 60.2227C1372.8 55.9656 1372.8 52.213 1372.8 48.2442C1380.51 48.2442 1387.92 48.2442 1395.74 48.2442C1395.74 49.4789 1395.74 50.6613 1395.74 51.8438C1395.74 85.8036 1395.81 119.764 1395.66 153.723C1395.64 159.236 1395.21 164.881 1393.96 170.23C1390.63 184.483 1380.7 192.22 1366.94 195.263C1349.93 199.023 1333.01 197.482 1316 193.351ZM1370.49 79.2376C1368.79 75.9486 1367.53 72.307 1365.28 69.4387C1359.27 61.7522 1347.52 62.3871 1342.3 70.6328C1340.5 73.4686 1339.25 76.8062 1338.45 80.0854C1336.23 89.2143 1336.53 98.5331 1337.37 107.799C1337.9 113.536 1339.04 119.203 1342.19 124.209C1347.43 132.518 1357.84 133.471 1364.24 126.053C1366.11 123.881 1367.67 121.264 1368.73 118.595C1373.76 105.882 1374.2 92.8766 1370.49 79.2376Z" fill="#646A68"/>
<path d="M1262.22 70.7263C1258.24 66.8104 1253.73 67.5493 1249.33 68.9588C1243.94 70.6857 1240.41 74.7245 1237.68 79.4787C1233.06 87.5498 1231.06 96.3457 1231 105.576C1230.91 118.916 1230.97 132.258 1230.97 145.599C1230.97 146.699 1230.97 147.799 1230.97 149.121C1223.1 149.121 1215.38 149.121 1207.44 149.121C1207.44 115.565 1207.44 81.9806 1207.44 48.2098C1215.21 48.2098 1222.93 48.2098 1230.85 48.2098C1230.85 54.2551 1230.85 60.1879 1230.85 66.1208C1231.05 66.1984 1231.24 66.276 1231.44 66.3536C1231.93 65.37 1232.42 64.3826 1232.92 63.4034C1239.87 49.9203 1253.48 43.231 1267.71 46.3038C1278.33 48.5978 1285.89 56.9741 1287.98 69.0101C1288.54 72.281 1288.91 75.6313 1288.92 78.9468C1289 101.687 1288.96 124.427 1288.95 147.167C1288.95 147.759 1288.87 148.351 1288.82 149.139C1280.97 149.139 1273.24 149.139 1265.04 149.139C1265.04 148.007 1265.04 146.841 1265.04 145.675C1265.01 124.755 1265.11 103.833 1264.83 82.9159C1264.78 78.9025 1263.23 74.9092 1262.22 70.7263Z" fill="#646A68"/>
<path d="M693.54 147.346C693.05 148.206 692.568 149.252 692.071 149.259C684.809 149.365 677.545 149.332 669.88 149.332C669.88 148.046 669.882 146.971 669.88 145.896C669.848 125.987 669.882 106.076 669.727 86.1678C669.695 82.1586 669.251 78.0928 668.447 74.1656C667.563 69.8474 665.097 68.1285 660.665 67.9657C652.443 67.6637 646.976 72.1221 642.941 78.6643C638.227 86.3086 635.965 94.7757 635.856 103.701C635.685 117.747 635.811 131.797 635.811 145.846C635.811 146.93 635.811 148.015 635.811 149.215C627.831 149.215 620.183 149.215 612.292 149.215C612.292 115.606 612.292 82.0179 612.292 48.2251C620.007 48.2251 627.727 48.2251 635.671 48.2251C635.671 54.2031 635.671 60.1294 635.671 66.9802C637.224 64.2534 638.257 62.2652 639.447 60.3766C647.661 47.3483 663.417 42.1201 677.216 47.8752C684.742 51.014 689.347 56.9108 691.508 64.516C692.734 68.8287 693.422 73.4377 693.459 77.9206C693.646 100.962 693.544 124.007 693.54 147.346Z" fill="#646A68"/>
<path d="M506.646 65.6066C516.315 49.3918 531.221 44.6213 548.727 45.8811C572.2 47.5703 584.465 63.0359 587.829 84.7888C589.541 95.8565 589.401 106.937 586.784 117.893C581.366 140.576 565.818 152.449 542.494 151.767C520.278 151.117 505.46 138.737 501.117 116.903C498.028 101.373 498.263 85.9789 504.08 70.9951C504.771 69.2144 505.72 67.5338 506.646 65.6066ZM542.19 134.898C553.846 135.766 558.808 129.088 561.224 120.903C561.452 120.131 561.644 119.347 561.814 118.56C563.837 109.203 564.16 99.7088 563.239 90.2526C562.668 84.3897 561.804 78.3433 559.746 72.8788C554.526 59.0193 536.529 60.1043 531.035 68.4148C528.708 71.9344 526.6 76.1801 526.195 80.2741C525.216 90.1704 524.971 100.176 525.1 110.129C525.157 114.563 526.442 119.104 527.853 123.37C530.005 129.878 534.442 134.14 542.19 134.898Z" fill="#646A68"/>
<path d="M924.235 46.4208C941.322 49.0762 950.393 59.1175 950.538 76.0923C950.741 99.9527 950.586 123.816 950.578 147.678C950.578 148.071 950.503 148.464 950.439 149.096C942.971 149.096 935.555 149.096 927.811 149.096C927.811 145.683 927.811 142.213 927.811 137.977C926.218 140.102 925.194 141.659 923.981 143.052C919.574 148.115 913.797 150.571 907.286 151.364C896.997 152.617 887.184 151.429 879.161 144.151C866.425 132.598 868.861 110.493 883.85 100.507C892.6 94.6778 902.582 92.6927 912.797 91.6419C917.603 91.1476 922.443 90.9963 928.129 90.6347C927.652 84.3729 927.811 77.9713 926.534 71.8701C924.978 64.4321 918.555 61.2455 910.24 62.6448C902.981 63.8665 899.327 67.6854 898.32 75.0826C898.199 75.9712 898.015 76.8512 897.837 77.8706C890.277 77.8706 882.837 77.8706 875.065 77.8706C874.833 72.0952 875.982 66.775 878.689 61.8527C883.667 52.804 891.959 48.6534 901.66 46.7375C909.071 45.274 916.52 45.3558 924.235 46.4208ZM898.451 132.699C904.943 136.623 913.489 135.708 919.036 130.105C925.853 123.218 927.473 114.438 927.737 104.978C925.603 104.978 923.801 104.832 922.029 105.003C913.936 105.783 905.994 107.154 899.405 112.448C893.007 117.588 892.454 126.817 898.451 132.699Z" fill="#646A68"/>
<path d="M990.91 52.9448C1005.74 44.3245 1021.24 43.4077 1036.94 48.7157C1049.62 53.0007 1055.27 63.1897 1056.83 75.9651C1057.06 77.8643 1057.08 79.79 1057.17 81.705C1057.18 81.9754 1056.99 82.2548 1056.83 82.6898C1048.69 82.6898 1040.55 82.6898 1032.18 82.6898C1031.96 80.8422 1031.74 78.9751 1031.5 77.1108C1030.41 68.6124 1026.78 64.0815 1019.95 62.7076C1012.61 61.2298 1005.11 64.4747 1001.71 71.5758C999.62 75.9427 998.224 80.8665 997.637 85.677C996.596 94.2026 998.005 102.601 1001.3 110.589C1007.66 126.022 1020.66 134.946 1037.38 134.838C1043.07 134.801 1048.76 133.611 1054.45 132.961C1054.93 132.906 1055.42 132.954 1056.15 132.954C1056.15 137.255 1056.19 141.489 1056.09 145.719C1056.08 146.31 1055.43 147.258 1054.89 147.409C1036.33 152.651 1017.78 154.456 999.517 146.312C989.089 141.662 981.617 133.842 977.404 123.293C970.818 106.799 969.937 89.9227 975.583 72.9568C978.341 64.6701 983.42 57.9778 990.91 52.9448Z" fill="#646A69"/>
<path d="M430.206 98.7028C431.756 107.668 434.761 115.738 440.733 122.412C448.485 131.076 458.453 134.961 469.884 134.857C475.985 134.802 482.079 133.898 488.264 133.369C488.264 137.529 488.264 142.157 488.264 147.615C481.627 148.83 474.88 150.389 468.046 151.239C458.566 152.417 449.102 151.969 439.821 149.349C425.284 145.246 414.706 136.461 409.23 122.343C403.057 106.424 402.153 90.0307 407.568 73.7192C413.157 56.8803 425.642 48.3337 442.854 46.1338C450.228 45.1915 457.568 45.4629 464.8 47.2877C478.798 50.8192 487.518 60.9427 488.962 75.3117C489.201 77.6924 489.331 80.084 489.527 82.6775C480.971 82.6775 472.729 82.6775 464.369 82.6775C464.103 80.4604 463.903 78.2761 463.571 76.112C462.404 68.4982 458.916 64.2884 452.646 62.8407C445.783 61.2557 438.875 63.8929 434.906 69.8291C429.687 77.6344 429.053 86.4078 429.825 95.4304C429.911 96.4359 430.06 97.4361 430.206 98.7028Z" fill="#646A68"/>
<path d="M769.984 134.918C774.262 134.555 778.253 134.181 782.528 133.782C782.528 138.681 782.571 143.714 782.465 148.745C782.454 149.288 781.633 150.215 781.096 150.288C770.061 151.792 758.987 153.06 748.033 149.902C738.298 147.095 733.172 140.81 732.281 130.722C731.899 126.405 731.797 122.052 731.783 117.714C731.728 101.439 731.762 85.1633 731.762 68.8879C731.762 67.5985 731.762 66.3091 731.762 64.7568C725.124 64.7568 718.795 64.7568 712.183 64.7568C712.183 59.1238 712.183 53.7513 712.183 48.0388C718.647 48.0388 725.054 48.0388 731.761 48.0388C731.761 40.7595 731.845 33.8107 731.709 26.8662C731.669 24.7922 732.305 23.6023 734.104 22.5533C741.163 18.4379 748.129 14.1629 755.609 9.6582C755.609 22.6101 755.609 35.1449 755.609 47.9657C765.76 47.9657 775.519 47.9657 785.469 47.9657C785.469 53.562 785.469 58.8722 785.469 64.5074C775.768 64.5074 766.017 64.5074 756.179 64.5074C755.971 65.3492 755.712 65.9069 755.714 66.4641C755.753 83.848 755.729 101.233 755.963 118.615C756.003 121.565 756.768 124.662 757.892 127.408C759.985 132.524 764.328 134.658 769.984 134.918Z" fill="#656B69"/>
<path d="M1123.59 64.6737C1117.84 64.6736 1112.39 64.6736 1106.76 64.6736C1106.66 65.6371 1106.52 66.4119 1106.52 67.1868C1106.51 83.3571 1106.43 99.5282 1106.57 115.697C1106.6 119.086 1107.1 122.574 1108.03 125.827C1109.57 131.193 1113.43 134.444 1119.05 134.672C1123.64 134.857 1128.26 134.275 1133.07 134.021C1133.07 139.022 1133.07 144.483 1133.07 150.189C1121.59 151.698 1110.17 153.139 1098.81 149.913C1089.14 147.17 1083.74 140.461 1082.96 130.445C1082.73 127.529 1082.61 124.597 1082.6 121.672C1082.57 103.986 1082.59 86.2998 1082.59 68.6135C1082.59 67.426 1082.59 66.2385 1082.59 64.7532C1075.94 64.7532 1069.61 64.7532 1063.06 64.7532C1063.06 59.078 1063.06 53.7099 1063.06 48.071C1069.48 48.071 1075.81 48.071 1082.59 48.071C1082.59 45.2418 1082.59 42.6632 1082.59 40.0846C1082.59 36.2442 1082.81 32.3862 1082.52 28.5686C1082.26 25.2377 1083.31 23.278 1086.33 21.6231C1093.02 17.9452 1099.47 13.8268 1106.49 9.60938C1106.49 22.6357 1106.49 35.1795 1106.49 48.0231C1116.57 48.0231 1126.32 48.0231 1136.25 48.0231C1136.25 53.6345 1136.25 58.9448 1136.25 64.6738C1132.11 64.6738 1128 64.6738 1123.59 64.6737Z" fill="#656B69"/>
<path d="M573.214 296.67C573.225 270.485 573.235 244.603 573.251 218.722C573.251 218.529 573.335 218.337 573.432 217.921C578.061 217.921 582.744 217.921 587.783 217.921C587.783 219.014 587.782 220.091 587.784 221.169C587.817 250.083 587.808 278.997 587.946 307.91C587.961 311.104 588.552 314.359 589.328 317.473C591.58 326.515 597.303 332.39 606.64 333.304C612.251 333.854 618.264 333.601 623.68 332.153C633.77 329.455 637.207 321.17 638.178 311.603C638.433 309.094 638.495 306.557 638.497 304.033C638.519 276.534 638.511 249.034 638.511 221.535C638.511 220.345 638.511 219.155 638.511 217.832C643.462 217.832 648.083 217.832 653.145 217.832C653.145 218.964 653.145 220.032 653.145 221.099C653.145 247.385 653.258 273.672 653.067 299.957C653.019 306.691 652.687 313.561 651.301 320.118C648.594 332.927 640.399 340.921 627.621 344.122C618.859 346.318 609.989 346.697 601.175 344.943C586.468 342.016 577.154 332.508 574.656 317.48C573.538 310.75 573.657 303.815 573.214 296.67Z" fill="#EE3027"/>
<path d="M688.948 331.604C697.812 333.681 706.511 334.714 715.303 333.031C727.278 330.74 734.414 322.38 733.985 311.283C733.679 303.366 729.766 297.384 723.243 293.338C715.188 288.341 706.735 283.988 698.65 279.037C693.083 275.627 687.383 272.193 682.555 267.863C669.691 256.328 670.719 227.835 694.386 219.06C704.786 215.204 715.51 214.962 726.338 216.222C730.739 216.735 735.11 217.572 739.449 218.482C740.312 218.663 741.571 219.814 741.612 220.573C741.828 224.591 741.714 228.627 741.714 232.777C736.896 231.492 732.312 230.03 727.625 229.075C720.173 227.556 712.652 226.794 705.112 228.716C693.892 231.577 687.636 241.877 691.15 251.909C692.829 256.705 696.36 260.126 700.535 262.683C707.413 266.894 714.622 270.568 721.479 274.811C727.975 278.831 734.642 282.765 740.453 287.664C754.733 299.704 754.151 332.215 729.602 341.722C718.652 345.962 707.364 346.564 695.918 345.465C689.313 344.832 682.773 343.519 676.115 342.498C676.115 337.3 676.115 332.589 676.115 327.64C680.344 328.943 684.528 330.232 688.948 331.604Z" fill="#EE3027"/>
<path d="M471.649 226.645C476.824 231.584 479.583 237.521 480.595 244.313C481.755 252.1 481.728 259.852 478.898 267.306C474.048 280.076 463.64 285.366 450.998 286.857C444.11 287.67 437.09 287.376 430.13 287.569C428.936 287.602 427.742 287.574 426.228 287.574C426.228 306.487 426.228 325.124 426.228 343.844C421.298 343.844 416.699 343.844 411.977 343.844C411.977 301.807 411.977 259.925 411.977 217.84C413.082 217.788 414.061 217.701 415.04 217.703C425.953 217.725 436.873 217.522 447.775 217.869C456.517 218.147 464.688 220.596 471.649 226.645ZM438.331 275.533C440.754 275.492 443.182 275.531 445.6 275.396C459.299 274.629 466.824 266.644 466.818 252.939C466.813 240.696 461.976 232.963 451.516 231.039C443.385 229.543 434.944 229.729 426.411 229.153C426.411 245.091 426.411 260.171 426.411 275.533C430.293 275.533 434.009 275.533 438.331 275.533Z" fill="#EE3027"/>
<path d="M830.67 57.7625C837.556 48.8809 846.805 45.7708 857.639 45.6719C857.639 53.843 857.639 61.9707 857.639 70.2679C854.566 70.5579 851.45 70.6669 848.4 71.1712C833.651 73.61 825.814 81.8095 825.169 96.9301C824.485 112.974 824.743 129.058 824.593 145.125C824.58 146.415 824.591 147.705 824.591 149.169C816.591 149.169 808.869 149.169 800.987 149.169C800.987 115.54 800.987 82.011 800.987 48.2523C808.687 48.2523 816.406 48.2523 824.376 48.2523C824.376 54.1643 824.376 60.0818 824.376 65.9992C824.556 66.0704 824.736 66.1415 824.915 66.2126C826.787 63.4512 828.66 60.6899 830.67 57.7625Z" fill="#646968"/>
<path d="M1162.42 48.0254C1167.27 48.0254 1171.81 48.0254 1176.62 48.0254C1176.62 81.7546 1176.62 115.338 1176.62 149.133C1169 149.133 1161.37 149.133 1153.47 149.133C1153.47 115.627 1153.47 82.0358 1153.47 48.0254C1156.32 48.0254 1159.22 48.0254 1162.42 48.0254Z" fill="#646A68"/>
<path d="M499.813 319.726C499.813 285.664 499.813 251.906 499.813 217.924C504.641 217.924 509.322 217.924 514.305 217.924C514.305 255.812 514.305 293.671 514.305 331.781C529.417 331.781 544.234 331.781 559.261 331.781C559.261 335.901 559.261 339.773 559.261 343.822C539.581 343.822 519.914 343.822 499.813 343.822C499.813 335.901 499.813 327.965 499.813 319.726Z" fill="#EE2F26"/>
<path d="M1153.21 7.3194C1153.21 5.63551 1153.21 4.24846 1153.21 2.69141C1161.15 2.69141 1168.78 2.69141 1176.64 2.69141C1176.64 10.4051 1176.64 18.0958 1176.64 25.9405C1168.94 25.9405 1161.31 25.9405 1153.22 25.9405C1153.22 19.8288 1153.22 13.7225 1153.21 7.3194Z" fill="#656B69"/>
<path d="M183.245 60.0625C220.513 60.0625 257.483 60.0625 294.75 60.0625C294.75 61.3341 294.75 62.316 294.75 63.298C294.751 100.194 294.728 137.091 294.799 173.987C294.805 176.778 294.154 178.766 292.013 180.808C279.435 192.801 267.054 205.001 254.628 217.153C254.206 217.566 254.013 218.213 253.713 218.751C253.42 218.591 253.128 218.43 252.835 218.269C252.835 179.674 252.835 141.079 252.835 102.197C213.779 102.197 175.114 102.197 135.576 102.197C138.147 99.4997 140.148 97.356 142.196 95.2577C153.065 84.122 164.017 73.0657 174.77 61.819C177.302 59.1707 180.19 60.4484 183.245 60.0625Z" fill="#FFFEFE"/>
<path d="M1370.55 79.476C1374.2 92.878 1373.76 105.883 1368.73 118.596C1367.67 121.266 1366.11 123.882 1364.24 126.054C1357.84 133.472 1347.43 132.519 1342.19 124.211C1339.04 119.205 1337.9 113.538 1337.37 107.801C1336.53 98.5346 1336.23 89.2157 1338.45 80.0869C1339.25 76.8077 1340.5 73.4701 1342.3 70.6343C1347.52 62.3886 1359.27 61.7537 1365.28 69.4401C1367.53 72.3085 1368.79 75.9501 1370.55 79.476Z" fill="#FEFEFE"/>
<path d="M541.911 134.872C534.442 134.14 530.006 129.879 527.854 123.371C526.443 119.105 525.158 114.564 525.1 110.129C524.972 100.177 525.216 90.1712 526.195 80.2749C526.6 76.1809 528.708 71.9352 531.035 68.4156C536.53 60.1051 554.526 59.0201 559.746 72.8797C561.805 78.3442 562.668 84.3905 563.239 90.2534C564.16 99.7097 563.837 109.204 561.814 118.561C561.644 119.348 561.452 120.132 561.224 120.903C558.808 129.089 553.847 135.767 541.911 134.872Z" fill="#FEFEFE"/>
<path d="M898.277 132.559C892.454 126.819 893.007 117.59 899.405 112.45C905.994 107.156 913.936 105.785 922.029 105.005C923.801 104.834 925.603 104.98 927.737 104.98C927.472 114.44 925.853 123.22 919.036 130.107C913.489 135.71 904.943 136.625 898.277 132.559Z" fill="#FDFDFD"/>
<path d="M438.027 275.535C434.008 275.535 430.292 275.535 426.411 275.535C426.411 260.172 426.411 245.092 426.411 229.154C434.943 229.731 443.384 229.545 451.516 231.041C461.975 232.964 466.813 240.697 466.818 252.94C466.824 266.646 459.298 274.631 445.6 275.398C443.182 275.533 440.754 275.493 438.027 275.535Z" fill="#FFFEFE"/>
</g>
<defs>
<clipPath id="clip0_5012_15478">
<rect width="1433" height="358.553" fill="white"/>
</clipPath>
</defs>
</svg>
