<svg width="142" height="33" viewBox="0 0 142 33" fill="none" xmlns="http://www.w3.org/2000/svg">
<g clip-path="url(#clip0_1461_2752)">
<path d="M17.504 21.1529H11.3641L8.47656 16.2097L11.3337 10.7346L17.2304 10.5156L20.3004 15.8031L17.504 21.1529ZM11.4553 20.9653H17.3824L20.118 15.7718L17.1392 10.6721L11.4553 10.8911L8.68931 16.1785L11.4553 20.9653Z" fill="#EF4129"/>
<path d="M11.4992 10.75L11.3438 10.8482L14.3477 15.8885L14.5031 15.7903L11.4992 10.75Z" fill="#EF4129"/>
<path d="M17.1169 10.5625L14.3203 15.7995L14.4801 15.89L17.2767 10.6529L17.1169 10.5625Z" fill="#EF4129"/>
<path d="M14.4846 15.7969L14.3281 15.8933L17.3741 21.1272L17.5305 21.0308L14.4846 15.7969Z" fill="#EF4129"/>
<path d="M20.2118 15.6953L14.4062 15.7479L14.4078 15.9356L20.2134 15.8831L20.2118 15.6953Z" fill="#EF4129"/>
<path d="M14.3387 15.7891L11.3438 21.0173L11.5009 21.1127L14.4958 15.8845L14.3387 15.7891Z" fill="#EF4129"/>
<path d="M14.3958 15.7578L8.57031 16.1215L8.58132 16.3089L14.4068 15.9451L14.3958 15.7578Z" fill="#EF4129"/>
<path d="M14.3318 5.94531L11.3281 10.7644L11.4816 10.8658L14.4853 6.04668L14.3318 5.94531Z" fill="#EF4129"/>
<path d="M14.4142 5.89062L14.3906 6.07678L20.2083 6.85451L20.2318 6.66835L14.4142 5.89062Z" fill="#EF4129"/>
<path d="M20.1558 6.69531L17.125 10.5298L17.2664 10.6483L20.2973 6.81378L20.1558 6.69531Z" fill="#EF4129"/>
<path d="M14.4827 5.94531L14.3281 6.04484L17.1322 10.6607L17.2869 10.5611L14.4827 5.94531Z" fill="#EF4129"/>
<path d="M22.5572 4.66406L22.3984 4.75644L24.9861 9.46802L25.1449 9.37566L22.5572 4.66406Z" fill="#EF4129"/>
<path d="M17.2122 10.5156L17.1875 10.7016L22.0663 11.3878L22.091 11.2018L17.2122 10.5156Z" fill="#EF4129"/>
<path d="M17.4364 2.80469L14.3594 5.91988L14.4873 6.05371L17.5643 2.93852L17.4364 2.80469Z" fill="#EF4129"/>
<path d="M17.5219 2.78906L17.4609 2.96598L22.4743 4.79521L22.5352 4.61829L17.5219 2.78906Z" fill="#EF4129"/>
<path d="M22.4185 4.64062L20.1641 6.692L20.2848 6.83263L22.5392 4.78126L22.4185 4.64062Z" fill="#EF4129"/>
<path d="M20.2572 6.69531L20.1719 6.86118L25.0331 9.51254L25.1184 9.34666L20.2572 6.69531Z" fill="#EF4129"/>
<path d="M25.0259 9.35938L22.0391 11.2285L22.1338 11.389L25.1206 9.51981L25.0259 9.35938Z" fill="#EF4129"/>
<path d="M17.5382 2.83594L17.3906 2.94628L20.1421 6.84411L20.2896 6.73377L17.5382 2.83594Z" fill="#EF4129"/>
<path d="M22.4847 4.61719L22.4688 4.80418L24.6487 5.00178L24.6647 4.8148L22.4847 4.61719Z" fill="#EF4129"/>
<path d="M19.5928 1.82812L19.4688 1.96576L22.4328 4.7953L22.5568 4.65766L19.5928 1.82812Z" fill="#EF4129"/>
<path d="M22.5295 4.64062L22.4219 4.79218L27.5504 8.65139L27.6581 8.49985L22.5295 4.64062Z" fill="#EF4129"/>
<path d="M20.3084 6.73438L20.1406 6.80785L22.0084 11.3278L22.1763 11.2544L20.3084 6.73438Z" fill="#EF4129"/>
<path d="M22.1554 11.2188L22.0156 11.3394L25.0622 15.0789L25.2019 14.9583L22.1554 11.2188Z" fill="#EF4129"/>
<path d="M27.6599 13.625L25.1016 14.9346L25.1828 15.1027L27.7411 13.7931L27.6599 13.625Z" fill="#EF4129"/>
<path d="M25.1668 9.42188L24.9844 9.42386L25.0411 15.0235L25.2234 15.0215L25.1668 9.42188Z" fill="#EF4129"/>
<path d="M25.1545 9.36719L25 9.46699L27.6172 13.7604L27.7716 13.6606L25.1545 9.36719Z" fill="#EF4129"/>
<path d="M27.5989 8.46875L25.0547 9.31843L25.111 9.49694L27.6552 8.64731L27.5989 8.46875Z" fill="#EF4129"/>
<path d="M27.7136 8.58594L27.5312 8.58876L27.606 13.7192L27.7884 13.7164L27.7136 8.58594Z" fill="#EF4129"/>
<path d="M29.2417 13.0547L27.5234 13.6834L27.5844 13.8602L29.3028 13.2316L29.2417 13.0547Z" fill="#EF4129"/>
<path d="M21.9939 11.25L20.1328 15.7387L20.3006 15.8124L22.1616 11.3237L21.9939 11.25Z" fill="#EF4129"/>
<path d="M25.1255 14.9297L20.2266 15.6921L20.2538 15.8777L25.1528 15.1153L25.1255 14.9297Z" fill="#EF4129"/>
<path d="M20.3156 15.75L20.1562 15.8412L22.8585 20.8458L23.0178 20.7546L20.3156 15.75Z" fill="#EF4129"/>
<path d="M25.0621 14.9609L22.8516 20.7226L23.0212 20.7915L25.2317 15.0299L25.0621 14.9609Z" fill="#EF4129"/>
<path d="M22.9088 20.6641L17.4453 20.961L17.4549 21.1484L22.9184 20.8516L22.9088 20.6641Z" fill="#EF4129"/>
<path d="M25.2123 14.9844L25.0469 15.0633L27.1798 19.8043L27.3453 19.7254L25.2123 14.9844Z" fill="#EF4129"/>
<path d="M27.2645 19.6875L22.9062 20.7025L22.9465 20.8856L27.3047 19.8706L27.2645 19.6875Z" fill="#EF4129"/>
<path d="M27.6138 13.7031L27.1875 19.7569L27.3694 19.7705L27.7957 13.7167L27.6138 13.7031Z" fill="#EF4129"/>
<path d="M27.781 13.8516L27.6094 13.915L29.2957 18.7433L29.4674 18.6798L27.781 13.8516Z" fill="#EF4129"/>
<path d="M29.3358 18.6484L27.2266 19.6928L27.3056 19.8619L29.4149 18.8176L29.3358 18.6484Z" fill="#EF4129"/>
<path d="M27.352 19.7656L27.1719 19.7949L27.7263 23.4107L27.9064 23.3815L27.352 19.7656Z" fill="#EF4129"/>
<path d="M23.0152 20.75L22.8438 20.8138L24.2815 24.903L24.453 24.8392L23.0152 20.75Z" fill="#EF4129"/>
<path d="M27.1999 19.7031L24.2891 24.8008L24.4463 24.8959L27.3572 19.7983L27.1999 19.7031Z" fill="#EF4129"/>
<path d="M24.4692 24.8438L24.2891 24.8733L24.6723 27.3449L24.8524 27.3154L24.4692 24.8438Z" fill="#EF4129"/>
<path d="M27.7867 23.3047L24.3359 24.7855L24.4061 24.9587L27.8569 23.4779L27.7867 23.3047Z" fill="#EF4129"/>
<path d="M24.3169 24.7812L20 28.4902L20.1169 28.6343L24.4338 24.9253L24.3169 24.7812Z" fill="#EF4129"/>
<path d="M24.3668 24.7578L19.4453 25.5747L19.4744 25.76L24.3959 24.9432L24.3668 24.7578Z" fill="#EF4129"/>
<path d="M22.8529 20.7109L19.375 25.6127L19.5223 25.7234L23.0002 20.8217L22.8529 20.7109Z" fill="#EF4129"/>
<path d="M17.5338 21.0312L17.3672 21.1075L19.357 25.7095L19.5236 25.6331L17.5338 21.0312Z" fill="#EF4129"/>
<path d="M17.371 21.0156L14.5234 25.035L14.6708 25.1456L17.5184 21.1262L17.371 21.0156Z" fill="#EF4129"/>
<path d="M19.5457 25.6406L19.3672 25.6794L19.9623 28.5877L20.1408 28.5489L19.5457 25.6406Z" fill="#EF4129"/>
<path d="M24.7267 27.2266L20.0156 28.468L20.0608 28.6499L24.7719 27.4084L24.7267 27.2266Z" fill="#EF4129"/>
<path d="M20.1347 28.5625L19.9531 28.5804L20.1041 30.1999L20.2856 30.1819L20.1347 28.5625Z" fill="#EF4129"/>
<path d="M19.9915 28.5L15.1172 31.0578L15.2 31.2251L20.0743 28.6673L19.9915 28.5Z" fill="#EF4129"/>
<path d="M20.0282 28.4609L14.9531 28.563L14.9567 28.7507L20.0317 28.6486L20.0282 28.4609Z" fill="#EF4129"/>
<path d="M11.477 21L11.3359 21.119L14.5339 25.1362L14.675 25.0172L11.477 21Z" fill="#EF4129"/>
<path d="M14.6227 25.0078L14.6016 25.1943L19.4317 25.7769L19.4529 25.5905L14.6227 25.0078Z" fill="#EF4129"/>
<path d="M14.6893 25.0625L14.5078 25.0808L14.8481 28.6615L15.0297 28.6432L14.6893 25.0625Z" fill="#EF4129"/>
<path d="M14.5865 24.9766L9.89844 25.8926L9.93247 26.077L14.6206 25.161L14.5865 24.9766Z" fill="#EF4129"/>
<path d="M19.391 25.5938L14.8984 28.5832L14.9974 28.7408L19.4901 25.7514L19.391 25.5938Z" fill="#EF4129"/>
<path d="M9.97414 25.9375L9.89062 26.1043L14.9166 28.769L15.0001 28.6021L9.97414 25.9375Z" fill="#EF4129"/>
<path d="M14.9553 28.5859L9.78906 28.6794L9.79226 28.8671L14.9585 28.7736L14.9553 28.5859Z" fill="#EF4129"/>
<path d="M15.0254 28.6562L14.8438 28.6729L15.0573 31.1347L15.239 31.118L15.0254 28.6562Z" fill="#EF4129"/>
<path d="M9.84528 28.6719L9.77344 28.8444L15.1378 31.21L15.2096 31.0374L9.84528 28.6719Z" fill="#EF4129"/>
<path d="M5.74216 27.5703L5.69531 27.7518L9.77832 28.8689L9.82513 28.6875L5.74216 27.5703Z" fill="#EF4129"/>
<path d="M9.8363 26.0156L9.71094 28.7658L9.8931 28.7745L10.0185 26.0244L9.8363 26.0156Z" fill="#EF4129"/>
<path d="M6.24241 20.9609L6.24219 21.1487L11.379 21.1551L11.3792 20.9673L6.24241 20.9609Z" fill="#EF4129"/>
<path d="M8.49663 16.1719L6.17188 21.0269L6.33546 21.1099L8.66023 16.2548L8.49663 16.1719Z" fill="#EF4129"/>
<path d="M6.33243 21.0234L6.1875 21.1373L9.85902 26.0851L10.004 25.9712L6.33243 21.0234Z" fill="#EF4129"/>
<path d="M11.3122 21.0469L9.82812 25.9778L10.0023 26.0334L11.4863 21.1024L11.3122 21.0469Z" fill="#EF4129"/>
<path d="M5.35985 25.2969L5.33594 25.483L9.91631 26.1064L9.94026 25.9203L5.35985 25.2969Z" fill="#EF4129"/>
<path d="M6.16168 21.0547L5.25781 25.3668L5.43609 25.4063L6.33995 21.0943L6.16168 21.0547Z" fill="#EF4129"/>
<path d="M9.87117 28.7188L9.71094 28.8083L10.611 30.5127L10.7712 30.423L9.87117 28.7188Z" fill="#EF4129"/>
<path d="M5.40521 25.3125L5.29688 25.4635L9.74732 28.8458L9.85563 28.6948L5.40521 25.3125Z" fill="#EF4129"/>
<path d="M5.43758 25.3906L5.25781 25.4224L5.63214 27.6735L5.8119 27.6419L5.43758 25.3906Z" fill="#EF4129"/>
<path d="M2.54205 23.6719L2.45312 23.8358L5.29272 25.468L5.38164 25.3041L2.54205 23.6719Z" fill="#EF4129"/>
<path d="M2.4928 20.2109L2.33594 20.3067L5.2824 25.4195L5.43927 25.3238L2.4928 20.2109Z" fill="#EF4129"/>
<path d="M2.43438 20.1953L2.39844 20.3794L6.2426 21.1748L6.27854 20.9908L2.43438 20.1953Z" fill="#EF4129"/>
<path d="M2.50259 20.2812L2.32031 20.2871L2.42642 23.7582L2.6087 23.7523L2.50259 20.2812Z" fill="#EF4129"/>
<path d="M3.97413 15.3516L2.32812 20.2278L2.5004 20.2894L4.1464 15.4132L3.97413 15.3516Z" fill="#EF4129"/>
<path d="M4.15362 15.3672L3.98438 15.4372L6.1934 21.0987L6.36265 21.0288L4.15362 15.3672Z" fill="#EF4129"/>
<path d="M0.936666 19.1641L0.835938 19.3206L2.35637 20.3574L2.4571 20.2009L0.936666 19.1641Z" fill="#EF4129"/>
<path d="M1.77467 14.4688L1.59375 14.4924L2.30667 20.2652L2.48758 20.2415L1.77467 14.4688Z" fill="#EF4129"/>
<path d="M1.60495 14.625L0.804688 19.2135L0.984191 19.2466L1.78445 14.6581L1.60495 14.625Z" fill="#EF4129"/>
<path d="M4.20068 10.0078L1.60156 14.6047L1.75919 14.6992L4.3583 10.1023L4.20068 10.0078Z" fill="#EF4129"/>
<path d="M2.17783 8.96094L1.58594 14.4965L1.76722 14.5171L2.35911 8.98147L2.17783 8.96094Z" fill="#EF4129"/>
<path d="M4.32108 9.96094L4.22656 10.1215L6.722 11.6781L6.81652 11.5176L4.32108 9.96094Z" fill="#EF4129"/>
<path d="M4.19034 10.0312L3.94531 15.4066L4.12748 15.4154L4.37251 10.0401L4.19034 10.0312Z" fill="#EF4129"/>
<path d="M1.7268 14.5703L1.65625 14.7434L4.12267 15.8086L4.19323 15.6356L1.7268 14.5703Z" fill="#EF4129"/>
<path d="M0.80725 13.3438L0.671875 13.4695L1.62916 14.561L1.76454 14.4352L0.80725 13.3438Z" fill="#EF4129"/>
<path d="M6.58278 5.6875L6.48438 5.84554L8.35243 7.07793L8.45087 6.91989L6.58278 5.6875Z" fill="#EF4129"/>
<path d="M11.3829 10.7188L6.76562 11.5094L6.79555 11.6946L11.4128 10.9039L11.3829 10.7188Z" fill="#EF4129"/>
<path d="M6.87229 11.5781L6.70312 11.6483L8.50865 16.2626L8.67787 16.1925L6.87229 11.5781Z" fill="#EF4129"/>
<path d="M6.71754 11.5391L3.98438 15.3345L4.13089 15.4463L6.86405 11.6509L6.71754 11.5391Z" fill="#EF4129"/>
<path d="M4.19112 15.6094L4.17188 15.796L8.58472 16.2779L8.60396 16.0913L4.19112 15.6094Z" fill="#EF4129"/>
<path d="M11.6474 2.95312L8.35156 6.92712L8.49026 7.049L11.7862 3.07501L11.6474 2.95312Z" fill="#EF4129"/>
<path d="M8.47749 6.94531L8.33594 7.06366L11.3256 10.8521L11.4671 10.7337L8.47749 6.94531Z" fill="#EF4129"/>
<path d="M8.32857 6.98438L6.70312 11.5692L6.87445 11.6336L8.49985 7.04872L8.32857 6.98438Z" fill="#EF4129"/>
<path d="M8.37834 6.91406L4.25 9.95437L4.35612 10.107L8.48449 7.06673L8.37834 6.91406Z" fill="#EF4129"/>
<path d="M11.7577 2.97656L11.625 3.10535L14.336 6.06426L14.4687 5.93546L11.7577 2.97656Z" fill="#EF4129"/>
<path d="M9.96793 2.08594L9.89062 2.25595L11.68 3.118L11.7573 2.94798L9.96793 2.08594Z" fill="#EF4129"/>
<path d="M11.6762 2.96094L6.51562 5.6984L6.59916 5.86525L11.7597 3.12779L11.6762 2.96094Z" fill="#EF4129"/>
<path d="M19.5226 1.79688L17.4609 2.79835L17.5387 2.96811L19.6005 1.96664L19.5226 1.79688Z" fill="#EF4129"/>
<path d="M14.4384 1.09375L14.3516 1.25879L17.4248 2.97285L17.5117 2.8078L14.4384 1.09375Z" fill="#EF4129"/>
<path d="M17.4765 2.78906L11.7031 2.94574L11.7079 3.13341L17.4813 2.97672L17.4765 2.78906Z" fill="#EF4129"/>
<path d="M14.3521 1.08594L11.6562 2.95861L11.7583 3.1142L14.4541 1.24154L14.3521 1.08594Z" fill="#EF4129"/>
<path d="M9.85798 2.11719L6.47656 5.71487L6.60764 5.84539L9.98905 2.24771L9.85798 2.11719Z" fill="#EF4129"/>
<path d="M6.4601 5.71875L4.21094 9.97991L4.37119 10.0695L6.62036 5.80837L6.4601 5.71875Z" fill="#EF4129"/>
<path d="M6.49939 5.6875L2.24219 8.86466L2.34924 9.01663L6.60644 5.83947L6.49939 5.6875Z" fill="#EF4129"/>
<path d="M2.32712 8.86719L2.24219 9.03329L4.25945 10.126L4.34438 9.95997L2.32712 8.86719Z" fill="#EF4129"/>
<path d="M5.40305 4.89062L5.30469 5.0487L6.50769 5.84186L6.60606 5.68378L5.40305 4.89062Z" fill="#EF4129"/>
<path d="M14.3738 5.89062L8.375 6.90431L8.40451 7.08954L14.4034 6.07587L14.3738 5.89062Z" fill="#EF4129"/>
<path d="M15.042 31.199C6.98728 31.199 0.421875 24.4412 0.421875 16.1503C0.421875 7.85941 6.98728 1.10156 15.042 1.10156C23.0968 1.10156 29.6622 7.85941 29.6622 16.1503C29.6927 24.4412 23.1272 31.199 15.042 31.199ZM15.042 1.22671C7.07846 1.22671 0.573852 7.92198 0.573852 16.1503C0.573852 24.3785 7.07846 31.0426 15.042 31.0426C23.0056 31.0426 29.5102 24.3473 29.5102 16.1503C29.5407 7.92198 23.036 1.22671 15.042 1.22671Z" fill="#EF4129"/>
<path d="M9.84835 2.69691C10.2177 2.69691 10.5171 2.38874 10.5171 2.00861C10.5171 1.62847 10.2177 1.32031 9.84835 1.32031C9.47906 1.32031 9.17969 1.62847 9.17969 2.00861C9.17969 2.38874 9.47906 2.69691 9.84835 2.69691Z" fill="#EF4129"/>
<path d="M11.6999 3.72816C12.0693 3.72816 12.3687 3.42 12.3687 3.03987C12.3687 2.65973 12.0693 2.35156 11.6999 2.35156C11.3306 2.35156 11.0312 2.65973 11.0312 3.03987C11.0312 3.42 11.3306 3.72816 11.6999 3.72816Z" fill="#EF4129"/>
<path d="M14.4108 1.85316C14.7802 1.85316 15.0796 1.545 15.0796 1.16487C15.0796 0.784728 14.7802 0.476562 14.4108 0.476562C14.0416 0.476562 13.7422 0.784728 13.7422 1.16487C13.7422 1.545 14.0416 1.85316 14.4108 1.85316Z" fill="#EF4129"/>
<path d="M8.38744 7.73597C8.75677 7.73597 9.05615 7.4278 9.05615 7.04767C9.05615 6.66753 8.75677 6.35938 8.38744 6.35938C8.01813 6.35938 7.71875 6.66753 7.71875 7.04767C7.71875 7.4278 8.01813 7.73597 8.38744 7.73597Z" fill="#EF4129"/>
<path d="M6.59838 6.42347C6.9677 6.42347 7.26708 6.11531 7.26708 5.73518C7.26708 5.35503 6.9677 5.04688 6.59838 5.04688C6.22907 5.04688 5.92969 5.35503 5.92969 5.73518C5.92969 6.11531 6.22907 6.42347 6.59838 6.42347Z" fill="#EF4129"/>
<path d="M5.41089 5.57973C5.7802 5.57973 6.07958 5.27156 6.07958 4.89143C6.07958 4.51128 5.7802 4.20312 5.41089 4.20312C5.04158 4.20312 4.74219 4.51128 4.74219 4.89143C4.74219 5.27156 5.04158 5.57973 5.41089 5.57973Z" fill="#EF4129"/>
<path d="M14.4108 6.67349C14.7802 6.67349 15.0796 6.36532 15.0796 5.98519C15.0796 5.60504 14.7802 5.29688 14.4108 5.29688C14.0416 5.29688 13.7422 5.60504 13.7422 5.98519C13.7422 6.36532 14.0416 6.67349 14.4108 6.67349Z" fill="#EF4129"/>
<path d="M17.4812 3.57191C17.8505 3.57191 18.1499 3.26376 18.1499 2.88362C18.1499 2.50348 17.8505 2.19531 17.4812 2.19531C17.1119 2.19531 16.8125 2.50348 16.8125 2.88362C16.8125 3.26376 17.1119 3.57191 17.4812 3.57191Z" fill="#EF4129"/>
<path d="M19.4812 2.54065C19.8505 2.54065 20.1499 2.23249 20.1499 1.85236C20.1499 1.47222 19.8505 1.16406 19.4812 1.16406C19.1119 1.16406 18.8125 1.47222 18.8125 1.85236C18.8125 2.23249 19.1119 2.54065 19.4812 2.54065Z" fill="#EF4129"/>
<path d="M20.1531 7.54847C20.5224 7.54847 20.8218 7.24031 20.8218 6.86017C20.8218 6.48004 20.5224 6.17188 20.1531 6.17188C19.7838 6.17188 19.4844 6.48004 19.4844 6.86017C19.4844 7.24031 19.7838 7.54847 20.1531 7.54847Z" fill="#EF4129"/>
<path d="M24.5593 5.57973C24.9286 5.57973 25.2279 5.27156 25.2279 4.89143C25.2279 4.51128 24.9286 4.20312 24.5593 4.20312C24.19 4.20312 23.8906 4.51128 23.8906 4.89143C23.8906 5.27156 24.19 5.57973 24.5593 5.57973Z" fill="#EF4129"/>
<path d="M27.5672 9.20475C27.9365 9.20475 28.2358 8.89656 28.2358 8.51643C28.2358 8.13628 27.9365 7.82812 27.5672 7.82812C27.1978 7.82812 26.8984 8.13628 26.8984 8.51643C26.8984 8.89656 27.1978 9.20475 27.5672 9.20475Z" fill="#EF4129"/>
<path d="M29.2703 13.8375C29.6396 13.8375 29.939 13.5294 29.939 13.1493C29.939 12.7691 29.6396 12.4609 29.2703 12.4609C28.9009 12.4609 28.6016 12.7691 28.6016 13.1493C28.6016 13.5294 28.9009 13.8375 29.2703 13.8375Z" fill="#EF4129"/>
<path d="M27.5672 14.4625C27.9365 14.4625 28.2358 14.1544 28.2358 13.7743C28.2358 13.3941 27.9365 13.0859 27.5672 13.0859C27.1978 13.0859 26.8984 13.3941 26.8984 13.7743C26.8984 14.1544 27.1978 14.4625 27.5672 14.4625Z" fill="#EF4129"/>
<path d="M25.1062 15.8063C25.4754 15.8063 25.7748 15.4981 25.7748 15.118C25.7748 14.7378 25.4754 14.4297 25.1062 14.4297C24.7369 14.4297 24.4375 14.7378 24.4375 15.118C24.4375 15.4981 24.7369 15.8063 25.1062 15.8063Z" fill="#EF4129"/>
<path d="M29.4266 19.4079C29.7958 19.4079 30.0952 19.0997 30.0952 18.7196C30.0952 18.3395 29.7958 18.0312 29.4266 18.0312C29.0572 18.0312 28.7578 18.3395 28.7578 18.7196C28.7578 19.0997 29.0572 19.4079 29.4266 19.4079Z" fill="#EF4129"/>
<path d="M27.2624 20.4391C27.6318 20.4391 27.9312 20.131 27.9312 19.7508C27.9312 19.3707 27.6318 19.0625 27.2624 19.0625C26.8931 19.0625 26.5938 19.3707 26.5938 19.7508C26.5938 20.131 26.8931 20.4391 27.2624 20.4391Z" fill="#EF4129"/>
<path d="M22.9187 21.4704C23.288 21.4704 23.5874 21.1622 23.5874 20.7821C23.5874 20.4019 23.288 20.0938 22.9187 20.0938C22.5494 20.0938 22.25 20.4019 22.25 20.7821C22.25 21.1622 22.5494 21.4704 22.9187 21.4704Z" fill="#EF4129"/>
<path d="M20.1843 16.4625C20.5537 16.4625 20.853 16.1544 20.853 15.7742C20.853 15.3941 20.5537 15.0859 20.1843 15.0859C19.815 15.0859 19.5156 15.3941 19.5156 15.7742C19.5156 16.1544 19.815 16.4625 20.1843 16.4625Z" fill="#EF4129"/>
<path d="M17.45 21.7516C17.8193 21.7516 18.1187 21.4435 18.1187 21.0633C18.1187 20.6832 17.8193 20.375 17.45 20.375C17.0806 20.375 16.7812 20.6832 16.7812 21.0633C16.7812 21.4435 17.0806 21.7516 17.45 21.7516Z" fill="#EF4129"/>
<path d="M14.4108 16.4938C14.7802 16.4938 15.0796 16.1856 15.0796 15.8054C15.0796 15.4253 14.7802 15.1172 14.4108 15.1172C14.0416 15.1172 13.7422 15.4253 13.7422 15.8054C13.7422 16.1856 14.0416 16.4938 14.4108 16.4938Z" fill="#EF4129"/>
<path d="M27.8406 24.0641C28.2099 24.0641 28.5093 23.756 28.5093 23.3758C28.5093 22.9957 28.2099 22.6875 27.8406 22.6875C27.4713 22.6875 27.1719 22.9957 27.1719 23.3758C27.1719 23.756 27.4713 24.0641 27.8406 24.0641Z" fill="#EF4129"/>
<path d="M24.3484 25.5407C24.7177 25.5407 25.0171 25.2324 25.0171 24.8523C25.0171 24.4722 24.7177 24.1641 24.3484 24.1641C23.9791 24.1641 23.6797 24.4722 23.6797 24.8523C23.6797 25.2324 23.9791 25.5407 24.3484 25.5407Z" fill="#EF4129"/>
<path d="M24.8328 27.9782C25.2021 27.9782 25.5015 27.67 25.5015 27.2899C25.5015 26.9097 25.2021 26.6016 24.8328 26.6016C24.4634 26.6016 24.1641 26.9097 24.1641 27.2899C24.1641 27.67 24.4634 27.9782 24.8328 27.9782Z" fill="#EF4129"/>
<path d="M20.1843 30.8844C20.5537 30.8844 20.853 30.5763 20.853 30.1961C20.853 29.816 20.5537 29.5078 20.1843 29.5078C19.815 29.5078 19.5156 29.816 19.5156 30.1961C19.5156 30.5763 19.815 30.8844 20.1843 30.8844Z" fill="#EF4129"/>
<path d="M15.1999 31.8297C15.5693 31.8297 15.8687 31.5216 15.8687 31.1415C15.8687 30.7613 15.5693 30.4531 15.1999 30.4531C14.8306 30.4531 14.5312 30.7613 14.5312 31.1415C14.5312 31.5216 14.8306 31.8297 15.1999 31.8297Z" fill="#EF4129"/>
<path d="M14.9578 29.3532C15.3271 29.3532 15.6265 29.045 15.6265 28.6648C15.6265 28.2847 15.3271 27.9766 14.9578 27.9766C14.5884 27.9766 14.2891 28.2847 14.2891 28.6648C14.2891 29.045 14.5884 29.3532 14.9578 29.3532Z" fill="#EF4129"/>
<path d="M14.6219 25.7907C14.9912 25.7907 15.2905 25.4825 15.2905 25.1024C15.2905 24.7223 14.9912 24.4141 14.6219 24.4141C14.2526 24.4141 13.9531 24.7223 13.9531 25.1024C13.9531 25.4825 14.2526 25.7907 14.6219 25.7907Z" fill="#EF4129"/>
<path d="M11.3953 21.7516C11.7646 21.7516 12.064 21.4435 12.064 21.0633C12.064 20.6832 11.7646 20.375 11.3953 20.375C11.0259 20.375 10.7266 20.6832 10.7266 21.0633C10.7266 21.4435 11.0259 21.7516 11.3953 21.7516Z" fill="#EF4129"/>
<path d="M8.59842 16.8688C8.9677 16.8688 9.26708 16.5606 9.26708 16.1805C9.26708 15.8003 8.9677 15.4922 8.59842 15.4922C8.22907 15.4922 7.92969 15.8003 7.92969 16.1805C7.92969 16.5606 8.22907 16.8688 8.59842 16.8688Z" fill="#EF4129"/>
<path d="M6.26245 21.7516C6.63176 21.7516 6.93115 21.4435 6.93115 21.0633C6.93115 20.6832 6.63176 20.375 6.26245 20.375C5.89313 20.375 5.59375 20.6832 5.59375 21.0633C5.59375 21.4435 5.89313 21.7516 6.26245 21.7516Z" fill="#EF4129"/>
<path d="M10.6687 31.1032C11.0379 31.1032 11.3374 30.795 11.3374 30.4148C11.3374 30.0347 11.0379 29.7266 10.6687 29.7266C10.2994 29.7266 10 30.0347 10 30.4148C10 30.795 10.2994 31.1032 10.6687 31.1032Z" fill="#EF4129"/>
<path d="M9.66085 29.3532C10.0301 29.3532 10.3296 29.045 10.3296 28.6648C10.3296 28.2847 10.0301 27.9766 9.66085 27.9766C9.29156 27.9766 8.99219 28.2847 8.99219 28.6648C8.99219 29.045 9.29156 29.3532 9.66085 29.3532Z" fill="#EF4129"/>
<path d="M9.91093 26.6969C10.2802 26.6969 10.5796 26.3888 10.5796 26.0086C10.5796 25.6285 10.2802 25.3203 9.91093 25.3203C9.54156 25.3203 9.24219 25.6285 9.24219 26.0086C9.24219 26.3888 9.54156 26.6969 9.91093 26.6969Z" fill="#EF4129"/>
<path d="M5.71558 28.3219C6.08489 28.3219 6.38427 28.0138 6.38427 27.6336C6.38427 27.2535 6.08489 26.9453 5.71558 26.9453C5.34627 26.9453 5.04688 27.2535 5.04688 27.6336C5.04688 28.0138 5.34627 28.3219 5.71558 28.3219Z" fill="#EF4129"/>
<path d="M5.34839 26.0719C5.7177 26.0719 6.01709 25.7638 6.01709 25.3837C6.01709 25.0035 5.7177 24.6953 5.34839 24.6953C4.97907 24.6953 4.67969 25.0035 4.67969 25.3837C4.67969 25.7638 4.97907 26.0719 5.34839 26.0719Z" fill="#EF4129"/>
<path d="M2.45776 24.4079C2.82707 24.4079 3.12646 24.0997 3.12646 23.7196C3.12646 23.3394 2.82707 23.0312 2.45776 23.0312C2.08845 23.0312 1.78906 23.3394 1.78906 23.7196C1.78906 24.0997 2.08845 24.4079 2.45776 24.4079Z" fill="#EF4129"/>
<path d="M2.45776 21.0016C2.82707 21.0016 3.12646 20.6935 3.12646 20.3133C3.12646 19.9332 2.82707 19.625 2.45776 19.625C2.08845 19.625 1.78906 19.9332 1.78906 20.3133C1.78906 20.6935 2.08845 21.0016 2.45776 21.0016Z" fill="#EF4129"/>
<path d="M0.817137 19.8766C1.18645 19.8766 1.48583 19.5685 1.48583 19.1883C1.48583 18.8082 1.18645 18.5 0.817137 18.5C0.447826 18.5 0.148438 18.8082 0.148438 19.1883C0.148438 19.5685 0.447826 19.8766 0.817137 19.8766Z" fill="#EF4129"/>
<path d="M4.10619 16.2125C4.4755 16.2125 4.7749 15.9044 4.7749 15.5242C4.7749 15.1441 4.4755 14.8359 4.10619 14.8359C3.73688 14.8359 3.4375 15.1441 3.4375 15.5242C3.4375 15.9044 3.73688 16.2125 4.10619 16.2125Z" fill="#EF4129"/>
<path d="M1.69995 15.3375C2.06926 15.3375 2.36865 15.0294 2.36865 14.6493C2.36865 14.2692 2.06926 13.9609 1.69995 13.9609C1.33063 13.9609 1.03125 14.2692 1.03125 14.6493C1.03125 15.0294 1.33063 15.3375 1.69995 15.3375Z" fill="#EF4129"/>
<path d="M4.41088 10.7985C4.78019 10.7985 5.07958 10.4903 5.07958 10.1102C5.07958 9.73011 4.78019 9.42188 4.41088 9.42188C4.04157 9.42188 3.74219 9.73011 3.74219 10.1102C3.74219 10.4903 4.04157 10.7985 4.41088 10.7985Z" fill="#EF4129"/>
<path d="M6.77808 12.2047C7.14739 12.2047 7.44677 11.8966 7.44677 11.5164C7.44677 11.1363 7.14739 10.8281 6.77808 10.8281C6.40877 10.8281 6.10938 11.1363 6.10938 11.5164C6.10938 11.8966 6.40877 12.2047 6.77808 12.2047Z" fill="#EF4129"/>
<path d="M11.4265 11.5485C11.7958 11.5485 12.0952 11.2403 12.0952 10.8602C12.0952 10.48 11.7958 10.1719 11.4265 10.1719C11.0572 10.1719 10.7578 10.48 10.7578 10.8602C10.7578 11.2403 11.0572 11.5485 11.4265 11.5485Z" fill="#EF4129"/>
<path d="M2.18433 9.70475C2.55364 9.70475 2.85302 9.3966 2.85302 9.01643C2.85302 8.63628 2.55364 8.32812 2.18433 8.32812C1.81502 8.32812 1.51562 8.63628 1.51562 9.01643C1.51562 9.3966 1.81502 9.70475 2.18433 9.70475Z" fill="#EF4129"/>
<path d="M0.6687 13.9938C1.03801 13.9938 1.3374 13.6856 1.3374 13.3054C1.3374 12.9253 1.03801 12.6172 0.6687 12.6172C0.299388 12.6172 0 12.9253 0 13.3054C0 13.6856 0.299388 13.9938 0.6687 13.9938Z" fill="#EF4129"/>
<path d="M19.9969 29.0719C20.3662 29.0719 20.6655 28.7638 20.6655 28.3836C20.6655 28.0035 20.3662 27.6953 19.9969 27.6953C19.6275 27.6953 19.3281 28.0035 19.3281 28.3836C19.3281 28.7638 19.6275 29.0719 19.9969 29.0719Z" fill="#EF4129"/>
<path d="M19.4187 26.3766C19.788 26.3766 20.0874 26.0685 20.0874 25.6883C20.0874 25.3082 19.788 25 19.4187 25C19.0494 25 18.75 25.3082 18.75 25.6883C18.75 26.0685 19.0494 26.3766 19.4187 26.3766Z" fill="#EF4129"/>
<path d="M25.0124 10.1422C25.3818 10.1422 25.6812 9.83404 25.6812 9.45394C25.6812 9.07378 25.3818 8.76562 25.0124 8.76562C24.6431 8.76562 24.3438 9.07378 24.3438 9.45394C24.3438 9.83404 24.6431 10.1422 25.0124 10.1422Z" fill="#EF4129"/>
<path d="M22.0984 11.9625C22.4677 11.9625 22.7671 11.6544 22.7671 11.2743C22.7671 10.8941 22.4677 10.5859 22.0984 10.5859C21.7291 10.5859 21.4297 10.8941 21.4297 11.2743C21.4297 11.6544 21.7291 11.9625 22.0984 11.9625Z" fill="#EF4129"/>
<path d="M17.1765 11.2985C17.5458 11.2985 17.8452 10.9903 17.8452 10.6101C17.8452 10.23 17.5458 9.92188 17.1765 9.92188C16.8072 9.92188 16.5078 10.23 16.5078 10.6101C16.5078 10.9903 16.8072 11.2985 17.1765 11.2985Z" fill="#EF4129"/>
<path d="M35.2266 15.7251C35.2266 11.126 39.1779 10.25 41.2448 10.25C44.102 10.25 46.9288 11.8456 47.02 15.4747C47.02 16.2882 46.9592 16.7888 46.9592 16.7888H38.2357C38.418 18.5095 40.6673 18.6973 41.2448 18.6973C42.9166 18.6973 43.7372 18.009 44.102 17.4771L46.412 18.7598C45.9561 19.5107 44.4667 21.2001 41.2448 21.2001C39.1172 21.2314 35.2266 20.3241 35.2266 15.7251ZM38.3269 14.7865H43.8588C43.8588 13.8166 42.7342 12.7841 41.2448 12.7841C39.5123 12.7528 38.4485 13.6915 38.3269 14.7865Z" fill="#374EA2"/>
<path d="M49.4531 6.49219H52.4623V17.2859C52.4623 17.8491 52.3407 18.6939 53.7388 18.6V21.0716C53.5868 21.1029 53.3437 21.1029 53.0093 21.1029C50.8817 21.1029 49.4835 20.6962 49.4835 18.4749V6.49219H49.4531Z" fill="#374EA2"/>
<path d="M64.2574 19.9176C63.8015 20.512 62.4641 21.2003 60.9139 21.2003C57.6009 21.2003 55.3516 19.1041 55.3516 15.6939C55.3516 12.2837 57.6009 10.1875 60.9139 10.1875C62.5249 10.1875 63.7103 10.8132 64.2574 11.5016L67.2362 10.4065V20.95H64.4398L64.2574 19.9176ZM61.3091 12.7217C59.6069 12.7217 58.2695 13.6603 58.2695 15.6939C58.2695 17.6963 59.6374 18.6661 61.3091 18.6661C63.1936 18.6661 64.3487 17.5398 64.3487 15.6939C64.3487 13.9419 63.1936 12.7217 61.3091 12.7217Z" fill="#374EA2"/>
<path d="M69.5781 19.5733L71.1283 17.571C72.0098 18.1341 73.3776 18.6973 74.7149 18.6973C75.6268 18.6973 76.2955 18.4782 76.2955 17.7587C76.2955 16.8513 74.7453 16.9765 74.1678 16.8826C72.6481 16.6324 69.7909 16.4134 69.7909 13.5663C69.7909 10.2812 73.2863 10.25 74.3502 10.25C76.1131 10.25 77.5113 10.7193 78.9399 11.7517L77.3897 13.6915C76.5691 13.2222 75.5052 12.7216 74.259 12.7216C73.6511 12.7216 72.8 12.7841 72.8 13.5037C72.8 14.411 74.3198 14.411 75.4444 14.5988C76.7515 14.8178 79.3046 14.8803 79.3046 17.79C79.3046 20.1678 77.6633 21.2314 74.7757 21.2314C72.3745 21.2001 70.7635 20.4806 69.5781 19.5733Z" fill="#374EA2"/>
<path d="M85.3779 17.0972C85.3779 17.6603 85.2569 18.6615 86.7458 18.6615H87.5062V21.0392C87.1407 21.0706 86.5635 21.1018 86.1383 21.1018C83.828 21.1018 82.369 20.5074 82.369 18.286V12.7484H80.2109L81.062 10.2455H82.3994L82.7642 7.42969H85.3779V10.2455H87.9314L87.0802 12.7484H85.3779V17.0972Z" fill="#374EA2"/>
<path d="M91.7972 9.30826C90.7032 9.30826 90.1562 8.61995 90.1562 7.77522C90.1562 6.96178 90.7032 6.24219 91.7972 6.24219C92.9223 6.24219 93.4693 6.96178 93.4693 7.77522C93.4996 8.61995 92.9223 9.30826 91.7972 9.30826ZM90.3386 10.4346H93.3475V20.9781H90.3386V10.4346Z" fill="#374EA2"/>
<path d="M95.7734 15.7251C95.7734 12.44 98.3874 10.25 101.791 10.25C104.223 10.25 106.32 11.345 107.233 13.316L104.527 14.3172C104.041 13.2534 103.007 12.7528 101.822 12.7528C99.9679 12.7528 98.8126 13.754 98.8126 15.7251C98.8126 17.7274 99.9981 18.6973 101.853 18.6973C103.038 18.6973 104.132 18.2593 104.649 17.1642L107.202 18.1341C106.351 20.199 104.497 21.2314 101.853 21.2314C98.4177 21.2314 95.7734 19.0101 95.7734 15.7251Z" fill="#374EA2"/>
<path d="M112.432 16.3195V20.9812H109.422V10.4377H112.218L112.401 11.8456C113.526 10.4377 115.41 10.25 116.17 10.25V13.0344C115.501 12.9719 112.432 13.097 112.432 16.3195Z" fill="#374EA2"/>
<path d="M118.023 16.6635V10.4375H121.033V16.2881C121.033 18.3217 122.097 18.6971 123.313 18.6971C124.589 18.6971 125.775 18.1026 125.684 15.5998V10.4375H128.693V20.981H125.866L125.684 20.0424C124.954 20.762 123.738 21.2313 122.279 21.2313C119.179 21.2 118.023 19.5732 118.023 16.6635Z" fill="#374EA2"/>
<path d="M141.918 14.724V20.95H138.91V15.0995C138.91 13.0659 137.816 12.6905 136.63 12.6905C135.353 12.6905 134.168 13.2849 134.259 15.7878V20.95H131.25V10.4065L134.259 11.3452C134.988 10.6255 136.204 10.1562 137.664 10.1562C140.764 10.1876 141.918 11.8145 141.918 14.724Z" fill="#374EA2"/>
</g>
<defs>
<clipPath id="clip0_1461_2752">
<rect width="142" height="32" fill="white" transform="translate(0 0.476562)"/>
</clipPath>
</defs>
</svg>
