<svg width="128" height="33" viewBox="0 0 128 33" fill="none" xmlns="http://www.w3.org/2000/svg">
<g clip-path="url(#clip0_1381_7787)">
<path d="M108.22 10.8937C108.999 10.1716 110.458 9.59099 113.131 9.47156C118.414 9.22719 119.232 8.95158 121.156 7.96123C122.868 7.08112 124.695 5.35948 125.31 3.59375C124.338 4.18539 123.18 4.61718 121.979 4.93505C119.167 5.67368 116.049 5.80046 114.259 5.80046C113.863 5.80046 113.534 5.79494 113.285 5.78759C111.125 5.72329 110.164 5.57446 107.891 5.57446C107.539 5.57446 107.155 5.57813 106.729 5.58732C104.651 5.62407 103.219 6.91024 102.636 7.55517C102.582 7.61396 102.539 7.66357 102.5 7.70951C103.238 8.55654 104.069 9.28966 104.617 9.80781C105.03 10.2047 106.129 11.0407 107.439 12.1266C107.536 11.8051 107.751 11.3273 108.22 10.8937Z" fill="#B4975A"/>
<path d="M106.705 5.11414C107.132 5.10679 107.521 5.10127 107.876 5.10127C110.177 5.10127 111.151 5.25194 113.285 5.31441C113.529 5.32176 113.854 5.32727 114.244 5.32727C116.012 5.32727 119.1 5.19866 121.841 4.47656C124.639 3.8298 126.637 2.40215 127.336 0.476562C125.07 2.72185 119.181 2.83393 115.795 2.58589C112.279 2.33049 106.061 1.21336 104.952 1.12332C104.303 1.08474 103.511 1.05902 102.768 1.3971C102.022 1.73885 101.349 2.45543 101.013 3.47886C100.918 3.77468 100.875 4.06499 100.875 4.35529C100.862 5.38791 101.44 6.41868 102.178 7.33738C102.74 6.69062 104.301 5.16742 106.705 5.11414Z" fill="#B4975A"/>
<path d="M107.267 26.6343C107.267 25.8387 107.068 25.1 106.786 24.5617C105.483 22.061 102.771 19.5493 100.391 16.931C97.9932 14.2613 93.2829 10.2245 93.2494 6.24472C93.2494 5.72291 93.3981 5.25253 93.6137 4.76562C92.7531 5.72842 89.7752 9.5704 91.543 14.9907C92.1768 16.9347 94.2997 19.5089 96.5396 22.728C98.6959 25.8295 99.1866 29.8405 99.0695 32.0105C105.778 31.7091 107.245 28.9677 107.267 26.6343Z" fill="#A7A9AC"/>
<path d="M121.369 8.37346C119.408 9.39321 118.411 9.70373 113.147 9.93708C108.831 10.1465 108.087 12.0005 107.922 12.5351C108.468 12.9982 109.039 13.4961 109.606 14.0216C110.608 14.9568 111.623 15.9104 112.469 16.8953C112.461 14.334 114.447 14.0087 114.913 13.7276C115.525 13.362 116.794 13.1562 119.521 11.6054C122.44 9.94626 123.083 7.66974 123.211 7.01562C122.648 7.565 122.023 8.03354 121.369 8.37346Z" fill="#B4975A"/>
<path d="M109.141 14.5137C107.018 12.5422 104.9 10.8977 104.196 10.2234C103.047 9.09707 100.317 6.94733 100.29 4.35844C100.29 4.01117 100.343 3.65656 100.458 3.30378C100.839 2.11499 101.934 1.41862 102.794 1.0346C101.036 0.814114 95.7158 1.2165 94.2083 4.34558C93.9294 4.91517 93.8068 5.49395 93.8049 6.08926C93.7696 9.61338 98.2643 13.7512 100.724 16.4319C103.079 19.03 105.932 21.4793 107.317 24.1214C107.646 24.7535 107.94 25.6354 107.908 26.5486C107.832 28.7572 107.051 29.5564 106.657 29.821C115.174 25.301 113.563 20.9335 113.563 20.9335C113.21 18.9087 111.26 16.4724 109.141 14.5137Z" fill="#A7A9AC"/>
<path d="M82.0898 16.2775L85.2852 7.03906H83.3632L80.1641 16.2775H82.0898Z" fill="#B4975A"/>
<path d="M53.6234 16.2701L56.8188 7.03906H54.8967L51.7031 16.2701H53.6234Z" fill="#B4975A"/>
<path d="M39.6564 16.2701L42.85 7.03906H40.9261L37.7344 16.2701H39.6564Z" fill="#B4975A"/>
<path d="M80.2326 7.0409L77.7677 14.2398H76.2472L76.5111 13.4644C76.816 12.5788 76.407 11.8604 75.5984 11.8604H70.2467C69.9158 11.8604 69.572 11.978 69.2597 12.1838L71.0182 7.0409H69.0961L66.6312 14.2398H65.3709L66.2223 11.7612H64.2965L63.4507 14.2398H58.7329L59.3184 12.5218H57.1138L55.7661 16.4594L53.9444 16.4575C53.7883 17.051 53.8478 17.5471 54.1173 17.9495C54.3869 18.3482 54.9185 18.497 55.4762 18.497C56.0096 18.497 56.5301 18.3739 57.0357 17.9734C57.5432 17.571 57.7737 17.0492 57.9763 16.4594L58.0395 16.2701L78.9964 16.2756L82.1547 7.03906H80.2326V7.0409ZM74.2842 14.3647H68.505C68.6407 13.9624 68.8321 13.639 69.1946 13.639H73.8697C74.2359 13.6408 74.4199 13.9624 74.2842 14.3647Z" fill="#B4975A"/>
<path d="M46.2435 14.4545C45.1932 14.7154 44.5054 15.8013 44.3121 16.461C44.156 17.0544 44.2136 17.5505 44.485 17.9529C44.7545 18.3516 45.6728 18.7301 46.2249 18.7301C46.764 18.7301 48.0949 18.7301 49.2139 17.9768C49.7474 17.6167 50.2531 17.0526 50.4538 16.4628L50.5189 16.2736L51.2159 14.2414L51.8034 12.5234H49.595L48.3105 16.2754H45.6245L46.2435 14.4545Z" fill="#B4975A"/>
<path d="M39.7534 7.03906H37.8313L35.3386 14.238H30.7955L30.8754 14.0046C30.9981 13.6445 31.3625 13.3542 31.6896 13.3542H33.976L34.6805 11.3128C34.2939 11.3128 34.2716 11.5407 33.8664 11.5407H30.4721C30.065 11.5407 29.5185 11.9026 29.366 12.3436L28.7173 14.238H26.3509C26.3509 13.288 25.7226 12.61 24.704 12.61C23.6816 12.61 22.5681 13.288 21.8896 14.238H19.1813L21.6703 7.03906H19.7501L16.5547 16.2701H21.2837C21.3952 17.0675 21.9975 17.6151 22.912 17.6151C23.8303 17.6151 24.8229 17.0675 25.5051 16.2701H36.5617L39.7534 7.03906ZM24.4698 15.0703C24.3266 15.4598 23.9121 15.7759 23.5403 15.7759C23.1686 15.7759 22.9789 15.4598 23.1221 15.0703C23.2596 14.6771 23.6742 14.3592 24.0478 14.3592C24.4196 14.3592 24.6073 14.6771 24.4698 15.0703Z" fill="#B4975A"/>
<path d="M15.0102 12.473L14.3651 14.2553L11.127 14.259L12.3408 10.7734C12.1587 10.8157 11.5917 11.5433 10.785 11.5433H7.38694C6.98543 11.5433 6.43706 11.9053 6.28463 12.3462L6.22329 12.5245L5.88497 13.5093L5.40167 14.9278L4.94067 16.2709H2.2546L2.87918 14.4501C1.82334 14.711 1.13742 15.7969 0.944095 16.4565C0.789808 17.05 0.845575 17.5461 1.11697 17.9484C1.38836 18.3472 2.30479 18.7257 2.85687 18.7257C3.39409 18.7257 4.72504 18.7257 5.84408 17.9723C6.37757 17.6122 6.88505 17.0481 7.0858 16.4583L7.14901 16.2709L7.84422 14.2388L8.07287 13.5681H9.44099L8.51714 16.2709L14.9525 16.2084C15.0882 16.2084 15.2295 16.1625 15.3745 16.0651C15.5139 15.9677 15.6124 15.8465 15.6645 15.6958L16.7649 12.473H15.0102Z" fill="#B4975A"/>
<path d="M15.3764 10.7716C15.3057 11.321 15.6496 11.7638 16.1478 11.7638C16.6479 11.7638 17.1107 11.321 17.1813 10.7716C17.2576 10.2259 16.9137 9.78125 16.4118 9.78125C15.9117 9.78125 15.4489 10.2241 15.3764 10.7716Z" fill="#B4975A"/>
<path d="M3.15756 19.9775C3.09064 20.4681 3.39921 20.8632 3.84348 20.8632C4.28775 20.8632 4.69671 20.4681 4.76548 19.9775C4.83054 19.4906 4.52383 19.0938 4.07956 19.0938C3.63529 19.0956 3.22262 19.4906 3.15756 19.9775Z" fill="#B4975A"/>
<path d="M1.04818 19.9775C0.981265 20.4681 1.28984 20.8632 1.73411 20.8632C2.17652 20.8632 2.59105 20.4681 2.65797 19.9775C2.72117 19.4906 2.41631 19.0938 1.97018 19.0938C1.52777 19.0956 1.11325 19.4906 1.04818 19.9775Z" fill="#B4975A"/>
<path d="M62.4931 18.001C62.4281 18.4879 62.7329 18.8829 63.179 18.8829C63.6233 18.8829 64.0378 18.4879 64.101 18.001C64.1661 17.5141 63.8613 17.1172 63.4151 17.1172C62.9708 17.119 62.5582 17.5141 62.4931 18.001Z" fill="#B4975A"/>
<path d="M60.3837 18.001C60.3186 18.4879 60.6272 18.8829 61.0696 18.8829C61.5139 18.8829 61.9247 18.4879 61.9953 18.001C62.0567 17.5141 61.7518 17.1172 61.3075 17.1172C60.8595 17.119 60.4487 17.5141 60.3837 18.001Z" fill="#B4975A"/>
<path d="M46.83 12.1857C46.7575 12.7314 47.1014 13.176 47.6033 13.176C48.1014 13.176 48.5643 12.7314 48.6368 12.1857C48.7111 11.6381 48.3673 11.1953 47.8691 11.1953C47.3672 11.1953 46.9025 11.6381 46.83 12.1857Z" fill="#B4975A"/>
<path d="M30.6476 8.82812C30.1457 8.82812 29.6829 9.27094 29.6104 9.81848C29.5992 9.89749 29.5992 9.97098 29.6029 10.0445V10.0463C29.6029 10.2098 28.5768 10.2668 28.5768 10.2668L28.3203 11.0716C28.3203 11.0716 29.5936 10.9411 30.4599 10.8052C30.4971 10.8015 30.5342 10.7978 30.5695 10.7886H30.5733C30.9934 10.6912 31.354 10.2944 31.4135 9.81848C31.4878 9.27094 31.1439 8.82812 30.6476 8.82812ZM30.7889 9.8295C30.7666 10.0188 30.6067 10.1694 30.4338 10.1694C30.2647 10.1694 30.1457 10.0188 30.1717 9.8295C30.1959 9.64393 30.3558 9.49142 30.5268 9.49142C30.6959 9.49326 30.8149 9.64393 30.7889 9.8295Z" fill="#B4975A"/>
<path d="M0.780351 28.8118L1.53319 26.4453C2.34924 23.8674 4.6152 23.375 7.58382 23.375C10.5543 23.375 12.508 23.8674 11.6901 26.4453L10.9372 28.8118C10.1193 31.3897 7.85707 31.8803 4.88474 31.8803C1.91426 31.8803 -0.0356932 31.3897 0.780351 28.8118ZM8.00207 28.5656L8.60248 26.6805C8.99656 25.4421 8.49467 25.319 6.97225 25.319C5.44798 25.319 4.91262 25.4421 4.47393 26.6805L3.87351 28.5656C3.52404 29.8151 3.97947 29.9382 5.50374 29.9382C7.0243 29.9382 7.60613 29.8151 8.00207 28.5656Z" fill="#A7A9AC"/>
<path d="M14.289 31.8105H11.3594L14.0176 23.4375H18.6573L19.0811 28.6961H19.1852L22.8435 23.4375H27.6003L24.9421 31.8105H22.0163L24.3473 25.3888H24.2451L19.425 31.8105H16.8914L16.1181 25.3888H16.0344L14.289 31.8105Z" fill="#A7A9AC"/>
<path d="M29.8537 30.3681L28.8555 31.8105H25.8125L31.7627 23.4375H36.2092L36.8895 31.8105H33.9023L33.7908 30.3681H29.8537ZM33.5138 25.1114H33.4859L31.0025 28.7402H33.7257L33.5138 25.1114Z" fill="#A7A9AC"/>
<path d="M40.5762 31.8105H37.6484L40.3048 23.4375H45.2531L46.3572 29.8684H46.4744L48.3407 23.4375H51.2684L48.6121 31.8105H43.621L42.5596 25.3778H42.4425L40.5762 31.8105Z" fill="#A7A9AC"/>
<path d="M58.2012 30.3681L57.2011 31.8105H54.1562L60.1084 23.4375H64.5567L65.237 31.8105H62.2516L62.1364 30.3681H58.2012ZM61.8594 25.1114H61.8297L59.3462 28.7402H62.0695L61.8594 25.1114Z" fill="#A7A9AC"/>
<path d="M68.8965 31.8105H65.9688L68.6269 23.4375H71.5528L68.8965 31.8105Z" fill="#A7A9AC"/>
<path d="M73.2869 23.4375H78.936C81.4566 23.4706 82.5682 23.8821 81.9065 25.9713C81.4641 27.3677 81.2038 28.1816 79.0104 28.551L78.9806 28.641C80.1703 28.6741 80.7874 29.1757 80.4844 30.1256L79.9509 31.8123H77.0232L77.3969 30.6382C77.6236 30.0135 77.4062 29.5891 76.5288 29.5891H74.2609L73.5527 31.8123H70.625L73.2869 23.4375ZM77.1459 27.647C78.4044 27.647 78.4769 27.2887 78.7743 26.3406C79.0104 25.5928 78.8301 25.3815 77.8653 25.3815H75.5975L74.8781 27.647H77.1459Z" fill="#A7A9AC"/>
</g>
<defs>
<clipPath id="clip0_1381_7787">
<rect width="128" height="32" fill="white" transform="translate(0 0.476562)"/>
</clipPath>
</defs>
</svg>
