<svg width="229" height="23" viewBox="0 0 229 23" fill="none" xmlns="http://www.w3.org/2000/svg">
<path d="M102.999 0.294509C102.894 0.293409 102.79 0.322009 102.699 0.377309C102.609 0.432609 102.535 0.512309 102.488 0.607409C102.439 0.702609 102.418 0.809409 102.427 0.916009C102.435 1.02261 102.473 1.12461 102.535 1.21071L117.617 22.4137C117.669 22.4901 117.739 22.5525 117.82 22.5956C117.902 22.6386 117.992 22.6612 118.084 22.6611H122.307C122.412 22.6611 122.515 22.6318 122.605 22.5763C122.695 22.5208 122.767 22.4412 122.815 22.3465C122.863 22.2517 122.884 22.1454 122.876 22.0393C122.868 21.9332 122.832 21.8313 122.77 21.7449L107.695 0.543909C107.642 0.467509 107.572 0.405109 107.491 0.362109C107.409 0.319009 107.318 0.296509 107.227 0.296609L102.999 0.294509ZM41.1044 0.294509C40.999 0.293909 40.8956 0.322909 40.8055 0.378309C40.7154 0.433709 40.6423 0.513209 40.5942 0.608109C40.5461 0.703009 40.5249 0.809609 40.533 0.916009C40.5411 1.02241 40.5781 1.12441 40.64 1.21081L48.5706 12.3233C49.7479 11.3389 50.8889 10.3199 52.0572 9.32632L45.7916 0.545909C45.739 0.469709 45.669 0.407509 45.5877 0.364409C45.5063 0.321309 45.4159 0.298809 45.3241 0.298509L41.1044 0.294509Z" fill="#E74C3C"/>
<path d="M110.595 10.9958C110.516 10.9953 110.438 11.0113 110.366 11.0429C110.294 11.0745 110.229 11.121 110.175 11.1794C110.122 11.2378 110.08 11.3068 110.054 11.3821C110.028 11.4574 110.018 11.5373 110.025 11.6168C110.032 11.7234 110.069 11.8256 110.132 11.912L112.878 15.756C113.899 14.9965 114.889 14.1985 115.851 13.3606C116.044 13.1936 116.235 13.0216 116.428 12.8516L115.282 11.2483C115.23 11.1718 115.16 11.1094 115.078 11.0663C114.997 11.0232 114.906 11.0007 114.814 11.0009L110.595 10.9958Z" fill="#A52823"/>
<path d="M15.4124 11.5444C14.7337 10.9654 13.9635 10.5063 13.1342 10.1864C12.1547 9.79981 11.1516 9.4777 10.1311 9.2223C9.31307 9.0306 8.50357 8.803 7.70507 8.5403C7.21587 8.3879 6.74967 8.1679 6.31967 7.8867C6.07827 7.7336 5.87987 7.52 5.74357 7.2667C5.63177 6.9998 5.57857 6.7115 5.58767 6.4217C5.58907 6.1567 5.65207 5.8958 5.77157 5.6601C5.89107 5.4243 6.06367 5.2204 6.27547 5.0647C6.90297 4.6173 7.66327 4.4017 8.42897 4.4539C9.33107 4.4579 10.2245 4.634 11.0621 4.9731C12.028 5.3723 12.9401 5.8935 13.7767 6.5245C13.8378 6.5702 13.9072 6.6031 13.9811 6.6212C14.0549 6.6393 14.1315 6.6423 14.2065 6.63C14.2815 6.6177 14.3532 6.5903 14.4176 6.5494C14.4819 6.5085 14.5375 6.455 14.5812 6.3921L16.5558 3.5753C16.6402 3.455 16.676 3.3064 16.6556 3.1603C16.6352 3.0141 16.5603 2.8814 16.4462 2.7895C15.3579 1.9049 14.1357 1.204 12.8268 0.713798C11.4323 0.221197 9.96357 -0.020003 8.48717 0.001297C7.45287 -0.00840301 6.42367 0.149697 5.43877 0.469597C4.54317 0.757898 3.71277 1.2229 2.99557 1.8378C2.31847 2.4295 1.77057 3.1576 1.38697 3.9756C0.987465 4.8452 0.786165 5.7947 0.797765 6.7537C0.774065 7.6967 0.949865 8.63391 1.31357 9.50231C1.65837 10.2674 2.17477 10.9405 2.82167 11.468C3.52967 12.0311 4.32457 12.472 5.17437 12.7731C6.16967 13.1355 7.18817 13.4348 8.22077 13.671C9.00707 13.8576 9.78357 14.0842 10.5473 14.35C11.0098 14.5037 11.4481 14.7185 11.8544 14.9893C12.0796 15.1359 12.2616 15.3405 12.3822 15.5818C12.4848 15.8363 12.535 16.1081 12.53 16.382C12.5409 16.6776 12.4763 16.971 12.3425 17.2338C12.2086 17.4967 12.01 17.7201 11.7659 17.8825C11.0564 18.333 10.2262 18.5493 9.39007 18.5014C8.25727 18.5212 7.13337 18.296 6.09337 17.8407C5.02497 17.3345 4.03357 16.6759 3.14957 15.8851C3.09257 15.8358 3.02657 15.7985 2.95527 15.7751C2.88397 15.7517 2.80887 15.7428 2.73407 15.7488C2.65927 15.7548 2.58657 15.7758 2.51987 15.8103C2.45317 15.8449 2.39377 15.8924 2.34527 15.9502L0.133264 18.6165C0.0384641 18.7307 -0.0088359 18.8778 0.0013641 19.0266C0.0114641 19.1755 0.0782642 19.3145 0.187564 19.4145C1.43407 20.5736 2.88777 21.481 4.47057 22.0878C6.01887 22.6671 7.65667 22.9612 9.30657 22.9562C10.3844 22.9664 11.4582 22.8157 12.4927 22.5083C13.4223 22.2334 14.289 21.7745 15.0424 21.1584C15.7573 20.5612 16.3316 19.81 16.7234 18.9595C17.1369 18.036 17.3429 17.0312 17.3266 16.0175C17.344 15.1414 17.1789 14.2715 16.842 13.4643C16.5125 12.7253 16.0276 12.068 15.4214 11.5382M31.2615 10.0358L39.3822 1.5314C39.3822 1.5314 39.536 1.3217 39.6094 1.2453C39.6678 1.093 39.6816 0.926898 39.6494 0.766798C39.6171 0.606698 39.5401 0.459397 39.4274 0.342397C39.3612 0.313697 39.2903 0.298197 39.2183 0.296597H34.7C34.6224 0.296197 34.5456 0.311997 34.4743 0.342997C34.4031 0.373997 34.3388 0.419597 34.2857 0.476797L25.3054 10.0878V0.873698C25.3057 0.797798 25.2911 0.722598 25.2626 0.652498C25.2341 0.582397 25.1921 0.518597 25.1391 0.464997C25.0861 0.411297 25.0231 0.368797 24.9539 0.339897C24.8846 0.310997 24.8103 0.296197 24.7354 0.296497H21.0898C21.0149 0.296397 20.9408 0.311197 20.8717 0.340197C20.8025 0.369197 20.7397 0.411697 20.6868 0.465297C20.6339 0.518897 20.592 0.582598 20.5635 0.652698C20.535 0.722798 20.5205 0.797898 20.5208 0.873698V22.0808C20.5208 22.2337 20.5807 22.3804 20.6874 22.4886C20.7941 22.5968 20.9388 22.6577 21.0899 22.658H24.7405C24.8917 22.658 25.0367 22.5972 25.1436 22.4889C25.2505 22.3806 25.3105 22.2338 25.3105 22.0807V16.1651L27.9487 13.4165L34.699 22.4258C34.7521 22.4969 34.8208 22.5547 34.8997 22.5944C34.9785 22.6342 35.0654 22.6549 35.1535 22.6549H39.6165C39.7286 22.6539 39.8378 22.6195 39.9307 22.556C40.0236 22.4925 40.096 22.4028 40.1388 22.2979C40.1817 22.1931 40.1932 22.0778 40.1718 21.9664C40.1504 21.855 40.0971 21.7524 40.0186 21.6715L31.2615 10.0358ZM78.9728 18.1401H68.5316V0.872698C68.5316 0.719598 68.4718 0.572798 68.3647 0.464497C68.2581 0.356297 68.1131 0.295397 67.9617 0.295397H64.3121C64.1612 0.295397 64.0157 0.356197 63.9091 0.464497C63.802 0.572698 63.7422 0.719598 63.7422 0.872698V22.0808C63.7422 22.2338 63.8025 22.3805 63.9091 22.4887C64.0162 22.5969 64.1612 22.6578 64.3121 22.6581H78.9728C79.1237 22.6578 79.2687 22.5969 79.3758 22.4887C79.4824 22.3805 79.5427 22.2338 79.5427 22.0808V18.7214C79.5427 18.5684 79.4824 18.4217 79.3758 18.3135C79.2687 18.2053 79.1237 18.1444 78.9728 18.1442M99.8278 0.303597H96.1762C96.0252 0.303597 95.8803 0.364397 95.7732 0.472697C95.6666 0.580897 95.6063 0.727798 95.6063 0.880798V13.0897C95.7189 14.5441 95.269 15.986 94.3514 17.1108C93.8956 17.563 93.3511 17.9132 92.7528 18.1387C92.155 18.3642 91.5168 18.4601 90.8797 18.42C90.2351 18.4611 89.5894 18.361 88.9861 18.1262C88.3833 17.8915 87.8373 17.5278 87.386 17.0599C86.4659 15.8969 86.0145 14.4242 86.1231 12.938V0.881898C86.1231 0.728998 86.0633 0.582297 85.9567 0.474097C85.8501 0.365897 85.7051 0.304997 85.5542 0.304697H81.9036C81.7527 0.304697 81.6077 0.365497 81.5006 0.473797C81.3935 0.581998 81.3337 0.728898 81.3337 0.881898V13.0908C81.3088 14.5331 81.533 15.9686 81.9963 17.3328C82.4038 18.5084 83.0619 19.5789 83.9237 20.4682C84.7781 21.3253 85.8118 21.977 86.9486 22.375C88.1955 22.8046 89.5037 23.0153 90.8194 22.999C92.1495 23.0163 93.4737 22.8056 94.7335 22.375C95.8808 21.9781 96.9225 21.319 97.7778 20.4489C98.6446 19.5395 99.3062 18.4507 99.7172 17.2575C100.192 15.8591 100.421 14.3878 100.396 12.9096V0.882898C100.396 0.729798 100.336 0.582997 100.229 0.474797C100.122 0.366597 99.9772 0.305697 99.8258 0.305697M122.761 1.2097C122.824 1.1237 122.861 1.0217 122.87 0.915198C122.878 0.808698 122.857 0.701998 122.809 0.607098C122.76 0.512497 122.687 0.433197 122.596 0.377897C122.506 0.322597 122.403 0.293397 122.298 0.293497H118.075C117.983 0.293497 117.893 0.315897 117.811 0.358797C117.73 0.401697 117.66 0.463797 117.607 0.539898L102.533 21.7429C102.473 21.8292 102.436 21.9309 102.428 22.0368C102.42 22.1427 102.441 22.2488 102.488 22.3435C102.536 22.4386 102.609 22.5184 102.699 22.5741C102.789 22.6298 102.892 22.6592 102.997 22.6591H107.22C107.311 22.6591 107.402 22.6366 107.483 22.5936C107.565 22.5505 107.635 22.4881 107.687 22.4117L122.761 1.2097ZM60.8678 1.2097C60.9296 1.1234 60.9664 1.0215 60.9744 0.915198C60.9829 0.808898 60.9615 0.702398 60.9136 0.607598C60.8658 0.512697 60.7925 0.433197 60.7029 0.377697C60.6127 0.322297 60.5096 0.293097 60.404 0.293497H56.1815C56.0898 0.293197 55.9992 0.315397 55.918 0.358297C55.8363 0.401197 55.7666 0.463497 55.7142 0.539797L40.6329 21.7408C40.5711 21.8271 40.5341 21.929 40.5259 22.0353C40.5178 22.1416 40.5389 22.2481 40.5869 22.343C40.6349 22.4379 40.7079 22.5175 40.7978 22.5729C40.8877 22.6283 40.9911 22.6575 41.0964 22.6571H45.3191C45.4108 22.657 45.5011 22.6344 45.5823 22.5913C45.6636 22.5483 45.7333 22.4859 45.7856 22.4097L60.8678 1.2097Z" fill="black"/>
<path fill-rule="evenodd" clip-rule="evenodd" d="M134.346 22.7088V0.316787H134.846V22.7088H134.346Z" fill="black"/>
<path d="M151.787 20.3393H150.394C150.269 20.3393 150.168 20.2384 150.168 20.1139V8.48116C150.168 7.49499 150.199 6.56227 150.26 5.6817C150.1 5.84136 149.922 6.00807 149.724 6.18244C149.535 6.35059 148.694 7.04005 147.2 8.25202C147.102 8.33191 146.952 8.31911 146.875 8.21877L146.152 7.28283C146.076 7.18428 146.094 7.04269 146.193 6.96662L150.358 3.74894C150.397 3.71845 150.446 3.70193 150.496 3.70193H151.787C151.911 3.70193 152.012 3.80288 152.012 3.92738V20.114C152.012 20.2385 151.911 20.3393 151.787 20.3393Z" fill="black"/>
<path d="M163.957 15.7107C163.852 15.7101 163.763 15.7852 163.738 15.8867C163.611 16.419 163.451 16.8775 163.258 17.2607C162.692 18.3798 161.78 18.9391 160.521 18.9391C159.276 18.9391 158.37 18.3868 157.801 17.2829C157.232 16.1797 156.947 14.4173 156.947 11.9971C156.947 9.57686 157.232 7.81895 157.801 6.72263C158.093 6.15886 158.479 5.74542 158.95 5.47227C159.027 5.42778 159.076 5.34944 159.076 5.2607V3.91587C159.076 3.76458 158.926 3.6493 158.782 3.69486C157.781 4.01071 156.982 4.62434 156.39 5.54486C155.487 6.94842 155.036 9.09884 155.036 11.997C155.036 14.8041 155.502 16.9342 156.435 18.3867C157.368 19.8398 158.73 20.5664 160.521 20.5664C162.387 20.5664 163.773 19.8569 164.68 18.4382C165.099 17.7822 165.42 16.9692 165.646 16.0017C165.679 15.8605 165.569 15.7197 165.424 15.7189L163.957 15.7107Z" fill="black"/>
<path d="M165.439 8.21753H167.927C168.051 8.21753 168.152 8.31847 168.152 8.44297V9.55077C168.152 9.67527 168.051 9.77621 167.927 9.77621H165.439V12.4219C165.439 12.5464 165.339 12.6473 165.214 12.6473H164.095C163.97 12.6473 163.869 12.5464 163.869 12.4219V9.77621H161.404C161.28 9.77621 161.179 9.67527 161.179 9.55077V8.44297C161.179 8.31847 161.28 8.21753 161.404 8.21753H163.869V5.54915C163.869 5.42466 163.97 5.32371 164.095 5.32371H165.214C165.339 5.32371 165.439 5.42466 165.439 5.54915V8.21753Z" fill="black"/>
<path d="M228.828 15.5819C228.828 16.4549 228.61 17.2002 228.173 17.818C227.744 18.429 227.139 18.8957 226.36 19.218C225.581 19.5404 224.665 19.7015 223.611 19.7015C223.053 19.7015 222.526 19.6747 222.029 19.6209C221.532 19.5672 221.076 19.49 220.659 19.3893C220.243 19.2886 219.877 19.1643 219.562 19.0166V17.3748C220.065 17.583 220.68 17.7777 221.405 17.959C222.13 18.1336 222.889 18.2209 223.681 18.2209C224.42 18.2209 225.044 18.1235 225.555 17.9288C226.065 17.7273 226.451 17.442 226.713 17.0726C226.982 16.6966 227.116 16.2467 227.116 15.7229C227.116 15.2193 227.005 14.7996 226.783 14.4639C226.562 14.1214 226.193 13.8125 225.675 13.5372C225.165 13.2552 224.467 12.9564 223.58 12.6408C222.956 12.4192 222.405 12.1775 221.929 11.9156C221.452 11.647 221.052 11.3448 220.73 11.0091C220.408 10.6733 220.163 10.2839 219.995 9.84067C219.834 9.39749 219.753 8.89052 219.753 8.31975C219.753 7.5341 219.951 6.86261 220.347 6.30528C220.75 5.74122 221.304 5.31147 222.009 5.01601C222.721 4.71384 223.537 4.56276 224.457 4.56276C225.242 4.56276 225.968 4.63662 226.632 4.78435C227.304 4.93208 227.918 5.13017 228.476 5.37862L227.942 6.84918C227.411 6.62759 226.847 6.44293 226.25 6.2952C225.659 6.14747 225.048 6.07361 224.416 6.07361C223.785 6.07361 223.251 6.16762 222.815 6.35564C222.385 6.53694 222.056 6.79546 221.828 7.13121C221.6 7.46695 221.485 7.86649 221.485 8.32982C221.485 8.84687 221.593 9.27662 221.808 9.61908C222.029 9.96154 222.378 10.2671 222.855 10.5357C223.339 10.7975 223.977 11.0729 224.769 11.3616C225.635 11.6772 226.37 12.0129 226.975 12.3688C227.579 12.718 228.039 13.1478 228.355 13.6581C228.67 14.1617 228.828 14.803 228.828 15.5819Z" fill="black"/>
<path d="M212.178 4.77418C213.387 4.77418 214.384 4.92527 215.17 5.22744C215.962 5.52289 216.553 5.97615 216.942 6.58721C217.332 7.19827 217.527 7.97719 217.527 8.924C217.527 9.70293 217.386 10.3543 217.104 10.878C216.821 11.3951 216.452 11.8148 215.996 12.1371C215.539 12.4594 215.052 12.7078 214.535 12.8824L218.574 19.5H216.58L212.974 13.3558H209.912V19.5H208.2V4.77418H212.178ZM212.077 6.25482H209.912V11.9054H212.249C213.451 11.9054 214.334 11.6603 214.898 11.1701C215.468 10.6799 215.754 9.95809 215.754 9.00458C215.754 8.00405 215.452 7.29563 214.847 6.87931C214.25 6.46298 213.326 6.25482 212.077 6.25482Z" fill="black"/>
<path d="M204.795 19.5001L202.982 14.8265H197.079L195.276 19.5001H193.544L199.305 4.71388H200.846L206.567 19.5001H204.795ZM202.468 13.3056L200.746 8.66225C200.705 8.54138 200.638 8.34329 200.544 8.06798C200.457 7.79266 200.366 7.50728 200.272 7.21183C200.178 6.91637 200.101 6.67799 200.041 6.49669C199.973 6.772 199.9 7.04731 199.819 7.32262C199.745 7.59122 199.671 7.84303 199.597 8.07805C199.523 8.30636 199.46 8.50109 199.406 8.66225L197.653 13.3056H202.468Z" fill="black"/>
<path d="M192.707 19.5H184.509V4.77418H192.707V6.28504H186.221V11.0493H192.335V12.54H186.221V17.9891H192.707V19.5Z" fill="black"/>
<path d="M177.135 12.1572L181.053 4.77418H182.897L177.991 13.7889V19.5H176.279V13.8695L171.364 4.77418H173.237L177.135 12.1572Z" fill="black"/>
</svg>
