<svg width="590" height="590" viewBox="0 0 590 590" fill="none" xmlns="http://www.w3.org/2000/svg">
<circle cx="295" cy="295" r="295" fill="white"/>
<path d="M445.791 161.615H69.2122C64.0813 161.615 59.9218 165.352 59.9218 169.961V387.661C59.9218 392.271 64.0813 396.007 69.2122 396.007H445.791C450.922 396.007 455.081 392.271 455.081 387.661V169.961C455.081 165.352 450.922 161.615 445.791 161.615Z" fill="#093F68"/>
<path d="M445.711 397.878H69.2926C66.2957 397.873 63.4235 396.8 61.3063 394.895C59.1891 392.99 58 390.407 58 387.715V169.979C58 167.287 59.1891 164.705 61.3063 162.799C63.4235 160.894 66.2957 159.821 69.2926 159.816H445.711C448.708 159.821 451.58 160.894 453.698 162.799C455.815 164.705 457.004 167.287 457.004 169.979V387.625C457.017 388.966 456.735 390.296 456.174 391.538C455.612 392.78 454.783 393.91 453.733 394.863C452.684 395.816 451.434 396.573 450.057 397.091C448.681 397.608 447.204 397.876 445.711 397.878ZM69.2926 163.414C67.3578 163.419 65.5041 164.112 64.1379 165.343C62.7717 166.574 62.0044 168.241 62.0045 169.979V387.625C61.9912 388.493 62.1698 389.355 62.5299 390.161C62.89 390.967 63.4244 391.7 64.1022 392.319C64.78 392.938 65.5878 393.43 66.4787 393.767C67.3696 394.104 68.326 394.278 69.2926 394.281H445.711C447.646 394.276 449.5 393.582 450.866 392.351C452.232 391.12 452.999 389.453 452.999 387.715V169.979C452.999 168.241 452.232 166.574 450.866 165.343C449.5 164.112 447.646 163.419 445.711 163.414H69.2926Z" fill="#093F68"/>
<path d="M437.222 171.724H77.782C75.6146 171.724 73.8576 173.302 73.8576 175.249V361.327C73.8576 363.275 75.6146 364.853 77.782 364.853H437.222C439.389 364.853 441.146 363.275 441.146 361.327V175.249C441.146 173.302 439.389 171.724 437.222 171.724Z" fill="#F5F5F5"/>
<path d="M437.222 366.652H77.7818C76.1888 366.652 74.6609 366.083 73.5345 365.071C72.408 364.059 71.7751 362.687 71.7751 361.256V175.231C71.7751 173.8 72.408 172.427 73.5345 171.415C74.6609 170.403 76.1888 169.835 77.7818 169.835H437.222C438.815 169.835 440.343 170.403 441.469 171.415C442.596 172.427 443.228 173.8 443.228 175.231V361.327C443.207 362.746 442.565 364.1 441.441 365.097C440.317 366.093 438.801 366.652 437.222 366.652ZM77.7818 173.522C77.2508 173.522 76.7415 173.712 76.366 174.049C75.9905 174.387 75.7796 174.844 75.7796 175.321V361.327C75.7796 361.804 75.9905 362.262 76.366 362.599C76.7415 362.937 77.2508 363.126 77.7818 363.126H437.222C437.753 363.126 438.262 362.937 438.637 362.599C439.013 362.262 439.224 361.804 439.224 361.327V175.231C439.224 174.754 439.013 174.297 438.637 173.959C438.262 173.622 437.753 173.432 437.222 173.432L77.7818 173.522Z" fill="#093F68"/>
<path d="M220.581 396.024H294.403V427.916H220.581V396.024Z" fill="#093F68"/>
<path d="M294.423 429.715H220.581C220.05 429.715 219.54 429.526 219.165 429.188C218.789 428.851 218.578 428.394 218.578 427.916V396.079C218.578 395.602 218.789 395.144 219.165 394.807C219.54 394.47 220.05 394.28 220.581 394.28H294.423C294.954 394.28 295.463 394.47 295.839 394.807C296.214 395.144 296.425 395.602 296.425 396.079V427.916C296.425 428.394 296.214 428.851 295.839 429.188C295.463 429.526 294.954 429.715 294.423 429.715ZM222.583 426.118H292.421V397.878H222.583V426.118Z" fill="#093F68"/>
<path d="M349.564 427.916H165.459C161.147 427.916 157.651 431.057 157.651 434.931V436.442C157.651 440.316 161.147 443.457 165.459 443.457H349.564C353.877 443.457 357.373 440.316 357.373 436.442V434.931C357.373 431.057 353.877 427.916 349.564 427.916Z" fill="#093F68"/>
<path d="M349.604 445.274H165.399C162.795 445.269 160.3 444.336 158.461 442.681C156.621 441.025 155.588 438.781 155.588 436.442V434.931C155.594 432.595 156.629 430.356 158.468 428.704C160.306 427.052 162.799 426.122 165.399 426.117H349.604C352.205 426.122 354.697 427.052 356.536 428.704C358.374 430.356 359.41 432.595 359.415 434.931V436.442C359.415 438.781 358.382 441.025 356.543 442.681C354.703 444.336 352.208 445.269 349.604 445.274ZM165.399 429.715C164.637 429.715 163.882 429.85 163.177 430.112C162.473 430.374 161.833 430.758 161.293 431.242C160.754 431.727 160.327 432.302 160.035 432.935C159.743 433.568 159.593 434.246 159.593 434.931V436.442C159.593 437.827 160.204 439.156 161.292 440.137C162.381 441.118 163.857 441.671 165.399 441.676H349.604C351.146 441.671 352.623 441.118 353.711 440.137C354.799 439.156 355.411 437.827 355.411 436.442V434.931C355.411 434.246 355.26 433.568 354.969 432.935C354.677 432.302 354.249 431.727 353.71 431.242C353.171 430.758 352.531 430.374 351.826 430.112C351.122 429.85 350.367 429.715 349.604 429.715H165.399Z" fill="#093F68"/>
<path d="M419.442 386.546C423.191 386.546 426.23 383.816 426.23 380.448C426.23 377.081 423.191 374.351 419.442 374.351C415.693 374.351 412.654 377.081 412.654 380.448C412.654 383.816 415.693 386.546 419.442 386.546Z" fill="#F56132"/>
<path d="M419.442 388.345C417.704 388.345 416.004 387.881 414.559 387.014C413.113 386.146 411.987 384.913 411.321 383.47C410.656 382.027 410.482 380.439 410.821 378.908C411.16 377.376 411.997 375.969 413.227 374.865C414.456 373.76 416.022 373.008 417.727 372.703C419.432 372.399 421.2 372.555 422.806 373.153C424.412 373.751 425.785 374.763 426.75 376.061C427.716 377.36 428.232 378.886 428.232 380.448C428.226 382.541 427.299 384.547 425.652 386.027C424.004 387.506 421.772 388.34 419.442 388.345ZM419.442 376.149C418.496 376.149 417.57 376.401 416.783 376.874C415.996 377.346 415.383 378.018 415.021 378.803C414.659 379.589 414.564 380.453 414.749 381.287C414.933 382.121 415.389 382.887 416.058 383.488C416.728 384.089 417.58 384.499 418.508 384.665C419.437 384.83 420.399 384.745 421.273 384.42C422.148 384.095 422.895 383.544 423.421 382.837C423.947 382.13 424.227 381.298 424.227 380.448C424.227 379.308 423.723 378.215 422.826 377.408C421.928 376.602 420.711 376.149 419.442 376.149Z" fill="#093F68"/>
<path d="M171.007 190.144V265.944C171.007 273.41 171.407 279.144 172.207 283.144C173.141 287.01 174.941 291.477 177.607 296.544C180.274 301.477 182.074 303.944 183.007 303.944C184.074 303.944 185.941 301.477 188.607 296.544C191.274 291.477 193.074 287.01 194.007 283.144C194.941 279.144 195.407 273.41 195.407 265.944V244.544C195.407 233.344 194.607 225.544 193.007 221.144C191.541 216.61 188.341 211.077 183.407 204.544L207.407 187.744C211.674 190.677 215.341 196.144 218.407 204.144C221.474 212.144 223.007 221.744 223.007 232.944V265.944C223.007 276.344 222.007 284.944 220.007 291.744C218.007 298.41 212.474 306.877 203.407 317.144C194.474 327.41 187.741 332.544 183.207 332.544C180.407 332.544 176.474 330.01 171.407 324.944C166.474 319.877 161.741 313.944 157.207 307.144C152.407 314.077 147.541 320.077 142.607 325.144C137.807 330.077 134.007 332.544 131.207 332.544C126.674 332.544 119.874 327.41 110.807 317.144C101.874 306.877 96.4072 298.41 94.4072 291.744C92.4072 284.944 91.4072 276.344 91.4072 265.944V190.144H119.007V265.944C119.007 274.61 119.474 280.61 120.407 283.944C121.341 287.277 123.141 291.477 125.807 296.544C128.474 301.477 130.274 303.944 131.207 303.944C132.274 303.944 134.141 301.477 136.807 296.544C139.474 291.477 141.207 287.01 142.007 283.144C142.941 279.144 143.407 273.41 143.407 265.944V190.144H171.007ZM310.863 275.944V283.144H262.463C262.463 291.144 263.463 297.477 265.463 302.144C266.13 303.744 267.33 305.41 269.063 307.144C270.797 308.744 272.597 309.544 274.463 309.544C276.33 309.544 278.663 307.944 281.463 304.744C284.263 301.544 286.463 297.677 288.063 293.144L308.663 307.744C305.063 314.41 299.53 320.21 292.063 325.144C284.73 330.077 278.797 332.544 274.263 332.544C269.73 332.544 263.13 329.01 254.463 321.944C245.93 314.877 240.73 309.41 238.863 305.544C236.997 301.544 236.063 291.81 236.063 276.344C236.063 260.744 236.997 251.01 238.863 247.144C240.73 243.144 245.93 237.61 254.463 230.544C263.13 223.477 269.463 219.944 273.463 219.944C277.463 219.944 283.73 223.477 292.263 230.544C300.93 237.61 306.197 243.144 308.063 247.144C309.93 251.01 310.863 260.61 310.863 275.944ZM283.063 250.944C282.13 249.077 280.597 247.277 278.463 245.544C276.463 243.81 274.53 242.944 272.663 242.944C270.93 242.944 268.93 244.744 266.663 248.344C264.397 251.81 262.997 257.077 262.463 264.144H285.263C284.863 257.077 284.13 252.677 283.063 250.944ZM331.931 330.144V220.944C331.931 214.144 331.131 208.944 329.531 205.344C327.931 201.744 325.397 198.477 321.931 195.544L343.931 180.144C353.531 187.744 358.331 198.477 358.331 212.344V230.544C366.331 223.477 372.064 219.944 375.531 219.944C379.131 219.944 384.531 223.544 391.731 230.744C399.064 237.81 403.264 243.01 404.331 246.344C405.797 249.677 406.531 259.677 406.531 276.344C406.531 292.877 405.797 302.81 404.331 306.144C403.264 309.477 399.064 314.744 391.731 321.944C384.531 329.01 379.331 332.544 376.131 332.544C371.464 332.544 363.997 327.677 353.731 317.944L351.531 330.144H331.931ZM359.331 299.744C360.264 301.344 362.131 303.077 364.931 304.944C367.864 306.677 370.064 307.544 371.531 307.544C372.997 307.544 374.531 306.677 376.131 304.944C377.864 303.21 379.131 301.41 379.931 299.544C380.731 297.677 381.131 289.944 381.131 276.344C381.131 262.61 380.731 254.877 379.931 253.144C379.131 251.277 377.864 249.477 376.131 247.744C374.531 245.877 372.997 244.944 371.531 244.944C370.197 244.944 368.064 245.877 365.131 247.744C362.331 249.477 360.464 251.01 359.531 252.344C358.464 254.61 357.931 262.677 357.931 276.544C357.931 290.277 358.397 298.01 359.331 299.744Z" fill="url(#paint0_linear_298_65)"/>
<rect x="58" y="364.624" width="399.004" height="67.9156" rx="6" fill="#FFC901"/>
<path d="M90.2041 189.713L90.2041 220.746C113.298 219.906 119.253 199.538 119.387 189.713L90.2041 189.713Z" fill="#FFC901"/>
<path d="M76.9677 414.686V379.686H100.968V385.686H83.9177V393.786H99.7677V399.636H83.9177V408.686H101.868V414.686H76.9677ZM129.516 415.186C127.949 415.186 126.432 415.169 124.966 415.136C123.532 415.102 122.132 415.052 120.766 414.986C119.399 414.919 118.049 414.852 116.716 414.786V379.686C118.216 379.552 119.632 379.452 120.966 379.386C122.332 379.319 123.682 379.269 125.016 379.236C126.349 379.202 127.716 379.186 129.116 379.186C133.082 379.186 136.299 379.819 138.766 381.086C141.232 382.319 143.032 384.269 144.166 386.936C145.332 389.569 145.916 393.002 145.916 397.236C145.916 401.369 145.299 404.769 144.066 407.436C142.866 410.069 141.049 412.019 138.616 413.286C136.216 414.552 133.182 415.186 129.516 415.186ZM129.916 409.736C131.849 409.736 133.466 409.336 134.766 408.536C136.099 407.702 137.099 406.369 137.766 404.536C138.432 402.702 138.766 400.286 138.766 397.286C138.766 394.152 138.432 391.669 137.766 389.836C137.132 388.002 136.149 386.686 134.816 385.886C133.482 385.086 131.766 384.686 129.666 384.686C129.066 384.686 128.399 384.702 127.666 384.736C126.966 384.736 126.266 384.752 125.566 384.786C124.899 384.819 124.249 384.852 123.616 384.886V409.486C124.116 409.519 124.632 409.552 125.166 409.586C125.699 409.619 126.232 409.652 126.766 409.686C127.299 409.686 127.832 409.702 128.366 409.736C128.899 409.736 129.416 409.736 129.916 409.736ZM160.75 403.636V379.686H167.5V403.686C167.5 404.619 167.633 405.436 167.9 406.136C168.167 406.802 168.533 407.369 169 407.836C169.467 408.269 170.017 408.619 170.65 408.886C171.283 409.152 171.967 409.336 172.7 409.436C173.467 409.536 174.233 409.586 175 409.586C175.833 409.586 176.617 409.536 177.35 409.436C178.083 409.302 178.75 409.102 179.35 408.836C179.983 408.569 180.533 408.219 181 407.786C181.467 407.319 181.817 406.752 182.05 406.086C182.317 405.419 182.45 404.619 182.45 403.686V379.686H189.25V403.636C189.25 405.369 189.033 406.886 188.6 408.186C188.167 409.452 187.533 410.536 186.7 411.436C185.9 412.336 184.917 413.069 183.75 413.636C182.583 414.169 181.25 414.552 179.75 414.786C178.283 415.052 176.7 415.186 175 415.186C173.3 415.186 171.717 415.052 170.25 414.786C168.783 414.552 167.467 414.169 166.3 413.636C165.133 413.069 164.133 412.336 163.3 411.436C162.467 410.536 161.833 409.452 161.4 408.186C160.967 406.886 160.75 405.369 160.75 403.636ZM204.092 397.736C204.092 393.336 204.708 389.769 205.942 387.036C207.175 384.302 209.008 382.319 211.442 381.086C213.908 379.819 216.958 379.186 220.592 379.186C221.692 379.186 222.692 379.219 223.592 379.286C224.525 379.319 225.392 379.402 226.192 379.536C227.025 379.636 227.825 379.786 228.592 379.986C229.358 380.152 230.142 380.352 230.942 380.586L229.542 386.086C228.575 385.819 227.625 385.619 226.692 385.486C225.758 385.319 224.842 385.202 223.942 385.136C223.075 385.069 222.175 385.036 221.242 385.036C219.508 385.036 217.992 385.252 216.692 385.686C215.425 386.119 214.375 386.836 213.542 387.836C212.708 388.802 212.092 390.102 211.692 391.736C211.292 393.369 211.092 395.352 211.092 397.686C211.092 399.886 211.292 401.736 211.692 403.236C212.092 404.702 212.692 405.902 213.492 406.836C214.325 407.736 215.358 408.386 216.592 408.786C217.825 409.186 219.275 409.386 220.942 409.386C222.475 409.386 224.075 409.286 225.742 409.086C227.442 408.852 228.992 408.536 230.392 408.136L231.592 413.536C230.792 413.802 229.958 414.036 229.092 414.236C228.258 414.436 227.358 414.602 226.392 414.736C225.425 414.869 224.408 414.969 223.342 415.036C222.275 415.136 221.108 415.186 219.842 415.186C217.275 415.186 215.008 414.869 213.042 414.236C211.075 413.602 209.425 412.619 208.092 411.286C206.758 409.919 205.758 408.119 205.092 405.886C204.425 403.652 204.092 400.936 204.092 397.736ZM243.809 414.686L255.259 379.436H263.409L274.959 414.686H267.409L265.109 407.186H253.309L250.959 414.686H243.809ZM254.559 401.536H263.809L259.209 385.136L254.559 401.536ZM310.776 385.736H300.326V414.686H293.476V385.736H282.976V379.686H310.776V385.736ZM325.026 414.686V379.686H331.876V414.686H325.026ZM362.816 409.736C363.849 409.736 364.799 409.619 365.666 409.386C366.566 409.152 367.366 408.752 368.066 408.186C368.799 407.586 369.416 406.819 369.916 405.886C370.449 404.952 370.849 403.769 371.116 402.336C371.416 400.869 371.566 399.152 371.566 397.186C371.566 395.186 371.416 393.469 371.116 392.036C370.816 390.569 370.399 389.369 369.866 388.436C369.366 387.469 368.766 386.702 368.066 386.136C367.366 385.569 366.566 385.169 365.666 384.936C364.766 384.702 363.816 384.586 362.816 384.586C361.849 384.586 360.932 384.702 360.066 384.936C359.199 385.169 358.399 385.569 357.666 386.136C356.966 386.669 356.349 387.419 355.816 388.386C355.316 389.352 354.916 390.569 354.616 392.036C354.349 393.469 354.216 395.186 354.216 397.186C354.216 399.186 354.349 400.902 354.616 402.336C354.916 403.736 355.332 404.919 355.866 405.886C356.399 406.852 357.016 407.619 357.716 408.186C358.449 408.752 359.232 409.152 360.066 409.386C360.932 409.619 361.849 409.736 362.816 409.736ZM362.866 415.186C360.966 415.186 359.216 415.002 357.616 414.636C356.016 414.236 354.566 413.619 353.266 412.786C351.966 411.919 350.866 410.802 349.966 409.436C349.099 408.036 348.416 406.336 347.916 404.336C347.449 402.302 347.216 399.919 347.216 397.186C347.216 394.452 347.432 392.086 347.866 390.086C348.332 388.086 348.999 386.402 349.866 385.036C350.766 383.636 351.866 382.502 353.166 381.636C354.466 380.736 355.916 380.102 357.516 379.736C359.116 379.369 360.899 379.186 362.866 379.186C364.799 379.186 366.582 379.386 368.216 379.786C369.849 380.152 371.299 380.752 372.566 381.586C373.832 382.419 374.916 383.536 375.816 384.936C376.716 386.302 377.399 387.986 377.866 389.986C378.332 391.986 378.566 394.336 378.566 397.036C378.566 399.836 378.332 402.252 377.866 404.286C377.399 406.319 376.699 408.036 375.766 409.436C374.866 410.802 373.782 411.919 372.516 412.786C371.249 413.619 369.799 414.236 368.166 414.636C366.566 415.002 364.799 415.186 362.866 415.186ZM393.927 414.686V379.586H400.427L415.677 404.036V379.686H421.777V414.786H415.327L400.077 390.686V414.686H393.927Z" fill="#1A2263"/>
<path d="M542.845 171.813L495.895 111.941C493.337 108.679 489.826 106.237 485.88 104.975L413.41 81.7911C407.295 79.8341 402.66 86.4977 406.623 91.5499L414.808 101.988C410.561 103.223 406.761 105.69 403.999 109.365C401.115 109.113 398.181 110.236 396.411 112.781C394.806 115.088 394.672 117.875 395.559 120.335L372.992 141.125C371.029 142.932 371.245 146.093 373.434 147.616L385.445 155.97C387.637 157.494 390.675 156.596 391.687 154.127L403.325 125.736C405.94 125.712 408.506 124.616 410.111 122.309C411.833 119.832 411.889 116.797 410.759 114.226C413.158 111.124 416.779 109.424 420.654 109.446L453.571 151.424C455.097 153.368 458.301 156.698 463.587 158.39L536.057 181.574C542.175 183.53 546.808 176.869 542.845 171.813ZM461.045 166.337C453.634 163.965 449.151 159.31 447.005 156.572L422.595 125.446L402.668 147.622C397.406 155.189 411.541 174.119 434.239 189.906C456.938 205.693 479.603 212.357 484.866 204.79L498.723 178.39L461.045 166.337Z" fill="url(#paint1_linear_298_65)"/>
<defs>
<linearGradient id="paint0_linear_298_65" x1="81.9771" y1="168.837" x2="414.658" y2="356.135" gradientUnits="userSpaceOnUse">
<stop stop-color="#4154F1"/>
<stop offset="1" stop-color="#CD38B5"/>
</linearGradient>
<linearGradient id="paint1_linear_298_65" x1="491.409" y1="107.708" x2="434.24" y2="189.906" gradientUnits="userSpaceOnUse">
<stop stop-color="#4154F1"/>
<stop offset="1" stop-color="#C43AB9"/>
</linearGradient>
</defs>
</svg>
