<svg width="505" height="249" viewBox="0 0 505 249" fill="none" xmlns="http://www.w3.org/2000/svg">
<path d="M311.878 69.1104H73.0618C69.8079 69.1104 67.1702 71.48 67.1702 74.4032V212.463C67.1702 215.386 69.8079 217.756 73.0618 217.756H311.878C315.132 217.756 317.77 215.386 317.77 212.463V74.4032C317.77 71.48 315.132 69.1104 311.878 69.1104Z" fill="#093F68"/>
<path d="M311.827 218.942H73.1127C71.2122 218.939 69.3907 218.259 68.0481 217.05C66.7054 215.842 65.9513 214.204 65.9513 212.497V74.4147C65.9513 72.7074 66.7054 71.0698 68.0481 69.8614C69.3907 68.6531 71.2122 67.9727 73.1127 67.9697H311.827C313.728 67.9727 315.549 68.6531 316.892 69.8614C318.235 71.0698 318.989 72.7074 318.989 74.4147V212.44C318.997 213.29 318.818 214.133 318.462 214.921C318.106 215.709 317.58 216.426 316.915 217.03C316.249 217.635 315.457 218.115 314.584 218.443C313.711 218.771 312.774 218.941 311.827 218.942ZM73.1127 70.2511C71.8858 70.2542 70.7102 70.6941 69.8438 71.4746C68.9774 72.2551 68.4908 73.3124 68.4908 74.4147V212.44C68.4824 212.991 68.5957 213.537 68.824 214.048C69.0524 214.559 69.3913 215.024 69.8211 215.417C70.251 215.809 70.7633 216.122 71.3283 216.335C71.8933 216.548 72.4998 216.659 73.1127 216.661H311.827C313.054 216.658 314.23 216.218 315.096 215.437C315.963 214.657 316.449 213.599 316.449 212.497V74.4147C316.449 73.3124 315.963 72.2551 315.096 71.4746C314.23 70.6941 313.054 70.2542 311.827 70.2511H73.1127Z" fill="#093F68"/>
<path d="M306.444 75.5205H78.4965C77.122 75.5205 76.0078 76.5215 76.0078 77.7563V195.762C76.0078 196.997 77.122 197.998 78.4965 197.998H306.444C307.818 197.998 308.932 196.997 308.932 195.762V77.7563C308.932 76.5215 307.818 75.5205 306.444 75.5205Z" fill="#F5F5F5"/>
<path d="M306.444 199.139H78.4965C77.4862 199.139 76.5173 198.779 75.8029 198.137C75.0886 197.495 74.6872 196.625 74.6872 195.717V77.7454C74.6872 76.8378 75.0886 75.9673 75.8029 75.3256C76.5173 74.6838 77.4862 74.3232 78.4965 74.3232H306.444C307.454 74.3232 308.423 74.6838 309.137 75.3256C309.852 75.9673 310.253 76.8378 310.253 77.7454V195.763C310.24 196.662 309.832 197.521 309.119 198.153C308.406 198.785 307.445 199.139 306.444 199.139ZM78.4965 76.6617C78.1597 76.6617 77.8368 76.7819 77.5986 76.9958C77.3605 77.2097 77.2267 77.4999 77.2267 77.8024V195.763C77.2267 196.065 77.3605 196.355 77.5986 196.569C77.8368 196.783 78.1597 196.903 78.4965 196.903H306.444C306.78 196.903 307.103 196.783 307.341 196.569C307.58 196.355 307.713 196.065 307.713 195.763V77.7454C307.713 77.4428 307.58 77.1527 307.341 76.9388C307.103 76.7248 306.78 76.6047 306.444 76.6047L78.4965 76.6617Z" fill="#093F68"/>
<path d="M169.056 217.767H215.872V237.991H169.056V217.767Z" fill="#093F68"/>
<path d="M215.884 239.132H169.056C168.719 239.132 168.396 239.012 168.158 238.798C167.92 238.584 167.786 238.294 167.786 237.991V217.801C167.786 217.498 167.92 217.208 168.158 216.994C168.396 216.78 168.719 216.66 169.056 216.66H215.884C216.221 216.66 216.544 216.78 216.782 216.994C217.02 217.208 217.154 217.498 217.154 217.801V237.991C217.154 238.294 217.02 238.584 216.782 238.798C216.544 239.012 216.221 239.132 215.884 239.132ZM170.325 236.851H214.615V218.942H170.325V236.851Z" fill="#093F68"/>
<path d="M250.854 237.991H134.099C131.364 237.991 129.147 239.983 129.147 242.44V243.398C129.147 245.855 131.364 247.847 134.099 247.847H250.854C253.589 247.847 255.806 245.855 255.806 243.398V242.44C255.806 239.983 253.589 237.991 250.854 237.991Z" fill="#093F68"/>
<path d="M250.879 248.999H134.061C132.41 248.996 130.827 248.405 129.661 247.355C128.494 246.305 127.839 244.882 127.839 243.398V242.44C127.843 240.959 128.499 239.539 129.665 238.491C130.831 237.443 132.412 236.854 134.061 236.851H250.879C252.528 236.854 254.109 237.443 255.275 238.491C256.441 239.539 257.097 240.959 257.101 242.44V243.398C257.101 244.882 256.446 246.305 255.279 247.355C254.113 248.405 252.53 248.996 250.879 248.999ZM134.061 239.132C133.578 239.132 133.099 239.218 132.652 239.384C132.205 239.55 131.799 239.794 131.457 240.101C131.115 240.408 130.844 240.773 130.659 241.174C130.474 241.575 130.379 242.006 130.379 242.44V243.398C130.379 244.277 130.766 245.119 131.457 245.741C132.147 246.364 133.083 246.715 134.061 246.718H250.879C251.857 246.715 252.793 246.364 253.484 245.741C254.174 245.119 254.561 244.277 254.561 243.398V242.44C254.561 242.006 254.466 241.575 254.281 241.174C254.096 240.773 253.825 240.408 253.483 240.101C253.141 239.794 252.735 239.55 252.288 239.384C251.841 239.218 251.363 239.132 250.879 239.132H134.061Z" fill="#093F68"/>
<path d="M295.168 211.755C297.545 211.755 299.472 210.024 299.472 207.888C299.472 205.753 297.545 204.021 295.168 204.021C292.791 204.021 290.864 205.753 290.864 207.888C290.864 210.024 292.791 211.755 295.168 211.755Z" fill="#F56132"/>
<path d="M295.168 212.896C294.066 212.896 292.988 212.603 292.071 212.052C291.154 211.502 290.44 210.72 290.018 209.805C289.596 208.89 289.486 207.883 289.701 206.912C289.916 205.94 290.447 205.048 291.226 204.348C292.006 203.647 292.999 203.17 294.081 202.977C295.162 202.784 296.283 202.883 297.301 203.262C298.32 203.641 299.19 204.283 299.803 205.106C300.415 205.93 300.742 206.898 300.742 207.889C300.739 209.216 300.151 210.488 299.106 211.426C298.061 212.365 296.645 212.893 295.168 212.896ZM295.168 205.162C294.568 205.162 293.981 205.322 293.482 205.622C292.983 205.921 292.594 206.347 292.364 206.845C292.135 207.343 292.075 207.892 292.192 208.42C292.309 208.949 292.598 209.435 293.022 209.816C293.447 210.198 293.987 210.457 294.576 210.562C295.165 210.668 295.775 210.614 296.329 210.407C296.884 210.201 297.358 209.852 297.691 209.403C298.025 208.955 298.203 208.428 298.203 207.889C298.203 207.166 297.883 206.472 297.314 205.961C296.745 205.45 295.973 205.162 295.168 205.162Z" fill="#093F68"/>
<path d="M137.248 87.3674V135.121C137.248 139.825 137.5 143.437 138.004 145.957C138.592 148.393 139.726 151.207 141.406 154.399C143.086 157.507 144.22 159.061 144.808 159.061C145.48 159.061 146.656 157.507 148.336 154.399C150.016 151.207 151.15 148.393 151.738 145.957C152.326 143.437 152.62 139.825 152.62 135.121V121.639C152.62 114.583 152.116 109.669 151.108 106.897C150.184 104.041 148.168 100.555 145.06 96.4394L160.18 85.8554C162.868 87.7034 165.178 91.1474 167.11 96.1874C169.042 101.227 170.008 107.275 170.008 114.331V135.121C170.008 141.673 169.378 147.091 168.118 151.375C166.858 155.575 163.372 160.909 157.66 167.377C152.032 173.845 147.79 177.079 144.934 177.079C143.17 177.079 140.692 175.483 137.5 172.291C134.392 169.099 131.41 165.361 128.554 161.077C125.53 165.445 122.464 169.225 119.356 172.417C116.332 175.525 113.938 177.079 112.174 177.079C109.318 177.079 105.034 173.845 99.3217 167.377C93.6937 160.909 90.2497 155.575 88.9897 151.375C87.7297 147.091 87.0997 141.673 87.0997 135.121V87.3674H104.488V135.121C104.488 140.581 104.782 144.361 105.37 146.461C105.958 148.561 107.092 151.207 108.772 154.399C110.452 157.507 111.586 159.061 112.174 159.061C112.846 159.061 114.022 157.507 115.702 154.399C117.382 151.207 118.474 148.393 118.978 145.957C119.566 143.437 119.86 139.825 119.86 135.121V87.3674H137.248ZM225.357 141.421V145.957H194.865C194.865 150.997 195.495 154.987 196.755 157.927C197.175 158.935 197.931 159.985 199.023 161.077C200.115 162.085 201.249 162.589 202.425 162.589C203.601 162.589 205.071 161.581 206.835 159.565C208.599 157.549 209.985 155.113 210.993 152.257L223.971 161.455C221.703 165.655 218.217 169.309 213.513 172.417C208.893 175.525 205.155 177.079 202.299 177.079C199.443 177.079 195.285 174.853 189.825 170.401C184.449 165.949 181.173 162.505 179.997 160.069C178.821 157.549 178.233 151.417 178.233 141.673C178.233 131.845 178.821 125.713 179.997 123.277C181.173 120.757 184.449 117.271 189.825 112.819C195.285 108.367 199.275 106.141 201.795 106.141C204.315 106.141 208.263 108.367 213.639 112.819C219.099 117.271 222.417 120.757 223.593 123.277C224.769 125.713 225.357 131.761 225.357 141.421ZM207.843 125.671C207.255 124.495 206.289 123.361 204.945 122.269C203.685 121.177 202.467 120.631 201.291 120.631C200.199 120.631 198.939 121.765 197.511 124.033C196.083 126.217 195.201 129.535 194.865 133.987H209.229C208.977 129.535 208.515 126.763 207.843 125.671ZM238.629 175.567V106.771C238.629 102.487 238.125 99.2114 237.117 96.9434C236.109 94.6754 234.513 92.6174 232.329 90.7694L246.189 81.0674C252.237 85.8554 255.261 92.6174 255.261 101.353V112.819C260.301 108.367 263.913 106.141 266.097 106.141C268.365 106.141 271.767 108.409 276.303 112.945C280.923 117.397 283.569 120.673 284.241 122.773C285.165 124.873 285.627 131.173 285.627 141.673C285.627 152.089 285.165 158.347 284.241 160.447C283.569 162.547 280.923 165.865 276.303 170.401C271.767 174.853 268.491 177.079 266.475 177.079C263.535 177.079 258.831 174.013 252.363 167.881L250.977 175.567H238.629ZM255.891 156.415C256.479 157.423 257.655 158.515 259.419 159.691C261.267 160.783 262.653 161.329 263.577 161.329C264.501 161.329 265.467 160.783 266.475 159.691C267.567 158.599 268.365 157.465 268.869 156.289C269.373 155.113 269.625 150.241 269.625 141.673C269.625 133.021 269.373 128.149 268.869 127.057C268.365 125.881 267.567 124.747 266.475 123.655C265.467 122.479 264.501 121.891 263.577 121.891C262.737 121.891 261.393 122.479 259.545 123.655C257.781 124.747 256.605 125.713 256.017 126.553C255.345 127.981 255.009 133.063 255.009 141.799C255.009 150.451 255.303 155.323 255.891 156.415Z" fill="url(#paint0_linear_682_50)"/>
<rect x="65.9513" y="197.854" width="419.262" height="43.0703" rx="6" fill="#FFC901"/>
<path d="M330.326 109.419H347.75V155.091C347.75 159.579 348.278 163.055 349.334 165.519C350.39 167.983 352.062 170.139 354.35 171.987L339.83 182.151C333.494 177.135 330.326 170.007 330.326 160.767V109.419ZM339.302 81.8314C340.27 81.8314 342.426 83.2834 345.77 86.1874C349.114 89.0034 350.786 90.9394 350.786 91.9954C350.786 92.9634 349.07 94.8994 345.638 97.8034C342.294 100.707 340.138 102.159 339.17 102.159C338.29 102.159 336.178 100.751 332.834 97.9354C329.49 95.0314 327.818 93.0954 327.818 92.1274C327.818 91.0714 329.49 89.0914 332.834 86.1874C336.266 83.2834 338.422 81.8314 339.302 81.8314ZM408.428 109.419V163.539C408.956 166.619 411.024 169.347 414.632 171.723L402.752 181.887C401.608 181.095 400.2 179.687 398.528 177.663C396.856 175.639 395.448 173.571 394.304 171.459C387 178.587 381.896 182.151 378.992 182.151C376.88 182.151 373.448 179.819 368.696 175.155C364.032 170.491 361.128 166.707 359.984 163.803C358.84 160.899 358.268 154.651 358.268 145.059C358.268 135.379 358.84 129.087 359.984 126.183C361.128 123.279 364.032 119.495 368.696 114.831C373.448 110.167 376.88 107.835 378.992 107.835C382.072 107.835 387.044 111.003 393.908 117.339L395.492 109.419H408.428ZM390.08 129.615C389.464 128.471 388.188 127.327 386.252 126.183C384.404 124.951 382.996 124.335 382.028 124.335C381.06 124.335 380.004 124.907 378.86 126.051C377.804 127.195 377.1 128.251 376.748 129.219C375.604 130.803 375.032 136.083 375.032 145.059C375.032 153.947 375.604 159.183 376.748 160.767C377.1 161.647 377.804 162.703 378.86 163.935C380.004 165.079 381.06 165.651 382.028 165.651C382.996 165.651 384.404 165.079 386.252 163.935C388.188 162.703 389.42 161.603 389.948 160.635C390.564 159.667 390.916 154.519 391.004 145.191C391.004 135.863 390.696 130.671 390.08 129.615ZM442.573 180.567H425.149V135.027C425.149 130.539 424.621 127.063 423.565 124.599C422.509 122.135 420.837 119.979 418.549 118.131L433.069 107.967C436.325 110.607 438.745 113.643 440.329 117.075C446.841 110.915 451.417 107.835 454.057 107.835C456.785 107.835 460.833 110.299 466.201 115.227C471.657 120.067 474.385 124.863 474.385 129.615V155.091C474.385 159.579 474.913 163.055 475.969 165.519C477.025 167.983 478.697 170.139 480.985 171.987L466.465 182.151C460.129 177.135 456.961 170.007 456.961 160.767V131.463C456.961 129.967 456.169 128.427 454.585 126.843C453.001 125.171 451.505 124.335 450.097 124.335C448.777 124.335 446.269 126.183 442.573 129.879V180.567Z" fill="#1A2263"/>
<path d="M83.2277 109.178L83.2277 111.727L85.8012 111.633C93.9956 111.335 99.3245 107.508 102.529 102.82C105.651 98.2526 106.712 92.9593 106.759 89.4691L106.793 86.979L104.278 86.979L85.7715 86.9791L83.2277 86.9791L83.2277 89.4975L83.2277 109.178Z" fill="#FFC901" stroke="white" stroke-width="5"/>
<path d="M81.4847 234.527V210.727H97.8047V214.807H86.2107V220.315H96.9887V224.293H86.2107V230.447H98.4167V234.527H81.4847ZM135.917 234.867C134.852 234.867 133.821 234.856 132.823 234.833C131.849 234.811 130.897 234.777 129.967 234.731C129.038 234.686 128.12 234.641 127.213 234.595V210.727C128.233 210.637 129.197 210.569 130.103 210.523C131.033 210.478 131.951 210.444 132.857 210.421C133.764 210.399 134.693 210.387 135.645 210.387C138.343 210.387 140.53 210.818 142.207 211.679C143.885 212.518 145.109 213.844 145.879 215.657C146.673 217.448 147.069 219.783 147.069 222.661C147.069 225.472 146.65 227.784 145.811 229.597C144.995 231.388 143.76 232.714 142.105 233.575C140.473 234.437 138.411 234.867 135.917 234.867ZM136.189 231.161C137.504 231.161 138.603 230.889 139.487 230.345C140.394 229.779 141.074 228.872 141.527 227.625C141.981 226.379 142.207 224.735 142.207 222.695C142.207 220.565 141.981 218.876 141.527 217.629C141.097 216.383 140.428 215.487 139.521 214.943C138.615 214.399 137.447 214.127 136.019 214.127C135.611 214.127 135.158 214.139 134.659 214.161C134.183 214.161 133.707 214.173 133.231 214.195C132.778 214.218 132.336 214.241 131.905 214.263V230.991C132.245 231.014 132.597 231.037 132.959 231.059C133.322 231.082 133.685 231.105 134.047 231.127C134.41 231.127 134.773 231.139 135.135 231.161C135.498 231.161 135.849 231.161 136.189 231.161ZM175.857 227.013V210.727H180.447V227.047C180.447 227.682 180.537 228.237 180.719 228.713C180.9 229.167 181.149 229.552 181.467 229.869C181.784 230.164 182.158 230.402 182.589 230.583C183.019 230.765 183.484 230.889 183.983 230.957C184.504 231.025 185.025 231.059 185.547 231.059C186.113 231.059 186.646 231.025 187.145 230.957C187.643 230.867 188.097 230.731 188.505 230.549C188.935 230.368 189.309 230.13 189.627 229.835C189.944 229.518 190.182 229.133 190.341 228.679C190.522 228.226 190.613 227.682 190.613 227.047V210.727H195.237V227.013C195.237 228.192 195.089 229.223 194.795 230.107C194.5 230.969 194.069 231.705 193.503 232.317C192.959 232.929 192.29 233.428 191.497 233.813C190.703 234.176 189.797 234.437 188.777 234.595C187.779 234.777 186.703 234.867 185.547 234.867C184.391 234.867 183.314 234.777 182.317 234.595C181.319 234.437 180.424 234.176 179.631 233.813C178.837 233.428 178.157 232.929 177.591 232.317C177.024 231.705 176.593 230.969 176.299 230.107C176.004 229.223 175.857 228.192 175.857 227.013ZM224.029 223.001C224.029 220.009 224.448 217.584 225.287 215.725C226.126 213.867 227.372 212.518 229.027 211.679C230.704 210.818 232.778 210.387 235.249 210.387C235.997 210.387 236.677 210.41 237.289 210.455C237.924 210.478 238.513 210.535 239.057 210.625C239.624 210.693 240.168 210.795 240.689 210.931C241.21 211.045 241.743 211.181 242.287 211.339L241.335 215.079C240.678 214.898 240.032 214.762 239.397 214.671C238.762 214.558 238.139 214.479 237.527 214.433C236.938 214.388 236.326 214.365 235.691 214.365C234.512 214.365 233.481 214.513 232.597 214.807C231.736 215.102 231.022 215.589 230.455 216.269C229.888 216.927 229.469 217.811 229.197 218.921C228.925 220.032 228.789 221.381 228.789 222.967C228.789 224.463 228.925 225.721 229.197 226.741C229.469 227.739 229.877 228.555 230.421 229.189C230.988 229.801 231.69 230.243 232.529 230.515C233.368 230.787 234.354 230.923 235.487 230.923C236.53 230.923 237.618 230.855 238.751 230.719C239.907 230.561 240.961 230.345 241.913 230.073L242.729 233.745C242.185 233.927 241.618 234.085 241.029 234.221C240.462 234.357 239.85 234.471 239.193 234.561C238.536 234.652 237.844 234.72 237.119 234.765C236.394 234.833 235.6 234.867 234.739 234.867C232.994 234.867 231.452 234.652 230.115 234.221C228.778 233.791 227.656 233.122 226.749 232.215C225.842 231.286 225.162 230.062 224.709 228.543C224.256 227.025 224.029 225.177 224.029 223.001ZM269.737 234.527L277.523 210.557H283.065L290.919 234.527H285.785L284.221 229.427H276.197L274.599 234.527H269.737ZM277.047 225.585H283.337L280.209 214.433L277.047 225.585ZM333.974 214.841H326.868V234.527H322.21V214.841H315.07V210.727H333.974V214.841ZM362.365 234.527V210.727H367.023V234.527H362.365ZM406.761 231.161C407.464 231.161 408.11 231.082 408.699 230.923C409.311 230.765 409.855 230.493 410.331 230.107C410.83 229.699 411.249 229.178 411.589 228.543C411.952 227.909 412.224 227.104 412.405 226.129C412.609 225.132 412.711 223.965 412.711 222.627C412.711 221.267 412.609 220.1 412.405 219.125C412.201 218.128 411.918 217.312 411.555 216.677C411.215 216.02 410.807 215.499 410.331 215.113C409.855 214.728 409.311 214.456 408.699 214.297C408.087 214.139 407.441 214.059 406.761 214.059C406.104 214.059 405.481 214.139 404.891 214.297C404.302 214.456 403.758 214.728 403.259 215.113C402.783 215.476 402.364 215.986 402.001 216.643C401.661 217.301 401.389 218.128 401.185 219.125C401.004 220.1 400.913 221.267 400.913 222.627C400.913 223.987 401.004 225.155 401.185 226.129C401.389 227.081 401.673 227.886 402.035 228.543C402.398 229.201 402.817 229.722 403.293 230.107C403.792 230.493 404.325 230.765 404.891 230.923C405.481 231.082 406.104 231.161 406.761 231.161ZM406.795 234.867C405.503 234.867 404.313 234.743 403.225 234.493C402.137 234.221 401.151 233.802 400.267 233.235C399.383 232.646 398.635 231.887 398.023 230.957C397.434 230.005 396.969 228.849 396.629 227.489C396.312 226.107 396.153 224.486 396.153 222.627C396.153 220.769 396.301 219.159 396.595 217.799C396.913 216.439 397.366 215.295 397.955 214.365C398.567 213.413 399.315 212.643 400.199 212.053C401.083 211.441 402.069 211.011 403.157 210.761C404.245 210.512 405.458 210.387 406.795 210.387C408.11 210.387 409.323 210.523 410.433 210.795C411.544 211.045 412.53 211.453 413.391 212.019C414.253 212.586 414.989 213.345 415.601 214.297C416.213 215.227 416.678 216.371 416.995 217.731C417.313 219.091 417.471 220.689 417.471 222.525C417.471 224.429 417.313 226.073 416.995 227.455C416.678 228.838 416.202 230.005 415.567 230.957C414.955 231.887 414.219 232.646 413.357 233.235C412.496 233.802 411.51 234.221 410.399 234.493C409.311 234.743 408.11 234.867 406.795 234.867ZM446.617 234.527V210.659H451.037L461.407 227.285V210.727H465.555V234.595H461.169L450.799 218.207V234.527H446.617Z" fill="#1A2263"/>
<path d="M90.8131 13.5051L45.5303 30.1678C43.0627 31.0758 40.905 32.7184 39.3742 34.8542L11.2571 74.0684C8.88417 77.3773 12.0021 81.473 15.8233 80.0666L23.7178 77.1615C23.635 79.9655 24.3835 82.7395 26.0627 85.1228C25.3486 86.8136 25.4542 88.8031 26.645 90.3674C27.7247 91.7857 29.3805 92.4101 31.0376 92.3539L39.1848 110.025C39.8933 111.562 41.8427 112.048 43.1886 111.023L50.5708 105.404C51.9181 104.378 51.9685 102.37 50.6759 101.278L35.8108 88.7202C36.3061 87.1378 36.145 85.3756 35.0653 83.9573C33.9065 82.4351 32.0857 81.8095 30.3137 81.9906C28.9094 79.9383 28.5897 77.4219 29.3581 75.0872L61.1071 63.4052C62.5775 62.8635 65.2117 61.5793 67.2631 58.7188L95.3802 19.5046C97.7535 16.1933 94.6366 12.099 90.8131 13.5051ZM71.5637 61.802C68.6875 65.812 65.0043 67.6101 62.9342 68.3713L39.3923 77.0349L48.8906 93.3827C52.4312 98.0336 66.6102 93.1934 80.5615 82.5727C94.5129 71.952 102.953 59.5731 99.4123 54.9222L86.1818 41.4135L71.5637 61.802Z" fill="url(#paint1_linear_682_50)"/>
<defs>
<linearGradient id="paint0_linear_682_50" x1="81.1569" y1="73.6904" x2="292.134" y2="192.47" gradientUnits="userSpaceOnUse">
<stop stop-color="#4154F1"/>
<stop offset="1" stop-color="#CD38B5"/>
</linearGradient>
<linearGradient id="paint1_linear_682_50" x1="42.1013" y1="32.0503" x2="80.562" y2="82.5724" gradientUnits="userSpaceOnUse">
<stop stop-color="#4154F1"/>
<stop offset="1" stop-color="#CD38B5"/>
</linearGradient>
</defs>
</svg>
