<svg width="127" height="50" viewBox="0 0 127 50" fill="none" xmlns="http://www.w3.org/2000/svg">
<path fill-rule="evenodd" clip-rule="evenodd" d="M54.8531 43.045C54.5295 42.9234 53.9633 42.8022 53.5182 42.8022C52.7496 42.8022 51.7789 42.9639 51.0911 43.2875V49.3551H52.9115V44.1371C53.0732 44.056 53.3563 44.0157 53.5991 44.0157C53.9228 44.0157 54.2058 44.056 54.4487 44.1774L54.8531 43.045ZM79.8917 46.1192C79.8917 46.8068 79.8513 48.1819 78.88 48.1819C77.9094 48.1819 77.9094 46.8068 77.9094 46.1192C77.9094 45.4314 77.9094 43.9752 78.88 43.9752C79.8513 43.9752 79.8917 45.4314 79.8917 46.1192ZM81.7117 46.1596C81.7117 44.3796 80.8219 42.8022 78.88 42.8022C76.9388 42.8022 76.0894 44.3796 76.0894 46.1596C76.0894 47.9394 76.9388 49.436 78.88 49.436C80.8219 49.436 81.7117 47.9394 81.7117 46.1596ZM75.7656 49.1529L75.5233 48.0203C75.1996 48.1819 74.9162 48.2225 74.552 48.2225C74.1071 48.2225 73.7437 48.0203 73.5814 47.6966C73.2577 47.2519 73.1769 46.6045 73.1769 46.1596C73.1769 45.7148 73.2577 45.1886 73.4603 44.7438C73.6622 44.2991 74.0667 44.056 74.552 44.056C74.8354 44.056 75.2399 44.1371 75.4822 44.2991L75.7252 43.1259C75.3207 42.9234 74.7143 42.8022 74.1482 42.8022C72.3275 42.8022 71.3165 44.3796 71.3165 46.1192C71.3165 48.1819 72.2871 49.436 74.1482 49.436C74.6732 49.436 75.3207 49.3551 75.7656 49.1529ZM70.5074 49.3551V44.7841C70.5074 43.3684 69.5765 42.8022 68.2418 42.8022C67.5142 42.8022 66.7859 43.045 66.2199 43.3684C65.6534 42.9639 64.8039 42.8022 64.116 42.8022C63.307 42.8022 62.1342 43.045 61.4869 43.3281V49.3551H63.307V44.1371C63.5096 44.056 63.7927 44.0157 64.1565 44.0157C64.6824 44.0157 65.1272 44.2585 65.1272 44.8247V49.3551H66.9474V44.2991C67.1501 44.1371 67.595 44.0157 67.8784 44.0157C68.3637 44.0157 68.6867 44.2991 68.6867 44.8652V49.3551H70.5074ZM60.2734 49.3551V43.2067C59.5047 42.9639 58.8172 42.8022 58.1295 42.8022C55.8241 42.8022 54.5295 44.2991 54.5295 46.564C54.5295 48.0203 55.2171 49.4766 56.835 49.4766C57.4826 49.4766 58.1295 49.1935 58.4935 48.8292V49.3551H60.2734ZM50.444 49.3551L47.5319 40.2134H45.59L42.5969 49.3551H44.4574L45.0238 47.3733H47.8958L48.4619 49.3551H50.444ZM40.0483 41.1031C40.0483 40.5773 39.6035 40.1728 39.0371 40.1728C38.4709 40.1728 38.0259 40.5773 38.0259 41.1031C38.0259 41.6293 38.4709 42.0339 39.0371 42.0339C39.6035 42.0339 40.0483 41.6293 40.0483 41.1031ZM38.1473 49.3551H39.9674V42.9639H38.1473V49.3551ZM36.7719 48.9909V40.0517H34.9517V42.9639C34.6283 42.9234 34.3047 42.8831 33.9807 42.8831C32.1203 42.8831 31.1091 44.4607 31.1091 46.2001C31.1091 48.2225 32.2011 49.4766 34.2235 49.4766C34.9517 49.4766 36.0843 49.3145 36.7719 48.9909ZM30.2595 48.9507V42.9639H28.4393V48.0609C28.318 48.1819 27.8732 48.2225 27.6301 48.2225C27.0639 48.2225 26.7406 47.9394 26.7406 47.3733V42.9639H24.9201V47.2113C24.9201 48.9507 25.7696 49.4766 27.4281 49.4766C28.4796 49.4766 29.6934 49.2337 30.2595 48.9507ZM23.7469 49.3551V43.2067C22.9785 42.9639 22.291 42.8022 21.6031 42.8022C19.2976 42.8022 18.0033 44.2991 18.0033 46.564C18.0033 48.0203 18.6909 49.4766 20.3088 49.4766C20.9561 49.4766 21.6031 49.1935 21.9673 48.8292V49.3551H23.7469ZM17.3155 46.8068C17.3155 45.9167 16.8707 45.2697 16.2637 44.7841C15.9403 44.5416 15.0908 44.0965 14.484 43.7729C13.9581 43.5304 13.4325 43.1665 13.4325 42.6C13.4325 41.9124 13.9581 41.5888 14.6457 41.5888C15.3335 41.5482 15.9403 41.7505 16.5068 41.9933L16.9918 40.6987C16.3042 40.3348 15.3739 40.1325 14.5649 40.1325C12.9064 40.1325 11.5718 40.9818 11.5718 42.6808C11.5718 43.7729 12.1785 44.4201 12.8255 44.8247C13.3514 45.1078 14.039 45.4314 14.484 45.6742C15.0908 45.9978 15.4144 46.3618 15.4144 46.8876C15.4144 47.6158 14.6863 47.9394 13.9987 47.9394C13.2706 47.9394 12.2593 47.6158 11.9357 47.4944L11.5312 48.8292C12.4211 49.1935 13.2706 49.3954 14.2009 49.3954C15.7783 49.3954 17.3155 48.5059 17.3155 46.8068ZM58.4532 47.8583C58.2104 48.0608 57.8867 48.1819 57.5631 48.1819C56.5925 48.1819 56.4305 46.9685 56.4305 46.2001C56.4305 45.1483 56.7947 43.854 58.0487 43.854C58.1701 43.854 58.3318 43.8943 58.4532 43.9349V47.8583ZM47.5721 46.1596H45.3472L46.4801 42.1144H46.5203L47.5721 46.1596ZM34.9517 48.1819C34.79 48.2628 34.5471 48.3034 34.345 48.3034C33.172 48.3034 33.0101 47.0088 33.0101 46.1192C33.0101 45.1483 33.2123 43.8943 34.4258 43.8943C34.5877 43.8943 34.79 43.9349 34.9517 43.9752V48.1819ZM21.9267 47.8583C21.6436 48.0608 21.3605 48.1819 21.0369 48.1819C20.066 48.1819 19.9043 46.9685 19.9043 46.2001C19.9043 45.1483 20.2685 43.854 21.5222 43.854C21.6436 43.854 21.8056 43.8943 21.9267 43.9349V47.8583Z" fill="#2550A7"/>
<path fill-rule="evenodd" clip-rule="evenodd" d="M69.1693 33.0533C69.1693 33.7814 69.1289 35.1971 68.1172 35.1971C67.1063 35.1971 67.1063 33.7408 67.1063 33.0533C67.1063 32.3657 67.1063 30.8689 68.1172 30.8689C69.1289 30.8689 69.1693 32.3657 69.1693 33.0533ZM72.1625 36.37H74.0229V27.2282H72.1625V36.37ZM77.6225 36.4511V29.8174H75.7621V36.6533C75.7621 37.6239 75.1961 37.907 74.387 37.907C73.8614 37.907 73.0927 37.7051 72.6478 37.5431L72.2432 38.6757C72.8497 38.9993 74.0229 39.2422 74.7108 39.2422C76.5712 39.2422 77.6225 38.2712 77.6225 36.4511ZM71.0297 33.0935C71.0297 31.2734 70.1399 29.6554 68.1172 29.6554C66.135 29.6554 65.2452 31.2734 65.2452 33.0935C65.2452 33.3363 65.2858 33.6197 65.3263 33.8622C65.3667 34.1048 65.4072 34.3476 65.4072 34.4689C65.4072 34.9543 65.1644 35.1971 64.3957 35.1971H63.0611C63.5062 34.914 63.7893 34.3072 63.7893 33.7814C63.7893 31.3545 60.1486 31.1925 60.1486 29.534C60.1486 28.8059 60.7959 28.6036 61.4432 28.6036C61.9691 28.6036 62.6567 28.7251 63.2228 29.0085L63.6679 27.7544C63.0611 27.3902 62.0902 27.188 61.1196 27.188C59.6633 27.188 58.207 27.9567 58.207 29.534C58.207 32.3251 61.8071 32.2845 61.8071 33.9836C61.8071 34.7523 61.3215 35.1971 59.9464 35.1971H57.3578V30.1408C56.8316 29.8577 55.9016 29.6554 55.0115 29.6554C52.7869 29.6554 51.614 31.0306 51.614 33.2152C51.614 34.914 52.5038 36.4105 54.3239 36.4105C54.6882 36.4105 55.1734 36.37 55.4971 36.168V36.6533C55.4971 37.5431 54.9712 37.907 54.1217 37.907C53.5958 37.907 52.8274 37.7051 52.3824 37.5431L51.9779 38.6757C52.5846 38.9993 53.7575 39.2422 54.4454 39.2422C56.306 39.2422 57.3578 38.1904 57.3578 36.37H64.679C65.3263 36.37 65.8927 36.168 66.2164 35.7633C66.3376 35.8846 66.621 36.0869 66.7825 36.168C67.1466 36.37 67.5916 36.4913 68.1172 36.4913C70.1399 36.4913 71.0297 34.914 71.0297 33.0935ZM46.7193 36.37H48.6206V27.2282H46.7193V36.37ZM44.9397 34.2261V27.2282H43.0787V34.3476C43.0787 34.914 42.7148 35.2374 42.1486 35.2374C41.3397 35.2374 40.7735 35.0756 40.3285 34.8734V29.8174H38.4272V35.1162C38.1844 35.2374 37.7799 35.2779 37.5374 35.2779C36.9307 35.2779 36.607 35.0756 36.607 34.4287V29.8174H34.7463V35.0354C34.544 35.1971 34.1801 35.2779 33.8565 35.2779C33.2092 35.2779 32.9664 34.9543 32.9664 34.3881V29.8174H31.0654V34.3072C31.0654 34.914 30.7823 35.1971 30.135 35.1971H25.9282V31.0711C26.0899 30.9903 26.4541 30.9094 26.6969 30.9094C27.0205 30.9094 27.2225 31.0306 27.3845 31.1925C27.5867 31.3948 27.627 31.9612 27.627 32.4871C27.627 33.2152 27.5461 33.943 27.5059 34.3072H29.2857C29.3261 33.8622 29.4475 32.851 29.4475 32.2037C29.4475 31.7993 29.4072 31.3948 29.3261 31.1117C29.0833 30.0193 28.1531 29.6554 26.7778 29.6554C25.8474 29.6554 24.5934 29.898 24.0273 30.1813V35.1971H22.3688V30.1408C21.8831 29.8577 20.9531 29.6554 20.063 29.6554C17.798 29.6554 16.6248 31.0306 16.6248 33.2152C16.6248 34.914 17.5553 36.4105 19.3351 36.4105C19.699 36.4105 20.1844 36.37 20.508 36.168V36.6533C20.508 37.5431 19.9821 37.907 19.1329 37.907C18.607 37.907 17.8789 37.7051 17.3933 37.5431L16.9888 38.6757C17.5958 38.9993 18.8089 39.2422 19.4968 39.2422C21.317 39.2422 22.3688 38.1904 22.3688 36.37C23.2588 36.37 24.4317 36.37 25.3621 36.37H30.2159C30.7418 36.37 31.2676 36.2082 31.5507 35.9252C31.8338 36.2488 32.6025 36.5319 33.3306 36.5319C34.099 36.5319 34.9082 36.4105 35.4341 35.9252C36.0003 36.4105 36.8498 36.5319 37.578 36.5319C38.4272 36.5319 39.2365 36.3297 39.7215 36.0463C40.3285 36.2894 41.1777 36.5319 42.1892 36.5319C43.8071 36.5319 44.9397 35.9657 44.9397 34.2261ZM15.8968 33.1341C15.8968 32.0015 15.6542 31.1519 15.1284 30.5455C14.6025 29.9791 13.8744 29.6554 12.944 29.6554C12.4587 29.6554 11.8114 29.7768 11.3664 29.9791L11.6494 31.1519C11.9328 31.0306 12.297 30.95 12.5801 30.95C13.1057 30.95 13.4699 31.2331 13.6721 31.597C13.8744 32.042 13.9552 32.7296 13.9552 33.1341C13.9552 33.7002 13.8744 34.4287 13.4699 34.8734C13.227 35.1568 12.944 35.2374 12.3372 35.2374H11.043L10.8002 36.4913H12.7418C13.6316 36.4913 14.4405 36.2488 15.0067 35.6418C15.5731 34.9948 15.8968 34.1048 15.8968 33.1341ZM3.2764 27.9161C3.2764 27.4308 2.83164 27.0263 2.30575 27.0263C1.77987 27.0263 1.33482 27.4308 1.33482 27.9161C1.33482 28.4014 1.77987 28.8059 2.30575 28.8059C2.83164 28.8059 3.2764 28.4014 3.2764 27.9161ZM5.70356 27.9161C5.70356 27.4308 5.29911 27.0263 4.7327 27.0263C4.20681 27.0263 3.76205 27.4308 3.76205 27.9161C3.76205 28.4014 4.20681 28.8059 4.7327 28.8059C5.29911 28.8059 5.70356 28.4014 5.70356 27.9161ZM8.17074 38.3521C8.17074 37.8667 7.72598 37.4623 7.20009 37.4623C6.67421 37.4623 6.22945 37.8667 6.22945 38.3521C6.22945 38.7971 6.67421 39.2422 7.20009 39.2422C7.72598 39.2422 8.17074 38.7971 8.17074 38.3521ZM10.5979 38.3521C10.5979 37.8667 10.1529 37.4623 9.62726 37.4623C9.10115 37.4623 8.65639 37.8667 8.65639 38.3521C8.65639 38.7971 9.10115 39.2422 9.62726 39.2422C10.1529 39.2422 10.5979 38.7971 10.5979 38.3521ZM10.5168 34.2261V29.8174H8.65639V34.3476C8.65639 34.914 8.29217 35.2374 7.76658 35.2374C7.15957 35.2374 6.22945 35.0756 5.74387 34.8328V30.1408C5.29911 29.898 4.36848 29.6554 3.39783 29.6554C1.13262 29.6554 0 31.2734 0 33.2555C0 35.6015 1.45625 36.5319 2.95278 36.5319C3.80229 36.5319 4.53043 36.2488 5.01601 35.9252C5.82499 36.3297 6.83616 36.5319 7.80681 36.5319C9.38447 36.5319 10.5168 36.006 10.5168 34.2261ZM55.4971 35.1568C55.3351 35.2374 55.1329 35.2779 54.9307 35.2779C53.7575 35.2779 53.5958 34.1859 53.5958 33.1341C53.5958 31.8801 53.8386 30.788 54.9307 30.788C55.0926 30.788 55.3351 30.788 55.4971 30.8689V35.1568ZM20.508 35.1568C20.3461 35.2374 20.1441 35.2779 19.9416 35.2779C18.7687 35.2779 18.607 34.1859 18.607 33.1341C18.607 31.8801 18.8495 30.788 19.9416 30.788C20.1036 30.788 20.3866 30.788 20.508 30.8689V35.1568ZM3.88341 35.1971C3.68093 35.2779 3.47866 35.3587 3.23588 35.3587C2.02273 35.3587 1.94161 34.1048 1.94161 33.1746C1.94161 32.2443 2.06296 30.7475 3.2764 30.7475C3.47866 30.7475 3.68093 30.788 3.88341 30.8689V35.1971ZM79.281 36.37C79.281 36.37 79.281 30.9903 79.281 30.6666C79.281 29.7768 79.6855 29.3724 79.1599 28.5228C78.6746 27.7947 79.281 27.2282 79.281 27.2282H81.1421C81.1421 27.2282 80.535 27.8352 81.0614 28.5228C81.587 29.2104 81.1421 29.898 81.1421 30.7072C81.1421 31.435 81.1421 36.37 81.1421 36.37H79.281Z" fill="#2550A7"/>
<path fill-rule="evenodd" clip-rule="evenodd" d="M126.725 0.00353622C126.729 0.00858688 126.734 0.0121956 126.738 0.0165215V36.3281H90.4141V0.00353622H126.725Z" fill="#2550A7"/>
<path fill-rule="evenodd" clip-rule="evenodd" d="M116.297 0.00353622C120.393 2.75954 123.939 6.26979 126.738 10.3346V36.3281H90.4141V0.00353622H116.297Z" fill="#2550A7"/>
<path fill-rule="evenodd" clip-rule="evenodd" d="M90.4141 0.259529C91.7524 0.0907936 93.116 0.00353622 94.4997 0.00353622C111.003 0.00353622 124.635 12.301 126.738 28.1993V36.3281H90.4141V0.259529Z" fill="#2550A7"/>
<path fill-rule="evenodd" clip-rule="evenodd" d="M90.4141 0.503254C91.7517 0.333801 93.1153 0.246544 94.4997 0.246544C112.298 0.246544 126.738 14.6871 126.738 32.4855C126.738 33.786 126.659 35.0677 126.508 36.3281H90.4141V0.503254Z" fill="#2450A5"/>
<path fill-rule="evenodd" clip-rule="evenodd" d="M90.4141 0.787361C91.7517 0.617184 93.1153 0.529934 94.4997 0.529934C112.176 0.529934 126.495 14.8493 126.495 32.4855C126.495 33.7863 126.415 35.0679 126.264 36.3281H90.4141V0.787361Z" fill="#2452A5"/>
<path fill-rule="evenodd" clip-rule="evenodd" d="M90.4141 1.03325C91.7517 0.861633 93.1153 0.772221 94.4997 0.772221C112.014 0.772221 126.212 14.9704 126.212 32.4855C126.212 33.7866 126.132 35.0682 125.98 36.3281H90.4141V1.03325Z" fill="#2353A6"/>
<path fill-rule="evenodd" clip-rule="evenodd" d="M90.4141 1.31953C91.7517 1.14574 93.1145 1.05561 94.4997 1.05561C111.893 1.05561 125.969 15.1327 125.969 32.4855C125.969 33.7866 125.889 35.0685 125.736 36.3281H90.4141V1.31953Z" fill="#2053A4"/>
<path fill-rule="evenodd" clip-rule="evenodd" d="M90.4141 1.56397C91.751 1.38947 93.1145 1.29861 94.4997 1.29861C111.731 1.29861 125.687 15.2538 125.687 32.4855C125.687 33.7869 125.605 35.0687 125.45 36.3281H90.4141V1.56397Z" fill="#2055A4"/>
<path fill-rule="evenodd" clip-rule="evenodd" d="M90.4141 1.81059C91.751 1.63392 93.1145 1.5409 94.4997 1.5409C111.569 1.5409 125.444 15.4154 125.444 32.4855C125.444 33.7872 125.362 35.069 125.206 36.3281H90.4141V1.81059Z" fill="#2156A3"/>
<path fill-rule="evenodd" clip-rule="evenodd" d="M90.4141 2.09469C91.7502 1.9173 93.1138 1.82428 94.4997 1.82428C111.447 1.82428 125.201 15.5365 125.201 32.4855C125.201 33.7869 125.119 35.069 124.961 36.3281H90.4141V2.09469Z" fill="#2057A0"/>
<path fill-rule="evenodd" clip-rule="evenodd" d="M90.4141 2.34131C91.7502 2.16176 93.1138 2.06729 94.4997 2.06729C111.326 2.06729 124.918 15.6987 124.918 32.4855C124.918 33.7874 124.835 35.0696 124.678 36.3281H90.4141V2.34131Z" fill="#1F59A1"/>
<path fill-rule="evenodd" clip-rule="evenodd" d="M90.4141 2.62613C91.7502 2.44514 93.1131 2.34996 94.4997 2.34996C111.165 2.34996 124.675 15.8603 124.675 32.4855C124.675 33.7874 124.592 35.0696 124.432 36.3281H90.4141V2.62613Z" fill="#1C59A0"/>
<path fill-rule="evenodd" clip-rule="evenodd" d="M90.4141 2.8713C91.7495 2.68887 93.1131 2.59296 94.4997 2.59296C111.003 2.59296 124.392 15.9814 124.392 32.4855C124.392 33.7874 124.308 35.0696 124.147 36.3281H90.4141V2.8713Z" fill="#1B5B9F"/>
<path fill-rule="evenodd" clip-rule="evenodd" d="M90.4141 3.15757C91.7495 2.97298 93.1131 2.87564 94.4997 2.87564C110.881 2.87564 124.149 16.1437 124.149 32.4855C124.149 33.788 124.064 35.0702 123.901 36.3281H90.4141V3.15757Z" fill="#1E5D9F"/>
<path fill-rule="evenodd" clip-rule="evenodd" d="M90.4141 3.40202C91.7495 3.21671 93.1131 3.11864 94.4997 3.11864C110.72 3.11864 123.866 16.2648 123.866 32.4855C123.866 33.788 123.78 35.0702 123.615 36.3281H90.4141V3.40202Z" fill="#1D5E9E"/>
<path fill-rule="evenodd" clip-rule="evenodd" d="M90.4141 3.68686C91.7488 3.5001 93.1124 3.40203 94.4997 3.40203C110.599 3.40203 123.624 16.4263 123.624 32.4855C123.624 33.7882 123.537 35.0705 123.371 36.3281H90.4141V3.68686Z" fill="#1F609F"/>
<path fill-rule="evenodd" clip-rule="evenodd" d="M90.4141 3.93346C91.7488 3.74454 93.1124 3.64431 94.4997 3.64431C110.437 3.64431 123.34 16.5482 123.34 32.4855C123.34 33.7882 123.252 35.0708 123.084 36.3281H90.4141V3.93346Z" fill="#20619C"/>
<path fill-rule="evenodd" clip-rule="evenodd" d="M90.4141 4.17936C91.7488 3.98827 93.1124 3.88732 94.4997 3.88732C110.315 3.88732 123.097 16.7097 123.097 32.4855C123.097 33.7888 123.009 35.071 122.84 36.3281H90.4141V4.17936Z" fill="#1F629C"/>
<path fill-rule="evenodd" clip-rule="evenodd" d="M90.4141 4.46347C91.7481 4.27166 93.1117 4.17071 94.4997 4.17071C110.154 4.17071 122.855 16.8308 122.855 32.4855C122.855 33.7888 122.764 35.071 122.593 36.3281H90.4141V4.46347Z" fill="#1F639A"/>
<path fill-rule="evenodd" clip-rule="evenodd" d="M90.4141 4.71008C91.7481 4.51539 93.1117 4.41299 94.4997 4.41299C109.992 4.41299 122.572 16.9931 122.572 32.4855C122.572 33.7897 122.481 35.0718 122.309 36.3281H90.4141V4.71008Z" fill="#1F659A"/>
<path fill-rule="evenodd" clip-rule="evenodd" d="M90.4141 4.99492C91.7474 4.79878 93.1117 4.69638 94.4997 4.69638C109.87 4.69638 122.329 17.1546 122.329 32.4855C122.329 33.7894 122.237 35.0718 122.063 36.3281H90.4141V4.99492Z" fill="#1D6697"/>
<path fill-rule="evenodd" clip-rule="evenodd" d="M90.4141 5.2408C91.7474 5.0425 93.1109 4.93867 94.4997 4.93867C109.709 4.93867 122.046 17.2765 122.046 32.4855C122.046 33.79 121.953 35.0721 121.778 36.3281H90.4141V5.2408Z" fill="#1D6796"/>
<path fill-rule="evenodd" clip-rule="evenodd" d="M90.4141 5.52491C91.7466 5.32589 93.1109 5.22205 94.4997 5.22205C109.587 5.22205 121.803 17.3976 121.803 32.4855C121.803 33.7903 121.709 35.0724 121.533 36.3281H90.4141V5.52491Z" fill="#1C6895"/>
<path fill-rule="evenodd" clip-rule="evenodd" d="M90.4141 5.77152C91.7459 5.56961 93.1109 5.46506 94.4997 5.46506C109.426 5.46506 121.52 17.5591 121.52 32.4855C121.52 33.79 121.425 35.0724 121.246 36.3281H90.4141V5.77152Z" fill="#1E6B96"/>
<path fill-rule="evenodd" clip-rule="evenodd" d="M90.4141 6.01813C91.7466 5.81334 93.1109 5.70735 94.4997 5.70735C109.304 5.70735 121.277 17.7207 121.277 32.4855C121.277 33.7908 121.182 35.073 121.002 36.3281H90.4141V6.01813Z" fill="#1D6B94"/>
<path fill-rule="evenodd" clip-rule="evenodd" d="M90.4141 6.30296C91.7459 6.09745 93.1102 5.99073 94.4997 5.99073C109.142 5.99073 121.034 17.8425 121.034 32.4855C121.034 33.7905 120.938 35.073 120.755 36.3281H90.4141V6.30296Z" fill="#1E6C92"/>
<path fill-rule="evenodd" clip-rule="evenodd" d="M90.4141 6.55102C91.7452 6.34262 93.1102 6.23374 94.4997 6.23374C108.981 6.23374 120.752 18.0041 120.752 32.4855C120.752 33.7911 120.654 35.0736 120.471 36.3281H90.4141V6.55102Z" fill="#1F6E91"/>
<path fill-rule="evenodd" clip-rule="evenodd" d="M90.4141 6.83585C91.7452 6.62601 93.1095 6.51641 94.4997 6.51641C108.859 6.51641 120.509 18.1252 120.509 32.4855C120.509 33.7911 120.411 35.0738 120.225 36.3281H90.4141V6.83585Z" fill="#1F7191"/>
<path fill-rule="evenodd" clip-rule="evenodd" d="M90.4141 7.0839C91.7445 6.87118 93.1088 6.75869 94.4997 6.75869C108.738 6.75869 120.225 18.2874 120.225 32.4855C120.225 33.7916 120.128 35.0744 119.941 36.3281H90.4141V7.0839Z" fill="#1F7290"/>
<path fill-rule="evenodd" clip-rule="evenodd" d="M90.4141 7.32908C91.7445 7.11419 93.1088 7.0017 94.4997 7.0017C108.576 7.0017 119.983 18.4086 119.983 32.4855C119.983 33.7916 119.884 35.0747 119.695 36.3281H90.4141V7.32908Z" fill="#217490"/>
<path fill-rule="evenodd" clip-rule="evenodd" d="M90.4141 7.61607C91.7437 7.39902 93.108 7.28508 94.4997 7.28508C108.414 7.28508 119.7 18.5708 119.7 32.4855C119.7 33.7922 119.6 35.0752 119.41 36.3281H90.4141V7.61607Z" fill="#20758F"/>
<path fill-rule="evenodd" clip-rule="evenodd" d="M90.4141 7.86267C91.7437 7.64346 93.108 7.52737 94.4997 7.52737C108.293 7.52737 119.457 18.7324 119.457 32.4855C119.457 33.7925 119.356 35.0755 119.162 36.3281H90.4141V7.86267Z" fill="#237A8F"/>
<path fill-rule="evenodd" clip-rule="evenodd" d="M90.4141 8.14895C91.743 7.92758 93.1073 7.81076 94.4997 7.81076C108.131 7.81076 119.214 18.8535 119.214 32.4855C119.214 33.7925 119.111 35.0755 118.915 36.3281H90.4141V8.14895Z" fill="#237A8E"/>
<path fill-rule="evenodd" clip-rule="evenodd" d="M90.4141 8.39411C91.7423 8.1713 93.1066 8.05376 94.4997 8.05376C108.009 8.05376 118.932 18.9746 118.932 32.4855C118.932 33.7931 118.827 35.0764 118.63 36.3281H90.4141V8.39411Z" fill="#237C8C"/>
<path fill-rule="evenodd" clip-rule="evenodd" d="M90.4141 8.6415C91.7423 8.41507 93.1074 8.29536 94.4998 8.29536C107.848 8.29536 118.689 19.1365 118.689 32.4854C118.689 33.793 118.583 35.0764 118.383 36.3281H90.4141V8.6415Z" fill="#247D8C"/>
<path fill-rule="evenodd" clip-rule="evenodd" d="M90.4141 8.9285C91.7416 8.69919 93.1067 8.57876 94.4998 8.57876C107.727 8.57876 118.406 19.298 118.406 32.4854C118.406 33.7938 118.3 35.0766 118.099 36.3281H90.4141V8.9285Z" fill="#26808C"/>
<path fill-rule="evenodd" clip-rule="evenodd" d="M90.4141 9.17367C91.7416 8.94292 93.106 8.82105 94.4998 8.82105C107.566 8.82105 118.164 19.4199 118.164 32.4854C118.164 33.7938 118.055 35.0769 117.851 36.3281H90.4141V9.17367Z" fill="#26808A"/>
<path fill-rule="evenodd" clip-rule="evenodd" d="M90.4141 9.4614C91.7409 9.22631 93.106 9.10445 94.4998 9.10445C107.403 9.10445 117.921 19.5814 117.921 32.4854C117.921 33.7947 117.81 35.0777 117.604 36.3281H90.4141V9.4614Z" fill="#278389"/>
<path fill-rule="evenodd" clip-rule="evenodd" d="M90.4141 9.70657C91.7402 9.47005 93.1052 9.34746 94.4998 9.34746C107.282 9.34746 117.637 19.7025 117.637 32.4854C117.637 33.7947 117.527 35.078 117.318 36.3281H90.4141V9.70657Z" fill="#268487"/>
<path fill-rule="evenodd" clip-rule="evenodd" d="M90.4141 9.99502C91.7395 9.75561 93.1052 9.63086 94.4998 9.63086C107.161 9.63086 117.395 19.8648 117.395 32.4854C117.395 33.7955 117.283 35.0786 117.073 36.3281H90.4141V9.99502Z" fill="#298788"/>
<path fill-rule="evenodd" clip-rule="evenodd" d="M90.4141 10.2409C91.7387 9.99934 93.1045 9.87315 94.4998 9.87315C106.999 9.87315 117.112 19.9859 117.112 32.4854C117.112 33.7955 116.998 35.0792 116.786 36.3281H90.4141V10.2409Z" fill="#298787"/>
<path fill-rule="evenodd" clip-rule="evenodd" d="M90.4141 10.5294C91.7387 10.2849 93.1045 10.1565 94.4998 10.1565C106.837 10.1565 116.869 20.1475 116.869 32.4854C116.869 33.7961 116.755 35.0797 116.539 36.3281H90.4141V10.5294Z" fill="#2A8B87"/>
<path fill-rule="evenodd" clip-rule="evenodd" d="M90.4141 10.7767C91.7373 10.5301 93.1031 10.3988 94.4998 10.3988C106.716 10.3988 116.586 20.3097 116.586 32.4854C116.586 33.7961 116.471 35.08 116.253 36.3281H90.4141V10.7767Z" fill="#2A8B84"/>
<path fill-rule="evenodd" clip-rule="evenodd" d="M90.4141 11.0255C91.7373 10.7745 93.1038 10.6418 94.4998 10.6418C106.554 10.6418 116.343 20.4309 116.343 32.4854C116.343 33.7964 116.227 35.08 116.005 36.3281H90.4141V11.0255Z" fill="#2A8E85"/>
<path fill-rule="evenodd" clip-rule="evenodd" d="M90.4141 11.3118C91.7358 11.0594 93.1023 10.9252 94.4998 10.9252C106.433 10.9252 116.101 20.5931 116.101 32.4854C116.101 33.7969 115.983 35.0808 115.759 36.3281H90.4141V11.3118Z" fill="#2C9084"/>
<path fill-rule="evenodd" clip-rule="evenodd" d="M90.4141 11.5598C91.7358 11.3031 93.1023 11.1675 94.4998 11.1675C106.27 11.1675 115.817 20.7142 115.817 32.4854C115.817 33.7975 115.697 35.0814 115.47 36.3281H90.4141V11.5598Z" fill="#2C9182"/>
<path fill-rule="evenodd" clip-rule="evenodd" d="M90.4141 11.849C91.7358 11.5887 93.1016 11.4509 94.4998 11.4509C106.149 11.4509 115.574 20.8758 115.574 32.4854C115.574 33.7983 115.453 35.0823 115.224 36.3281H90.4141V11.849Z" fill="#2C9282"/>
<path fill-rule="evenodd" clip-rule="evenodd" d="M90.4141 12.0949C91.7351 11.8324 93.1009 11.6932 94.4998 11.6932C105.988 11.6932 115.291 20.9976 115.291 32.4854C115.291 33.7983 115.168 35.0823 114.935 36.3281H90.4141V12.0949Z" fill="#2D9580"/>
<path fill-rule="evenodd" clip-rule="evenodd" d="M90.4141 12.3833C91.7351 12.1172 93.1009 11.9766 94.4998 11.9766C105.826 11.9766 115.048 21.1592 115.048 32.4854C115.048 33.7992 114.924 35.0831 114.688 36.3281H90.4141V12.3833Z" fill="#2E967F"/>
<path fill-rule="evenodd" clip-rule="evenodd" d="M90.4141 12.6314C91.7337 12.361 93.1002 12.2189 94.4998 12.2189C105.704 12.2189 114.765 21.3207 114.765 32.4854C114.765 33.7998 114.639 35.0836 114.401 36.3281H90.4141V12.6314Z" fill="#2F987F"/>
<path fill-rule="evenodd" clip-rule="evenodd" d="M90.4141 12.8809C91.7337 12.6069 93.1002 12.4619 94.4998 12.4619C105.543 12.4619 114.523 21.4418 114.523 32.4854C114.523 33.7998 114.394 35.0836 114.151 36.3281H90.4141V12.8809Z" fill="#2F9B7F"/>
<path fill-rule="evenodd" clip-rule="evenodd" d="M90.4141 13.1672C91.7315 12.891 93.0987 12.7453 94.4998 12.7453C105.421 12.7453 114.28 21.5637 114.28 32.4854C114.28 33.8003 114.15 35.0848 113.905 36.3281H90.4141V13.1672Z" fill="#319B7B"/>
<path fill-rule="evenodd" clip-rule="evenodd" d="M90.4141 13.4188C91.7315 13.1369 93.0987 12.9883 94.4998 12.9883C105.259 12.9883 113.997 21.7252 113.997 32.4854C113.997 33.8017 113.866 35.0862 113.619 36.3281H90.4141V13.4188Z" fill="#319C7C"/>
<path fill-rule="evenodd" clip-rule="evenodd" d="M90.4141 13.7058C91.7308 13.4217 93.0973 13.271 94.4998 13.271C105.138 13.271 113.754 21.8868 113.754 32.4854C113.754 33.8014 113.621 35.0862 113.37 36.3281H90.4141V13.7058Z" fill="#319F7A"/>
<path fill-rule="evenodd" clip-rule="evenodd" d="M90.4141 13.956C91.7301 13.6669 93.0966 13.5133 94.4998 13.5133C104.976 13.5133 113.471 22.0079 113.471 32.4854C113.471 33.802 113.337 35.087 113.081 36.3281H90.4141V13.956Z" fill="#319F7A"/>
<path fill-rule="evenodd" clip-rule="evenodd" d="M90.4141 23.9398C91.6486 23.3499 93.0331 23.0196 94.4998 23.0196C99.7582 23.0196 104.005 27.267 104.005 32.4854C104.005 33.8539 103.717 35.1538 103.199 36.3281H90.4141V23.9398Z" fill="#319F7A"/>
<path fill-rule="evenodd" clip-rule="evenodd" d="M109.745 14.848C110.149 15.0499 110.432 15.4544 110.391 15.7782C110.311 16.102 109.946 16.2231 109.542 16.0616C109.137 15.859 108.855 15.4544 108.894 15.1314C108.976 14.8076 109.34 14.6857 109.745 14.848Z" fill="white"/>
<path fill-rule="evenodd" clip-rule="evenodd" d="M110.714 8.33608C111.037 8.49833 111.281 8.78172 111.24 8.98363C111.24 9.18554 110.957 9.22592 110.593 9.06439C110.27 8.90286 110.027 8.61947 110.067 8.41684C110.067 8.21493 110.391 8.17455 110.714 8.33608Z" fill="white"/>
<path fill-rule="evenodd" clip-rule="evenodd" d="M110.796 7.68588C111.08 7.80703 111.282 8.05003 111.241 8.21156C111.241 8.41347 110.999 8.41347 110.716 8.29232C110.432 8.1308 110.23 7.92817 110.271 7.72626C110.271 7.56401 110.514 7.56401 110.796 7.68588Z" fill="white"/>
<path fill-rule="evenodd" clip-rule="evenodd" d="M110.873 7.04367C111.116 7.20592 111.318 7.40783 111.318 7.52898C111.278 7.69123 111.076 7.69122 110.793 7.56936C110.55 7.44821 110.348 7.2463 110.388 7.08405C110.388 6.96291 110.631 6.92252 110.873 7.04367Z" fill="white"/>
<path fill-rule="evenodd" clip-rule="evenodd" d="M110.959 6.43297C111.201 6.55412 111.364 6.71636 111.364 6.87789C111.323 6.99904 111.161 6.99904 110.878 6.87789C110.635 6.75602 110.473 6.5945 110.514 6.43297C110.514 6.31111 110.716 6.31111 110.959 6.43297Z" fill="white"/>
<path fill-rule="evenodd" clip-rule="evenodd" d="M111.038 5.83349C111.241 5.95464 111.403 6.11616 111.403 6.23803C111.403 6.35918 111.2 6.39956 110.958 6.27842C110.755 6.15655 110.594 5.95464 110.594 5.83349C110.634 5.75201 110.796 5.75201 111.038 5.83349Z" fill="white"/>
<path fill-rule="evenodd" clip-rule="evenodd" d="M111.075 5.3487C111.317 5.43019 111.439 5.59172 111.439 5.71286C111.439 5.79363 111.237 5.79363 111.034 5.71286C110.832 5.59172 110.711 5.43019 110.711 5.3487C110.711 5.22756 110.872 5.22756 111.075 5.3487Z" fill="white"/>
<path fill-rule="evenodd" clip-rule="evenodd" d="M111.153 4.81852C111.356 4.89928 111.477 5.02042 111.477 5.14229C111.436 5.26344 111.315 5.22306 111.113 5.14229C110.911 5.06153 110.789 4.93966 110.789 4.81852C110.829 4.69737 110.951 4.73775 111.153 4.81852Z" fill="white"/>
<path fill-rule="evenodd" clip-rule="evenodd" d="M111.237 4.28859C111.399 4.36935 111.521 4.49049 111.521 4.57198C111.48 4.69312 111.359 4.65274 111.197 4.57198C111.034 4.49049 110.914 4.36935 110.914 4.28859C110.914 4.2071 111.076 4.2071 111.237 4.28859Z" fill="white"/>
<path fill-rule="evenodd" clip-rule="evenodd" d="M111.283 3.81101C111.444 3.89178 111.566 4.01293 111.566 4.09369C111.526 4.17518 111.405 4.13407 111.242 4.09369C111.121 4.01293 111 3.89178 111 3.81101C111.04 3.72953 111.121 3.77063 111.283 3.81101Z" fill="white"/>
<path fill-rule="evenodd" clip-rule="evenodd" d="M111.354 3.36012C111.475 3.40122 111.556 3.48198 111.556 3.56275C111.556 3.64351 111.434 3.60313 111.313 3.56275C111.191 3.48198 111.07 3.40122 111.07 3.31973C111.111 3.27935 111.191 3.27936 111.354 3.36012Z" fill="white"/>
<path fill-rule="evenodd" clip-rule="evenodd" d="M111.406 2.91853C111.527 2.95819 111.608 3.03967 111.608 3.08005C111.567 3.16082 111.487 3.16082 111.406 3.08005C111.284 3.03967 111.203 2.95819 111.203 2.87743C111.203 2.83704 111.284 2.83704 111.406 2.91853Z" fill="white"/>
<path fill-rule="evenodd" clip-rule="evenodd" d="M109.382 17.1561C109.018 16.9946 108.816 16.6304 108.857 16.347C108.896 16.0643 109.22 15.9425 109.544 16.1047C109.868 16.2663 110.111 16.59 110.07 16.9138C110.029 17.1965 109.747 17.278 109.382 17.1561Z" fill="white"/>
<path fill-rule="evenodd" clip-rule="evenodd" d="M109.179 18.5299C108.815 18.3683 108.613 18.0453 108.654 17.7208C108.694 17.4381 108.977 17.317 109.341 17.4785C109.665 17.64 109.867 17.9638 109.827 18.2472C109.786 18.571 109.503 18.6921 109.179 18.5299Z" fill="white"/>
<path fill-rule="evenodd" clip-rule="evenodd" d="M108.931 19.9923C108.607 19.8308 108.364 19.507 108.446 19.1832C108.486 18.8998 108.769 18.7787 109.092 18.8998C109.416 19.0621 109.618 19.3851 109.578 19.7089C109.537 19.9923 109.255 20.1134 108.931 19.9923Z" fill="white"/>
<path fill-rule="evenodd" clip-rule="evenodd" d="M108.648 21.5626C108.365 21.4407 108.122 21.0773 108.203 20.7939C108.244 20.4701 108.527 20.349 108.851 20.4701C109.174 20.6317 109.376 20.9554 109.336 21.2792C109.255 21.5626 108.972 21.6838 108.648 21.5626Z" fill="white"/>
<path fill-rule="evenodd" clip-rule="evenodd" d="M108.411 23.1783C108.128 23.0168 107.966 22.7334 108.006 22.4507C108.047 22.1673 108.29 22.0461 108.573 22.1673C108.856 22.2884 109.018 22.5718 108.977 22.8552C108.937 23.1379 108.694 23.2598 108.411 23.1783Z" fill="white"/>
<path fill-rule="evenodd" clip-rule="evenodd" d="M108.091 25.084C107.807 25.0033 107.645 24.6795 107.686 24.3961C107.726 24.1134 107.969 23.9512 108.252 24.073C108.495 24.1942 108.697 24.4776 108.657 24.7602C108.576 25.0436 108.333 25.2059 108.091 25.084Z" fill="white"/>
<path fill-rule="evenodd" clip-rule="evenodd" d="M107.714 27.1863C107.471 27.1055 107.31 26.7818 107.35 26.4988C107.39 26.2559 107.633 26.0939 107.876 26.2157C108.119 26.2965 108.24 26.5796 108.199 26.8626C108.159 27.146 107.956 27.2672 107.714 27.1863Z" fill="white"/>
<path fill-rule="evenodd" clip-rule="evenodd" d="M107.361 29.2485C107.16 29.1677 107.038 28.9249 107.078 28.6823C107.118 28.4395 107.281 28.3181 107.523 28.399C107.726 28.4395 107.847 28.6823 107.806 28.9654C107.726 29.208 107.564 29.3293 107.361 29.2485Z" fill="white"/>
<path fill-rule="evenodd" clip-rule="evenodd" d="M111.155 15.5792C111.478 15.7414 111.721 16.0652 111.68 16.3479C111.64 16.6313 111.398 16.712 111.074 16.5505C110.71 16.389 110.508 16.0652 110.508 15.7818C110.589 15.5388 110.831 15.458 111.155 15.5792Z" fill="white"/>
<path fill-rule="evenodd" clip-rule="evenodd" d="M112.573 16.1449C112.977 16.3468 113.261 16.7513 113.261 17.0751C113.22 17.3988 112.896 17.52 112.492 17.3585C112.087 17.1558 111.805 16.7513 111.805 16.3879C111.844 16.0641 112.168 15.9422 112.573 16.1449Z" fill="white"/>
<path fill-rule="evenodd" clip-rule="evenodd" d="M123.213 15.0132C123.011 14.9324 122.931 14.9324 122.971 15.0939C122.971 15.2562 123.133 15.4581 123.335 15.5792C123.497 15.6607 123.577 15.6607 123.577 15.4985C123.537 15.3369 123.376 15.135 123.213 15.0132Z" fill="white"/>
<path fill-rule="evenodd" clip-rule="evenodd" d="M122.071 14.3647C121.909 14.2832 121.788 14.3236 121.828 14.4454C121.869 14.5666 121.99 14.7685 122.152 14.85C122.314 14.9307 122.435 14.9307 122.394 14.8096C122.355 14.6481 122.233 14.4858 122.071 14.3647Z" fill="white"/>
<path fill-rule="evenodd" clip-rule="evenodd" d="M122.236 15.2904C122.074 15.1685 121.953 15.2096 121.953 15.3711C121.993 15.5326 122.155 15.7353 122.317 15.8564C122.519 15.9372 122.6 15.8968 122.6 15.7757C122.56 15.6141 122.397 15.4115 122.236 15.2904Z" fill="white"/>
<path fill-rule="evenodd" clip-rule="evenodd" d="M121.106 14.5633C120.863 14.4421 120.742 14.5229 120.742 14.6844C120.783 14.8466 120.984 15.0889 121.187 15.2108C121.389 15.332 121.551 15.2916 121.51 15.13C121.51 14.9274 121.308 14.6844 121.106 14.5633Z" fill="white"/>
<path fill-rule="evenodd" clip-rule="evenodd" d="M118.274 25.2105C117.991 25.0482 117.789 25.1694 117.789 25.4932C117.829 25.8169 118.031 26.1811 118.315 26.3428C118.597 26.5045 118.8 26.3831 118.8 26.0592C118.76 25.7355 118.557 25.372 118.274 25.2105Z" fill="white"/>
<path fill-rule="evenodd" clip-rule="evenodd" d="M116.856 22.5802C116.532 22.4186 116.289 22.5398 116.289 22.8636C116.289 23.2277 116.532 23.6323 116.856 23.7938C117.179 23.9957 117.422 23.8342 117.422 23.5104C117.422 23.1462 117.179 22.7417 116.856 22.5802Z" fill="white"/>
<path fill-rule="evenodd" clip-rule="evenodd" d="M115.364 20.3118C115.04 20.1495 114.797 20.2714 114.797 20.5952C114.797 20.9182 115.04 21.2824 115.364 21.4439C115.687 21.6062 115.93 21.485 115.93 21.1613C115.93 20.8375 115.687 20.4733 115.364 20.3118Z" fill="white"/>
<path fill-rule="evenodd" clip-rule="evenodd" d="M114.19 10.9319C113.907 10.7696 113.664 10.81 113.664 11.0126C113.664 11.2145 113.907 11.4979 114.19 11.6191C114.473 11.7806 114.716 11.7402 114.716 11.5383C114.716 11.3364 114.473 11.053 114.19 10.9319Z" fill="white"/>
<path fill-rule="evenodd" clip-rule="evenodd" d="M120.099 14.9329C119.856 14.8118 119.734 14.8522 119.734 15.0137C119.775 15.2163 119.937 15.4586 120.179 15.5798C120.382 15.7017 120.543 15.6613 120.543 15.4586C120.503 15.2971 120.301 15.0541 120.099 14.9329Z" fill="white"/>
<path fill-rule="evenodd" clip-rule="evenodd" d="M118.926 14.2433C118.683 14.1215 118.521 14.2022 118.561 14.3645C118.561 14.5664 118.763 14.8094 119.006 14.9709C119.249 15.0921 119.411 15.0517 119.411 14.8498C119.37 14.6479 119.168 14.4049 118.926 14.2433Z" fill="white"/>
<path fill-rule="evenodd" clip-rule="evenodd" d="M116.657 13.9659C116.374 13.8037 116.172 13.8844 116.172 14.0871C116.172 14.3293 116.414 14.6127 116.698 14.7339C116.981 14.8961 117.183 14.8154 117.183 14.6127C117.142 14.3704 116.941 14.087 116.657 13.9659Z" fill="white"/>
<path fill-rule="evenodd" clip-rule="evenodd" d="M117.795 13.5587C117.512 13.4368 117.269 13.4779 117.309 13.7202C117.309 13.9221 117.552 14.2466 117.835 14.4082C118.159 14.5697 118.361 14.4889 118.361 14.2466C118.321 14.044 118.078 13.7202 117.795 13.5587Z" fill="white"/>
<path fill-rule="evenodd" clip-rule="evenodd" d="M116.576 12.9071C116.212 12.7456 115.969 12.786 115.969 13.0694C116.009 13.3116 116.252 13.6354 116.616 13.838C116.94 13.9996 117.182 13.9181 117.182 13.6758C117.182 13.3924 116.899 13.0694 116.576 12.9071Z" fill="white"/>
<path fill-rule="evenodd" clip-rule="evenodd" d="M115.401 13.2704C115.118 13.1089 114.875 13.1896 114.875 13.4319C114.875 13.6749 115.118 13.9583 115.441 14.1602C115.724 14.2814 115.967 14.2417 115.967 13.9987C115.967 13.7557 115.724 13.4319 115.401 13.2704Z" fill="white"/>
<path fill-rule="evenodd" clip-rule="evenodd" d="M113.943 18.1654C113.619 18.0031 113.376 18.1243 113.336 18.4076C113.336 18.691 113.579 19.0552 113.903 19.2167C114.226 19.3783 114.509 19.2571 114.509 18.9737C114.509 18.6507 114.266 18.3269 113.943 18.1654Z" fill="white"/>
<path fill-rule="evenodd" clip-rule="evenodd" d="M114.024 16.8732C113.66 16.7109 113.376 16.8321 113.336 17.1155C113.336 17.4393 113.579 17.8034 113.943 18.0053C114.307 18.1676 114.59 18.0464 114.63 17.763C114.63 17.4393 114.347 17.0751 114.024 16.8732Z" fill="white"/>
<path fill-rule="evenodd" clip-rule="evenodd" d="M114.064 15.6984C113.66 15.4957 113.376 15.6176 113.336 15.9003C113.336 16.2644 113.619 16.669 114.024 16.8305C114.388 17.0331 114.712 16.912 114.712 16.5882C114.712 16.2644 114.428 15.8599 114.064 15.6984Z" fill="white"/>
<path fill-rule="evenodd" clip-rule="evenodd" d="M114.106 14.569C113.742 14.4074 113.418 14.4882 113.418 14.7709C113.378 15.0543 113.661 15.4588 114.065 15.6615C114.43 15.823 114.713 15.7422 114.753 15.4184C114.753 15.1358 114.47 14.7709 114.106 14.569Z" fill="white"/>
<path fill-rule="evenodd" clip-rule="evenodd" d="M114.106 13.604C113.783 13.4417 113.54 13.5225 113.5 13.7655C113.5 14.0085 113.742 14.3316 114.066 14.4938C114.43 14.656 114.673 14.5746 114.673 14.3316C114.673 14.0893 114.43 13.7655 114.106 13.604Z" fill="white"/>
<path fill-rule="evenodd" clip-rule="evenodd" d="M114.147 12.586C113.783 12.4641 113.54 12.5045 113.5 12.7475C113.5 13.0302 113.783 13.354 114.147 13.5566C114.471 13.7181 114.753 13.6374 114.753 13.3944C114.753 13.1117 114.511 12.7879 114.147 12.586Z" fill="white"/>
<path fill-rule="evenodd" clip-rule="evenodd" d="M114.186 11.6922C113.822 11.5307 113.579 11.6115 113.539 11.8545C113.539 12.0968 113.822 12.4206 114.146 12.5828C114.51 12.7443 114.752 12.704 114.752 12.4609C114.752 12.2179 114.51 11.8545 114.186 11.6922Z" fill="white"/>
<path fill-rule="evenodd" clip-rule="evenodd" d="M111.927 9.02098C111.684 8.89984 111.482 8.94022 111.482 9.10175C111.441 9.264 111.643 9.4659 111.886 9.58705C112.129 9.66853 112.291 9.66854 112.331 9.50629C112.331 9.34476 112.169 9.14213 111.927 9.02098Z" fill="white"/>
<path fill-rule="evenodd" clip-rule="evenodd" d="M111.92 8.34062C111.718 8.21948 111.556 8.25986 111.516 8.38172C111.516 8.50287 111.677 8.70478 111.92 8.82593C112.122 8.90741 112.284 8.90741 112.325 8.78626C112.325 8.62401 112.162 8.42139 111.92 8.34062Z" fill="white"/>
<path fill-rule="evenodd" clip-rule="evenodd" d="M111.966 7.6922C111.763 7.57033 111.602 7.57033 111.602 7.6922C111.602 7.81335 111.723 7.97559 111.925 8.05635C112.127 8.1775 112.289 8.13712 112.289 8.05635C112.289 7.93449 112.168 7.77296 111.966 7.6922Z" fill="white"/>
<path fill-rule="evenodd" clip-rule="evenodd" d="M111.957 7.04533C111.795 6.96457 111.673 6.96457 111.633 7.04533C111.633 7.16648 111.754 7.28835 111.916 7.36911C112.118 7.44988 112.239 7.44988 112.239 7.36911C112.28 7.24797 112.118 7.12682 111.957 7.04533Z" fill="white"/>
<path fill-rule="evenodd" clip-rule="evenodd" d="M111.963 6.43256C111.802 6.3518 111.68 6.3518 111.68 6.43256C111.68 6.5537 111.802 6.67485 111.963 6.75561C112.125 6.8371 112.246 6.83709 112.246 6.71595C112.246 6.63446 112.125 6.51332 111.963 6.43256Z" fill="white"/>
<path fill-rule="evenodd" clip-rule="evenodd" d="M112.002 5.82969C111.84 5.7482 111.719 5.7482 111.719 5.82969C111.719 5.90973 111.84 6.0316 111.962 6.07198C112.123 6.15274 112.204 6.19312 112.244 6.07198C112.244 5.99121 112.123 5.90973 112.002 5.82969Z" fill="white"/>
<path fill-rule="evenodd" clip-rule="evenodd" d="M112.001 5.30411C111.88 5.22334 111.758 5.22334 111.758 5.30411C111.758 5.38487 111.839 5.46636 111.96 5.54712C112.122 5.5875 112.203 5.62788 112.203 5.54712C112.203 5.46636 112.122 5.38487 112.001 5.30411Z" fill="white"/>
<path fill-rule="evenodd" clip-rule="evenodd" d="M112.007 4.73524C111.885 4.69485 111.805 4.69485 111.805 4.73524C111.805 4.816 111.885 4.89676 112.007 4.97753C112.128 5.01791 112.209 5.01791 112.209 4.97753C112.209 4.89676 112.128 4.816 112.007 4.73524Z" fill="white"/>
<path fill-rule="evenodd" clip-rule="evenodd" d="M110.953 17.6854C111.195 17.8066 111.398 17.7251 111.437 17.5232C111.437 17.2809 111.276 17.0379 111.033 16.9167C110.75 16.7956 110.547 16.8764 110.508 17.0783C110.508 17.3213 110.669 17.5636 110.953 17.6854Z" fill="white"/>
<path fill-rule="evenodd" clip-rule="evenodd" d="M110.753 19.0941C110.996 19.1748 111.198 19.0941 111.238 18.8914C111.279 18.6491 111.077 18.4061 110.834 18.285C110.632 18.2042 110.429 18.285 110.389 18.4869C110.349 18.7299 110.511 18.9722 110.753 19.0941Z" fill="white"/>
<path fill-rule="evenodd" clip-rule="evenodd" d="M110.471 20.5142C110.714 20.6353 110.917 20.5142 110.957 20.3123C110.957 20.0692 110.836 19.827 110.593 19.7051C110.35 19.6243 110.148 19.7051 110.108 19.9481C110.067 20.15 110.229 20.393 110.471 20.5142Z" fill="white"/>
<path fill-rule="evenodd" clip-rule="evenodd" d="M110.224 22.0947C110.466 22.1755 110.628 22.0947 110.668 21.8517C110.709 21.6498 110.547 21.4068 110.345 21.2856C110.102 21.2049 109.9 21.2856 109.859 21.5279C109.859 21.7306 109.981 21.9736 110.224 22.0947Z" fill="white"/>
<path fill-rule="evenodd" clip-rule="evenodd" d="M109.902 23.6338C110.105 23.7146 110.306 23.6338 110.347 23.3908C110.347 23.1881 110.226 22.9862 110.023 22.8651C109.821 22.7843 109.619 22.9055 109.578 23.1074C109.578 23.31 109.7 23.553 109.902 23.6338Z" fill="white"/>
<path fill-rule="evenodd" clip-rule="evenodd" d="M109.541 25.4932C109.743 25.5739 109.905 25.4932 109.945 25.2502C109.945 25.0482 109.824 24.8456 109.662 24.7648C109.46 24.6437 109.298 24.7648 109.258 24.9675C109.217 25.1694 109.339 25.4124 109.541 25.4932Z" fill="white"/>
<path fill-rule="evenodd" clip-rule="evenodd" d="M115.362 12.3394C115.078 12.1779 114.836 12.2586 114.836 12.4605C114.836 12.7036 115.078 12.987 115.362 13.1485C115.685 13.31 115.928 13.2292 115.928 13.0266C115.887 12.7843 115.685 12.5009 115.362 12.3394Z" fill="white"/>
<path fill-rule="evenodd" clip-rule="evenodd" d="M115.367 14.3225C115.125 14.2014 114.922 14.2425 114.922 14.4444C114.922 14.647 115.125 14.9297 115.367 15.0509C115.649 15.172 115.852 15.1323 115.852 14.8893C115.852 14.6867 115.61 14.4444 115.367 14.3225Z" fill="white"/>
<path fill-rule="evenodd" clip-rule="evenodd" d="M115.362 15.2996C115.078 15.1777 114.876 15.2188 114.836 15.4611C114.836 15.7445 115.078 16.0279 115.362 16.1894C115.685 16.3509 115.887 16.2702 115.887 16.0279C115.887 15.7849 115.685 15.4611 115.362 15.2996Z" fill="white"/>
<path fill-rule="evenodd" clip-rule="evenodd" d="M115.362 18.8995C115.078 18.7784 114.836 18.8591 114.836 19.1425C114.836 19.4259 115.038 19.749 115.321 19.8708C115.644 20.0324 115.847 19.9516 115.847 19.6682C115.847 19.3848 115.644 19.0618 115.362 18.8995Z" fill="white"/>
<path fill-rule="evenodd" clip-rule="evenodd" d="M119.975 13.9221C119.732 13.801 119.57 13.8421 119.57 14.044C119.611 14.2466 119.813 14.4889 120.056 14.6512C120.299 14.7716 120.46 14.7312 120.46 14.5293C120.42 14.3266 120.217 14.0844 119.975 13.9221Z" fill="white"/>
<path fill-rule="evenodd" clip-rule="evenodd" d="M116.821 24.2738C116.539 24.1527 116.336 24.2738 116.336 24.5565C116.336 24.881 116.539 25.2444 116.821 25.3663C117.105 25.5278 117.307 25.4067 117.307 25.0829C117.267 24.8002 117.064 24.4361 116.821 24.2738Z" fill="white"/>
<path fill-rule="evenodd" clip-rule="evenodd" d="M118.351 26.9827C118.109 26.821 117.906 26.9421 117.906 27.2658C117.906 27.5897 118.109 27.9537 118.392 28.1153C118.635 28.2773 118.836 28.1153 118.796 27.8322C118.796 27.468 118.593 27.1447 118.351 26.9827Z" fill="white"/>
<path fill-rule="evenodd" clip-rule="evenodd" d="M115.276 21.8129C114.993 21.6917 114.75 21.8129 114.75 22.0963C114.75 22.42 114.993 22.7842 115.276 22.9053C115.559 23.0669 115.802 22.9457 115.802 22.622C115.802 22.3386 115.6 21.9751 115.276 21.8129Z" fill="white"/>
<path fill-rule="evenodd" clip-rule="evenodd" d="M113.903 19.6304C113.579 19.5093 113.376 19.59 113.336 19.8734C113.336 20.1561 113.539 20.4799 113.821 20.6414C114.145 20.7633 114.347 20.6825 114.388 20.3587C114.388 20.1157 114.145 19.7919 113.903 19.6304Z" fill="white"/>
<path fill-rule="evenodd" clip-rule="evenodd" d="M112.489 17.4789C112.165 17.3577 111.923 17.4385 111.883 17.7211C111.883 18.0045 112.085 18.3687 112.409 18.4898C112.732 18.6521 113.015 18.5302 113.015 18.2475C113.056 17.9641 112.813 17.6404 112.489 17.4789Z" fill="white"/>
<path fill-rule="evenodd" clip-rule="evenodd" d="M115.36 17.6873C115.077 17.5655 114.875 17.6462 114.875 17.8892C114.875 18.1315 115.077 18.4149 115.36 18.5772C115.643 18.6983 115.846 18.6176 115.846 18.3745C115.846 18.1315 115.643 17.8085 115.36 17.6873Z" fill="white"/>
<path fill-rule="evenodd" clip-rule="evenodd" d="M114.227 10.1613C113.945 10.0402 113.783 10.0402 113.742 10.2017C113.742 10.4036 113.945 10.6063 114.187 10.7678C114.47 10.8889 114.632 10.8486 114.632 10.6466C114.632 10.4844 114.471 10.2825 114.227 10.1613Z" fill="white"/>
<path fill-rule="evenodd" clip-rule="evenodd" d="M118.839 13.3928C118.637 13.2717 118.516 13.3121 118.516 13.4743C118.516 13.6358 118.677 13.8385 118.92 13.9596C119.082 14.0404 119.243 14 119.243 13.8385C119.203 13.7166 119.041 13.4743 118.839 13.3928Z" fill="white"/>
<path fill-rule="evenodd" clip-rule="evenodd" d="M116.74 16.1055C116.498 15.9836 116.336 16.0247 116.336 16.2266C116.336 16.4285 116.539 16.6716 116.74 16.7934C116.983 16.9146 117.145 16.8331 117.145 16.6715C117.145 16.4696 116.943 16.2266 116.74 16.1055Z" fill="white"/>
<path fill-rule="evenodd" clip-rule="evenodd" d="M116.774 21.0794C116.492 20.9576 116.289 21.0794 116.289 21.3217C116.289 21.6455 116.492 21.9693 116.774 22.1308C117.098 22.2923 117.3 22.1712 117.3 21.8878C117.26 21.5647 117.058 21.2409 116.774 21.0794Z" fill="white"/>
<path fill-rule="evenodd" clip-rule="evenodd" d="M115.36 16.5132C115.118 16.392 114.915 16.4728 114.875 16.6747C114.875 16.9177 115.118 17.2004 115.36 17.3222C115.643 17.4838 115.846 17.403 115.846 17.16C115.846 16.9177 115.643 16.6747 115.36 16.5132Z" fill="white"/>
<path fill-rule="evenodd" clip-rule="evenodd" d="M118.07 17.9203C117.828 17.7992 117.625 17.8799 117.625 18.0818C117.665 18.3249 117.868 18.6083 118.111 18.7698C118.353 18.8909 118.555 18.8505 118.555 18.6083C118.516 18.3652 118.313 18.0422 118.07 17.9203Z" fill="white"/>
<path fill-rule="evenodd" clip-rule="evenodd" d="M119.528 29.9797C119.326 29.8583 119.164 29.9797 119.164 30.2628C119.204 30.5462 119.366 30.8696 119.569 31.0313C119.771 31.1526 119.933 31.0313 119.933 30.7482C119.892 30.4651 119.73 30.1414 119.528 29.9797Z" fill="white"/>
<path fill-rule="evenodd" clip-rule="evenodd" d="M117.873 14.6033C117.63 14.4822 117.469 14.5226 117.469 14.7245C117.469 14.9271 117.671 15.1694 117.914 15.2913C118.157 15.4124 118.318 15.372 118.318 15.1694C118.278 14.9675 118.075 14.7245 117.873 14.6033Z" fill="white"/>
<path fill-rule="evenodd" clip-rule="evenodd" d="M113.014 9.59082C112.812 9.46967 112.609 9.51006 112.609 9.6723C112.609 9.79345 112.772 9.99535 113.014 10.1165C113.217 10.2384 113.418 10.198 113.418 10.0365C113.418 9.91459 113.257 9.71196 113.014 9.59082Z" fill="white"/>
<path fill-rule="evenodd" clip-rule="evenodd" d="M115.317 9.991C115.115 9.86985 114.953 9.91023 114.953 10.0321C114.953 10.1936 115.115 10.3955 115.358 10.5167C115.56 10.5982 115.722 10.5982 115.722 10.4366C115.722 10.2744 115.56 10.1121 115.317 9.991Z" fill="white"/>
<path fill-rule="evenodd" clip-rule="evenodd" d="M117.705 12.8242C117.543 12.7031 117.422 12.7435 117.422 12.8646C117.422 13.0261 117.583 13.1884 117.746 13.3095C117.948 13.3903 118.069 13.3499 118.069 13.2288C118.069 13.0673 117.907 12.905 117.705 12.8242Z" fill="white"/>
<path fill-rule="evenodd" clip-rule="evenodd" d="M116.694 17.2367C116.451 17.1156 116.289 17.1964 116.289 17.399C116.329 17.6009 116.492 17.8843 116.734 18.0054C116.937 18.1266 117.139 18.0465 117.139 17.8439C117.139 17.6413 116.937 17.3586 116.694 17.2367Z" fill="white"/>
<path fill-rule="evenodd" clip-rule="evenodd" d="M117.949 16.7942C117.747 16.6723 117.625 16.7127 117.625 16.9153C117.625 17.0768 117.787 17.3198 117.989 17.4006C118.192 17.5218 118.353 17.4814 118.353 17.2795C118.313 17.1172 118.151 16.8749 117.949 16.7942Z" fill="white"/>
<path fill-rule="evenodd" clip-rule="evenodd" d="M119.331 18.6509C119.089 18.529 118.927 18.6105 118.967 18.8124C118.967 19.0151 119.17 19.2977 119.371 19.46C119.614 19.5811 119.776 19.5004 119.736 19.2574C119.736 19.0554 119.534 18.772 119.331 18.6509Z" fill="white"/>
<path fill-rule="evenodd" clip-rule="evenodd" d="M121.19 15.5737C121.027 15.4929 120.906 15.5333 120.906 15.6956C120.947 15.8571 121.108 16.0597 121.27 16.1405C121.473 16.2616 121.594 16.2213 121.554 16.0597C121.513 15.8975 121.392 15.6956 121.19 15.5737Z" fill="white"/>
<path fill-rule="evenodd" clip-rule="evenodd" d="M115.317 9.31135C115.115 9.22987 114.953 9.22987 114.953 9.35174C114.994 9.47289 115.115 9.67552 115.317 9.75628C115.519 9.83704 115.64 9.83704 115.64 9.71517C115.64 9.59403 115.479 9.4325 115.317 9.31135Z" fill="white"/>
<path fill-rule="evenodd" clip-rule="evenodd" d="M115.356 10.7695C115.114 10.6483 114.992 10.6887 114.992 10.8502C114.992 10.9714 115.154 11.174 115.356 11.2548C115.558 11.3759 115.721 11.3362 115.721 11.2144C115.68 11.0528 115.558 10.8906 115.356 10.7695Z" fill="white"/>
<path fill-rule="evenodd" clip-rule="evenodd" d="M119.686 28.1184C119.443 27.997 119.281 28.0779 119.281 28.4015C119.322 28.6848 119.524 29.0488 119.726 29.2511C119.969 29.3725 120.131 29.2917 120.131 28.968C120.131 28.6443 119.929 28.2804 119.686 28.1184Z" fill="white"/>
<path fill-rule="evenodd" clip-rule="evenodd" d="M114.231 9.466C114.029 9.34485 113.867 9.38524 113.867 9.50638C113.867 9.62825 114.029 9.83016 114.231 9.91092C114.434 10.0328 114.555 9.99168 114.596 9.87054C114.555 9.74939 114.434 9.54676 114.231 9.466Z" fill="white"/>
<path fill-rule="evenodd" clip-rule="evenodd" d="M116.653 15.0491C116.451 14.928 116.289 14.9683 116.289 15.1306C116.289 15.2921 116.451 15.494 116.653 15.6159C116.856 15.6967 117.017 15.6563 116.977 15.494C116.977 15.3325 116.815 15.1306 116.653 15.0491Z" fill="white"/>
<path fill-rule="evenodd" clip-rule="evenodd" d="M116.541 12.2233C116.379 12.1425 116.258 12.1836 116.258 12.3048C116.258 12.4259 116.379 12.5882 116.582 12.6689C116.743 12.7497 116.865 12.7093 116.824 12.5882C116.824 12.4663 116.703 12.3048 116.541 12.2233Z" fill="white"/>
<path fill-rule="evenodd" clip-rule="evenodd" d="M116.778 19.7861C116.576 19.6649 116.414 19.7457 116.414 19.9483C116.414 20.1502 116.576 20.3529 116.778 20.474C116.981 20.5959 117.142 20.5144 117.102 20.3125C117.102 20.1098 116.94 19.8676 116.778 19.7861Z" fill="white"/>
<path fill-rule="evenodd" clip-rule="evenodd" d="M118.272 23.5465C118.029 23.4247 117.867 23.5054 117.867 23.7888C117.867 24.0318 118.069 24.3549 118.312 24.4768C118.515 24.5979 118.676 24.5171 118.676 24.2337C118.676 23.9907 118.474 23.6677 118.272 23.5465Z" fill="white"/>
<path fill-rule="evenodd" clip-rule="evenodd" d="M115.362 11.6572C115.2 11.5765 115.078 11.6169 115.078 11.6976C115.078 11.8195 115.2 11.981 115.362 12.0618C115.523 12.1022 115.644 12.1022 115.644 11.981C115.605 11.8599 115.523 11.738 115.362 11.6572Z" fill="white"/>
<path fill-rule="evenodd" clip-rule="evenodd" d="M118.316 28.8059C118.154 28.6848 117.992 28.8059 117.992 29.0487C117.992 29.2916 118.154 29.5341 118.316 29.6555C118.519 29.7769 118.64 29.6555 118.64 29.413C118.64 29.1702 118.477 28.9274 118.316 28.8059Z" fill="white"/>
<path fill-rule="evenodd" clip-rule="evenodd" d="M124.179 15.655C124.057 15.6147 123.977 15.6147 123.977 15.7358C124.018 15.857 124.139 16.0192 124.26 16.1C124.421 16.1807 124.503 16.1807 124.462 16.0596C124.421 15.9377 124.3 15.7762 124.179 15.655Z" fill="white"/>
<path fill-rule="evenodd" clip-rule="evenodd" d="M119.043 15.2907C118.84 15.2099 118.719 15.2503 118.719 15.4118C118.759 15.5733 118.921 15.776 119.083 15.8971C119.285 15.9779 119.407 15.9375 119.407 15.776C119.366 15.6144 119.204 15.4118 119.043 15.2907Z" fill="white"/>
<path fill-rule="evenodd" clip-rule="evenodd" d="M116.456 9.91418C116.294 9.83341 116.133 9.83341 116.133 9.95455C116.173 10.0757 116.294 10.238 116.456 10.3187C116.658 10.3995 116.78 10.3995 116.78 10.2783C116.739 10.1572 116.618 9.99494 116.456 9.91418Z" fill="white"/>
<path fill-rule="evenodd" clip-rule="evenodd" d="M123.375 16.0242C123.213 15.9023 123.092 15.9427 123.133 16.105C123.173 16.2261 123.295 16.3884 123.456 16.5095C123.618 16.5903 123.699 16.5903 123.699 16.428C123.658 16.2665 123.497 16.105 123.375 16.0242Z" fill="white"/>
<path fill-rule="evenodd" clip-rule="evenodd" d="M120.574 19.4225C120.372 19.341 120.25 19.3814 120.25 19.584C120.291 19.7859 120.453 20.029 120.655 20.1501C120.857 20.272 120.978 20.2316 120.978 20.029C120.938 19.827 120.776 19.5436 120.574 19.4225Z" fill="white"/>
<path fill-rule="evenodd" clip-rule="evenodd" d="M125.273 16.3876C125.151 16.3061 125.07 16.3465 125.07 16.4684C125.111 16.5491 125.232 16.7107 125.354 16.7922C125.434 16.8729 125.515 16.8318 125.515 16.751C125.475 16.6299 125.354 16.4684 125.273 16.3876Z" fill="white"/>
<path fill-rule="evenodd" clip-rule="evenodd" d="M120.944 13.8056C120.823 13.7248 120.742 13.7248 120.742 13.8467C120.783 13.9678 120.904 14.089 121.025 14.1697C121.147 14.2512 121.268 14.2512 121.227 14.1294C121.227 14.0082 121.106 13.8467 120.944 13.8056Z" fill="white"/>
<path fill-rule="evenodd" clip-rule="evenodd" d="M120.376 31.9582C120.214 31.7962 120.092 31.9176 120.133 32.1601C120.133 32.4435 120.254 32.7672 120.416 32.8885C120.618 33.0503 120.74 32.9288 120.7 32.6457C120.7 32.4029 120.537 32.0796 120.376 31.9582Z" fill="white"/>
<path fill-rule="evenodd" clip-rule="evenodd" d="M116.817 26.0951C116.615 26.0143 116.453 26.0951 116.453 26.3383C116.453 26.5808 116.615 26.8639 116.817 26.9853C117.02 27.0661 117.181 26.9853 117.181 26.7428C117.141 26.5 117.02 26.2169 116.817 26.0951Z" fill="white"/>
<path fill-rule="evenodd" clip-rule="evenodd" d="M119.243 17.5679C119.081 17.4871 119 17.5275 119 17.6486C119 17.7705 119.122 17.9724 119.283 18.0539C119.405 18.1339 119.526 18.0935 119.526 17.932C119.486 17.8109 119.364 17.6486 119.243 17.5679Z" fill="white"/>
<path fill-rule="evenodd" clip-rule="evenodd" d="M116.376 9.22877C116.215 9.14801 116.094 9.14802 116.094 9.26988C116.134 9.35065 116.215 9.47179 116.376 9.55255C116.539 9.63404 116.66 9.63404 116.619 9.51217C116.619 9.43141 116.498 9.31026 116.376 9.22877Z" fill="white"/>
<path fill-rule="evenodd" clip-rule="evenodd" d="M117.421 9.79683C117.3 9.75645 117.219 9.75646 117.219 9.83722C117.219 9.91798 117.341 10.0399 117.462 10.0795C117.583 10.161 117.664 10.161 117.623 10.0795C117.623 9.95837 117.543 9.8776 117.421 9.79683Z" fill="white"/>
<path fill-rule="evenodd" clip-rule="evenodd" d="M115.277 23.6719C115.115 23.5904 114.953 23.6719 114.953 23.8738C114.953 24.0361 115.074 24.2784 115.277 24.3591C115.438 24.4406 115.601 24.3995 115.601 24.1976C115.601 23.995 115.479 23.793 115.277 23.6719Z" fill="white"/>
<path fill-rule="evenodd" clip-rule="evenodd" d="M113.786 21.3228C113.584 21.2017 113.422 21.2824 113.422 21.444C113.422 21.6466 113.544 21.8485 113.746 21.9293C113.908 22.01 114.029 21.9293 114.069 21.7677C114.069 21.6062 113.948 21.4036 113.786 21.3228Z" fill="white"/>
<path fill-rule="evenodd" clip-rule="evenodd" d="M112.332 19.1045C112.169 19.0237 112.048 19.1045 112.008 19.2256C112.008 19.4283 112.129 19.5898 112.291 19.6706C112.493 19.7513 112.614 19.7109 112.655 19.5494C112.655 19.3872 112.533 19.1853 112.332 19.1045Z" fill="white"/>
<path fill-rule="evenodd" clip-rule="evenodd" d="M117.345 9.1404C117.223 9.10002 117.102 9.10003 117.102 9.18079C117.142 9.26227 117.223 9.38342 117.345 9.4238C117.506 9.50457 117.587 9.50457 117.587 9.4238C117.587 9.30266 117.466 9.22117 117.345 9.1404Z" fill="white"/>
<path fill-rule="evenodd" clip-rule="evenodd" d="M118.156 9.14173C118.034 9.10135 117.953 9.10135 117.953 9.14173C117.953 9.26359 118.074 9.34436 118.156 9.38474C118.277 9.4655 118.358 9.4655 118.358 9.38474C118.358 9.30398 118.237 9.22249 118.156 9.14173Z" fill="white"/>
<path fill-rule="evenodd" clip-rule="evenodd" d="M121.835 20.3493C121.714 20.2686 121.633 20.3089 121.633 20.4301C121.673 20.5923 121.754 20.7539 121.915 20.8346C122.037 20.9154 122.118 20.875 122.118 20.7135C122.078 20.5923 121.996 20.4301 121.835 20.3493Z" fill="white"/>
<path fill-rule="evenodd" clip-rule="evenodd" d="M120.737 20.673C120.574 20.5923 120.453 20.6319 120.453 20.8346C120.494 20.9968 120.615 21.1987 120.777 21.3199C120.938 21.4006 121.06 21.3199 121.019 21.1584C121.019 20.9968 120.898 20.7942 120.737 20.673Z" fill="white"/>
<path fill-rule="evenodd" clip-rule="evenodd" d="M119.407 19.9496C119.285 19.8688 119.164 19.9092 119.164 20.0707C119.204 20.1918 119.326 20.3945 119.447 20.4752C119.609 20.556 119.73 20.5156 119.69 20.3541C119.69 20.2329 119.569 20.0303 119.407 19.9496Z" fill="white"/>
<path fill-rule="evenodd" clip-rule="evenodd" d="M118.11 19.2183C117.948 19.1375 117.867 19.1779 117.867 19.2991C117.867 19.4613 117.988 19.6228 118.11 19.7036C118.272 19.744 118.352 19.7036 118.352 19.5825C118.352 19.4613 118.231 19.2991 118.11 19.2183Z" fill="white"/>
<path fill-rule="evenodd" clip-rule="evenodd" d="M116.734 18.4893C116.613 18.4085 116.492 18.4496 116.492 18.5708C116.492 18.7323 116.613 18.8535 116.734 18.9342C116.896 19.0157 116.977 18.9746 116.977 18.8535C116.977 18.7323 116.896 18.5708 116.734 18.4893Z" fill="white"/>
<path fill-rule="evenodd" clip-rule="evenodd" d="M121.953 21.527C121.831 21.4462 121.75 21.4873 121.75 21.6489C121.75 21.77 121.871 21.9726 121.992 22.0534C122.114 22.1342 122.235 22.0938 122.195 21.9315C122.195 21.8104 122.074 21.6085 121.953 21.527Z" fill="white"/>
<path fill-rule="evenodd" clip-rule="evenodd" d="M123.243 22.4157C123.122 22.3342 123.04 22.4157 123.081 22.5369C123.081 22.658 123.162 22.8202 123.283 22.901C123.405 23.0222 123.485 22.9414 123.445 22.8202C123.445 22.6984 123.324 22.5369 123.243 22.4157Z" fill="white"/>
<path fill-rule="evenodd" clip-rule="evenodd" d="M116.453 10.6406C116.332 10.5591 116.211 10.6002 116.211 10.681C116.211 10.8021 116.332 10.924 116.453 11.0048C116.615 11.0452 116.696 11.0452 116.696 10.9637C116.696 10.8425 116.575 10.7214 116.453 10.6406Z" fill="white"/>
<path fill-rule="evenodd" clip-rule="evenodd" d="M108.247 14.2455C107.883 14.1236 107.6 14.2044 107.56 14.4474C107.519 14.7301 107.721 15.0539 108.045 15.175C108.368 15.3372 108.692 15.2565 108.732 14.9731C108.773 14.7301 108.571 14.407 108.247 14.2455Z" fill="white"/>
<path fill-rule="evenodd" clip-rule="evenodd" d="M106.788 13.5101C106.384 13.3082 105.979 13.4293 105.898 13.7531C105.817 14.0769 106.06 14.441 106.505 14.6437C106.95 14.8456 107.314 14.7237 107.395 14.4007C107.475 14.0769 107.193 13.6723 106.788 13.5101Z" fill="white"/>
<path fill-rule="evenodd" clip-rule="evenodd" d="M95.9133 2.51459C96.1563 2.59535 96.2767 2.7165 96.1966 2.83764C96.1152 2.95879 95.8325 2.99989 95.5895 2.91913C95.3472 2.83764 95.2253 2.67611 95.3061 2.59535C95.3876 2.4742 95.6702 2.4331 95.9133 2.51459Z" fill="white"/>
<path fill-rule="evenodd" clip-rule="evenodd" d="M97.4487 2.99828C97.6917 3.07904 97.8128 3.20019 97.7321 3.32133C97.6513 3.40282 97.4083 3.4432 97.2064 3.36172C96.9634 3.28095 96.8422 3.15981 96.9237 3.03866C97.0038 2.95718 97.2468 2.91751 97.4487 2.99828Z" fill="white"/>
<path fill-rule="evenodd" clip-rule="evenodd" d="M96.9582 3.76459C97.2012 3.80497 97.3223 3.9665 97.2819 4.08764C97.2012 4.20879 96.9185 4.24989 96.6755 4.16913C96.4325 4.08764 96.3113 3.92611 96.3921 3.80496C96.4729 3.72348 96.7159 3.6831 96.9582 3.76459Z" fill="white"/>
<path fill-rule="evenodd" clip-rule="evenodd" d="M98.5395 4.17451C98.8229 4.29566 98.9844 4.45719 98.9036 4.61872C98.8229 4.74058 98.5395 4.78097 98.2157 4.7002C97.9323 4.57906 97.7708 4.4168 97.8926 4.25528C97.9734 4.13341 98.2561 4.09303 98.5395 4.17451Z" fill="white"/>
<path fill-rule="evenodd" clip-rule="evenodd" d="M98.3348 16.6279C98.6175 16.7086 98.7394 16.9517 98.6579 17.1536C98.5368 17.3562 98.2945 17.4773 98.0515 17.3966C97.7681 17.2754 97.6469 17.0324 97.7277 16.8298C97.8084 16.6279 98.0918 16.5471 98.3348 16.6279Z" fill="white"/>
<path fill-rule="evenodd" clip-rule="evenodd" d="M100.564 15.4185C100.887 15.58 101.089 15.8634 101.009 16.1468C100.887 16.4295 100.523 16.5513 100.159 16.4295C99.8353 16.2679 99.6327 15.9846 99.7546 15.7019C99.8757 15.4185 100.199 15.2973 100.564 15.4185Z" fill="white"/>
<path fill-rule="evenodd" clip-rule="evenodd" d="M102.786 14.6835C103.15 14.8458 103.353 15.1688 103.271 15.4522C103.19 15.776 102.826 15.8568 102.462 15.7356C102.099 15.5734 101.856 15.2503 101.977 14.9669C102.058 14.6835 102.422 14.5624 102.786 14.6835Z" fill="white"/>
<path fill-rule="evenodd" clip-rule="evenodd" d="M106.79 7.36896C107.073 7.53049 107.276 7.7735 107.235 7.93503C107.195 8.13766 106.912 8.17804 106.588 8.05689C106.264 7.89464 106.062 7.65236 106.143 7.44973C106.183 7.2882 106.467 7.24782 106.79 7.36896Z" fill="white"/>
<path fill-rule="evenodd" clip-rule="evenodd" d="M99.5915 5.47302C99.8742 5.55378 100.036 5.7557 99.9557 5.87684C99.8338 6.03909 99.5511 6.07947 99.2678 5.99871C98.9844 5.87684 98.8228 5.71531 98.9036 5.55378C98.9844 5.39153 99.2678 5.35115 99.5915 5.47302Z" fill="white"/>
<path fill-rule="evenodd" clip-rule="evenodd" d="M101.044 5.94943C101.327 6.07058 101.489 6.27321 101.408 6.43473C101.327 6.59626 101.044 6.63664 100.761 6.5155C100.438 6.43473 100.275 6.19172 100.357 6.0302C100.438 5.86795 100.761 5.82829 101.044 5.94943Z" fill="white"/>
<path fill-rule="evenodd" clip-rule="evenodd" d="M103.512 7.80713C103.835 7.96938 104.037 8.21167 103.957 8.41358C103.876 8.57583 103.593 8.65659 103.228 8.53545C102.905 8.37392 102.703 8.13091 102.783 7.92828C102.864 7.72637 103.188 7.68599 103.512 7.80713Z" fill="white"/>
<path fill-rule="evenodd" clip-rule="evenodd" d="M102.458 6.43711C102.822 6.55826 103.024 6.84165 102.944 7.00318C102.862 7.20581 102.539 7.28657 102.175 7.12504C101.811 7.00318 101.608 6.72051 101.69 6.51788C101.771 6.35635 102.134 6.27559 102.458 6.43711Z" fill="white"/>
<path fill-rule="evenodd" clip-rule="evenodd" d="M103.92 6.96436C104.284 7.12661 104.526 7.40929 104.446 7.6523C104.365 7.85421 104.001 7.93498 103.596 7.77345C103.191 7.61192 102.949 7.28814 103.07 7.08551C103.151 6.84322 103.515 6.80283 103.92 6.96436Z" fill="white"/>
<path fill-rule="evenodd" clip-rule="evenodd" d="M104.932 8.38015C105.256 8.54168 105.499 8.82436 105.417 9.02699C105.337 9.2289 105.013 9.31038 104.689 9.14813C104.326 8.9866 104.083 8.70321 104.164 8.5013C104.245 8.29867 104.568 8.2179 104.932 8.38015Z" fill="white"/>
<path fill-rule="evenodd" clip-rule="evenodd" d="M104.849 14.081C105.213 14.2432 105.415 14.5663 105.375 14.8093C105.294 15.1331 104.93 15.2138 104.565 15.0516C104.201 14.9304 103.999 14.5663 104.08 14.3233C104.162 14.0406 104.525 13.9187 104.849 14.081Z" fill="white"/>
<path fill-rule="evenodd" clip-rule="evenodd" d="M105.175 12.9062C105.579 13.0684 105.822 13.3915 105.741 13.7153C105.66 13.9987 105.296 14.0794 104.891 13.9172C104.487 13.7557 104.285 13.3915 104.325 13.1088C104.447 12.8254 104.811 12.7447 105.175 12.9062Z" fill="white"/>
<path fill-rule="evenodd" clip-rule="evenodd" d="M105.501 11.7799C105.906 11.9825 106.148 12.3467 106.067 12.6294C105.986 12.9532 105.622 13.0339 105.177 12.8724C104.732 12.6705 104.489 12.3063 104.57 11.9825C104.691 11.6992 105.056 11.6184 105.501 11.7799Z" fill="white"/>
<path fill-rule="evenodd" clip-rule="evenodd" d="M105.771 10.7669C106.175 10.9291 106.418 11.2522 106.337 11.5356C106.256 11.819 105.893 11.8997 105.488 11.7375C105.084 11.576 104.8 11.2118 104.881 10.9291C105.002 10.6457 105.366 10.6054 105.771 10.7669Z" fill="white"/>
<path fill-rule="evenodd" clip-rule="evenodd" d="M106.019 9.87253C106.384 9.99368 106.585 10.3175 106.545 10.5194C106.464 10.7624 106.141 10.8431 105.776 10.6816C105.412 10.5194 105.21 10.2367 105.291 9.99368C105.331 9.75139 105.655 9.71029 106.019 9.87253Z" fill="white"/>
<path fill-rule="evenodd" clip-rule="evenodd" d="M106.298 8.94235C106.703 9.10387 106.945 9.42766 106.864 9.67067C106.783 9.91296 106.46 9.99372 106.055 9.79181C105.691 9.63028 105.448 9.30651 105.489 9.0635C105.57 8.82048 105.934 8.78082 106.298 8.94235Z" fill="white"/>
<path fill-rule="evenodd" clip-rule="evenodd" d="M106.547 8.08964C106.952 8.29155 107.154 8.57494 107.113 8.81723C107.032 9.01986 106.709 9.10063 106.345 8.89872C105.941 8.73647 105.738 8.45379 105.778 8.21078C105.859 8.00887 106.183 7.92739 106.547 8.08964Z" fill="white"/>
<path fill-rule="evenodd" clip-rule="evenodd" d="M109.415 7.85029C109.657 7.93105 109.82 8.17406 109.82 8.2952C109.779 8.45745 109.577 8.45745 109.334 8.37669C109.091 8.25482 108.93 8.05291 108.93 7.89066C108.97 7.72914 109.172 7.72914 109.415 7.85029Z" fill="white"/>
<path fill-rule="evenodd" clip-rule="evenodd" d="M109.623 7.1641C109.826 7.28597 109.987 7.4475 109.947 7.56864C109.947 7.73089 109.745 7.73089 109.502 7.65013C109.3 7.52826 109.138 7.32635 109.178 7.2052C109.178 7.08333 109.381 7.08334 109.623 7.1641Z" fill="white"/>
<path fill-rule="evenodd" clip-rule="evenodd" d="M109.787 6.55925C109.949 6.64001 110.111 6.80226 110.07 6.92341C110.07 7.00417 109.908 7.04455 109.707 6.96379C109.504 6.84264 109.383 6.6804 109.383 6.59963C109.423 6.47849 109.585 6.47848 109.787 6.55925Z" fill="white"/>
<path fill-rule="evenodd" clip-rule="evenodd" d="M109.942 5.95159C110.105 6.03235 110.226 6.1535 110.185 6.27536C110.185 6.35613 110.023 6.35613 109.862 6.27536C109.7 6.19388 109.578 6.07273 109.578 5.95159C109.619 5.8701 109.74 5.8701 109.942 5.95159Z" fill="white"/>
<path fill-rule="evenodd" clip-rule="evenodd" d="M110.057 5.43019C110.22 5.47057 110.341 5.59172 110.341 5.71286C110.3 5.79363 110.179 5.79363 110.017 5.71286C109.856 5.6321 109.734 5.51095 109.734 5.43019C109.775 5.30832 109.896 5.3487 110.057 5.43019Z" fill="white"/>
<path fill-rule="evenodd" clip-rule="evenodd" d="M110.181 4.89954C110.342 4.9803 110.463 5.06179 110.423 5.14255C110.423 5.22332 110.302 5.22332 110.14 5.14255C110.018 5.10217 109.897 4.9803 109.938 4.89954C109.938 4.81878 110.059 4.81878 110.181 4.89954Z" fill="white"/>
<path fill-rule="evenodd" clip-rule="evenodd" d="M110.313 4.45255C110.475 4.53331 110.556 4.61407 110.556 4.69556C110.516 4.77632 110.434 4.73594 110.273 4.69556C110.152 4.61407 110.07 4.53331 110.07 4.45255C110.07 4.37178 110.192 4.37178 110.313 4.45255Z" fill="white"/>
<path fill-rule="evenodd" clip-rule="evenodd" d="M110.429 4.00874C110.55 4.08951 110.631 4.17099 110.631 4.21066C110.631 4.29214 110.51 4.25176 110.388 4.21066C110.308 4.12989 110.186 4.08951 110.227 4.00874C110.227 3.92798 110.348 3.96836 110.429 4.00874Z" fill="white"/>
<path fill-rule="evenodd" clip-rule="evenodd" d="M107.84 16.2631C107.558 16.1419 107.395 15.8989 107.436 15.697C107.476 15.4944 107.719 15.4136 107.961 15.5348C108.245 15.6566 108.406 15.8989 108.366 16.1015C108.326 16.3035 108.083 16.3849 107.84 16.2631Z" fill="white"/>
<path fill-rule="evenodd" clip-rule="evenodd" d="M107.597 17.647C107.354 17.5259 107.193 17.2836 107.233 17.0809C107.274 16.879 107.516 16.7983 107.759 16.9194C108.001 17.0002 108.123 17.2425 108.123 17.4451C108.042 17.6881 107.84 17.7689 107.597 17.647Z" fill="white"/>
<path fill-rule="evenodd" clip-rule="evenodd" d="M107.402 19.0947C107.159 18.9729 106.997 18.7306 107.037 18.4876C107.078 18.2856 107.28 18.2049 107.523 18.2856C107.766 18.4068 107.927 18.6498 107.887 18.8517C107.846 19.0947 107.644 19.1755 107.402 19.0947Z" fill="white"/>
<path fill-rule="evenodd" clip-rule="evenodd" d="M107.199 20.631C106.956 20.5503 106.834 20.308 106.875 20.1054C106.915 19.8631 107.117 19.7816 107.36 19.8631C107.563 19.9842 107.724 20.2272 107.684 20.4291C107.643 20.631 107.401 20.7529 107.199 20.631Z" fill="white"/>
<path fill-rule="evenodd" clip-rule="evenodd" d="M106.908 22.3281C106.706 22.2481 106.585 22.0454 106.625 21.8024C106.665 21.6005 106.868 21.519 107.07 21.6005C107.272 21.6813 107.434 21.9236 107.394 22.1262C107.353 22.3281 107.151 22.4096 106.908 22.3281Z" fill="white"/>
<path fill-rule="evenodd" clip-rule="evenodd" d="M106.673 24.2822C106.472 24.2014 106.35 23.9988 106.391 23.7565C106.431 23.5546 106.633 23.4731 106.836 23.5546C107.038 23.6354 107.159 23.8373 107.118 24.0399C107.038 24.2822 106.876 24.363 106.673 24.2822Z" fill="white"/>
<path fill-rule="evenodd" clip-rule="evenodd" d="M105.26 7.57289C105.583 7.73514 105.785 7.97816 105.745 8.18007C105.664 8.42236 105.34 8.46346 105.017 8.30121C104.693 8.13968 104.451 7.89667 104.531 7.69476C104.612 7.49213 104.936 7.45175 105.26 7.57289Z" fill="white"/>
<path fill-rule="evenodd" clip-rule="evenodd" d="M104.562 9.30898C104.886 9.43013 105.048 9.67314 105.007 9.87505C104.926 10.0373 104.683 10.1173 104.36 9.9962C104.077 9.87505 103.875 9.63276 103.955 9.43013C104.036 9.2275 104.279 9.18712 104.562 9.30898Z" fill="white"/>
<path fill-rule="evenodd" clip-rule="evenodd" d="M104.277 10.1951C104.6 10.3566 104.803 10.64 104.763 10.8419C104.681 11.085 104.358 11.1253 104.034 11.0042C103.671 10.8823 103.468 10.5996 103.549 10.3566C103.63 10.1547 103.953 10.0732 104.277 10.1951Z" fill="white"/>
<path fill-rule="evenodd" clip-rule="evenodd" d="M103.191 13.4757C103.515 13.5968 103.717 13.8795 103.636 14.1225C103.556 14.3655 103.232 14.4867 102.908 14.3244C102.585 14.2033 102.382 13.9199 102.463 13.6776C102.545 13.4346 102.868 13.3538 103.191 13.4757Z" fill="white"/>
<path fill-rule="evenodd" clip-rule="evenodd" d="M100.03 4.66037C100.312 4.78152 100.474 4.98342 100.393 5.14567C100.312 5.3072 99.9887 5.34758 99.6656 5.22644C99.3822 5.10529 99.1803 4.90266 99.3015 4.74113C99.3822 4.57961 99.706 4.5385 100.03 4.66037Z" fill="white"/>
<path fill-rule="evenodd" clip-rule="evenodd" d="M100.035 16.9511C100.318 17.0722 100.521 17.396 100.399 17.6383C100.318 17.9217 99.9547 18.0435 99.6302 17.9217C99.3072 17.8005 99.1456 17.5171 99.2668 17.2337C99.3475 16.9511 99.6713 16.8703 100.035 16.9511Z" fill="white"/>
<path fill-rule="evenodd" clip-rule="evenodd" d="M97.8101 17.9263C98.1339 18.0482 98.2962 18.3712 98.1743 18.6546C98.0532 18.9373 97.689 19.0592 97.3652 18.9373C97.0422 18.8161 96.8799 18.4924 97.0011 18.2501C97.1229 17.9667 97.446 17.8455 97.8101 17.9263Z" fill="white"/>
<path fill-rule="evenodd" clip-rule="evenodd" d="M102.343 16.145C102.666 16.2662 102.828 16.59 102.787 16.8734C102.666 17.156 102.343 17.2779 101.978 17.156C101.655 16.9945 101.453 16.6707 101.533 16.3881C101.655 16.1047 101.978 16.0239 102.343 16.145Z" fill="white"/>
<path fill-rule="evenodd" clip-rule="evenodd" d="M104.488 15.4187C104.811 15.5802 104.973 15.8636 104.933 16.147C104.852 16.39 104.528 16.5111 104.204 16.39C103.881 16.2277 103.679 15.9443 103.76 15.6617C103.84 15.4187 104.165 15.2975 104.488 15.4187Z" fill="white"/>
<path fill-rule="evenodd" clip-rule="evenodd" d="M106.465 14.7632C106.789 14.9255 106.99 15.2089 106.95 15.4916C106.869 15.7749 106.546 15.8557 106.222 15.7346C105.858 15.5723 105.656 15.2493 105.736 14.9659C105.777 14.7229 106.101 14.6017 106.465 14.7632Z" fill="white"/>
<path fill-rule="evenodd" clip-rule="evenodd" d="M103.553 12.3059C103.877 12.4674 104.039 12.7104 103.998 12.9527C103.918 13.1554 103.594 13.2361 103.31 13.115C102.987 12.9938 102.825 12.7104 102.865 12.4674C102.947 12.2655 103.27 12.2244 103.553 12.3059Z" fill="white"/>
<path fill-rule="evenodd" clip-rule="evenodd" d="M106.986 6.67638C107.229 6.79824 107.431 7.00015 107.391 7.16168C107.35 7.32393 107.107 7.32392 106.825 7.20278C106.541 7.08091 106.38 6.879 106.42 6.71748C106.461 6.55523 106.704 6.55523 106.986 6.67638Z" fill="white"/>
<path fill-rule="evenodd" clip-rule="evenodd" d="M101.457 5.26287C101.7 5.34364 101.821 5.54627 101.781 5.66741C101.7 5.78856 101.457 5.82967 101.214 5.7078C100.972 5.62703 100.851 5.4655 100.89 5.34364C100.972 5.18211 101.214 5.18211 101.457 5.26287Z" fill="white"/>
<path fill-rule="evenodd" clip-rule="evenodd" d="M102.785 9.71182C103.068 9.79331 103.189 10.0363 103.149 10.1978C103.068 10.3594 102.825 10.3998 102.542 10.319C102.299 10.1978 102.137 9.99521 102.178 9.79331C102.259 9.67216 102.542 9.59067 102.785 9.71182Z" fill="white"/>
<path fill-rule="evenodd" clip-rule="evenodd" d="M101.047 14.0766C101.371 14.1978 101.573 14.4812 101.492 14.7639C101.371 15.0069 101.047 15.1287 100.723 15.0069C100.36 14.8453 100.197 14.5619 100.278 14.3189C100.399 14.0766 100.723 13.9555 101.047 14.0766Z" fill="white"/>
<path fill-rule="evenodd" clip-rule="evenodd" d="M103.918 11.2895C104.201 11.4113 104.403 11.6536 104.323 11.8967C104.242 12.0986 103.958 12.1389 103.676 12.0178C103.352 11.8966 103.19 11.6536 103.271 11.4517C103.311 11.2491 103.594 11.1683 103.918 11.2895Z" fill="white"/>
<path fill-rule="evenodd" clip-rule="evenodd" d="M100.843 10.0764C101.125 10.1983 101.288 10.4413 101.246 10.6432C101.125 10.8451 100.843 10.8855 100.519 10.8048C100.195 10.6836 100.034 10.4413 100.114 10.2387C100.195 10.0368 100.519 9.95529 100.843 10.0764Z" fill="white"/>
<path fill-rule="evenodd" clip-rule="evenodd" d="M95.8743 18.9725C96.0762 19.054 96.1981 19.2559 96.1166 19.4586C95.9954 19.6605 95.7532 19.7412 95.5101 19.7008C95.3075 19.6201 95.1864 19.3771 95.2678 19.1752C95.389 18.9725 95.6313 18.8918 95.8743 18.9725Z" fill="white"/>
<path fill-rule="evenodd" clip-rule="evenodd" d="M102.053 7.29034C102.336 7.41149 102.498 7.61413 102.417 7.77566C102.336 7.93718 102.094 7.97828 101.81 7.8968C101.487 7.77565 101.366 7.57302 101.406 7.41149C101.487 7.24997 101.77 7.20958 102.053 7.29034Z" fill="white"/>
<path fill-rule="evenodd" clip-rule="evenodd" d="M108.249 7.29311C108.492 7.41425 108.613 7.57578 108.613 7.73803C108.573 7.85918 108.37 7.89956 108.128 7.77842C107.885 7.69765 107.724 7.45464 107.764 7.33349C107.764 7.21235 108.006 7.17124 108.249 7.29311Z" fill="white"/>
<path fill-rule="evenodd" clip-rule="evenodd" d="M104.692 5.01319C104.894 5.09467 105.015 5.21582 104.975 5.33696C104.975 5.41845 104.813 5.45882 104.611 5.37734C104.449 5.29658 104.328 5.17544 104.328 5.09467C104.369 4.9728 104.53 4.9728 104.692 5.01319Z" fill="white"/>
<path fill-rule="evenodd" clip-rule="evenodd" d="M102.782 5.7853C102.985 5.86607 103.106 6.02831 103.065 6.14946C103.024 6.23094 102.822 6.27133 102.58 6.18984C102.378 6.10908 102.256 5.94755 102.297 5.8264C102.337 5.70454 102.58 5.70454 102.782 5.7853Z" fill="white"/>
<path fill-rule="evenodd" clip-rule="evenodd" d="M102.38 10.7298C102.623 10.851 102.784 11.0536 102.744 11.2555C102.663 11.4581 102.38 11.4985 102.097 11.3767C101.854 11.2959 101.692 11.0536 101.733 10.8914C101.814 10.6894 102.097 10.6491 102.38 10.7298Z" fill="white"/>
<path fill-rule="evenodd" clip-rule="evenodd" d="M101.246 9.14307C101.489 9.26494 101.65 9.42647 101.57 9.58799C101.489 9.75024 101.287 9.79062 101.004 9.70914C100.761 9.62909 100.639 9.42647 100.72 9.26494C100.761 9.10269 101.004 9.06231 101.246 9.14307Z" fill="white"/>
<path fill-rule="evenodd" clip-rule="evenodd" d="M99.18 9.55196C99.503 9.67382 99.6242 9.87574 99.5441 10.0776C99.4634 10.2399 99.18 10.3207 98.8966 10.1995C98.5728 10.118 98.4113 9.91611 98.5324 9.71348C98.6132 9.55196 98.8966 9.47119 99.18 9.55196Z" fill="white"/>
<path fill-rule="evenodd" clip-rule="evenodd" d="M98.0913 5.02019C98.3343 5.10167 98.4554 5.2632 98.3747 5.38434C98.2939 5.50621 98.0509 5.54659 97.8079 5.46583C97.5656 5.38434 97.4437 5.22282 97.5252 5.10167C97.606 4.97981 97.8483 4.93942 98.0913 5.02019Z" fill="white"/>
<path fill-rule="evenodd" clip-rule="evenodd" d="M105.014 4.41213C105.176 4.49289 105.338 4.61404 105.297 4.7359C105.297 4.81667 105.095 4.85705 104.893 4.77629C104.69 4.69553 104.569 4.57438 104.609 4.45252C104.609 4.37175 104.812 4.33137 105.014 4.41213Z" fill="white"/>
<path fill-rule="evenodd" clip-rule="evenodd" d="M105.743 6.15319C105.986 6.23467 106.147 6.43658 106.107 6.59811C106.026 6.71998 105.824 6.71997 105.581 6.63849C105.338 6.51734 105.177 6.31472 105.217 6.19357C105.258 6.07243 105.501 6.03204 105.743 6.15319Z" fill="white"/>
<path fill-rule="evenodd" clip-rule="evenodd" d="M105.984 5.46776C106.186 5.58891 106.347 5.75044 106.308 5.83192C106.267 5.95307 106.105 5.99345 105.862 5.87159C105.66 5.79082 105.539 5.62929 105.539 5.50815C105.579 5.38628 105.781 5.38628 105.984 5.46776Z" fill="white"/>
<path fill-rule="evenodd" clip-rule="evenodd" d="M103.108 8.83001C103.351 8.91149 103.472 9.11341 103.431 9.27566C103.391 9.3968 103.148 9.43718 102.946 9.35642C102.703 9.23455 102.542 9.07302 102.623 8.91149C102.663 8.79035 102.905 8.74924 103.108 8.83001Z" fill="white"/>
<path fill-rule="evenodd" clip-rule="evenodd" d="M104.155 6.36411C104.357 6.48525 104.437 6.6064 104.437 6.72826C104.397 6.80903 104.194 6.84941 103.993 6.76793C103.83 6.68716 103.709 6.52564 103.75 6.44487C103.79 6.32301 103.952 6.28335 104.155 6.36411Z" fill="white"/>
<path fill-rule="evenodd" clip-rule="evenodd" d="M101.492 12.9476C101.735 13.0284 101.856 13.231 101.816 13.3925C101.735 13.5952 101.533 13.6355 101.29 13.5548C101.047 13.474 100.885 13.2714 100.967 13.0695C101.047 12.9072 101.29 12.8668 101.492 12.9476Z" fill="white"/>
<path fill-rule="evenodd" clip-rule="evenodd" d="M105.457 6.96032C105.619 7.04109 105.7 7.16224 105.7 7.24372C105.66 7.32449 105.498 7.36486 105.336 7.2841C105.175 7.20334 105.053 7.08147 105.094 7.00071C105.134 6.87957 105.296 6.87956 105.457 6.96032Z" fill="white"/>
<path fill-rule="evenodd" clip-rule="evenodd" d="M107.155 6.028C107.316 6.10877 107.478 6.27101 107.437 6.39215C107.397 6.47292 107.235 6.5133 107.033 6.43254C106.871 6.35178 106.75 6.18952 106.75 6.06838C106.79 5.94723 106.952 5.94724 107.155 6.028Z" fill="white"/>
<path fill-rule="evenodd" clip-rule="evenodd" d="M94.4104 2.10538C94.613 2.14649 94.6937 2.26763 94.613 2.3484C94.5322 2.42916 94.3296 2.47026 94.1277 2.42916C93.925 2.38878 93.8039 2.26763 93.8847 2.18687C94.0058 2.10538 94.2084 2.06572 94.4104 2.10538Z" fill="white"/>
<path fill-rule="evenodd" clip-rule="evenodd" d="M100.558 6.8008C100.801 6.88157 100.923 7.04309 100.881 7.20534C100.801 7.32649 100.558 7.36687 100.315 7.28611C100.073 7.20534 99.952 7.00271 100.033 6.88157C100.073 6.7597 100.315 6.72004 100.558 6.8008Z" fill="white"/>
<path fill-rule="evenodd" clip-rule="evenodd" d="M95.4202 3.28357C95.6221 3.32395 95.744 3.4862 95.6625 3.56696C95.5817 3.68811 95.3394 3.68811 95.0964 3.64772C94.8938 3.56696 94.7727 3.44582 94.8534 3.36433C94.9349 3.24319 95.1772 3.20281 95.4202 3.28357Z" fill="white"/>
<path fill-rule="evenodd" clip-rule="evenodd" d="M97.5706 9.06505C97.8128 9.14582 97.934 9.30807 97.8532 9.50998C97.7725 9.67223 97.4898 9.71188 97.2064 9.63184C96.9634 9.55035 96.8422 9.34845 96.9237 9.1862C97.0038 9.02467 97.2872 8.98429 97.5706 9.06505Z" fill="white"/>
<path fill-rule="evenodd" clip-rule="evenodd" d="M93.0813 1.78703C93.2429 1.82741 93.3243 1.90817 93.2428 1.98893C93.1621 2.07042 93.0006 2.11008 92.7979 2.07042C92.6364 2.03004 92.5153 1.94855 92.596 1.90817C92.6768 1.78703 92.8794 1.78703 93.0813 1.78703Z" fill="white"/>
<path fill-rule="evenodd" clip-rule="evenodd" d="M98.9472 3.5632C99.1087 3.64397 99.2306 3.72473 99.1498 3.80622C99.1087 3.88698 98.9068 3.92737 98.7453 3.8466C98.5427 3.80622 98.4619 3.68435 98.5023 3.60359C98.583 3.52283 98.7453 3.48244 98.9472 3.5632Z" fill="white"/>
<path fill-rule="evenodd" clip-rule="evenodd" d="M95.3477 20.4743C95.59 20.5147 95.6707 20.7173 95.59 20.9192C95.4688 21.1218 95.2258 21.243 95.0239 21.1622C94.7809 21.0814 94.7001 20.8788 94.8213 20.6769C94.902 20.4743 95.145 20.3935 95.3477 20.4743Z" fill="white"/>
<path fill-rule="evenodd" clip-rule="evenodd" d="M93.7208 21.3594C93.9227 21.4402 94.0035 21.6024 93.9227 21.7639C93.8016 21.9255 93.599 22.0473 93.397 21.9666C93.2348 21.9255 93.154 21.7236 93.2348 21.562C93.3163 21.3998 93.5182 21.319 93.7208 21.3594Z" fill="white"/>
<path fill-rule="evenodd" clip-rule="evenodd" d="M99.4745 18.4517C99.7168 18.5318 99.8379 18.7748 99.7572 18.9767C99.6764 19.2197 99.4334 19.3005 99.1911 19.2197C98.9481 19.139 98.827 18.8959 98.9077 18.6536C98.9885 18.4517 99.2315 18.3703 99.4745 18.4517Z" fill="white"/>
<path fill-rule="evenodd" clip-rule="evenodd" d="M97.2397 19.4625C97.4827 19.5837 97.6039 19.8267 97.5635 20.0286C97.4416 20.2312 97.1993 20.3523 96.9563 20.2716C96.714 20.1497 96.5922 19.9478 96.6736 19.7048C96.7544 19.5029 96.9967 19.381 97.2397 19.4625Z" fill="white"/>
<path fill-rule="evenodd" clip-rule="evenodd" d="M99.672 8.66556C99.8739 8.74632 99.9554 8.86819 99.9143 8.98933C99.8739 9.0701 99.672 9.11048 99.5098 9.0701C99.3079 8.98933 99.1867 8.86819 99.2675 8.74632C99.3079 8.66556 99.5098 8.62517 99.672 8.66556Z" fill="white"/>
<path fill-rule="evenodd" clip-rule="evenodd" d="M104.16 3.52454C104.322 3.56492 104.403 3.68607 104.403 3.76755C104.362 3.84832 104.241 3.84832 104.079 3.76755C103.917 3.72645 103.836 3.64568 103.836 3.56492C103.877 3.48415 103.998 3.48416 104.16 3.52454Z" fill="white"/>
<path fill-rule="evenodd" clip-rule="evenodd" d="M101.862 17.6405C102.024 17.7213 102.145 17.8835 102.105 18.0854C102.024 18.2477 101.822 18.3688 101.619 18.2477C101.417 18.1669 101.296 18.0047 101.377 17.8028C101.417 17.6405 101.619 17.5597 101.862 17.6405Z" fill="white"/>
<path fill-rule="evenodd" clip-rule="evenodd" d="M104.039 16.7916C104.2 16.8723 104.322 17.0742 104.282 17.2358C104.241 17.398 104.079 17.4788 103.836 17.398C103.675 17.3173 103.553 17.1146 103.594 16.9531C103.634 16.7916 103.836 16.7101 104.039 16.7916Z" fill="white"/>
<path fill-rule="evenodd" clip-rule="evenodd" d="M106.061 16.2613C106.263 16.3421 106.385 16.5043 106.343 16.6659C106.304 16.8274 106.142 16.9089 105.94 16.8274C105.737 16.7466 105.656 16.5447 105.656 16.3832C105.697 16.2613 105.899 16.1806 106.061 16.2613Z" fill="white"/>
<path fill-rule="evenodd" clip-rule="evenodd" d="M100.318 4.13671C100.44 4.17782 100.521 4.25858 100.48 4.33934C100.44 4.4201 100.318 4.42011 100.157 4.37973C100.036 4.29896 99.9549 4.21748 99.9946 4.13671C100.036 4.09633 100.157 4.05595 100.318 4.13671Z" fill="white"/>
<path fill-rule="evenodd" clip-rule="evenodd" d="M95.748 8.66757C95.9499 8.70795 96.0307 8.8291 95.9499 8.91058C95.9095 9.03173 95.7069 9.07211 95.5454 9.03173C95.3435 8.99135 95.2627 8.8702 95.3434 8.74833C95.3838 8.66757 95.5857 8.62719 95.748 8.66757Z" fill="white"/>
<path fill-rule="evenodd" clip-rule="evenodd" d="M96.9568 9.91331C97.1999 9.95369 97.2806 10.1152 97.1999 10.2775C97.1595 10.3986 96.9172 10.4397 96.7146 10.3986C96.4715 10.3179 96.3504 10.1563 96.4312 10.0352C96.5119 9.91331 96.7549 9.83255 96.9568 9.91331Z" fill="white"/>
<path fill-rule="evenodd" clip-rule="evenodd" d="M98.6581 10.6024C98.8608 10.6428 98.9415 10.8043 98.9012 10.9262C98.8204 11.0474 98.6581 11.0877 98.4562 11.0474C98.2536 10.9659 98.1728 10.8447 98.2132 10.6832C98.2947 10.5613 98.4562 10.5209 98.6581 10.6024Z" fill="white"/>
<path fill-rule="evenodd" clip-rule="evenodd" d="M100.36 11.2131C100.522 11.2535 100.603 11.4158 100.562 11.4965C100.522 11.6177 100.36 11.6581 100.158 11.6177C99.9956 11.5369 99.9148 11.4158 99.9559 11.2939C99.9956 11.1727 100.158 11.1324 100.36 11.2131Z" fill="white"/>
<path fill-rule="evenodd" clip-rule="evenodd" d="M101.937 11.8193C102.099 11.9001 102.22 12.0212 102.139 12.1423C102.099 12.2642 101.937 12.3046 101.775 12.2231C101.613 12.1835 101.532 12.0212 101.573 11.9001C101.613 11.7782 101.775 11.7378 101.937 11.8193Z" fill="white"/>
<path fill-rule="evenodd" clip-rule="evenodd" d="M105.253 3.88596C105.415 3.96673 105.496 4.0475 105.496 4.12826C105.455 4.20903 105.334 4.20902 105.173 4.16936C105.052 4.12826 104.93 4.00711 104.93 3.92635C104.97 3.84559 105.092 3.84558 105.253 3.88596Z" fill="white"/>
<path fill-rule="evenodd" clip-rule="evenodd" d="M104.447 3.03587C104.568 3.07626 104.689 3.15701 104.649 3.23778C104.649 3.31854 104.527 3.31855 104.406 3.27816C104.245 3.1974 104.164 3.11664 104.164 3.03587C104.204 2.99549 104.326 2.95439 104.447 3.03587Z" fill="white"/>
<path fill-rule="evenodd" clip-rule="evenodd" d="M103.602 2.2709C103.723 2.31128 103.804 2.39204 103.804 2.43243C103.764 2.51391 103.683 2.51391 103.561 2.47352C103.439 2.43242 103.359 2.35166 103.359 2.2709C103.4 2.23052 103.481 2.23052 103.602 2.2709Z" fill="white"/>
<path fill-rule="evenodd" clip-rule="evenodd" d="M106.183 4.93729C106.345 4.97767 106.426 5.09953 106.426 5.22068C106.386 5.30144 106.264 5.30144 106.102 5.22068C105.941 5.13991 105.819 5.01805 105.859 4.93729C105.9 4.85652 106.022 4.85652 106.183 4.93729Z" fill="white"/>
<path fill-rule="evenodd" clip-rule="evenodd" d="M95.222 9.46957C95.3842 9.50995 95.465 9.63182 95.4246 9.75297C95.3438 9.83373 95.1412 9.9145 94.9797 9.83373C94.777 9.79335 94.6963 9.6722 94.7367 9.55034C94.8174 9.46957 95.02 9.38881 95.222 9.46957Z" fill="white"/>
<path fill-rule="evenodd" clip-rule="evenodd" d="M93.5646 9.07041C93.7672 9.11079 93.8076 9.23194 93.7672 9.31342C93.6864 9.39419 93.5242 9.47495 93.3223 9.43457C93.16 9.39419 93.0793 9.27304 93.1197 9.19156C93.2004 9.07041 93.4031 9.03003 93.5646 9.07041Z" fill="white"/>
<path fill-rule="evenodd" clip-rule="evenodd" d="M107.402 8.01184C107.321 8.21375 107.523 8.45676 107.806 8.61829C107.442 8.53752 107.2 8.57791 107.118 8.8202C107.078 8.98245 107.2 9.22474 107.442 9.42737C107.16 9.38699 106.957 9.46776 106.916 9.67039C106.836 9.91268 107.038 10.1961 107.361 10.398C106.997 10.2768 106.715 10.398 106.633 10.641C106.593 10.8429 106.715 11.0859 106.957 11.2878C106.673 11.2474 106.472 11.3686 106.391 11.5712C106.35 11.8142 106.512 12.0969 106.795 12.2995C106.431 12.2592 106.188 12.3803 106.107 12.6226C106.027 12.9464 106.31 13.3913 106.795 13.5939C107.16 13.7554 107.523 13.7151 107.644 13.5124C107.726 13.7958 107.968 14.1196 108.332 14.2811C108.656 14.403 108.939 14.403 109.101 14.2415C109.222 14.5241 109.465 14.7664 109.789 14.9287C110.071 15.0498 110.355 15.0498 110.517 14.8883C110.638 15.171 110.88 15.414 111.164 15.5351C111.488 15.6974 111.77 15.657 111.933 15.5351C112.013 15.7781 112.256 16.0615 112.579 16.2231C113.024 16.425 113.348 16.3038 113.388 15.9397C113.388 15.657 113.227 15.3736 112.943 15.1313C113.227 15.171 113.429 15.0498 113.47 14.8075C113.47 14.5645 113.308 14.3215 113.065 14.0792C113.308 14.1196 113.51 13.9985 113.51 13.7958C113.51 13.5124 113.308 13.2298 112.984 12.9875C113.308 13.1086 113.551 12.9875 113.551 12.7445C113.551 12.5418 113.388 12.2995 113.146 12.0969C113.388 12.1373 113.591 12.0565 113.591 11.8546C113.591 11.6116 113.388 11.3289 113.065 11.1263C113.348 11.2071 113.551 11.1667 113.591 10.964C113.591 10.7218 113.348 10.4391 112.984 10.2768C112.7 10.1146 112.458 10.1557 112.377 10.2768C112.337 10.0742 112.134 9.83191 111.811 9.71004C111.568 9.54851 111.325 9.54851 111.204 9.71004C111.164 9.46775 110.922 9.22474 110.598 9.06321C110.274 8.90168 110.031 8.94207 109.91 9.06321C109.869 8.8613 109.667 8.65867 109.344 8.53752C109.02 8.33489 108.737 8.376 108.656 8.57791C108.696 8.376 108.454 8.09261 108.09 7.93036C107.766 7.76883 107.442 7.80921 107.402 8.01184ZM112.013 14.3626C112.175 14.4434 112.297 14.6049 112.297 14.7261C112.297 14.8883 112.134 14.9287 111.973 14.8479C111.811 14.7664 111.689 14.6049 111.689 14.4434C111.689 14.3215 111.851 14.2811 112.013 14.3626ZM110.679 13.7554C110.84 13.8369 110.922 13.9581 110.922 14.0792C110.922 14.2004 110.759 14.2415 110.638 14.2004C110.476 14.1196 110.355 13.9581 110.355 13.8369C110.395 13.7151 110.517 13.7151 110.679 13.7554ZM109.303 13.149C109.465 13.2298 109.586 13.3509 109.546 13.4728C109.546 13.5939 109.384 13.6343 109.263 13.5535C109.101 13.4728 108.98 13.3509 109.02 13.2298C109.02 13.1086 109.181 13.0682 109.303 13.149ZM108.13 12.8252C108.09 12.9464 107.927 12.9875 107.726 12.906C107.564 12.8252 107.442 12.6637 107.483 12.5418C107.523 12.4207 107.644 12.3803 107.847 12.4611C108.008 12.5418 108.13 12.7041 108.13 12.8252ZM112.175 13.4317C112.297 13.4728 112.418 13.6343 112.418 13.7554C112.377 13.8369 112.256 13.8766 112.134 13.8369C111.973 13.7554 111.851 13.5939 111.892 13.4728C111.892 13.3913 112.013 13.3509 112.175 13.4317ZM108.049 11.5308C108.211 11.6116 108.292 11.7327 108.251 11.8546C108.251 11.9354 108.13 11.9758 107.968 11.895C107.806 11.8546 107.685 11.6924 107.726 11.6116C107.766 11.4905 107.887 11.4501 108.049 11.5308ZM112.256 12.4207C112.377 12.5014 112.499 12.6226 112.499 12.7445C112.458 12.8656 112.337 12.8656 112.215 12.8252C112.054 12.7445 111.973 12.5829 111.973 12.5014C111.973 12.3803 112.094 12.3803 112.256 12.4207ZM108.251 10.5595C108.372 10.641 108.494 10.7621 108.494 10.8833C108.454 10.964 108.332 11.0052 108.17 10.9244C108.008 10.8833 107.887 10.7218 107.927 10.641C107.968 10.5191 108.09 10.5191 108.251 10.5595ZM112.297 11.5308C112.458 11.5712 112.539 11.7327 112.539 11.8142C112.539 11.9354 112.418 11.9354 112.297 11.8546C112.134 11.8142 112.054 11.6924 112.054 11.5712C112.054 11.4905 112.175 11.4501 112.297 11.5308ZM108.413 9.67039C108.575 9.75115 108.656 9.87229 108.656 9.99344C108.615 10.0742 108.494 10.1146 108.372 10.0345C108.211 9.95305 108.13 9.83191 108.13 9.75115C108.13 9.63 108.292 9.63 108.413 9.67039ZM112.337 10.5595C112.499 10.641 112.62 10.7621 112.62 10.8833C112.579 11.0051 112.458 11.0052 112.297 10.9244C112.175 10.8833 112.054 10.7218 112.054 10.641C112.054 10.5191 112.175 10.5191 112.337 10.5595ZM111.164 10.0345C111.285 10.0742 111.366 10.1961 111.366 10.2768C111.366 10.398 111.245 10.398 111.123 10.3576C110.962 10.2768 110.88 10.1557 110.88 10.0742C110.88 9.95306 111.002 9.95305 111.164 10.0345ZM109.95 9.42737C110.071 9.50814 110.153 9.63 110.153 9.71004C110.153 9.79153 110.031 9.83191 109.869 9.75115C109.748 9.67039 109.626 9.5889 109.667 9.46775C109.667 9.38699 109.789 9.38699 109.95 9.42737ZM108.615 8.78054C108.777 8.8613 108.858 9.02283 108.858 9.1036C108.858 9.22474 108.696 9.22474 108.535 9.14398C108.372 9.06321 108.251 8.94206 108.292 8.8613C108.332 8.73943 108.454 8.73943 108.615 8.78054Z" fill="white"/>
</svg>
