<svg width="126" height="14" viewBox="0 0 126 14" fill="none" xmlns="http://www.w3.org/2000/svg">
<g clip-path="url(#clip0_1461_2929)">
<path d="M125.904 0.604757L125.96 0.489644H114.917C111.662 0.489644 108.889 1.05213 106.597 2.17711C104.373 3.24527 102.637 4.9113 101.663 6.90985C101.021 8.20226 100.838 9.3761 101.115 10.4313C101.263 10.9663 101.562 11.4631 101.987 11.8791C102.413 12.2951 102.95 12.6179 103.556 12.8199C104.755 13.2576 106.756 13.4766 109.556 13.4766H119.532L120.527 11.415H114.917C112.208 11.415 110.405 11.1202 109.509 10.5307C108.52 9.89498 108.632 8.41941 109.403 6.86799C110.741 4.16805 113.542 2.48582 117.417 2.48582H121.762L120.762 4.51339H124.074L126 0.604757H125.904ZM87.2194 8.27813L93.938 2.75529L95.3349 8.27813H87.2194ZM30.086 8.29906L36.6279 3.01168L37.8081 8.29906H30.086ZM93.3615 0.476562H89.2699L73.5253 12.9298L79.677 0.489644H72.9306L64.778 5.88429L60.5809 8.79615H60.4012L62.3774 4.55525L59.9582 0.489644H53.181L47.0169 12.9534L43.4641 0.489644H36.0301L19.6134 13.4766H23.73L27.924 10.0755H38.2603L39.0842 13.4766H50.068L54.039 5.44738C54.2403 5.04449 54.4292 4.58142 54.6182 4.0634C54.6497 4.52442 54.7843 4.97625 55.0147 5.39506L58.5086 12.0926H59.0972L69.0897 5.42122C69.6856 4.99536 70.2533 4.54206 70.7902 4.0634C70.403 4.66775 70.1335 5.12821 69.9756 5.44738L66.0046 13.4766H73.2559H80.9004L85.048 10.0755H95.7836L96.6447 13.4766H100.421L96.7444 0.476562H93.3615ZM21.4563 10.4313C22.7169 9.44448 23.7174 8.24468 24.3928 6.90985C25.3963 4.87966 25.3107 3.30208 24.1357 2.17711C22.9607 1.05213 20.7429 0.489644 17.4823 0.489644H6.44899L5.45159 2.52245H13.0498C16.9247 2.52245 18.0491 4.15496 16.711 6.85491C15.9397 8.42464 15.2552 9.85572 13.6414 10.4967C12.167 11.0827 10.6399 11.2554 7.9296 11.2554H4.41393L7.03752 5.99679H3.717L0 13.4766H10.0019C12.806 13.4766 15.0218 13.2576 16.649 12.8199C18.4412 12.3344 20.0833 11.5185 21.4563 10.4313Z" fill="black"/>
</g>
<defs>
<clipPath id="clip0_1461_2929">
<rect width="126" height="13" fill="white" transform="translate(0 0.476562)"/>
</clipPath>
</defs>
</svg>
