<svg width="63" height="64" viewBox="0 0 63 64" fill="none" xmlns="http://www.w3.org/2000/svg">
<path d="M50.6587 34.1093H23.246L24.9176 31.8579H49.0161L43.9046 24.8622H29.9712L31.6428 22.5432H42.2233L31.5365 7.91406L4.74219 44.9121H58.5531L50.6587 34.1093Z" fill="#221F20"/>
<path d="M4.51562 48.4141H10.3325V49.9214H6.20658V51.4868H9.83971V52.9941H6.20658V54.6174H10.3905V56.1248H4.51562V48.4141Z" fill="#F89521"/>
<path d="M11.8984 48.4141H13.7247L15.7538 51.68L17.7829 48.4141H19.6092V56.1248H17.9182V51.0906L15.7538 54.3855H15.7055L13.5604 51.1292V56.1248H11.8984V48.4141Z" fill="#F89521"/>
<path d="M25.1249 54.6368C25.8786 54.6368 26.3231 54.3759 26.3231 53.7961V53.7768C26.3231 53.255 25.9366 52.9362 25.0669 52.9362H23.1054V54.6368H25.1249ZM24.6708 51.5351C25.4244 51.5351 25.8979 51.2935 25.8979 50.7234V50.7041C25.8979 50.2016 25.5017 49.9118 24.7867 49.9118H23.1151V51.5351H24.6708ZM21.4531 48.4141H25.0283C25.9076 48.4141 26.6033 48.6556 27.0478 49.1001C27.3956 49.448 27.5792 49.8828 27.5792 50.4142V50.4335C27.5792 51.3032 27.1154 51.7863 26.5646 52.0955C27.4536 52.4337 28.0044 52.9555 28.0044 53.9894V54.0087C28.0044 55.4194 26.8545 56.1248 25.1152 56.1248H21.4531V48.4141Z" fill="#F89521"/>
<path d="M33.8325 52.8989L32.8083 50.3963L31.784 52.8989H33.8325ZM32.0546 48.3672H33.6199L36.9245 56.1262H35.1466L34.4413 54.3966H31.185L30.4796 56.1262H28.75L32.0546 48.3672Z" fill="#F89521"/>
<path d="M37.4609 55.0027L38.4658 53.7949C39.1616 54.3746 39.8862 54.7322 40.7655 54.7322C41.4612 54.7322 41.8767 54.4616 41.8767 54.0075V53.9881C41.8767 53.563 41.6062 53.3407 40.3211 53.0025C38.7654 52.6064 37.7605 52.1716 37.7605 50.6449V50.6256C37.7605 49.2245 38.8813 48.2969 40.4563 48.2969C41.5772 48.2969 42.5435 48.6544 43.3261 49.2728L42.4372 50.5483C41.7608 50.0748 41.0844 49.7849 40.437 49.7849C39.7896 49.7849 39.4418 50.0845 39.4418 50.4516V50.471C39.4418 50.9831 39.7703 51.1377 41.1037 51.4855C42.6691 51.8914 43.5484 52.4518 43.5484 53.7949V53.8142C43.5484 55.3409 42.3792 56.2009 40.7172 56.2009C39.5674 56.2299 38.3885 55.824 37.4609 55.0027Z" fill="#F89521"/>
<path d="M44.3984 55.0027L45.4033 53.7949C46.0991 54.3746 46.8237 54.7322 47.703 54.7322C48.3987 54.7322 48.8142 54.4616 48.8142 54.0075V53.9881C48.8142 53.563 48.5437 53.3407 47.2586 53.0025C45.7029 52.6064 44.7076 52.1716 44.7076 50.6449V50.6256C44.7076 49.2245 45.8285 48.2969 47.4035 48.2969C48.5244 48.2969 49.481 48.6544 50.2636 49.2728L49.3843 50.5483C48.6983 50.0748 48.0316 49.7849 47.3745 49.7849C46.7271 49.7849 46.3793 50.0845 46.3793 50.4516V50.471C46.3793 50.9831 46.7078 51.1377 48.0412 51.4855C49.6066 51.8914 50.4859 52.4518 50.4859 53.7949V53.8142C50.4859 55.3409 49.3167 56.2009 47.6547 56.2009C46.5049 56.2299 45.326 55.824 44.3984 55.0027Z" fill="#F89521"/>
<path d="M53.818 53.0811L50.8516 48.4141H52.8324L54.6779 51.5158L56.5525 48.4141H58.4753L55.5089 53.0521V56.1248H53.818V53.0811Z" fill="#F89521"/>
</svg>
