<svg width="52" height="54" viewBox="0 0 52 54" fill="none" xmlns="http://www.w3.org/2000/svg">
<path d="M13.1112 8.69809C15.1874 8.68477 17.2644 8.68286 19.3406 8.69904C19.334 9.68964 19.334 10.6802 19.3434 11.6708C18.9412 11.6813 18.5391 11.6832 18.1369 11.6756C18.122 11.7298 18.0921 11.8383 18.0762 11.8926C18.1378 12.7718 18.1052 13.6539 18.066 14.5332C19.4647 14.5846 20.8634 14.5703 22.263 14.5722C22.2864 13.6244 22.2705 12.6776 22.2733 11.7298C21.8711 11.6499 21.4606 11.6861 21.0537 11.6784C21.0509 10.6879 21.05 9.6982 21.0556 8.70856C21.1041 8.70475 21.203 8.69619 21.2525 8.69238C23.1215 8.68667 24.9895 8.69048 26.8585 8.68952C26.9976 8.69048 27.1366 8.69048 27.2765 8.69238C27.2709 9.68678 27.2654 10.6812 27.2784 11.6765C26.8679 11.6765 26.4573 11.6804 26.0467 11.6756C25.9767 14.5884 26.0262 17.5031 26.0131 20.4168C26.4321 20.4197 26.852 20.4178 27.2719 20.4206C27.2728 21.4693 27.27 22.5179 27.2728 23.5656C25.1995 23.5704 23.1271 23.5628 21.0547 23.5571C21.05 22.5113 21.0519 21.4645 21.0537 20.4187C21.4774 20.4187 21.901 20.4245 22.3246 20.4102C22.3255 19.8554 22.2378 19.3035 22.2808 18.7487C22.3134 18.4147 22.319 18.0788 22.3209 17.7429C21.3458 17.7286 20.3716 17.6572 19.3975 17.7039C18.9543 17.741 18.5092 17.7201 18.066 17.7362C18.1602 18.4861 18.0566 19.2388 18.0716 19.9905C18.0706 20.1304 18.0706 20.2712 18.0706 20.4121C18.4933 20.4216 18.916 20.4187 19.3387 20.4216C19.3368 21.4693 19.3378 22.516 19.3359 23.5628C18.6697 23.5456 18.0072 23.6379 17.341 23.6151C16.4097 23.6151 15.4785 23.6161 14.5463 23.6161C14.0705 23.5685 13.5927 23.5656 13.114 23.5647C13.1168 22.517 13.115 21.4683 13.114 20.4197C13.5218 20.4187 13.9305 20.4178 14.3383 20.4254C14.4017 18.6631 14.3504 16.8979 14.3672 15.1346C14.3812 14.0022 14.3205 12.8689 14.3719 11.7374C13.952 11.6918 13.5311 11.6756 13.1094 11.6651C13.1187 10.6764 13.1178 9.68678 13.1112 8.69809Z" fill="#CC0113"/>
<path d="M28.5778 8.7147C31.3033 8.71184 34.0289 8.71375 36.7545 8.71375C37.4375 8.65094 38.0963 8.87647 38.7205 9.13244C38.8502 9.19144 38.9818 9.24758 39.1143 9.30373C39.9307 9.73575 40.6595 10.418 40.9683 11.3211C41.2109 12.0195 41.3033 12.777 41.2343 13.5145C41.1746 14.0997 40.9245 14.6364 40.6875 15.1645L40.6567 15.1893C40.2984 15.7983 39.8318 16.334 39.286 16.7746C38.8185 17.0915 38.3118 17.3408 37.7865 17.5387C37.0811 17.7281 36.3505 17.6339 35.6338 17.7195C34.9349 17.7338 34.2361 17.7329 33.5381 17.7519C33.5437 18.6454 33.5418 19.539 33.5372 20.4334C33.944 20.4411 34.3508 20.4382 34.7586 20.4401C34.8864 21.0824 34.7334 21.7285 34.7866 22.3737C34.767 22.7762 34.7465 23.1816 34.8108 23.5822C33.1574 23.6289 31.5021 23.5594 29.8496 23.6241C29.425 23.626 29.0014 23.6232 28.5768 23.626C28.5694 22.5631 28.5675 21.4992 28.5787 20.4363C28.9893 20.4373 29.3998 20.4392 29.8113 20.4363C29.816 17.5359 29.8188 14.6345 29.8095 11.7341C29.3961 11.7293 28.9809 11.7426 28.5703 11.6913C28.5796 10.6987 28.5619 9.70625 28.5778 8.7147ZM33.5372 11.7322C33.5428 12.7285 33.5456 13.7257 33.5353 14.722C34.5151 14.7468 35.4939 14.7258 36.4736 14.7363C36.6789 14.7592 36.8618 14.6611 37.0391 14.5698C37.3125 14.3338 37.5616 14.0655 37.7212 13.7343C37.7604 13.2766 37.7641 12.8094 37.6232 12.3678C37.4039 12.1585 37.1762 11.9596 36.9308 11.7845C36.748 11.7464 36.5613 11.7207 36.3747 11.7255C35.4286 11.7312 34.4824 11.7227 33.5372 11.7322Z" fill="#CC0113"/>
<path d="M20.6152 1.04528C24.3289 0.251655 28.2106 0.285913 31.9066 1.16518C35.5736 2.02446 39.0382 3.73255 42.0027 6.09057C44.6526 8.2107 46.9061 10.8494 48.5791 13.8327C51.1031 18.3079 52.2966 23.5588 51.9373 28.7088C47.6227 28.4823 43.2418 29.2036 39.2547 30.9164C35.973 32.341 33.0039 34.5591 30.8139 37.4424C28.3729 40.6131 26.9192 44.4793 26.2399 48.4265C26.0113 49.6702 25.8909 50.9301 25.7509 52.1853C25.6502 49.9414 25.2629 47.7128 24.6779 45.5489C23.6767 41.8511 21.8599 38.3445 19.2062 35.603C16.7904 33.0794 13.7243 31.2542 10.4566 30.1371C8.25263 29.373 5.95069 28.9229 3.63288 28.7221C2.43759 28.644 1.23576 28.5746 0.0395363 28.6726C-0.0556393 26.5991 0.00874458 24.5113 0.367986 22.4654C1.15552 17.7589 3.23072 13.2864 6.29967 9.68089C9.97233 5.30742 15.0876 2.22048 20.6152 1.04528ZM17.7347 3.04075C13.2494 4.6356 9.24171 7.58932 6.33606 11.4194C3.6898 14.8613 1.97291 19.0188 1.34494 23.3418C2.76417 23.4294 4.18248 23.5769 5.58212 23.8376C9.15774 24.4752 12.6447 25.7998 15.6353 27.9189C18.7145 30.0905 21.2544 33.0432 22.9815 36.4299C24.5958 39.5692 25.4748 43.0681 25.7407 46.5938C26.4648 41.6941 27.9876 36.8048 30.897 32.7806C33.003 29.8278 35.875 27.4612 39.1334 25.953C42.7314 24.2525 46.7148 23.5721 50.6562 23.4712C50.2195 20.2454 49.1586 17.1118 47.5592 14.2942C45.8526 11.2786 43.5236 8.63415 40.7794 6.56351C37.423 4.03039 33.4294 2.37369 29.2855 1.83224C27.7412 1.5991 26.1764 1.60766 24.62 1.64953C22.2752 1.76943 19.948 2.24522 17.7347 3.04075Z" fill="#010269"/>
<path d="M47.94 29.785C49.2361 29.6556 50.5377 29.647 51.8375 29.6813C51.817 30.5462 51.6369 31.3989 51.483 32.2477C50.242 38.6632 46.5329 44.5279 41.3496 48.3694C39.9975 49.3962 38.5316 50.2592 37.0135 51.0024C33.7859 52.5297 30.2541 53.3919 26.6953 53.4765C26.8661 49.5199 27.5771 45.5308 29.2557 41.9357C30.7487 38.7023 33.0814 35.8646 35.9964 33.872C39.5179 31.4284 43.7262 30.1694 47.94 29.785ZM36.95 37.7707C35.1305 38.7841 33.5284 40.1839 32.2332 41.832C29.8744 44.8457 28.5214 48.5483 27.7646 52.2937C31.2432 52.0454 34.6705 51.0472 37.7404 49.3581C43.017 46.4938 47.2113 41.6208 49.3051 35.9094C45.1389 35.2899 40.6889 35.6705 36.95 37.7707Z" fill="#010269"/>
<path d="M0.117188 29.6634C4.12016 29.5036 8.17352 30.182 11.8732 31.7645C15.112 33.1653 18.041 35.3767 20.1479 38.2648C22.3706 41.2547 23.6825 44.8593 24.3366 48.5276C24.6249 50.1596 24.791 51.8115 24.8629 53.4663C20.9821 53.2989 17.1387 52.234 13.7189 50.3518C10.7302 48.7265 8.06622 46.4865 5.91264 43.822C2.66547 39.8235 0.625724 34.8286 0.117188 29.6634ZM2.6888 35.8839C4.52792 40.9987 8.08861 45.4321 12.5833 48.3639C15.8445 50.4955 19.603 51.8448 23.4613 52.2226C23.2757 49.6943 22.7914 47.1459 21.6773 44.8621C20.83 43.1074 19.5619 41.5925 18.0895 40.3516C16.7888 39.2706 15.4535 38.2106 13.9596 37.4179C12.2642 36.4967 10.3896 35.9201 8.47771 35.7269C6.55087 35.4843 4.60724 35.6556 2.6888 35.8839Z" fill="#010269"/>
<path d="M17.7336 3.03935C19.9469 2.24383 22.274 1.76804 24.6189 1.64814C26.1753 1.60627 27.7401 1.59771 29.2843 1.83084C33.4282 2.3723 37.4218 4.029 40.7782 6.56212C43.5224 8.63276 45.8514 11.2772 47.5581 14.2928C49.1574 17.1104 50.2183 20.244 50.655 23.4698C46.7136 23.5707 42.7302 24.2511 39.1322 25.9516C35.8738 27.4598 33.0018 29.8264 30.8958 32.7792C27.9864 36.8034 26.4636 41.6927 25.7395 46.5924C25.4736 43.0668 24.5946 39.5678 22.9803 36.4285C21.2532 33.0418 18.7133 30.0891 15.6341 27.9176C12.6435 25.7984 9.15655 24.4738 5.58093 23.8362C4.18129 23.5755 2.76299 23.428 1.34375 23.3404C1.97172 19.0174 3.68862 14.8599 6.33487 11.418C9.24053 7.58792 13.2482 4.63421 17.7336 3.03935ZM13.1073 8.69747C13.1138 9.68616 13.1147 10.6758 13.1054 11.6645C13.5272 11.675 13.948 11.6911 14.3679 11.7368C14.3166 12.8683 14.3772 14.0016 14.3632 15.134C14.3464 16.8973 14.3977 18.6624 14.3343 20.4248C13.9265 20.4172 13.5178 20.4181 13.1101 20.4191C13.111 21.4677 13.1129 22.5164 13.1101 23.5641C13.5887 23.565 14.0665 23.5679 14.5424 23.6154C15.4745 23.6154 16.4058 23.6145 17.337 23.6145C18.0032 23.6373 18.6657 23.545 19.3319 23.5622C19.3338 22.5154 19.3329 21.4687 19.3347 20.421C18.9121 20.4181 18.4894 20.421 18.0667 20.4115C18.0667 20.2706 18.0667 20.1298 18.0676 19.9899C18.0527 19.2382 18.1562 18.4855 18.062 17.7356C18.5052 17.7194 18.9503 17.7404 19.3935 17.7033C20.3677 17.6566 21.3418 17.728 22.3169 17.7423C22.315 18.0782 22.3094 18.4141 22.2768 18.7481C22.2339 19.3029 22.3216 19.8548 22.3206 20.4096C21.897 20.4238 21.4734 20.4181 21.0498 20.4181C21.0479 21.4639 21.046 22.5107 21.0507 23.5564C23.1231 23.5622 25.1955 23.5698 27.2688 23.565C27.266 22.5173 27.2688 21.4687 27.2679 20.42C26.848 20.4172 26.4281 20.4191 26.0092 20.4162C26.0222 17.5025 25.9728 14.5878 26.0428 11.675C26.4533 11.6797 26.8639 11.6759 27.2744 11.6759C27.2614 10.6806 27.267 9.68616 27.2726 8.69176C27.1326 8.68986 26.9936 8.68986 26.8546 8.6889C24.9856 8.68986 23.1175 8.68605 21.2485 8.69176C21.1991 8.69556 21.1002 8.70413 21.0516 8.70794C21.046 9.69758 21.047 10.6872 21.0498 11.6778C21.4566 11.6854 21.8672 11.6493 22.2693 11.7292C22.2665 12.677 22.2824 13.6238 22.2591 14.5716C20.8594 14.5697 19.4607 14.584 18.062 14.5326C18.1012 13.6533 18.1338 12.7712 18.0723 11.8919C18.0881 11.8377 18.118 11.7292 18.1329 11.675C18.5351 11.6826 18.9372 11.6807 19.3394 11.6702C19.3301 10.6796 19.3301 9.68902 19.3366 8.69842C17.2605 8.68224 15.1834 8.68415 13.1073 8.69747ZM28.5761 8.71174C28.5602 9.70329 28.578 10.6958 28.5686 11.6883C28.9792 11.7397 29.3944 11.7264 29.8078 11.7311C29.8171 14.6315 29.8143 17.5329 29.8097 20.4333C29.3982 20.4362 28.9876 20.4343 28.577 20.4333C28.5658 21.4963 28.5677 22.5601 28.5752 23.6231C28.9997 23.6202 29.4234 23.6231 29.8479 23.6212C31.5004 23.5564 33.1557 23.6259 34.8092 23.5793C34.7448 23.1787 34.7653 22.7733 34.7849 22.3708C34.7317 21.7256 34.8848 21.0795 34.7569 20.4372C34.3492 20.4352 33.9423 20.4381 33.5355 20.4305C33.5402 19.536 33.542 18.6425 33.5364 17.7489C34.2344 17.7299 34.9333 17.7309 35.6322 17.7166C36.3488 17.6309 37.0794 17.7251 37.7848 17.5358C38.3102 17.3378 38.8168 17.0885 39.2843 16.7717C39.8302 16.3311 40.2967 15.7953 40.655 15.1863L40.6858 15.1616C40.9228 14.6334 41.1729 14.0968 41.2326 13.5115C41.3017 12.7741 41.2093 12.0166 40.9667 11.3181C40.6578 10.4151 39.9291 9.73279 39.1126 9.30077C38.9801 9.24463 38.8485 9.18849 38.7188 9.12949C38.0946 8.87351 37.4358 8.64799 36.7528 8.71079C34.0272 8.71079 31.3017 8.70889 28.5761 8.71174Z" fill="#FDFDFD"/>
<path d="M33.5331 11.726C34.4783 11.7165 35.4245 11.725 36.3707 11.7193C36.5573 11.7146 36.7439 11.7403 36.9268 11.7783C37.1722 11.9534 37.3999 12.1523 37.6191 12.3616C37.76 12.8032 37.7563 13.2704 37.7171 13.7281C37.5576 14.0593 37.3084 14.3276 37.035 14.5636C36.8577 14.655 36.6748 14.753 36.4696 14.7301C35.4898 14.7197 34.511 14.7406 33.5312 14.7159C33.5415 13.7195 33.5387 12.7223 33.5331 11.726Z" fill="#FDFDFD"/>
<path d="M2.6875 35.8766C4.60594 35.6482 6.54958 35.4769 8.47642 35.7196C10.3883 35.9127 12.2629 36.4894 13.9583 37.4105C15.4522 38.2032 16.7875 39.2632 18.0882 40.3442C19.5606 41.5851 20.8287 43.1 21.676 44.8548C22.7901 47.1386 23.2744 49.6869 23.46 52.2153C19.6017 51.8375 15.8432 50.4881 12.582 48.3566C8.08732 45.4248 4.52663 40.9913 2.6875 35.8766Z" fill="#FDFDFD"/>
<path d="M36.951 37.7713C40.6899 35.6711 45.1398 35.2905 49.3061 35.91C47.2122 41.6214 43.018 46.4944 37.7413 49.3587C34.6715 51.0478 31.2442 52.046 27.7656 52.2943C28.5224 48.5489 29.8754 44.8463 32.2342 41.8326C33.5294 40.1845 35.1315 38.7847 36.951 37.7713Z" fill="#FDFDFD"/>
</svg>
