<svg width="389" height="305" viewBox="0 0 389 305" fill="none" xmlns="http://www.w3.org/2000/svg">
<g clip-path="url(#clip0_16_6028)">
<path d="M159.57 69.1252C159.57 69.1252 164.571 69.5574 165.148 70.758C165.725 71.9586 165.725 78.778 165.581 79.2102C165.437 79.6424 159.378 79.8826 157.262 80.2187C155.146 80.5549 151.443 80.9871 148.318 84.829C145.192 88.6709 142.692 74.2638 142.692 74.2638C142.692 74.2638 139.662 55.7746 144.952 46.0738C150.241 36.3729 154.761 28.8812 162.215 25.4235C169.668 21.9658 179.911 18.9883 193.808 28.7852C193.808 28.7852 204.339 36.2289 202.848 52.8931C202.848 52.8931 200.395 72.1987 209.965 79.5464C209.965 79.5464 226.795 96.6909 225.256 111.242L224.631 112.059C224.631 112.059 216.601 92.1286 213.812 89.5353C213.812 89.5353 207.897 79.9786 187.845 76.857C187.845 76.857 183.18 75.0321 186.835 60.673C186.835 60.673 191.74 58.704 188.47 52.7011C188.47 52.7011 186.835 49.7236 183.181 52.9412C183.181 52.9412 178.131 51.1163 176.4 46.9382C176.4 46.9382 174.91 45.3054 171.64 42.616C171.64 42.616 168.081 38.0538 167.504 37.5255C166.927 36.9972 162.984 35.5565 161.061 37.7656C159.137 39.9747 159.907 44.2969 160.051 44.8251C160.195 45.3534 156.012 50.8761 154.906 51.1163L152.646 53.3734C152.646 53.3734 153.703 55.7265 156.156 55.5344C156.156 55.5344 158.224 56.687 157.839 57.7436C157.839 57.7436 156.877 59.5685 157.743 61.1052C158.608 62.642 158.704 64.0827 158.32 64.8511C157.935 65.6195 158.801 68.741 159.522 69.1732L159.57 69.1252Z" fill="#3F3F45"/>
<path d="M55.8035 107.109L77.5386 166.371L170.634 172.998L169.192 169.492C169.192 169.492 84.2227 163.969 81.8183 162.913C64.6514 155.517 128.078 159.503 125.192 158.207C123.029 157.198 119.855 155.805 118.028 151.531C111.728 136.98 107.641 121.564 100.764 107.253C100.043 106.821 99.1776 106.341 98.1678 105.957C96.3886 105.332 93.6957 104.708 89.993 104.756L55.515 100.914C55.515 100.914 52.1009 101.827 55.7554 107.061L55.8035 107.109Z" fill="#3F3F45"/>
<path d="M344.216 32.3772L342.677 40.7813C342.677 40.7813 341.716 42.03 339.455 37.2276C337.195 32.4252 337.628 37.0835 335.272 33.8179L325.029 19.5068C325.029 19.5068 316.134 14.1281 321.471 10.6224C321.471 10.6224 332.531 1.01759 351.862 5.53184C351.862 5.53184 352.391 6.54034 358.594 2.69843C358.594 2.69843 367.827 2.26622 369.221 11.5828C369.221 11.5828 371.048 23.4447 369.413 27.3347C369.413 27.3347 364.749 28.6793 363.931 28.9675C363.931 28.9675 366.913 28.5353 365.807 34.058C365.807 34.058 364.797 42.9424 360.662 44.5752C360.662 44.5752 358.834 45.4877 357.151 43.7588C357.151 43.7588 355.324 51.1545 346.957 48.225C346.957 48.225 344.024 42.9424 349.073 39.7248C349.073 39.7248 352.343 34.8744 349.794 31.4647C349.794 31.4647 345.899 27.8629 344.216 32.3772Z" fill="#3F3F45"/>
<path opacity="0.9" d="M114.037 143.902C114.037 143.902 113.893 144.095 113.845 144.239C113.701 144.671 113.845 145.103 113.989 145.535C116.393 152.259 120.962 159.318 128.944 155.524C134.282 152.979 136.734 149.041 139.571 144.095C139.716 143.806 139.908 143.518 140.148 143.374C141.158 142.654 143.466 144.383 143.514 145.055L141.735 151.49C141.831 153.507 143.947 154.804 145.774 153.939C151.064 151.49 161.066 148.561 170.01 155.38C170.683 155.86 171.501 156.101 172.318 155.956C176.261 155.188 188.427 152.691 194.101 150.002C194.101 150.002 198.718 150.242 204.055 147.408C205.594 146.592 206.075 144.527 204.969 143.134C201.555 138.812 199.295 134.202 196.41 131.08C193.524 127.959 191.649 122.868 190.399 115.76C189.437 110.142 189.87 108.317 190.976 107.596C191.697 107.116 192.659 107.308 193.38 107.644C195.207 108.605 196.698 114.896 197.419 121.475C197.612 123.204 197.804 124.933 198.044 126.662C198.285 128.391 198.574 130.12 199.487 131.704C200.208 132.905 201.17 133.914 201.892 135.162C202.613 136.411 203.142 137.515 203.719 138.716C204.921 141.213 206.027 143.47 207.758 143.758C208.095 143.806 208.479 143.758 208.912 143.566C209.585 143.278 212.038 142.606 213.432 143.374C214.057 143.71 214.682 144.143 215.308 144.959C217.087 147.36 229.349 144.623 227.618 137.611C225.887 130.6 213.288 90.4519 208.239 87.6665C203.045 81.3754 194.246 77.6295 186.504 76.0448C185.35 75.8046 184.34 75.4685 183.282 76.0448C182.224 76.621 181.455 77.7256 180.637 78.59C176.261 83.3924 169.048 84.8331 163.037 82.576C156.305 80.0307 150.439 82.8642 144.188 85.4094C142.312 86.1778 140.437 87.2343 139.379 88.9632C138.225 90.7881 138.129 93.0452 137.504 95.1102C136.83 97.3193 135.484 99.4324 134.426 101.497C130.146 110.094 128.367 119.554 125.819 128.775C124.184 134.73 122.068 141.117 115.528 143.182C115.047 143.326 114.518 143.518 114.182 143.854L114.037 143.902Z" fill="#F25D7D"/>
<path d="M243.869 181.019C243.196 181.595 242.908 182.508 242.619 183.372C233.098 215.5 233.771 250.653 233.964 283.79C233.964 283.934 233.964 284.126 233.964 284.27C233.964 287.248 233.963 290.177 234.06 293.155C234.156 295.7 233.771 299.686 234.781 301.991C235.55 303.672 235.358 303.336 237.378 302.903C238.724 302.567 240.119 302.231 241.513 302.087C244.206 301.751 246.995 301.751 249.544 302.855C253.631 285.999 258.824 269.287 262.19 252.286C262.19 249.309 263.873 245.419 264.595 242.489C265.941 243.018 266.903 244.314 267.576 245.611C272.337 254.735 275.126 264.052 278.155 273.801C281.329 284.078 284.695 294.259 288.253 304.44C290.61 303.576 293.014 302.663 295.37 301.799C297.005 301.174 299.65 300.838 300.708 299.35C301.14 298.725 301.285 297.957 301.429 297.237C303.208 286.527 301.621 275.338 300.756 264.58C299.986 254.543 298.832 244.506 297.342 234.565C295.947 225.201 294.697 215.788 292.196 206.616C291.042 202.678 289.119 199.028 287.003 195.522C285.368 192.833 282.868 188.751 279.405 188.318C273.395 187.55 277.77 204.166 293.399 204.31C303.93 204.743 314.509 205.079 325.039 205.271C332.204 205.415 339.417 205.511 346.582 205.415C353.747 205.319 362.162 206.327 367.259 200.324C370 197.107 371.443 192.977 372.357 188.847C373.799 182.412 374.184 175.64 373.174 169.109C373.078 168.581 372.982 168.052 372.645 167.62C371.876 166.66 369.76 167.284 368.75 167.524C366.346 168.052 364.374 169.445 362.307 170.886C356.873 174.776 351.247 179.338 344.034 177.849C343.216 177.705 342.303 177.273 342.158 176.457C341.966 175.496 343.024 174.776 343.889 174.343C347.304 172.711 350.91 171.27 354.517 170.165C358.123 169.061 362.21 168.725 365.913 167.428C367.163 166.996 368.414 166.42 369.231 165.411C370.289 164.114 370.433 162.482 370.289 160.897C370.193 159.504 369.808 158.159 369.712 156.719C369.712 157.343 359.998 160.08 358.748 160.513C354.805 161.809 350.814 163.01 346.823 164.114C338.696 166.324 331.05 168.581 322.683 169.829C320.712 170.117 320.135 170.838 318.211 171.318C316.095 171.894 308.017 167.86 305.757 167.476C302.054 166.804 301.718 171.222 295.178 170.358C292.87 170.069 293.591 168.821 292.293 168.581C289.744 168.052 284.358 171.558 282.242 170.069C281.088 169.301 280.175 174.824 277.674 173.719C278.155 173.911 274.885 172.711 274.645 172.855C273.491 173.575 272.385 172.855 271.038 172.711C267.624 172.375 266.278 172.711 262.767 173.479C261.613 173.719 261.613 176.601 260.988 177.609C260.603 178.233 258.776 178.137 258.151 178.57C254.881 180.779 249.399 179.578 245.985 180.106C245.264 180.202 244.543 180.346 243.966 180.779C243.869 180.827 243.821 180.875 243.773 180.971L243.869 181.019Z" fill="#3F3F45"/>
<path d="M92.7794 167.672C92.7794 167.672 85.8068 170.217 82.2003 173.387C78.5938 176.556 25.2658 263.527 25.5063 274.237C25.5063 274.237 31.7094 274.573 35.4601 278.799C35.4601 278.799 34.7869 286.051 36.0372 289.172C36.0372 289.172 37.1912 293.686 27.0931 291.525C27.0931 291.525 21.4189 289.989 15.2638 290.085C15.2638 290.085 -0.797086 291.669 1.22255 283.553C1.22255 283.553 7.71423 279.567 11.5131 284.802C11.5131 284.802 16.3698 288.596 32.5269 286.435C32.5269 286.435 36.1815 283.697 31.8056 279.76C31.8056 279.76 25.6986 277.214 21.6112 277.502C21.6112 277.502 13.2922 279.519 10.936 283.073" stroke="#828286" stroke-width="1.26396" stroke-miterlimit="10"/>
<path d="M222.422 112.392C224.202 96.4962 208.958 81.0326 208.958 81.0326C199.437 73.0606 199.1 60.8145 200.11 52.8426C202.226 36.5625 189.579 21.9152 173.134 21.8672C171.932 21.8672 171.21 21.9152 171.21 21.9152C168.421 22.1073 165.68 22.6836 163.035 23.6921C150.677 28.3984 142.406 41.557 139.714 53.9951C138.079 61.3428 138.608 68.6904 140.339 75.942C141.108 79.0636 142.07 82.0891 143.224 85.0666C143.512 85.835 144.618 86.0271 145.099 85.3547C151.399 76.8545 161.785 81.6089 162.699 79.4958C163.372 77.959 163.132 74.0691 162.939 71.86C162.843 70.9476 162.122 70.2272 161.16 70.1792C156.688 69.843 156.255 68.9306 155.534 67.1057C154.668 65.0887 156.592 63.5519 155.534 62.0631C154.476 60.5744 154.669 58.7015 154.669 58.7015C156.159 56.1562 153.418 55.4359 153.418 55.4359C150.773 55.9641 150.148 53.4189 150.148 53.4189L155.726 47.4639C156.88 46.2633 157.506 44.5344 157.121 42.9016C156.88 41.7491 157.458 39.7801 157.698 38.9156C158.083 37.3789 159.237 36.9467 160.727 36.6585C162.41 36.3224 164.238 36.8026 165.488 38.0032C166.498 38.9637 167.123 40.2603 167.988 41.4129C168.902 42.6615 170.104 43.718 171.402 44.6305C172.124 45.1588 172.893 45.639 173.47 46.3113C173.903 46.7916 174.192 47.4159 174.576 47.9441C176.019 50.2013 178.231 51.9781 180.779 52.8906C181.308 51.4019 183.328 50.8256 184.771 51.4979C186.213 52.1702 187.031 53.755 187.223 55.3398C187.511 57.8371 185.877 60.7665 183.328 60.9106C182.847 65.1847 182.366 69.5068 183.232 73.7329C183.472 75.0296 184.001 76.4703 185.155 77.0946C185.732 77.3828 186.358 77.4788 186.983 77.5748C191.599 78.1992 196.119 79.4958 200.399 81.3687C203.62 82.8095 208.237 86.1231 210.353 88.9085C214.248 93.951 216.844 100.098 219.153 105.909C220.788 110.087 222.278 114.313 223.48 118.635C228 130.305 232.472 143.992 230.693 156.67C230.116 160.704 228.289 164.738 224.875 166.899C221.942 168.772 218.287 168.964 214.777 169.06C201.36 169.396 187.896 168.772 174.528 167.908C174.624 166.227 174.528 164.546 174.143 162.913C174.047 162.481 173.807 161.905 173.374 161.905C173.086 161.905 172.845 162.097 172.653 162.289C170.056 164.978 169.046 169.156 170.2 172.71C162.747 172.134 155.293 171.558 147.84 171.029L117.305 168.772L89.415 166.707L80.5191 166.035C78.4994 165.891 76.7683 164.594 76.095 162.673L54.36 103.412C53.831 101.971 54.9851 100.482 56.5238 100.674L97.9744 105.525C99.417 105.717 100.619 106.629 101.148 107.974L106.39 121.373C110.044 130.785 113.603 140.246 117.401 149.563C118.171 151.388 118.94 153.26 120.142 154.845C121.297 156.334 122.931 157.439 124.759 157.871C131.635 159.504 137.261 153.068 140.146 147.69C140.723 146.585 141.252 145.385 142.166 144.568C142.406 144.376 142.695 144.184 142.983 144.232C143.272 144.28 143.464 144.568 143.512 144.856C143.705 145.769 143.609 146.921 143.657 147.882C143.753 148.986 143.801 150.091 143.897 151.243C144.041 153.212 144.137 155.181 144.234 157.15C144.234 157.342 144.522 157.439 144.618 157.246C146.349 153.981 152.553 152.396 152.553 152.396C168.181 145.865 172.316 155.614 174.192 155.325C178.183 154.653 182.126 153.212 186.021 152.108C188.425 151.436 190.781 150.523 193.186 149.947C195.59 149.371 198.571 149.611 200.447 147.69C201.36 146.729 201.841 145.385 201.745 144.04C201.649 142.887 201.168 141.783 200.88 140.678C200.591 139.622 200.447 138.469 200.351 137.365C199.581 130.689 198.956 124.062 197.994 117.435C197.61 114.697 196.792 111.912 194.869 109.895C194.676 109.703 194.484 109.511 194.244 109.559C193.859 109.559 193.715 110.087 193.715 110.471C192.993 118.539 196.456 126.415 200.591 133.427C203.621 138.565 207.035 143.416 210.449 148.314C210.978 149.034 211.507 149.803 212.324 150.187C213.19 150.571 214.152 150.475 215.065 150.331C215.642 150.235 216.267 150.139 216.556 149.659C216.7 149.467 216.748 149.178 216.748 148.938C216.892 144.808 211.314 145.288 209.102 146.825C207.996 147.642 206.987 148.602 205.785 149.274C202.37 151.291 197.658 151.195 193.859 152.204C189.195 153.405 184.626 154.989 180.106 156.622C178.664 157.15 177.173 157.727 175.634 157.727C174.817 157.727 174.047 157.583 173.278 157.342C171.451 156.766 170.104 155.566 168.517 154.557C167.171 153.741 165.488 153.164 163.949 152.78C161.208 152.06 158.323 152.012 155.582 152.78C153.659 153.308 151.88 154.269 150.341 155.47C150.004 155.758 148.61 156.958 148.561 157.102C147.984 158.399 147.648 160.176 149.571 160.128C150.293 160.128 151.062 159.888 151.735 159.648C152.649 159.359 153.562 158.687 154.476 158.543C154.717 158.543 154.909 158.543 155.149 158.543C157.506 158.639 160.102 158.687 162.41 159.456C163.035 159.648 164.189 160.128 163.901 161.04C163.853 161.232 163.709 161.376 163.613 161.521C163.42 161.761 163.228 161.953 162.987 162.145C162.987 162.145 162.891 162.193 162.843 162.241C162.795 162.241 162.699 162.241 162.651 162.241C161.497 161.761 160.198 161.569 158.948 161.376C156.688 161.04 154.428 160.848 152.168 160.704C149.187 160.464 146.157 160.32 143.176 160.176C139.714 160.032 136.251 159.888 132.789 159.792C129.134 159.696 125.48 159.6 121.825 159.552C118.171 159.504 114.612 159.456 111.054 159.407C107.784 159.407 104.514 159.359 101.292 159.359C98.6477 159.359 95.9548 159.359 93.3101 159.359C91.5309 159.359 89.7036 159.359 87.9244 159.359C87.2512 159.359 86.626 159.359 85.9528 159.359C85.0872 159.263 84.2217 159.167 83.3561 159.119C82.4906 159.071 79.0764 158.591 78.7879 159.936C78.2589 162.433 83.4042 163.249 84.8468 163.345L114.997 165.507L141.252 167.379C149.956 168.004 158.852 168.148 167.46 169.3L170.345 169.444C201.986 168.244 204.919 186.685 204.919 186.685C206.265 194.465 207.179 203.253 204.39 210.793C201.601 218.333 195.253 220.878 187.656 221.598C162.314 223.856 137.069 216.892 113.314 207.768C111.439 207.047 109.515 206.279 108.025 204.934C106.438 203.493 105.428 201.524 104.562 199.603C102.11 194.321 100.138 188.798 98.5996 183.179C98.2149 181.691 97.8783 180.01 98.7438 178.761C101.244 179.097 102.591 181.739 103.456 184.092C110.621 203.205 114.276 223.711 117.882 243.785C119.902 255.119 121.585 266.501 123.22 277.93C123.508 280.043 123.749 282.445 122.402 284.077C121.489 285.182 120.094 285.662 118.748 285.998C115.67 286.671 112.449 286.383 109.323 286.767C109.083 286.767 108.794 286.863 108.65 287.055C108.313 287.487 108.794 288.015 109.227 288.352C113.122 291.377 114.324 296.66 114.997 301.51C115.334 303.863 114.564 305.112 113.651 307.129C112.737 309.146 112.304 311.451 112.064 313.612C112.064 313.852 112.016 316.446 112.064 318.414C112.064 319.711 111.294 320.912 110.092 321.44C103.985 324.225 107.063 329.988 107.063 329.988C112.929 332.053 119.806 322.16 119.806 322.16C121.825 315.101 133.895 309.866 134.376 307.897C134.857 305.928 130.337 301.894 130.337 301.894C128.125 302.999 125.672 304.584 124.711 306.937C124.278 307.993 124.037 309.098 123.557 310.106C123.124 310.971 122.547 311.787 121.922 312.508C119.998 314.861 117.786 316.974 115.478 318.895C113.506 316.542 113.651 312.075 116.247 310.202C128.99 301.174 126.874 300.838 126.874 300.838C121.345 298.725 122.547 289.984 123.027 287.295C123.076 287.007 122.739 286.767 122.499 286.959C103.072 299.493 96.3046 351.173 90.0534 341.424C84.4846 333.536 32.5093 306.144 -25.9629 322.16C-84.4351 338.176 -89.5398 352.86 -110.887 341.424C-132.234 329.988 -98.8211 312.892 -86.2913 321.44C-73.7616 329.988 -125.739 389.218 -231.546 388.754C-316.192 388.383 -341.066 440.878 -342.922 467.172" stroke="#828286" stroke-width="1.26396" stroke-miterlimit="10"/>
<path d="M31.7578 275.966C31.7578 275.966 39.2593 276.734 42.0003 274.621C42.0003 274.621 67.7266 255.892 70.2271 250.273C70.2271 250.273 97.0594 218.865 97.2517 207.916C97.4441 196.966 82.4891 224.004 89.9906 232.36C89.9906 232.36 102.541 280 106.821 285.234C106.821 285.234 108.216 287.107 108.408 287.491" stroke="#828286" stroke-width="1.26396" stroke-miterlimit="10"/>
<path d="M94.5163 249.117L92.1602 330.614C92.1602 330.614 92.6891 333.399 94.5163 333.255C96.3436 333.111 96.2475 322.402 96.2475 322.402L99.1326 264.821" stroke="#828286" stroke-width="1.26396" stroke-miterlimit="10"/>
<path d="M185.109 77.1953C185.109 77.1953 176.645 88.9612 164.816 83.9187C164.816 83.9187 160.344 81.7576 156.978 83.2943C156.978 83.2943 144.764 87.2803 142.456 88.721C141.254 89.4894 140.628 91.5064 140.292 93.2833C139.763 96.5009 138.609 99.5744 136.685 102.264C136.541 102.456 136.397 102.696 136.253 102.888C133.944 106.058 126.587 134.392 126.587 134.392C126.587 134.392 124.327 144.237 115.527 144.429" stroke="#828286" stroke-width="1.26396" stroke-miterlimit="10"/>
<path d="M115.43 231.353L155.679 233.418C161.353 233.658 161.209 237.692 161.209 237.692L163.565 328.697C164.334 334.556 168.47 333.26 168.47 329.322C168.47 325.384 167.22 242.11 167.22 238.317C167.22 236.636 168.037 233.994 169.961 233.61C170.249 233.562 170.586 233.61 170.874 233.61C181.597 234.234 192.321 234.859 203.044 235.387C203.188 235.387 203.381 235.387 203.525 235.483C203.717 235.627 203.765 235.915 203.765 236.203C204.15 249.458 204.487 262.761 204.871 276.015L205.352 292.199L205.785 307.615C205.881 311.025 204.679 333.212 207.805 333.74C209.872 334.124 211.555 332.443 211.555 330.474L210.642 237.596C210.642 236.972 211.171 236.348 211.796 236.444C220.692 237.74 219.971 214.545 219.105 203.163C218.768 198.889 218.672 194.567 218.624 190.245C218.432 167.673 212.277 168.778 213.287 174.109C214.393 179.968 219.778 228.52 209.632 230.873C199.486 233.226 116.104 226.695 116.104 226.695L113.074 207.821" stroke="#828286" stroke-width="1.26396" stroke-miterlimit="10"/>
<path d="M335.711 55.1965C335.711 55.1965 325.132 59.7588 323.304 53.2275C323.304 53.2275 323.112 50.7783 321.958 49.7218C320.804 48.6653 321.381 45.0635 321.573 44.5352C321.765 44.007 317.149 44.6793 316.572 41.7979C315.995 38.9164 322.391 36.5633 320.708 29.4077C320.708 29.4077 319.842 24.029 326.093 18.2182C333.787 11.0626 345.28 8.90154 355.089 12.7434C355.907 13.0796 356.772 13.4638 357.638 13.896C357.638 13.896 361.1 13.3678 360.283 9.81399C359.465 6.26022 365.765 11.3027 364.707 14.7604C363.649 18.2182 367.88 22.0121 362.831 26.8625C357.782 31.7129 366.197 32.5293 360.427 37.2836C354.657 42.038 365.909 48.9534 368.025 34.1141C368.313 32.1931 368.554 30.08 367.977 28.1591C367.688 27.1986 366.678 25.6138 365.428 26.5263C365.332 26.5743 365.236 26.6704 365.236 26.8144C365.139 27.1506 365.62 27.3427 366.005 27.3427C367.111 27.3427 368.169 27.1026 369.227 26.7664C369.804 26.5743 371.535 26.2862 371.824 25.6619C371.824 25.5658 371.872 25.4698 371.872 25.3737C372.497 19.7549 372.641 13.9921 371.295 8.46932C370.189 3.90706 366.101 0.353287 361.437 0.977597C360.187 1.16969 358.888 1.64993 357.686 2.56238C352.926 6.35627 354.849 0.881551 340.327 2.65843C325.805 4.43532 318.447 10.9666 325.035 15.7209C331.623 20.4753 336.913 33.6819 339.654 33.4898C340.808 33.3937 341.721 35.3627 342.202 36.1311C342.827 37.1876 343.452 39.0125 344.558 39.6848C345.424 40.2131 345.616 39.0125 345.712 38.3882C345.905 37.3797 345.953 36.3231 345.953 35.3146C346.001 33.8259 345.809 32.4812 346.386 31.0405C346.674 30.3682 347.059 29.6959 347.636 29.1676C348.165 28.6393 348.886 28.2551 349.656 28.3032C350.425 28.3032 351.098 28.7354 351.675 29.2156C352.012 29.5038 352.3 29.7919 352.541 30.1281C352.781 30.5603 352.877 31.0405 352.925 31.5208C353.118 32.9135 353.214 34.3542 352.829 35.6988C352.397 37.3317 351.339 38.6283 349.752 39.2526C349.752 39.2526 347.444 39.6848 350.088 55.8689C350.088 55.8689 348.934 68.5952 355.33 67.9709C363.745 67.1545 373.218 68.211 377.738 76.231C382.787 85.2114 382.355 97.0253 382.018 107.014C382.114 112.969 382.162 118.876 382.21 124.831C382.21 129.249 382.306 133.716 382.162 138.134C382.018 142.552 383.412 148.075 380.575 151.965C379.325 153.693 377.45 154.798 375.526 155.758C359.177 164.115 339.702 166.948 321.813 170.118C321.813 170.118 317.967 173.96 309.119 168.773C306.185 167.044 303.781 167.044 301.232 169.205C298.684 171.366 296.28 171.798 293.154 169.685C292.913 169.541 296.087 165.699 296.472 165.315C297.866 163.874 299.405 162.53 301.136 161.521C305.705 158.736 311.138 158.208 316.236 159.744C331.575 164.259 315.274 163.682 343.549 150.764C343.549 150.764 366.39 137.653 371.343 137.509C374.132 137.413 373.314 140.247 371.583 141.207C368.554 142.888 364.899 140.823 362.495 138.95C362.11 138.662 361.725 138.326 361.533 137.846C361.196 136.933 361.437 135.54 361.389 134.532C361.389 133.139 361.293 131.747 361.196 130.402C361.052 127.665 360.812 124.879 360.667 122.142C360.523 119.981 360.379 117.772 360.187 115.611C360.09 114.554 360.138 113.209 359.706 112.201C359.513 111.721 359.417 113.69 359.417 113.882C359.321 115.947 359.273 118.012 358.984 120.077C358.648 122.622 358.167 125.167 357.205 127.568C356.099 130.306 354.128 132.371 352.685 134.916C347.636 144.185 338.548 151.628 327.872 153.021C327.343 153.069 326.815 153.165 326.286 153.309C325.757 153.501 325.276 153.789 324.795 154.03C320.66 156.239 316.235 155.662 311.763 155.855C305.945 156.095 300.415 158.592 295.895 162.194C295.222 162.722 294.597 163.298 293.971 163.826C293.971 163.826 289.211 171.942 283.152 170.454C283.152 170.454 281.036 169.733 280.94 170.55C280.844 171.366 282.046 175.352 274.208 173.287C271.419 172.567 268.197 171.846 265.36 172.759C264.35 173.095 263.485 173.623 262.763 174.44C261.946 175.352 261.802 177.033 260.936 177.801C260.792 177.945 260.599 178.042 260.407 178.138C259.205 178.714 258.003 179.29 256.656 179.434C256.223 179.482 255.743 179.482 255.358 179.29C254.012 178.666 254.925 176.553 255.31 175.592C255.31 175.592 263.581 164.403 265.985 164.883C265.985 164.883 277.334 163.682 280.603 164.787C283.873 165.891 299.165 149.467 299.934 145.625C300.367 143.416 300.415 141.063 300.655 138.806C301.088 134.1 301.569 129.393 302.05 124.735C303.348 112.921 304.839 101.107 307.388 89.4856C308.686 83.6266 310.08 77.2395 313.446 72.197C313.975 71.3806 314.601 70.6122 315.37 70.0839C315.658 69.8918 315.995 69.6997 316.332 69.6517C316.764 69.6037 317.197 69.6997 317.582 69.8438C321.958 71.0444 326.67 71.8128 330.998 70.3721C331.815 70.1319 332.585 69.7958 333.45 69.8918C334.364 70.0359 335.133 70.6602 335.807 71.3806C337.394 73.1094 338.74 75.2225 340.952 76.0869C342.395 76.6632 344.03 76.5191 345.472 76.0869C346.915 75.6547 348.309 74.8863 349.656 74.1659C349.944 74.0219 350.233 73.8298 350.425 73.5416C351.002 72.6772 350.185 71.5727 349.223 71.0924C347.444 70.18 345.328 70.324 343.308 70.0839C340.808 69.7958 338.403 68.7873 336.336 67.2985C334.653 66.0499 333.066 64.4171 330.998 64.4171C330.854 62.112 330.71 59.8068 330.565 57.5017" stroke="#828286" stroke-width="1.26396" stroke-miterlimit="10"/>
<path d="M374.57 156.195C374.57 156.195 375.917 162.823 375.099 164.407C374.282 165.992 358.365 179.727 349.373 177.758C343.458 176.461 352.162 172.716 353.893 172.043C360.866 169.402 368.271 168.057 375.628 167.289C377.984 167.049 377.792 167.433 378.033 169.786C378.225 171.707 378.369 173.58 378.417 175.501C378.754 186.787 376.782 203.835 362.501 205.228C361.154 205.372 359.76 205.324 358.413 205.228C358.413 205.228 303.787 205.18 295.324 204.123C286.861 203.067 277.724 191.829 282.485 188.563C287.486 185.154 296.237 203.595 297.295 206.764C298.93 211.567 299.219 217.042 299.988 222.036C300.565 225.782 301.094 229.528 301.623 233.274C302.873 242.014 304.027 250.802 304.989 259.639C305.855 267.707 306.624 275.823 306.913 283.939C307.105 289.029 307.538 294.84 305.951 299.739C305.951 299.739 295.372 304.301 293.016 304.493C290.659 304.685 272.29 237.5 269.309 229.096C266.472 220.259 264.404 210.991 263.202 201.77C262.385 195.527 262.144 189.236 262.913 182.945C262.913 182.752 262.913 182.512 262.817 182.368C262.721 182.224 262.577 182.176 262.433 182.128C257.864 180.591 253.152 179.583 248.295 180.255C248.151 180.255 247.959 180.303 247.862 180.399C247.766 180.495 247.718 180.639 247.67 180.736C247.093 182.56 246.804 184.433 246.324 186.258C245.795 188.323 245.266 190.436 244.833 192.501C243.967 196.295 243.198 200.137 242.525 203.979C241.13 211.951 240.168 220.019 239.928 228.087C239.88 229.672 239.88 231.257 239.88 232.841C239.88 232.841 236.947 293.207 239.88 303.532C239.88 303.532 240.457 311.024 234.398 313.714C230.744 315.298 229.782 318.42 228.532 321.926C228.387 322.31 228.243 322.646 228.003 322.934C227.714 323.27 227.281 323.462 226.897 323.654C223.771 325.191 219.732 328.841 215.981 327.256C212.23 325.671 217.856 337.053 224.444 334.364C231.032 331.674 234.639 325.431 246.564 327.208C258.489 328.985 251.613 319.572 251.228 317.844C250.844 316.115 245.41 326.92 231.032 325.431C231.032 325.431 229.974 323.991 232.234 323.462C234.494 322.934 246.42 320.437 249.161 316.163C250.94 313.377 249.497 310.256 248.824 307.374C248.536 306.174 248.391 305.117 249.353 304.253C250.7 303.1 252.96 302.86 254.595 303.244C254.595 303.244 262.144 272.941 262.769 270.3C265.029 261.127 266.809 251.811 269.357 242.686C270.463 243.359 271.377 244.175 272.002 245.28C272.723 246.528 273.156 247.921 273.444 249.362C274.598 254.836 274.406 260.455 274.262 266.026C274.021 273.902 273.829 281.778 273.637 289.654L272.964 316.259L272.675 328.073C272.675 328.073 267.289 330.234 271.954 333.451C276.618 336.669 293.208 334.22 293.448 332.347C293.689 330.474 299.7 328.889 303.402 330.714C307.105 332.539 313.452 328.745 310.134 320.773C310.134 320.773 310.375 317.603 298.209 326.632C298.209 326.632 287.774 333.115 284.552 327.977C281.331 322.838 294.41 328.217 298.305 323.943C302.2 319.668 308.259 317.411 307.778 315.202C307.297 312.993 303.979 308.191 304.316 303.629C304.653 299.066 301.623 306.942 298.449 306.798C295.276 306.654 293.929 305.694 293.929 305.694C293.929 305.694 297.007 313.569 292.727 317.027C288.447 320.485 284.023 325.527 279.696 325.383C279.696 325.383 273.444 327.592 273.012 328.025C272.579 328.457 276.522 322.31 278.83 319.476C281.138 316.643 281.667 272.989 281.667 272.989" stroke="#828286" stroke-width="1.26396" stroke-miterlimit="10"/>
<path d="M299.652 219.297L338.699 222.707L341.007 327.255" stroke="#828286" stroke-width="1.26396" stroke-miterlimit="10"/>
<path d="M382.313 108.797C382.313 108.797 388.805 110.862 387.554 145.247L387.699 201.099C387.699 201.099 387.554 226.023 346.777 221.749C346.777 221.749 346.008 264.826 344.902 285.621C343.796 306.415 344.902 327.209 344.902 327.209C344.902 327.209 370.195 310.586 399.688 322.172C445.506 340.172 458.146 312.693 458.146 312.693" stroke="#828286" stroke-width="1.26396" stroke-miterlimit="10"/>
</g>
<defs>
<clipPath id="clip0_16_6028">
<rect width="389" height="305" fill="white"/>
</clipPath>
</defs>
</svg>
