<svg width="114" height="29" viewBox="0 0 114 29" fill="none" xmlns="http://www.w3.org/2000/svg">
<g clip-path="url(#clip0_1461_2735)">
<path d="M59.5282 7.0045V23.3419C58.9142 30.4278 45.7807 30.1344 44.6672 22.7427H50.0188C50.0188 22.7427 50.4676 24.0868 52.5895 24.1789H52.6583C53.0546 24.1742 55.039 24.061 55.0495 22.2969V20.5511C52.2209 23.0677 45.2679 21.1139 45.0377 14.6311C44.7894 7.69477 51.9783 5.4696 55.0495 8.54515V7.0045H59.5282ZM12.4584 15.6808V22.5069H11.2379V15.6808H12.4584ZM37.1727 6.46569C41.4356 6.46569 44.9947 10.1807 44.4495 15.6377L34.7757 15.6417C34.7757 16.8823 35.6648 18.1248 37.3732 18.1248C38.7197 18.1248 39.371 17.5812 39.6059 17.1085H44.1802C43.3379 20.0575 41.0116 22.1456 37.6559 22.2491C33.2774 22.3834 29.957 19.3394 29.9532 14.0905C29.9503 9.42251 33.5209 6.46569 37.1727 6.46569ZM107.737 1.58777V21.8166H103.104V20.5597C102.308 21.1771 101.508 21.5424 100.547 21.646C96.467 21.9652 93.7253 18.6049 93.7568 14.4997C93.7568 11.3628 95.7976 7.36401 100.587 7.48002C100.587 7.48002 102.149 7.60945 103.104 8.29972V1.58777H107.737ZM84.9941 7.01025V8.40422C89.9541 5.22129 92.9107 8.50777 92.9107 10.7339V21.8166H88.3995V13.0885C88.3995 10.8355 84.9941 10.9764 84.9941 13.0885V21.8166H80.4036V7.01025H84.9941ZM69.6833 6.75906V10.3274C69.6833 10.3274 65.4681 10.5661 65.4337 14.2639V21.8166H60.6532V7.01504H65.4194V8.53173C65.4194 8.53173 67.3389 6.75906 69.6833 6.75906ZM73.8545 6.76098C73.8545 6.76098 76.8455 6.87124 78.1079 8.25466C79.0132 9.24309 79.3771 9.76943 79.3771 11.7396V21.8147H75.0454V20.8847C75.0454 20.8847 74.0054 21.7418 72.2063 21.7418C70.3346 21.7418 67.1927 20.624 67.1927 16.7364C67.1927 12.3426 70.5666 11.3158 72.2531 11.3455C73.7858 11.3724 74.8448 12.0032 74.8448 12.0032C74.8448 12.0032 75.1151 10.2411 72.9206 10.1625C71.2045 10.1031 70.7853 10.2085 70.7853 10.2085V6.76098H73.8545ZM29.1768 1.58969V21.8147H24.7172V1.58969H29.1768ZM5.02784 2.12657V15.6828H10.557V20.8646H0V2.12657H5.02784ZM18.1566 2.12076V20.8578H13.1297V7.30165H7.59765V2.12076H18.1566ZM73.1669 14.4747C72.1031 14.4747 71.2427 15.3261 71.2427 16.3701C71.2427 17.4218 72.1022 18.2741 73.1669 18.2741C74.2289 18.2741 75.0864 17.4209 75.0864 16.3701C75.0864 15.3251 74.2289 14.4747 73.1669 14.4747ZM100.526 11.7041C98.9308 11.7041 97.6339 12.9859 97.6339 14.563C97.6339 16.1333 98.9308 17.4132 100.526 17.4132C102.123 17.4132 103.416 16.1333 103.416 14.563C103.416 12.9859 102.123 11.7041 100.526 11.7041ZM52.2648 11.567C50.672 11.567 49.3742 12.8497 49.3742 14.4316C49.3742 16.0039 50.6729 17.2886 52.2648 17.2886C53.8644 17.2886 55.1641 16.0039 55.1641 14.4316C55.1641 12.8497 53.8653 11.567 52.2648 11.567ZM37.1775 10.3619C35.8978 10.3619 34.8474 11.311 34.7041 12.5381H39.6498C39.5085 11.311 38.4561 10.3619 37.1775 10.3619ZM6.91771 0.477516V7.30259H5.70491V0.476562L6.91771 0.477516ZM111.643 1.58962C112.942 1.58962 114 2.6327 114 3.91641C114 5.20301 112.942 6.24608 111.643 6.24608C110.346 6.24608 109.29 5.20301 109.29 3.91641C109.29 2.6327 110.346 1.58962 111.643 1.58962ZM111.643 1.92422C110.534 1.92422 109.628 2.81773 109.628 3.91641C109.628 5.01893 110.534 5.91246 111.643 5.91246C112.755 5.91246 113.66 5.01893 113.66 3.91641C113.66 2.81773 112.755 1.92422 111.643 1.92422ZM111.844 2.66625C112.247 2.66625 112.654 2.80526 112.654 3.31914C112.654 3.68059 112.468 3.81384 112.31 3.90683C112.451 3.96438 112.591 4.02571 112.606 4.36509L112.626 4.80802C112.631 4.94513 112.647 4.99593 112.75 5.05344V5.10808H112.341C112.293 4.95854 112.282 4.58655 112.282 4.49451C112.282 4.29413 112.24 4.06021 111.843 4.06021H111.039V5.10808H110.703V2.66624L111.844 2.66625ZM111.866 2.94812H111.039V3.77549H111.809C112.052 3.77549 112.311 3.71509 112.311 3.35366C112.311 2.97976 112.032 2.94812 111.866 2.94812Z" fill="#EC2028"/>
<path d="M12.4584 15.6808V22.5069H11.2379V15.6808H12.4584ZM5.02784 2.12657V15.6828H10.557V20.8646H0V2.12657H5.02784ZM18.1566 2.12076V20.8579H13.1297V7.30165H7.59765V2.12076H18.1566ZM6.91771 0.477516V7.30259H5.70491V0.476562L6.91771 0.477516ZM111.643 1.58962C112.942 1.58962 114 2.6327 114 3.91641C114 5.20301 112.942 6.24608 111.643 6.24608C110.346 6.24608 109.29 5.20301 109.29 3.91641C109.29 2.6327 110.346 1.58962 111.643 1.58962ZM111.643 1.92422C110.534 1.92422 109.628 2.81773 109.628 3.91641C109.628 5.01893 110.534 5.91246 111.643 5.91246C112.755 5.91246 113.66 5.01893 113.66 3.91641C113.66 2.81773 112.755 1.92422 111.643 1.92422ZM111.844 2.66625C112.247 2.66625 112.654 2.80526 112.654 3.31914C112.654 3.68059 112.468 3.81384 112.31 3.90683C112.451 3.96438 112.591 4.02571 112.606 4.36509L112.626 4.80802C112.631 4.94513 112.647 4.99593 112.75 5.05344V5.10808H112.341C112.293 4.95854 112.282 4.58655 112.282 4.49451C112.282 4.29413 112.24 4.06021 111.843 4.06021H111.039V5.10808H110.703V2.66624L111.844 2.66625ZM111.866 2.94812H111.039V3.77549H111.809C112.052 3.77549 112.311 3.71509 112.311 3.35366C112.311 2.97976 112.032 2.94812 111.866 2.94812Z" fill="#231F20"/>
</g>
<defs>
<clipPath id="clip0_1461_2735">
<rect width="114" height="28" fill="white" transform="translate(0 0.476562)"/>
</clipPath>
</defs>
</svg>
