<svg width="578" height="271" viewBox="0 0 578 271" fill="none" xmlns="http://www.w3.org/2000/svg">
<path d="M89.0053 42V117.8C89.0053 125.267 89.4053 131 90.2053 135C91.1386 138.867 92.9386 143.333 95.6053 148.4C98.2719 153.333 100.072 155.8 101.005 155.8C102.072 155.8 103.939 153.333 106.605 148.4C109.272 143.333 111.072 138.867 112.005 135C112.939 131 113.405 125.267 113.405 117.8V96.4C113.405 85.2 112.605 77.4 111.005 73C109.539 68.4667 106.339 62.9333 101.405 56.4L125.405 39.6C129.672 42.5333 133.339 48 136.405 56C139.472 64 141.005 73.6 141.005 84.8V117.8C141.005 128.2 140.005 136.8 138.005 143.6C136.005 150.267 130.472 158.733 121.405 169C112.472 179.267 105.739 184.4 101.205 184.4C98.4053 184.4 94.4719 181.867 89.4053 176.8C84.4719 171.733 79.7386 165.8 75.2053 159C70.4053 165.933 65.5386 171.933 60.6053 177C55.8053 181.933 52.0053 184.4 49.2053 184.4C44.6719 184.4 37.8719 179.267 28.8053 169C19.8719 158.733 14.4053 150.267 12.4053 143.6C10.4053 136.8 9.40527 128.2 9.40527 117.8V42H37.0053V117.8C37.0053 126.467 37.4719 132.467 38.4053 135.8C39.3386 139.133 41.1386 143.333 43.8053 148.4C46.4719 153.333 48.2719 155.8 49.2053 155.8C50.2719 155.8 52.1386 153.333 54.8053 148.4C57.4719 143.333 59.2053 138.867 60.0053 135C60.9386 131 61.4053 125.267 61.4053 117.8V42H89.0053ZM228.862 127.8V135H180.462C180.462 143 181.462 149.333 183.462 154C184.128 155.6 185.328 157.267 187.062 159C188.795 160.6 190.595 161.4 192.462 161.4C194.328 161.4 196.662 159.8 199.462 156.6C202.262 153.4 204.462 149.533 206.062 145L226.662 159.6C223.062 166.267 217.528 172.067 210.062 177C202.728 181.933 196.795 184.4 192.262 184.4C187.728 184.4 181.128 180.867 172.462 173.8C163.928 166.733 158.728 161.267 156.862 157.4C154.995 153.4 154.062 143.667 154.062 128.2C154.062 112.6 154.995 102.867 156.862 99C158.728 95 163.928 89.4667 172.462 82.4C181.128 75.3333 187.462 71.8 191.462 71.8C195.462 71.8 201.728 75.3333 210.262 82.4C218.928 89.4667 224.195 95 226.062 99C227.928 102.867 228.862 112.467 228.862 127.8ZM201.062 102.8C200.128 100.933 198.595 99.1333 196.462 97.4C194.462 95.6667 192.528 94.8 190.662 94.8C188.928 94.8 186.928 96.6 184.662 100.2C182.395 103.667 180.995 108.933 180.462 116H203.262C202.862 108.933 202.128 104.533 201.062 102.8ZM249.929 182V72.8C249.929 66 249.129 60.8 247.529 57.2C245.929 53.6 243.395 50.3333 239.929 47.4L261.929 32C271.529 39.6 276.329 50.3333 276.329 64.2V82.4C284.329 75.3333 290.062 71.8 293.529 71.8C297.129 71.8 302.529 75.4 309.729 82.6C317.062 89.6667 321.262 94.8667 322.329 98.2C323.795 101.533 324.529 111.533 324.529 128.2C324.529 144.733 323.795 154.667 322.329 158C321.262 161.333 317.062 166.6 309.729 173.8C302.529 180.867 297.329 184.4 294.129 184.4C289.462 184.4 281.995 179.533 271.729 169.8L269.529 182H249.929ZM277.329 151.6C278.262 153.2 280.129 154.933 282.929 156.8C285.862 158.533 288.062 159.4 289.529 159.4C290.995 159.4 292.529 158.533 294.129 156.8C295.862 155.067 297.129 153.267 297.929 151.4C298.729 149.533 299.129 141.8 299.129 128.2C299.129 114.467 298.729 106.733 297.929 105C297.129 103.133 295.862 101.333 294.129 99.6C292.529 97.7333 290.995 96.8 289.529 96.8C288.195 96.8 286.062 97.7333 283.129 99.6C280.329 101.333 278.462 102.867 277.529 104.2C276.462 106.467 275.929 114.533 275.929 128.4C275.929 142.133 276.395 149.867 277.329 151.6Z" fill="#4154F1"/>
<rect x="5" y="201.788" width="572" height="64.3381" rx="6" fill="#FFC901"/>
<path d="M346 74.2H372.4V143.4C372.4 150.2 373.2 155.467 374.8 159.2C376.4 162.933 378.933 166.2 382.4 169L360.4 184.4C350.8 176.8 346 166 346 152V74.2ZM359.6 32.4C361.067 32.4 364.333 34.6 369.4 39C374.467 43.2667 377 46.2 377 47.8C377 49.2667 374.4 52.2 369.2 56.6C364.133 61 360.867 63.2 359.4 63.2C358.067 63.2 354.867 61.0667 349.8 56.8C344.733 52.4 342.2 49.4667 342.2 48C342.2 46.4 344.733 43.4 349.8 39C355 34.6 358.267 32.4 359.6 32.4ZM464.336 74.2V156.2C465.136 160.867 468.269 165 473.736 168.6L455.736 184C454.003 182.8 451.869 180.667 449.336 177.6C446.803 174.533 444.669 171.4 442.936 168.2C431.869 179 424.136 184.4 419.736 184.4C416.536 184.4 411.336 180.867 404.136 173.8C397.069 166.733 392.669 161 390.936 156.6C389.203 152.2 388.336 142.733 388.336 128.2C388.336 113.533 389.203 104 390.936 99.6C392.669 95.2 397.069 89.4667 404.136 82.4C411.336 75.3333 416.536 71.8 419.736 71.8C424.403 71.8 431.936 76.6 442.336 86.2L444.736 74.2H464.336ZM436.536 104.8C435.603 103.067 433.669 101.333 430.736 99.6C427.936 97.7333 425.803 96.8 424.336 96.8C422.869 96.8 421.269 97.6667 419.536 99.4C417.936 101.133 416.869 102.733 416.336 104.2C414.603 106.6 413.736 114.6 413.736 128.2C413.736 141.667 414.603 149.6 416.336 152C416.869 153.333 417.936 154.933 419.536 156.8C421.269 158.533 422.869 159.4 424.336 159.4C425.803 159.4 427.936 158.533 430.736 156.8C433.669 154.933 435.536 153.267 436.336 151.8C437.269 150.333 437.803 142.533 437.936 128.4C437.936 114.267 437.469 106.4 436.536 104.8ZM516.072 182H489.672V113C489.672 106.2 488.872 100.933 487.272 97.2C485.672 93.4667 483.139 90.2 479.672 87.4L501.672 72C506.605 76 510.272 80.6 512.672 85.8C522.539 76.4667 529.472 71.8 533.472 71.8C537.605 71.8 543.739 75.5333 551.872 83C560.139 90.3333 564.272 97.6 564.272 104.8V143.4C564.272 150.2 565.072 155.467 566.672 159.2C568.272 162.933 570.805 166.2 574.272 169L552.272 184.4C542.672 176.8 537.872 166 537.872 152V107.6C537.872 105.333 536.672 103 534.272 100.6C531.872 98.0667 529.605 96.8 527.472 96.8C525.472 96.8 521.672 99.6 516.072 105.2V182Z" fill="#1A2263"/>
<path d="M9.43644 38.4551L6.89265 38.4551L6.89265 40.9735L6.89265 70.218L6.89265 72.7664L9.46618 72.6728C21.219 72.2452 28.7859 66.7844 33.344 60.1165C37.8198 53.5688 39.3492 45.9493 39.4175 40.9451L39.4514 38.455L36.9365 38.455L9.43644 38.4551Z" fill="#FFC901" stroke="white" stroke-width="5"/>
<path d="M49.1 253.712H41.95L36.3 229.562L30.4 253.712H23.6L16.15 218.762L23.5 218.662L27.45 246.812L33.4 220.412H39.55L45.3 246.762L49.25 218.662L56.6 218.762L49.1 253.712ZM168.982 248.762C170.015 248.762 170.965 248.646 171.832 248.412C172.732 248.179 173.532 247.779 174.232 247.212C174.965 246.612 175.582 245.846 176.082 244.912C176.615 243.979 177.015 242.796 177.282 241.362C177.582 239.896 177.732 238.179 177.732 236.212C177.732 234.212 177.582 232.496 177.282 231.062C176.982 229.596 176.565 228.396 176.032 227.462C175.532 226.496 174.932 225.729 174.232 225.162C173.532 224.596 172.732 224.196 171.832 223.962C170.932 223.729 169.982 223.612 168.982 223.612C168.015 223.612 167.099 223.729 166.232 223.962C165.365 224.196 164.565 224.596 163.832 225.162C163.132 225.696 162.515 226.446 161.982 227.412C161.482 228.379 161.082 229.596 160.782 231.062C160.515 232.496 160.382 234.212 160.382 236.212C160.382 238.212 160.515 239.929 160.782 241.362C161.082 242.762 161.499 243.946 162.032 244.912C162.565 245.879 163.182 246.646 163.882 247.212C164.615 247.779 165.399 248.179 166.232 248.412C167.099 248.646 168.015 248.762 168.982 248.762ZM169.032 254.212C167.132 254.212 165.382 254.029 163.782 253.662C162.182 253.262 160.732 252.646 159.432 251.812C158.132 250.946 157.032 249.829 156.132 248.462C155.265 247.062 154.582 245.362 154.082 243.362C153.615 241.329 153.382 238.946 153.382 236.212C153.382 233.479 153.599 231.112 154.032 229.112C154.499 227.112 155.165 225.429 156.032 224.062C156.932 222.662 158.032 221.529 159.332 220.662C160.632 219.762 162.082 219.129 163.682 218.762C165.282 218.396 167.065 218.212 169.032 218.212C170.965 218.212 172.749 218.412 174.382 218.812C176.015 219.179 177.465 219.779 178.732 220.612C179.999 221.446 181.082 222.562 181.982 223.962C182.882 225.329 183.565 227.012 184.032 229.012C184.499 231.012 184.732 233.362 184.732 236.062C184.732 238.862 184.499 241.279 184.032 243.312C183.565 245.346 182.865 247.062 181.932 248.462C181.032 249.829 179.949 250.946 178.682 251.812C177.415 252.646 175.965 253.262 174.332 253.662C172.732 254.029 170.965 254.212 169.032 254.212ZM313.293 254.212C312.326 254.212 311.376 254.062 310.443 253.762C309.51 253.462 308.56 252.996 307.593 252.362C306.626 251.696 305.643 250.862 304.643 249.862C303.643 248.829 302.593 247.612 301.493 246.212C300.393 244.779 299.243 243.162 298.043 241.362C297.81 241.396 297.443 241.412 296.943 241.412C296.476 241.412 296.126 241.412 295.893 241.412C295.26 241.412 294.576 241.412 293.843 241.412C293.143 241.412 292.443 241.396 291.743 241.362V253.712H284.843V218.662C286.643 218.562 288.276 218.479 289.743 218.412C291.243 218.346 292.626 218.296 293.893 218.262C295.193 218.229 296.41 218.212 297.543 218.212C300.243 218.212 302.543 218.412 304.443 218.812C306.343 219.179 307.893 219.796 309.093 220.662C310.293 221.496 311.16 222.596 311.693 223.962C312.26 225.329 312.543 226.962 312.543 228.862C312.543 230.862 312.226 232.579 311.593 234.012C310.993 235.412 310.126 236.562 308.993 237.462C307.86 238.362 306.51 239.079 304.943 239.612C305.943 240.946 306.876 242.112 307.743 243.112C308.643 244.079 309.46 244.896 310.193 245.562C310.96 246.196 311.66 246.679 312.293 247.012C312.926 247.346 313.543 247.512 314.143 247.512C314.243 247.512 314.36 247.512 314.493 247.512C314.66 247.479 314.81 247.462 314.943 247.462V254.062C314.743 254.096 314.51 254.129 314.243 254.162C313.976 254.196 313.66 254.212 313.293 254.212ZM297.343 235.912C298.71 235.912 299.893 235.812 300.893 235.612C301.926 235.379 302.776 235.029 303.443 234.562C304.11 234.096 304.61 233.479 304.943 232.712C305.276 231.912 305.443 230.929 305.443 229.762C305.443 228.296 305.21 227.129 304.743 226.262C304.276 225.362 303.476 224.712 302.343 224.312C301.21 223.912 299.66 223.712 297.693 223.712C297.126 223.712 296.626 223.712 296.193 223.712C295.76 223.712 295.326 223.729 294.893 223.762C294.493 223.762 294.043 223.779 293.543 223.812C293.043 223.812 292.443 223.846 291.743 223.912V235.762C292.31 235.796 292.826 235.829 293.293 235.862C293.76 235.862 294.21 235.879 294.643 235.912C295.11 235.912 295.543 235.912 295.943 235.912C296.376 235.912 296.843 235.912 297.343 235.912ZM414.077 253.712V218.712H420.927V247.712H437.127V253.712H414.077ZM549.08 254.212C547.514 254.212 545.997 254.196 544.53 254.162C543.097 254.129 541.697 254.079 540.33 254.012C538.964 253.946 537.614 253.879 536.28 253.812V218.712C537.78 218.579 539.197 218.479 540.53 218.412C541.897 218.346 543.247 218.296 544.58 218.262C545.914 218.229 547.28 218.212 548.68 218.212C552.647 218.212 555.864 218.846 558.33 220.112C560.797 221.346 562.597 223.296 563.73 225.962C564.897 228.596 565.48 232.029 565.48 236.262C565.48 240.396 564.864 243.796 563.63 246.462C562.43 249.096 560.614 251.046 558.18 252.312C555.78 253.579 552.747 254.212 549.08 254.212ZM549.48 248.762C551.414 248.762 553.03 248.362 554.33 247.562C555.664 246.729 556.664 245.396 557.33 243.562C557.997 241.729 558.33 239.312 558.33 236.312C558.33 233.179 557.997 230.696 557.33 228.862C556.697 227.029 555.714 225.712 554.38 224.912C553.047 224.112 551.33 223.712 549.23 223.712C548.63 223.712 547.964 223.729 547.23 223.762C546.53 223.762 545.83 223.779 545.13 223.812C544.464 223.846 543.814 223.879 543.18 223.912V248.512C543.68 248.546 544.197 248.579 544.73 248.612C545.264 248.646 545.797 248.679 546.33 248.712C546.864 248.712 547.397 248.729 547.93 248.762C548.464 248.762 548.98 248.762 549.48 248.762Z" fill="#1A2263"/>
</svg>
