<svg width="127" height="29" viewBox="0 0 127 29" fill="none" xmlns="http://www.w3.org/2000/svg">
<g clip-path="url(#clip0_1381_7715)">
<path d="M52.8256 6.07257V22.8726H50.0043V9.68924H49.9666L44.9258 22.8726H43.0448L37.8911 9.68924H37.8535V22.8726H35.2578V6.07257H39.3206L43.9853 18.517H44.0605L48.9886 6.07257H52.8256ZM55.158 7.3559C55.158 6.88924 55.3085 6.50035 55.647 6.18924C55.9856 5.87812 56.3618 5.72257 56.8132 5.72257C57.3022 5.72257 57.716 5.87812 58.017 6.18924C58.3179 6.50035 58.506 6.88924 58.506 7.3559C58.506 7.82257 58.3556 8.21146 58.017 8.52257C57.6784 8.83368 57.3022 8.98924 56.8132 8.98924C56.3242 8.98924 55.948 8.83368 55.647 8.52257C55.3461 8.17257 55.158 7.78368 55.158 7.3559ZM58.2051 10.817V22.8726H55.4589V10.817H58.2051ZM66.5188 20.8115C66.9326 20.8115 67.384 20.7337 67.873 20.5003C68.3621 20.3059 68.8135 20.0337 69.2273 19.7226V22.367C68.7759 22.6392 68.2868 22.8337 67.7226 22.9503C67.1583 23.067 66.5564 23.1448 65.8793 23.1448C64.1488 23.1448 62.7569 22.6003 61.7036 21.4726C60.6127 20.3448 60.086 18.9059 60.086 17.1948C60.086 15.2503 60.6503 13.6559 61.7412 12.4115C62.8322 11.167 64.3745 10.5448 66.4059 10.5448C66.9326 10.5448 67.4592 10.6226 67.9483 10.7392C68.4749 10.8559 68.8887 11.0503 69.1897 11.2059V13.9281C68.7759 13.617 68.3245 13.3448 67.9107 13.1892C67.4592 13.0337 67.0078 12.917 66.5564 12.917C65.4655 12.917 64.6002 13.267 63.9231 14.0059C63.246 14.7448 62.945 15.717 62.945 16.9615C62.945 18.167 63.2836 19.1392 63.9231 19.8003C64.5626 20.4615 65.4278 20.8115 66.5188 20.8115ZM77.0143 10.6226C77.24 10.6226 77.4281 10.6226 77.6162 10.6615C77.8043 10.7003 77.9548 10.7392 78.0676 10.7781V13.6559C77.9172 13.5392 77.7291 13.4226 77.4281 13.3448C77.1272 13.267 76.8262 13.1892 76.4124 13.1892C75.7353 13.1892 75.171 13.5003 74.7196 14.0837C74.2682 14.667 74.0049 15.5615 74.0049 16.8059V22.8726H71.2587V10.817H74.0049V12.7226H74.0425C74.3058 12.0615 74.682 11.5559 75.171 11.167C75.6977 10.817 76.2996 10.6226 77.0143 10.6226ZM78.2181 17.0392C78.2181 15.0559 78.7824 13.4615 79.8357 12.2948C80.9267 11.1281 82.4314 10.5448 84.3499 10.5448C86.1556 10.5448 87.5851 11.0892 88.6008 12.217C89.6165 13.3448 90.1432 14.8615 90.1432 16.767C90.1432 18.7115 89.5789 20.267 88.5256 21.4337C87.4347 22.6003 85.9675 23.1837 84.0866 23.1837C82.2809 23.1837 80.8514 22.6392 79.7981 21.5503C78.7448 20.4226 78.2181 18.9059 78.2181 17.0392ZM81.0771 16.9226C81.0771 18.167 81.3405 19.1392 81.9047 19.8003C82.469 20.4615 83.259 20.8115 84.2747 20.8115C85.2528 20.8115 86.0428 20.5003 86.5694 19.8003C87.0961 19.1392 87.3594 18.167 87.3594 16.8448C87.3594 15.5615 87.0961 14.5892 86.5694 13.8892C86.0428 13.2281 85.2528 12.8781 84.3123 12.8781C83.2966 12.8781 82.5442 13.2281 81.98 13.9281C81.3405 14.667 81.0771 15.6392 81.0771 16.9226ZM94.2436 14.0059C94.2436 14.3948 94.3565 14.7448 94.6198 14.9781C94.8831 15.2115 95.4098 15.4837 96.275 15.8337C97.3659 16.3003 98.1559 16.8059 98.5697 17.3503C99.0211 17.9337 99.2469 18.5948 99.2469 19.4115C99.2469 20.5392 98.833 21.4337 97.9678 22.1337C97.1402 22.8337 95.974 23.1448 94.5445 23.1448C94.0555 23.1448 93.5288 23.067 92.927 22.9503C92.3251 22.8337 91.836 22.6781 91.4222 22.4837V19.6837C91.9113 20.0337 92.4755 20.3448 93.0398 20.5392C93.6041 20.7337 94.1307 20.8503 94.6198 20.8503C95.2217 20.8503 95.7107 20.7726 95.9741 20.5781C96.275 20.3837 96.4255 20.1115 96.4255 19.6837C96.4255 19.2948 96.275 18.9837 95.9741 18.6726C95.6731 18.4003 95.0712 18.0892 94.2436 17.7392C93.2279 17.3115 92.5131 16.8059 92.0993 16.2615C91.6855 15.717 91.4598 15.017 91.4598 14.1615C91.4598 13.0726 91.8736 12.1781 92.7012 11.4781C93.5288 10.7781 94.6198 10.4281 95.9364 10.4281C96.3502 10.4281 96.8017 10.467 97.2907 10.5837C97.7797 10.7003 98.2312 10.817 98.5697 10.9337V13.6948C98.1935 13.4615 97.7797 13.2281 97.2907 13.0337C96.8017 12.8392 96.3126 12.7615 95.8612 12.7615C95.3345 12.7615 94.9207 12.8781 94.6574 13.0726C94.3941 13.3448 94.2436 13.617 94.2436 14.0059ZM100.413 17.0392C100.413 15.0559 100.977 13.4615 102.031 12.2948C103.122 11.1281 104.626 10.5448 106.545 10.5448C108.351 10.5448 109.78 11.0892 110.796 12.217C111.811 13.3448 112.338 14.8615 112.338 16.767C112.338 18.7115 111.774 20.267 110.72 21.4337C109.63 22.6003 108.162 23.1837 106.282 23.1837C104.476 23.1837 103.046 22.6392 101.993 21.5503C100.977 20.4226 100.413 18.9059 100.413 17.0392ZM103.272 16.9226C103.272 18.167 103.535 19.1392 104.1 19.8003C104.664 20.4615 105.454 20.8115 106.47 20.8115C107.448 20.8115 108.238 20.5003 108.764 19.8003C109.291 19.1392 109.554 18.167 109.554 16.8448C109.554 15.5615 109.291 14.5892 108.764 13.8892C108.238 13.2281 107.448 12.8781 106.507 12.8781C105.492 12.8781 104.739 13.2281 104.175 13.9281C103.573 14.667 103.272 15.6392 103.272 16.9226ZM121.479 13.1503H117.379V22.8726H114.595V13.1503H112.639V10.817H114.595V9.14479C114.595 7.90035 115.009 6.85035 115.799 6.03368C116.589 5.21701 117.605 4.82812 118.846 4.82812C119.185 4.82812 119.486 4.86701 119.749 4.86701C120.012 4.86701 120.238 4.94479 120.426 5.02257V7.47257C120.351 7.43368 120.163 7.3559 119.937 7.27812C119.711 7.20035 119.448 7.16146 119.147 7.16146C118.583 7.16146 118.131 7.3559 117.83 7.7059C117.529 8.0559 117.379 8.63924 117.379 9.33924V10.7781H121.479V8.0559L124.226 7.20035V10.7781H127.009V13.1115H124.226V18.7503C124.226 19.4892 124.376 19.9948 124.602 20.3059C124.865 20.617 125.279 20.7726 125.843 20.7726C125.994 20.7726 126.182 20.7337 126.407 20.6559C126.633 20.5781 126.821 20.5003 126.972 20.3837V22.717C126.784 22.8337 126.52 22.9115 126.106 22.9892C125.693 23.067 125.316 23.1059 124.903 23.1059C123.736 23.1059 122.871 22.7948 122.307 22.1726C121.743 21.5503 121.442 20.5781 121.442 19.2948L121.479 13.1503Z" fill="black"/>
<path d="M12.8811 0.476562H0.015625V13.7766H12.8811V0.476562Z" fill="#F25022"/>
<path d="M27.1077 0.476562H14.2422V13.7766H27.1077V0.476562Z" fill="#7FBA00"/>
<path d="M12.8811 15.1719H0.015625V28.4719H12.8811V15.1719Z" fill="#00A4EF"/>
<path d="M27.1077 15.1719H14.2422V28.4719H27.1077V15.1719Z" fill="#FFB900"/>
</g>
<defs>
<clipPath id="clip0_1381_7715">
<rect width="127" height="28" fill="white" transform="translate(0 0.476562)"/>
</clipPath>
</defs>
</svg>
