<svg width="127" height="37" viewBox="0 0 127 37" fill="none" xmlns="http://www.w3.org/2000/svg">
<g clip-path="url(#clip0_1461_2531)">
<path fill-rule="evenodd" clip-rule="evenodd" d="M17.7798 36.2924C27.5993 36.2924 35.5596 28.2747 35.5596 18.3845C35.5596 8.4942 27.5993 0.476562 17.7798 0.476562C7.9603 0.476562 0 8.4942 0 18.3845C0 28.2747 7.9603 36.2924 17.7798 36.2924ZM4.19184 10.4421C4.15781 10.449 4.08296 10.4696 4.00812 10.497C6.72988 5.65158 11.8944 2.38249 17.8211 2.38249C26.5852 2.38249 33.689 9.55119 33.689 18.3784C33.689 27.2056 26.5852 34.3675 17.8143 34.3675C14.5073 34.3675 11.8264 31.6673 11.8264 28.3365C11.8264 27.0411 12.2347 25.8418 12.9287 24.8549C12.9321 24.8514 12.9338 24.848 12.9355 24.8445C12.9372 24.8413 12.9389 24.8378 12.9423 24.8344C13.0376 24.6699 13.1669 24.5123 13.3166 24.3683C14.4121 23.1074 16.0247 22.3123 17.8211 22.3123C18.9234 22.3123 19.9576 22.6139 20.8491 23.1416L23.2511 25.5402C23.53 25.9583 25.8979 25.8213 26.313 25.5402C26.6464 25.321 26.6261 24.2243 26.6056 23.772C26.5987 23.6487 26.6464 23.5254 26.7417 23.443C27.0615 23.1621 27.7691 22.5315 27.987 22.3123C28.191 22.0997 28.2455 21.3391 28.259 20.969C28.2659 20.8457 28.3271 20.7291 28.4223 20.6538C28.817 20.3248 28.994 19.8176 29.0619 19.5435C29.0959 19.4338 29.0756 19.3173 29.0144 19.2214L26.8234 15.7124C26.7689 15.6302 26.7485 15.5342 26.762 15.4383C26.7961 15.1504 26.7826 14.4651 26.0409 13.6084C25.061 12.4845 20.3251 9.81847 19.631 9.6814C19.107 9.57859 18.3518 9.62658 18.0048 9.66084C17.8823 9.67455 17.7667 9.63343 17.6782 9.54433C17.2087 9.07145 15.6641 7.53628 15.3103 7.2964C14.916 7.02948 14.7366 7.18926 14.6321 7.28231C14.6266 7.28721 14.6213 7.29194 14.6162 7.2964C14.4665 7.43347 14.2147 8.3998 14.1195 9.00975C14.0855 9.22221 13.8881 9.37299 13.6704 9.35244C10.9895 9.07831 6.53936 9.92812 4.19184 10.4421Z" fill="#0D130B"/>
<path d="M44.0391 26.2928V10.2578H50.6155C51.8075 10.2578 52.8363 10.4927 53.7017 10.9625C54.5723 11.427 55.2434 12.0769 55.7151 12.912C56.1866 13.742 56.4225 14.7076 56.4225 15.809C56.4225 16.9156 56.1814 17.8838 55.6995 18.7138C55.2227 19.5385 54.5413 20.178 53.6551 20.632C52.7688 21.0862 51.7169 21.3131 50.499 21.3131H46.4412V18.2597H49.7837C50.3642 18.2597 50.8488 18.1579 51.2374 17.9543C51.6313 17.7507 51.9292 17.4663 52.1315 17.1009C52.3336 16.7303 52.4346 16.2996 52.4346 15.809C52.4346 15.3131 52.3336 14.8851 52.1315 14.5249C51.9292 14.1596 51.6313 13.8777 51.2374 13.6793C50.8436 13.481 50.359 13.3818 49.7837 13.3818H47.8871V26.2928H44.0391ZM60.8198 26.4964C60.058 26.4964 59.3817 26.3684 58.7908 26.1128C58.2053 25.8518 57.7416 25.4602 57.3993 24.9384C57.0626 24.411 56.8942 23.7508 56.8942 22.9574C56.8942 22.2893 57.0107 21.7256 57.244 21.2662C57.4771 20.8068 57.7984 20.4336 58.2079 20.1466C58.6173 19.8595 59.0889 19.643 59.6226 19.4968C60.1565 19.3454 60.7264 19.2436 61.3329 19.1914C62.0118 19.1287 62.5584 19.0635 62.9731 18.9956C63.3877 18.9226 63.6883 18.8208 63.8748 18.6903C64.0667 18.5546 64.1625 18.3641 64.1625 18.1187V18.0796C64.1625 17.6777 64.0252 17.3671 63.7505 17.1479C63.4758 16.9286 63.1052 16.819 62.6389 16.819C62.1362 16.819 61.732 16.9286 61.4261 17.1479C61.1204 17.3671 60.9261 17.6698 60.8432 18.0561L57.3372 17.9308C57.441 17.2001 57.7077 16.5476 58.138 15.9734C58.5733 15.394 59.1692 14.9399 59.9258 14.6111C60.6877 14.277 61.6023 14.11 62.6698 14.11C63.4317 14.11 64.134 14.2013 64.7766 14.384C65.4192 14.5615 65.9789 14.8225 66.4557 15.167C66.9325 15.5062 67.3004 15.9238 67.5595 16.4197C67.8238 16.9156 67.9559 17.4819 67.9559 18.1187V26.2928H64.3802V24.6173H64.2868C64.0744 25.0244 63.8022 25.3689 63.4706 25.6507C63.1442 25.9326 62.7581 26.144 62.3124 26.285C61.8719 26.4259 61.3744 26.4964 60.8198 26.4964ZM61.9936 23.9909C62.4031 23.9909 62.771 23.9074 63.0974 23.7404C63.4292 23.5733 63.6935 23.3437 63.8904 23.0515C64.0874 22.7539 64.1859 22.4094 64.1859 22.0178V20.8748C64.0769 20.9323 63.9448 20.9843 63.7893 21.0313C63.6391 21.0784 63.4733 21.1228 63.2919 21.1645C63.1104 21.2063 62.9238 21.2427 62.7322 21.2741C62.5404 21.3055 62.3563 21.334 62.1803 21.3602C61.8227 21.4177 61.5168 21.5063 61.263 21.6264C61.0141 21.7465 60.8225 21.9031 60.6877 22.0961C60.5582 22.2842 60.4934 22.5086 60.4934 22.7696C60.4934 23.1662 60.6333 23.4689 60.9131 23.6778C61.1981 23.8866 61.5584 23.9909 61.9936 23.9909ZM73.6437 19.4341V26.2928H69.8425V14.2666H73.4572V16.4745H73.5894C73.8536 15.7385 74.3046 15.1618 74.9419 14.7442C75.5794 14.3214 76.3387 14.11 77.2197 14.11C78.0593 14.11 78.7872 14.3005 79.404 14.6815C80.0259 15.0574 80.5078 15.5845 80.8499 16.2631C81.1972 16.9365 81.3681 17.7247 81.363 18.6277V26.2928H77.5617V19.3793C77.5669 18.7112 77.3984 18.1892 77.0564 17.8134C76.7195 17.4376 76.2505 17.2496 75.6493 17.2496C75.2503 17.2496 74.898 17.3384 74.5923 17.5159C74.2917 17.6881 74.0584 17.936 73.8926 18.2597C73.732 18.5833 73.6489 18.9748 73.6437 19.4341ZM90.0184 14.2666V17.0852H82.4856V14.2666H90.0184ZM84.0638 11.3853H87.8651V22.5111C87.8651 22.746 87.9014 22.9366 87.9738 23.0827C88.0516 23.2236 88.163 23.3255 88.3081 23.3881C88.4533 23.4456 88.6269 23.4743 88.829 23.4743C88.9741 23.4743 89.1269 23.4611 89.2876 23.435C89.4535 23.4038 89.5779 23.3776 89.6608 23.3567L90.2361 26.1207C90.0547 26.1727 89.798 26.238 89.4665 26.3164C89.1398 26.3947 88.7486 26.4443 88.2927 26.4651C87.4012 26.5069 86.6369 26.4025 85.9994 26.1519C85.3671 25.8962 84.8825 25.4995 84.5458 24.9618C84.214 24.4243 84.0534 23.7483 84.0638 22.9339V11.3853ZM95.5779 19.4341V26.2928H91.7766V10.2578H95.4535V16.4745H95.5857C95.8551 15.7333 96.2956 15.1539 96.9072 14.7363C97.5239 14.3188 98.2779 14.11 99.1692 14.11C100.009 14.11 100.74 14.2979 101.361 14.6737C101.983 15.0443 102.465 15.5689 102.807 16.2475C103.155 16.926 103.326 17.7194 103.32 18.6277V26.2928H99.5191V19.3793C99.5242 18.7112 99.3584 18.1892 99.0215 17.8134C98.6848 17.4376 98.2105 17.2496 97.599 17.2496C97.2 17.2496 96.8475 17.3384 96.5418 17.5159C96.2412 17.6881 96.0054 17.936 95.8343 18.2597C95.6685 18.5833 95.583 18.9748 95.5779 19.4341ZM110.837 26.5199C109.588 26.5199 108.51 26.2719 107.603 25.7762C106.701 25.275 106.007 24.5625 105.52 23.6386C105.038 22.7095 104.797 21.6055 104.797 20.3268C104.797 19.0844 105.04 17.9987 105.528 17.0696C106.015 16.1352 106.701 15.4097 107.588 14.8929C108.474 14.371 109.518 14.11 110.72 14.11C111.57 14.11 112.348 14.2431 113.052 14.5093C113.757 14.7755 114.366 15.1696 114.879 15.6916C115.392 16.2135 115.791 16.8582 116.076 17.6255C116.361 18.3876 116.504 19.2619 116.504 20.2484V21.2036H106.126V18.98H112.967C112.962 18.5729 112.866 18.2101 112.679 17.8917C112.493 17.5733 112.236 17.3253 111.91 17.1479C111.588 16.9652 111.218 16.8738 110.798 16.8738C110.373 16.8738 109.992 16.9704 109.655 17.1635C109.318 17.3514 109.052 17.6098 108.855 17.9387C108.658 18.2623 108.554 18.6303 108.544 19.0426V21.3055C108.544 21.7961 108.64 22.2267 108.831 22.5973C109.023 22.9626 109.295 23.2472 109.647 23.4507C110 23.6543 110.42 23.7561 110.907 23.7561C111.244 23.7561 111.549 23.709 111.824 23.6152C112.099 23.5212 112.335 23.3829 112.532 23.2001C112.729 23.0174 112.876 22.793 112.975 22.5268L116.465 22.6287C116.32 23.4168 116.001 24.1031 115.509 24.6877C115.022 25.2672 114.382 25.7187 113.589 26.0423C112.796 26.3608 111.879 26.5199 110.837 26.5199ZM118.007 26.2928V14.2666H121.7V16.4589H121.824C122.042 15.6655 122.397 15.0756 122.889 14.6894C123.382 14.2979 123.954 14.1022 124.607 14.1022C124.783 14.1022 124.965 14.1152 125.151 14.1413C125.338 14.1622 125.512 14.1961 125.672 14.2431V17.5707C125.491 17.508 125.253 17.4584 124.957 17.4219C124.667 17.3854 124.408 17.3671 124.18 17.3671C123.729 17.3671 123.322 17.4689 122.959 17.6725C122.602 17.8708 122.319 18.15 122.112 18.5102C121.91 18.8652 121.809 19.2827 121.809 19.763V26.2928H118.007Z" fill="#0D130B"/>
</g>
<defs>
<clipPath id="clip0_1461_2531">
<rect width="127" height="36" fill="white" transform="translate(0 0.476562)"/>
</clipPath>
</defs>
</svg>
