<svg width="105" height="21" viewBox="0 0 105 21" fill="none" xmlns="http://www.w3.org/2000/svg">
<path d="M37.8626 1.24682C37.7937 1.35982 32.9688 19.4276 32.9688 19.5745C32.9688 19.6423 34.2324 19.6875 36.2773 19.6875H39.5743L41.286 13.2129C42.2281 9.6649 43.0437 6.63665 43.0896 6.48976L43.193 6.24117H47.0415C51.1772 6.24117 51.338 6.26377 51.7401 6.82874C51.9698 7.15643 51.9813 8.07168 51.7516 8.50106C51.6597 8.68185 51.4644 8.89654 51.315 8.96434C51.1427 9.06603 49.9365 9.12253 47.4551 9.16773L43.8479 9.23552L43.239 11.4389C42.8944 12.648 42.6301 13.7214 42.6531 13.8231C42.6646 13.9248 43.8593 15.292 45.3068 16.8513L47.9376 19.6875H51.8779C54.0492 19.6875 55.8298 19.6649 55.8298 19.6423C55.8298 19.6084 54.6351 18.3768 53.1876 16.8965L50.5453 14.2073L51.6597 14.1395C53.3599 14.0378 54.6236 13.5858 55.9447 12.6028C57.6334 11.3598 58.5869 9.5858 58.5869 7.6988C58.5869 6.55756 58.4261 5.81179 57.9436 4.78355C57.1739 3.14513 56.0251 2.02648 54.5432 1.48411L53.8194 1.22422L45.8697 1.17903C41.5043 1.16773 37.8971 1.19032 37.8626 1.24682Z" fill="#003C7F"/>
<path d="M61.5152 1.29202C61.4807 1.37111 61.1935 2.43326 60.8834 3.6423C60.5617 4.85134 60.2745 5.93609 60.24 6.03778C60.1826 6.22987 60.5043 6.24117 65.8232 6.24117C70.7285 6.24117 71.5212 6.26377 71.8544 6.42196C72.5207 6.72705 72.7964 7.6875 72.4288 8.38806C72.0612 9.09993 72.3484 9.06603 65.5705 9.06603C62.17 9.06603 59.3899 9.08863 59.3899 9.12253C59.3899 9.14513 58.7696 11.5067 58.0114 14.3542C57.2532 17.2129 56.6328 19.5745 56.6328 19.6197C56.6328 19.6536 58.1262 19.6875 59.9413 19.6875H63.2614L63.9966 16.9191L64.7318 14.1508H68.7296C73.2904 14.1508 73.7499 14.0943 75.3582 13.3259C77.2537 12.422 78.8161 10.5011 79.1607 8.67055C79.4135 7.32592 79.0229 5.28072 78.2647 4.00388C77.449 2.63665 75.9326 1.54061 74.5081 1.28072C73.4742 1.08863 61.5841 1.11123 61.5152 1.29202Z" fill="#003C7F"/>
<path d="M89.5934 1.2693C87.0431 1.69868 84.9293 2.77213 83.1716 4.54614C78.6454 9.09981 79.013 16.4218 83.8839 18.7721C85.6875 19.6422 85.4462 19.6196 92.7296 19.6648C98.9101 19.6987 99.2433 19.6874 99.3007 19.4953C99.4845 18.8964 102.012 9.3258 102.012 9.2015C102.012 9.08851 101.323 9.06591 98.7148 9.08851L95.4178 9.12241L94.7745 11.5518C94.4183 12.8851 94.0852 14.1168 94.0392 14.2863L93.9703 14.6026H91.3625H88.7548L88.3182 14.3088C88.0885 14.1394 87.7553 13.8343 87.5945 13.6309C85.676 11.1676 87.2843 7.59699 90.8111 6.45574C91.1558 6.34275 92.7526 6.29755 97.0606 6.25235L102.862 6.18456L103.528 3.69868C103.884 2.33145 104.183 1.20151 104.195 1.17891C104.206 1.11111 90.0529 1.19021 89.5934 1.2693Z" fill="#003C7F"/>
<path d="M5.28544 5.84569L0.632812 10.422L5.34288 15.0547L10.0529 19.6875L14.763 15.0547L19.4731 10.422L16.4862 7.48411L13.4993 4.54626L11.1213 6.88524L8.73183 9.23552L9.93806 10.422L11.1443 11.6084L12.2586 10.5124L13.3845 9.40501L13.9359 9.86829C14.2346 10.1169 14.4758 10.3881 14.4758 10.4559C14.4758 10.535 13.4764 11.5745 12.2586 12.7722L10.0529 14.9417L7.75535 12.6819L5.45776 10.422L8.96159 6.97564L12.4654 3.52931L11.3166 2.39936C10.6848 1.77789 10.1219 1.26942 10.0529 1.26942C9.9955 1.26942 7.84725 3.32592 5.28544 5.84569Z" fill="#003C7F"/>
<path d="M15.5909 2.37677C14.982 2.97564 14.4766 3.52931 14.4766 3.58581C14.4766 3.6423 16.0389 5.23552 17.9459 7.11123L21.4268 10.535L17.9459 13.9587L14.4766 17.3711L15.6598 18.535L16.8316 19.6875L21.5187 15.0773L26.1943 10.4785L21.5072 5.86829C18.9339 3.33722 16.8086 1.26942 16.7742 1.26942C16.7397 1.26942 16.2112 1.7666 15.5909 2.37677Z" fill="#EC1B2E"/>
<path d="M22.4218 2.42015L21.25 3.584L24.7768 7.05292L28.3151 10.5331L24.8457 13.9456L21.3764 17.3693L22.5137 18.5557L23.651 19.7422L28.3611 15.1094L33.0826 10.4767L28.407 5.87778C25.8222 3.33541 23.6969 1.26761 23.6625 1.26761C23.628 1.26761 23.0766 1.78739 22.4218 2.42015Z" fill="#003C7F"/>
</svg>
