<svg width="114" height="19" viewBox="0 0 114 19" fill="none" xmlns="http://www.w3.org/2000/svg">
<g clip-path="url(#clip0_1461_2739)">
<path d="M8.01948 2.25C11.8182 2.25 14.6576 4.34999 15.5785 7.78635H11.3194C10.6671 6.4118 9.4392 5.76271 7.98109 5.76271C5.60212 5.76271 3.95219 7.51905 3.95219 10.3445C3.95219 13.17 5.60212 14.9263 7.98109 14.9263C9.4392 14.9263 10.6671 14.2391 11.3194 12.9027H15.5785C14.6576 16.3391 11.8182 18.4391 8.01948 18.4391C3.29988 18.4008 0 15.0791 0 10.3064C0 5.53362 3.29988 2.25 8.01948 2.25Z" fill="#404041"/>
<path d="M23.3277 18.474C19.6058 18.474 16.8047 15.9921 16.8047 11.9831C16.8047 7.97399 19.6825 5.49219 23.4044 5.49219C27.1264 5.49219 30.0042 7.97399 30.0042 11.9831C30.0042 15.9921 27.0496 18.474 23.3277 18.474ZM23.3277 15.114C24.7091 15.114 26.0136 14.0831 26.0136 11.9831C26.0136 9.84491 24.7474 8.85215 23.3661 8.85215C21.9463 8.85215 20.7185 9.84491 20.7185 11.9831C20.7568 14.0831 21.908 15.114 23.3277 15.114Z" fill="#404041"/>
<path d="M37.7184 18.474C33.9964 18.474 31.1953 15.9921 31.1953 11.9831C31.1953 7.97399 34.0731 5.49219 37.7951 5.49219C41.517 5.49219 44.3949 7.97399 44.3949 11.9831C44.3949 15.9921 41.4403 18.474 37.7184 18.474ZM37.7184 15.114C39.0997 15.114 40.4043 14.0831 40.4043 11.9831C40.4043 9.84491 39.1381 8.85215 37.7567 8.85215C36.337 8.85215 35.1092 9.84491 35.1092 11.9831C35.1092 14.0831 36.2986 15.114 37.7184 15.114Z" fill="#404041"/>
<path d="M45.7734 2.25H49.6489V10.8027L53.486 5.68635H58.2823L53.0255 11.9863L58.359 18.2863H53.5627L49.6872 12.979V18.2863H45.8118V2.25H45.7734Z" fill="#404041"/>
<path d="M59.2031 2.28749C59.2031 1.10386 60.124 0.1875 61.5056 0.1875C62.887 0.1875 63.8075 1.10386 63.8075 2.28749C63.8075 3.43294 62.887 4.3493 61.5056 4.3493C60.124 4.3493 59.2031 3.43294 59.2031 2.28749ZM59.5868 5.64748H63.4624V18.2475H59.5868V5.64748Z" fill="#404041"/>
<path d="M71.2911 18.474C67.5691 18.474 64.8828 15.9921 64.8828 11.9831C64.8828 7.97399 67.5303 5.49219 71.2911 5.49219C74.9742 5.49219 77.6217 7.93583 77.6217 11.7921C77.6217 12.1358 77.5835 12.5558 77.5453 12.9376H68.7582C68.9116 14.5794 69.9097 15.3431 71.1759 15.3431C72.2504 15.3431 72.864 14.8085 73.2091 14.1212H77.3537C76.7012 16.5648 74.4758 18.474 71.2911 18.474ZM68.797 10.7613H73.6699C73.6699 9.38675 72.5954 8.58491 71.2911 8.58491C69.9861 8.58491 69.0268 9.34853 68.797 10.7613Z" fill="#404041"/>
<path d="M95.5405 18.474C91.8185 18.474 89.1328 15.9921 89.1328 11.9831C89.1328 7.97399 91.7803 5.49219 95.5405 5.49219C99.2242 5.49219 101.872 7.93583 101.872 11.7921C101.872 12.1358 101.834 12.5558 101.795 12.9376H93.0082C93.1616 14.5794 94.1591 15.3431 95.4259 15.3431C96.4998 15.3431 97.114 14.8085 97.4591 14.1212H101.603C100.951 16.5648 98.687 18.474 95.5405 18.474ZM93.0082 10.7613H97.8811C97.8811 9.38675 96.8072 8.58491 95.5023 8.58491C94.2361 8.58491 93.2386 9.34853 93.0082 10.7613Z" fill="#404041"/>
<path d="M108.895 18.474C105.518 18.474 103.254 16.6031 103.062 14.1594H106.9C106.976 15.0376 107.782 15.6103 108.856 15.6103C109.854 15.6103 110.391 15.1521 110.391 14.5794C110.391 12.5558 103.485 14.0067 103.485 9.38675C103.485 7.24853 105.326 5.49219 108.626 5.49219C111.888 5.49219 113.729 7.28675 113.96 9.76853H110.353C110.238 8.92853 109.585 8.35583 108.473 8.35583C107.552 8.35583 107.053 8.69945 107.053 9.31037C107.053 11.334 113.921 9.88307 113.998 14.6176C114.036 16.794 112.079 18.474 108.895 18.474Z" fill="#404041"/>
<path d="M81.6544 5.875H77.625L81.3088 12.6713H85.3376L81.6544 5.875Z" fill="#0056A7"/>
<path d="M81.2344 12.4802L81.349 12.6711H85.3784L82.7303 7.89844L81.2344 12.4802Z" fill="#2E3191"/>
<path d="M88.5961 0.148438L81.3438 12.672H85.3732L92.6249 0.148438H88.5961Z" fill="#0056A7"/>
<path d="M81.3438 14.5469H85.258V18.4796H81.3438V14.5469Z" fill="#0056A7"/>
</g>
<defs>
<clipPath id="clip0_1461_2739">
<rect width="114" height="18" fill="white" transform="translate(0 0.476562)"/>
</clipPath>
</defs>
</svg>
