<svg width="92" height="36" viewBox="0 0 92 36" fill="none" xmlns="http://www.w3.org/2000/svg">
<g clip-path="url(#clip0_960_5768)">
<mask id="mask0_960_5768" style="mask-type:luminance" maskUnits="userSpaceOnUse" x="0" y="0" width="92" height="36">
<path d="M91.0685 0.5H0.203125V35.0109H91.0685V0.5Z" fill="white"/>
</mask>
<g mask="url(#mask0_960_5768)">
<path d="M48.8158 28.2268C48.6388 28.2322 48.4628 28.2009 48.2985 28.1348C48.1344 28.0687 47.9856 27.9693 47.8618 27.8428C47.738 27.7164 47.6417 27.5656 47.5791 27.4C47.5166 27.2344 47.489 27.0577 47.4982 26.8809V19.4932C47.4982 16.8769 46.2654 15.437 44.0254 15.437C41.0233 15.437 39.9316 18.1474 39.9316 19.9732V26.8809C39.9434 27.0551 39.9188 27.2299 39.8595 27.3941C39.8002 27.5583 39.7074 27.7084 39.5872 27.835C39.4668 27.9614 39.3216 28.0616 39.1606 28.129C38.9995 28.1965 38.8263 28.2298 38.6517 28.2268C38.4732 28.2334 38.2952 28.2031 38.1289 28.1378C37.9627 28.0725 37.8117 27.9736 37.6853 27.8473C37.559 27.7209 37.4601 27.57 37.3948 27.4037C37.3295 27.2374 37.2992 27.0594 37.3058 26.8809V14.4393C37.2921 14.1298 37.4019 13.8276 37.6111 13.599C37.8202 13.3704 38.1116 13.2343 38.4211 13.2206C38.7305 13.2068 39.0329 13.3166 39.2615 13.5257C39.49 13.7349 39.6261 14.0263 39.6398 14.3358L39.7057 15.1546C40.2799 14.4724 41.0022 13.9304 41.8178 13.57C42.6333 13.2095 43.5204 13.0401 44.4113 13.0747C48.0158 13.0747 50.1616 15.4934 50.1616 19.5402V26.8809C50.1707 27.0569 50.1434 27.2329 50.0814 27.3978C50.0194 27.5627 49.9239 27.713 49.8012 27.8393C49.6783 27.9657 49.5308 28.0653 49.3677 28.1319C49.2046 28.1986 49.0296 28.2309 48.8534 28.2268" fill="#1A73E8"/>
<path d="M55.1681 19.5858C55.2661 18.4277 55.8031 17.3509 56.6692 16.5758C57.5352 15.8008 58.6648 15.3861 59.8267 15.4166C63.2241 15.4166 63.8546 18.1835 63.9676 19.5858H55.1681ZM66.4615 20.4516C66.4615 16.8847 64.6923 13.0732 59.7325 13.0732C58.7273 13.0444 57.7273 13.2283 56.798 13.6126C55.8688 13.997 55.031 14.5733 54.3399 15.3037C53.0102 16.7996 52.2942 18.7424 52.3352 20.7434C52.3058 21.753 52.4797 22.7582 52.8467 23.6992C53.2137 24.6402 53.7663 25.4977 54.4717 26.2207C55.2252 26.9319 56.1122 27.4869 57.0814 27.8535C58.0505 28.2202 59.0827 28.3913 60.1184 28.357C61.7078 28.372 63.2824 28.0513 64.7393 27.4159C65.0186 27.3191 65.2498 27.1183 65.3847 26.8554C65.5197 26.5925 65.5481 26.2876 65.4639 26.0043C65.4183 25.8398 65.3375 25.6872 65.227 25.5571C65.1165 25.4271 64.9791 25.3226 64.8241 25.251C64.6692 25.1793 64.5006 25.1423 64.3299 25.1423C64.1592 25.1424 63.9906 25.1796 63.8358 25.2514C62.7183 25.7619 61.5068 26.0343 60.2784 26.0513C57.3797 26.0513 55.3845 24.4138 55.0739 21.8445H65.0781C65.264 21.8608 65.4512 21.8372 65.6272 21.7751C65.8032 21.7131 65.9639 21.6142 66.0985 21.4849C66.2331 21.3557 66.3385 21.1991 66.4076 21.0257C66.4767 20.8524 66.508 20.6662 66.4992 20.4799" fill="#1A73E8"/>
<path d="M80.1344 26.0695L75.7204 20.5639L80.0025 15.3124C80.1607 15.1116 80.261 14.8712 80.2926 14.6174C80.3242 14.3636 80.2859 14.106 80.1815 13.8725C80.0806 13.6639 79.9204 13.4894 79.7218 13.3706C79.5226 13.2519 79.2931 13.1941 79.0615 13.2043C78.8394 13.206 78.6214 13.2608 78.4248 13.3639C78.2283 13.4671 78.0593 13.6156 77.9321 13.7972L73.8008 19.0863L74.6758 20.2157C74.8205 20.4103 74.8986 20.6462 74.8986 20.8886C74.8986 21.1309 74.8205 21.3668 74.6758 21.5615L74.0357 22.3708L78.1583 27.6882C78.2821 27.8556 78.4443 27.9914 78.6301 28.0846C78.8165 28.1778 79.0225 28.2257 79.2312 28.2247C79.4721 28.2333 79.7104 28.1721 79.917 28.0486C80.1243 27.925 80.2913 27.7444 80.3976 27.5282C80.5033 27.2888 80.5376 27.0243 80.4972 26.7659C80.4575 26.5075 80.3444 26.2659 80.1721 26.0695" fill="#1A73E8"/>
<path d="M88.2929 28.3512C84.7445 28.3512 84.2928 25.8573 84.2928 23.6927V15.4673H83.3047C83.1587 15.4834 83.0113 15.4681 82.8713 15.4228C82.7319 15.3773 82.6034 15.3028 82.495 15.204C82.3867 15.1052 82.2998 14.9844 82.2419 14.8497C82.1834 14.715 82.1544 14.5694 82.1565 14.4227C82.1511 14.1634 82.246 13.9121 82.421 13.721C82.5967 13.5298 82.839 13.4138 83.0974 13.3969L84.2928 13.2745L84.4813 10.2347C84.5048 9.92932 84.6455 9.64488 84.873 9.44C85.1005 9.23505 85.3987 9.1254 85.7049 9.13355C85.8638 9.12782 86.0219 9.15562 86.1694 9.21526C86.3161 9.27489 86.4493 9.36495 86.5597 9.47957C86.6701 9.59413 86.7543 9.7307 86.8081 9.88026C86.8619 10.0299 86.8835 10.1891 86.8714 10.3476V13.2368H89.8174C89.9722 13.218 90.1291 13.2326 90.2778 13.2795C90.4266 13.3265 90.5639 13.4048 90.6796 13.5091C90.7954 13.6134 90.8876 13.7414 90.9502 13.8844C91.0121 14.0274 91.0431 14.182 91.0411 14.338C91.0424 14.4949 91.0115 14.6506 90.9495 14.7949C90.8876 14.939 90.7961 15.0686 90.6803 15.1751C90.5652 15.2816 90.4286 15.3627 90.2798 15.413C90.1311 15.4634 89.9736 15.4818 89.8174 15.4673H86.8714V23.768C86.8714 25.8102 87.4267 26.0361 88.6032 26.0361C88.8792 26.0356 89.1544 26.0008 89.4223 25.9326L89.6478 25.8856C89.7353 25.8758 89.8242 25.8758 89.9117 25.8856C90.0577 25.8802 90.2031 25.9051 90.3391 25.9587C90.475 26.0121 90.5982 26.093 90.7018 26.1963C90.8048 26.2996 90.8863 26.4231 90.9394 26.5591C90.9926 26.6951 91.0175 26.8407 91.0128 26.9866C91.0115 27.2209 90.9388 27.4493 90.8042 27.6411C90.6695 27.8328 90.4797 27.9789 90.2596 28.0595C89.6189 28.2837 88.9431 28.392 88.2646 28.3795" fill="#1A73E8"/>
<path d="M69.7837 27.7641C69.6686 27.9222 69.5164 28.0502 69.3414 28.137C69.1658 28.2238 68.9719 28.267 68.7767 28.2629C68.5539 28.2713 68.3338 28.2132 68.144 28.0958C67.9549 27.9785 67.8048 27.8072 67.7133 27.6041C67.619 27.3779 67.5935 27.1293 67.6386 26.8887C67.6837 26.648 67.7981 26.4258 67.967 26.2489L72.2491 20.9127C72.2538 20.9023 72.2559 20.8911 72.2559 20.8798C72.2559 20.8684 72.2538 20.8573 72.2491 20.8468L67.6379 15.2001C67.4843 15.0136 67.3855 14.7883 67.3523 14.549C67.319 14.3098 67.3527 14.0661 67.4495 13.8449C67.545 13.6419 67.6951 13.4693 67.8829 13.3463C68.0707 13.2234 68.2888 13.1549 68.5129 13.1484C68.731 13.154 68.9457 13.2073 69.1409 13.3049C69.3354 13.4025 69.507 13.5419 69.6423 13.7131L74.7146 20.2163C74.8593 20.4109 74.9374 20.6469 74.9374 20.8892C74.9374 21.1315 74.8593 21.3674 74.7146 21.5621L69.7837 27.7641Z" fill="#40B349"/>
<path d="M24.4755 22.0744L25.9249 23.4766C26.3514 22.6174 26.5675 21.669 26.5555 20.7097C26.5555 19.2845 25.9893 17.9177 24.9815 16.9099C23.9737 15.9021 22.6069 15.3359 21.1816 15.3359C19.7564 15.3359 18.3896 15.9021 17.3818 16.9099C16.374 17.9177 15.8078 19.2845 15.8078 20.7097C15.7704 21.4358 15.8824 22.1617 16.1371 22.8427C16.3918 23.5237 16.7837 24.145 17.2884 24.6683C17.7932 25.1915 18.4 25.6055 19.0713 25.8846C19.7427 26.1637 20.4641 26.3018 21.191 26.2906C22.1827 26.2976 23.1579 26.0375 24.0144 25.5377L22.518 24.0789C22.3876 23.9523 22.2834 23.8012 22.2115 23.6342C22.1395 23.4672 22.1011 23.2878 22.0985 23.106C22.0959 22.9243 22.129 22.7437 22.1962 22.5748C22.2633 22.4059 22.3631 22.2518 22.4898 22.1214C22.6165 21.991 22.7676 21.8869 22.9345 21.8149C23.1014 21.7429 23.281 21.7045 23.4627 21.7019C23.6445 21.6993 23.825 21.7325 23.9939 21.7996C24.1629 21.8667 24.3169 21.9665 24.4473 22.0932" fill="#1A73E8"/>
<path d="M26.2274 7.25267H23.9217V6.21742H26.2274V7.25267ZM26.2274 8.58907H23.9217V7.55381H26.2274V8.58907ZM26.2274 9.92546H23.9217V8.8902H26.2274V9.92546ZM26.2274 11.2618H23.9217V10.2266H26.2274V11.2618ZM23.0841 10.029H22.5853V5.85979H23.0841V10.029ZM22.2935 10.029H21.7853V5.85979H22.2747L22.2935 10.029ZM21.5124 10.029H21.023V5.85979H21.5124V10.029ZM15.0186 4.08105C14.9237 4.08105 14.8309 4.05291 14.752 4.00017C14.6731 3.94743 14.6116 3.87247 14.5752 3.78476C14.5389 3.69706 14.5294 3.60054 14.5479 3.50744C14.5665 3.41434 14.6122 3.32883 14.6793 3.2617C14.7464 3.19458 14.8319 3.14885 14.925 3.13033C15.0182 3.11181 15.1146 3.12132 15.2023 3.15764C15.29 3.19398 15.365 3.2555 15.4177 3.33442C15.4705 3.41335 15.4986 3.50617 15.4986 3.60109C15.4986 3.72839 15.4481 3.85048 15.3581 3.94049C15.268 4.0305 15.146 4.08105 15.0186 4.08105ZM15.0186 5.26687C14.8913 5.26687 14.7693 5.2163 14.6793 5.12629C14.5893 5.03628 14.5387 4.91419 14.5387 4.78689C14.5605 4.67819 14.6194 4.58042 14.7051 4.51017C14.7909 4.43991 14.8983 4.40152 15.0092 4.40152C15.1201 4.40152 15.2276 4.43991 15.3134 4.51017C15.3991 4.58042 15.4579 4.67819 15.4798 4.78689C15.4798 4.91419 15.4293 5.03628 15.3392 5.12629C15.2492 5.2163 15.1271 5.26687 14.9998 5.26687H15.0186ZM14.9998 6.4527C14.9373 6.45395 14.8751 6.4427 14.8168 6.41961C14.7587 6.39652 14.7057 6.36205 14.661 6.31822C14.6163 6.27441 14.5808 6.22211 14.5566 6.1644C14.5323 6.10668 14.5198 6.04473 14.5199 5.98214C14.5417 5.87343 14.6005 5.77564 14.6863 5.70538C14.7721 5.63513 14.8795 5.59673 14.9904 5.59673C15.1013 5.59673 15.2088 5.63513 15.2945 5.70538C15.3803 5.77564 15.4391 5.87343 15.461 5.98214C15.461 6.04473 15.4485 6.10668 15.4243 6.1644C15.4001 6.22211 15.3645 6.27441 15.3198 6.31822C15.2751 6.36205 15.2222 6.39652 15.1639 6.41961C15.1058 6.4427 15.0436 6.45395 14.981 6.4527H14.9998ZM14.981 7.6479C14.8861 7.6479 14.7933 7.61977 14.7143 7.56707C14.6354 7.5143 14.5739 7.43932 14.5376 7.35161C14.5012 7.26391 14.4917 7.16741 14.5103 7.0743C14.5288 6.98119 14.5745 6.89569 14.6416 6.82857C14.7087 6.76144 14.7943 6.71572 14.8874 6.69719C14.9805 6.67868 15.077 6.68818 15.1647 6.72451C15.2524 6.76084 15.3274 6.82235 15.3801 6.90128C15.4328 6.98022 15.461 7.073 15.461 7.16793C15.461 7.29521 15.4104 7.41731 15.3204 7.5073C15.2304 7.59735 15.1083 7.6479 14.981 7.6479ZM14.981 8.83373C14.8861 8.83373 14.7933 8.80559 14.7143 8.75282C14.6354 8.70006 14.5739 8.62514 14.5376 8.53744C14.5012 8.44974 14.4917 8.35322 14.5103 8.26013C14.5288 8.16705 14.5745 8.0815 14.6416 8.01439C14.7087 7.94722 14.7943 7.90152 14.8874 7.88301C14.9805 7.8645 15.077 7.87399 15.1647 7.91033C15.2524 7.94668 15.3274 8.0082 15.3801 8.08708C15.4328 8.16604 15.461 8.25885 15.461 8.35376C15.461 8.48104 15.4104 8.60313 15.3204 8.69312C15.2304 8.78318 15.1083 8.83373 14.981 8.83373ZM10.8495 27.1385C10.8495 27.473 10.7166 27.7938 10.4801 28.0303C10.2436 28.2668 9.92283 28.3997 9.58838 28.3997C9.25393 28.3997 8.93314 28.2668 8.69662 28.0303C8.4601 27.7938 8.3273 27.473 8.3273 27.1385V14.264C8.3273 13.9295 8.4601 13.6088 8.69662 13.3723C8.93314 13.1358 9.25393 13.0029 9.58838 13.0029C9.92283 13.0029 10.2436 13.1358 10.4801 13.3723C10.7166 13.6088 10.8495 13.9295 10.8495 14.264V27.1385ZM6.52031 8.00557H8.81663V8.82431H6.52031V8.00557ZM6.52031 6.75386H8.81663V7.57265H6.52031V6.75386ZM6.52031 5.50215H8.81663V6.31153H6.52031V5.50215ZM6.52031 4.24106H8.81663V5.05983H6.52031V4.24106ZM6.52031 2.98937H8.81663V3.80815H6.52031V2.98937ZM33.5494 15.9486H32.7212V16.7392H31.7236V7.93968H30.1802V12.4194H29.4555V5.30452H28.7779V4.01519H28.1191V6.24565L27.3097 6.32092V7.60085H26.7356V3.9305V2.63174H25.8698V4.35398H25.5498V3.41286H24.6087V4.35398H20.5148V6.7821H18.7643V4.61749H18.0773V6.61267H16.3833V5.67155L15.9598 5.60569V2.5282H12.3741V3.41286V7.6479H11.8377V3.15877L11.3295 3.08346V0.476562H10.8306V3.00819L10.3036 3.09288C10.3036 3.28111 10.3036 3.50699 10.3036 3.66698C10.1436 3.66698 9.98361 3.61993 9.80484 3.66698V9.12551H9.37192V2.53763H6.12503V7.59143H4.76983V5.18217H4.12045V7.52554H3.08521V12.2312H1.92762V15.4122H0.911223V14.4711H0.770062C0.723006 14.6217 0.666516 14.7816 0.628871 14.9416C-0.107979 18.4471 0.30749 22.097 1.81338 25.3473C3.31926 28.5976 5.83498 31.2742 8.9857 32.9787C12.1364 34.6831 15.7534 35.3239 19.2979 34.8058C22.8424 34.2876 26.1246 32.6382 28.6555 30.1031L26.1145 27.515C24.7021 28.5237 23.003 29.0515 21.2677 29.0208C16.5621 29.0208 13.2117 25.501 13.2117 20.6637C13.2117 15.8263 16.515 12.3629 21.2301 12.3629C25.9451 12.3629 29.2861 15.7886 29.2861 20.6919C29.3153 22.3739 28.8718 24.0303 28.0061 25.4728L30.4531 27.9667C31.7662 26.113 32.6913 24.0131 33.1729 21.793C33.5348 19.848 33.6831 17.8693 33.6153 15.8922" fill="#1A73E8"/>
</g>
</g>
<defs>
<clipPath id="clip0_960_5768">
<rect width="90.8654" height="35" fill="white" transform="translate(0.203125 0.5)"/>
</clipPath>
</defs>
</svg>
