<svg width="108" height="26" viewBox="0 0 108 26" fill="none" xmlns="http://www.w3.org/2000/svg">
<mask id="mask0_1848_9530" style="mask-type:luminance" maskUnits="userSpaceOnUse" x="2" y="1" width="104" height="25">
<path d="M105.102 1H2V25.62H105.102V1Z" fill="white"/>
</mask>
<g mask="url(#mask0_1848_9530)">
<path d="M33.0439 15.959C33.5976 16.9579 34.7205 17.6543 36.2188 17.6543C37.593 17.6543 38.6276 17.0649 38.6276 16.2087C38.6276 15.4053 37.9854 14.9415 36.3258 14.5135L34.7376 14.1025C32.4359 13.5146 31.2059 12.2831 31.2059 10.4451C31.2059 8.10779 33.1509 6.41406 36.1475 6.41406C38.4492 6.41406 40.3926 7.43155 41.2487 9.14386L38.9656 10.3754C38.4848 9.50062 37.3774 8.87708 36.1118 8.87708C34.8803 8.87708 34.0071 9.44787 34.0071 10.304C34.0071 11.0888 34.6306 11.4998 36.2902 11.9279L37.8768 12.339C40.1786 12.9625 41.4271 14.2126 41.4271 16.0846C41.4271 18.422 39.2681 20.1157 36.1832 20.1157C33.6147 20.1157 31.6526 18.9912 30.7422 17.1905L33.0439 15.959Z" fill="#0F0F0F"/>
<path d="M50.1016 19.5271C49.5477 19.8838 48.6202 20.1149 47.6927 20.1149C45.2839 20.1149 43.964 18.7407 43.964 16.1009V12.5894H41.9834V10.2164H43.964V7.68359H46.6752V10.2164H49.7433V12.5894H46.6752V16.0854C46.6752 17.1727 47.156 17.7093 48.1208 17.7093C48.6098 17.7235 49.0944 17.613 49.5289 17.3883L50.1016 19.5271Z" fill="#0F0F0F"/>
<path d="M55.929 9.96484C58.8726 9.96484 61.0846 12.1596 61.0846 15.0305C61.0846 17.9386 58.8726 20.1147 55.929 20.1147C52.9492 20.1147 50.7734 17.9386 50.7734 15.0305C50.7734 12.1409 52.9492 9.96484 55.929 9.96484ZM57.7654 13.1227C57.3016 12.6047 56.6949 12.355 55.9271 12.355C55.5807 12.3411 55.2357 12.4025 54.9156 12.535C54.5951 12.6676 54.3076 12.8681 54.0724 13.1227C53.8329 13.3779 53.6468 13.6781 53.5242 14.0059C53.4017 14.3336 53.3456 14.6824 53.3588 15.032C53.3357 15.7427 53.5916 16.4343 54.0724 16.9584C54.3076 17.213 54.5951 17.4135 54.9156 17.546C55.2357 17.6786 55.5807 17.7401 55.9271 17.7262C56.6949 17.7262 57.3016 17.4764 57.7654 16.9584C58.2466 16.4348 58.503 15.7429 58.4785 15.032C58.4922 14.6823 58.4361 14.3335 58.314 14.0057C58.1915 13.6779 58.0048 13.3777 57.7654 13.1227Z" fill="#0F0F0F"/>
<path d="M67.4544 9.96484C69.3096 9.96484 70.8976 10.804 71.8068 12.2123L69.5764 13.4609C69.3464 13.1103 69.0306 12.8246 68.6587 12.631C68.2873 12.4374 67.872 12.3423 67.453 12.355C67.1065 12.3411 66.7615 12.4025 66.441 12.535C66.121 12.6676 65.833 12.8681 65.5978 13.1227C65.3588 13.3779 65.1721 13.6781 65.0496 14.0059C64.9275 14.3336 64.871 14.6824 64.8846 15.032C64.8611 15.7427 65.1175 16.4343 65.5978 16.9584C65.833 17.213 66.121 17.4135 66.441 17.546C66.7615 17.6786 67.1065 17.7401 67.453 17.7262C67.872 17.7388 68.2873 17.6438 68.6587 17.4501C69.0306 17.2565 69.3464 16.9708 69.5764 16.6202L71.8068 17.8518C70.8962 19.2617 69.3096 20.1178 67.4544 20.1178C64.475 20.1178 62.2988 17.9417 62.2988 15.0335C62.2988 12.1409 64.475 9.96484 67.4544 9.96484Z" fill="#0F0F0F"/>
<path d="M79.5106 19.8653L75.8176 15.6559V19.8653H73.1064V6.43359H75.8176V14.3717L79.3324 10.215H82.4716L78.3506 15.0138L82.6856 19.8653H79.5106Z" fill="#0F0F0F"/>
<path d="M88.5619 15.8903H86.5997V19.8686H83.8174V6.66797H88.5619C92.0937 6.66797 94.1813 8.57725 94.1813 11.2884C94.1813 13.9639 92.0937 15.8903 88.5619 15.8903ZM88.5619 9.16511H86.5997V13.3932H88.5619C90.4525 13.3932 91.3985 12.6968 91.3985 11.2884C91.3985 9.88009 90.4525 9.16511 88.5619 9.16511Z" fill="#0F0F0F"/>
<path d="M97.6973 15.9409C98.0372 17.1709 99.0529 17.8145 100.408 17.8145C101.39 17.8145 102.299 17.3865 102.746 16.69L104.833 17.9929C103.994 19.2772 102.265 20.1147 100.41 20.1147C97.2519 20.1147 95.0762 17.9386 95.0762 15.0305C95.0762 12.1409 97.1807 9.96484 100.089 9.96484C102.961 9.96484 105.102 11.9269 105.102 14.8164C105.105 15.192 105.088 15.5674 105.049 15.9409H97.6973ZM102.478 14.1216C102.353 12.98 101.407 12.1952 100.104 12.1952C98.9629 12.1952 97.9999 12.8916 97.6959 14.1216H102.478Z" fill="#0F0F0F"/>
<path d="M2.5413 19.8599L2.70416 19.9545L12.4259 14.343C12.4588 14.3241 12.4861 14.2969 12.5051 14.264C12.524 14.2312 12.534 14.194 12.534 14.1561C12.534 14.1182 12.524 14.081 12.5051 14.0481C12.4861 14.0153 12.4588 13.9881 12.4259 13.9692L11.3433 13.3442L7.85354 11.3309C7.82064 11.312 7.79335 11.2848 7.77435 11.252C7.7554 11.2192 7.74541 11.1819 7.74541 11.144C7.74541 11.1061 7.7554 11.0689 7.77435 11.0361C7.79335 11.0033 7.82064 10.976 7.85354 10.9571L9.0509 10.2638L19.0953 4.46458L13.3456 1.14541C13.1814 1.05017 12.995 1 12.8051 1C12.6153 1 12.4288 1.05017 12.2646 1.14541L2.53975 6.76008C2.37547 6.8551 2.2391 6.99169 2.14435 7.15615C2.0496 7.3206 1.99982 7.50711 2 7.69687V18.9262C2.00016 19.1157 2.05028 19.3018 2.14532 19.4657C2.24036 19.6297 2.37694 19.7657 2.5413 19.8599Z" fill="url(#paint0_radial_1848_9530)"/>
<path d="M23.0711 6.75715L22.9083 6.66406L13.1881 12.2741C13.1552 12.293 13.1279 12.3202 13.1089 12.353C13.0899 12.3859 13.0799 12.423 13.0799 12.461C13.0799 12.4989 13.0899 12.5361 13.1089 12.5689C13.1279 12.6017 13.1552 12.629 13.1881 12.6479L14.2707 13.2729L17.7604 15.2893C17.7933 15.3082 17.8206 15.3354 17.8396 15.3682C17.8586 15.401 17.8686 15.4382 17.8686 15.4761C17.8686 15.5141 17.8586 15.5513 17.8396 15.5841C17.8206 15.6169 17.7933 15.6442 17.7604 15.6631L16.5631 16.3533L6.51562 22.1541L12.2637 25.4732C12.4279 25.5684 12.6143 25.6186 12.8042 25.6186C12.9941 25.6186 13.1805 25.5684 13.3447 25.4732L23.0696 19.8586C23.234 19.7636 23.3706 19.627 23.4656 19.4626C23.5607 19.2982 23.6107 19.1116 23.6109 18.9217V7.6924C23.6105 7.50291 23.5605 7.31687 23.4658 7.15275C23.3711 6.98863 23.235 6.85222 23.0711 6.75715Z" fill="url(#paint1_radial_1848_9530)"/>
</g>
<defs>
<radialGradient id="paint0_radial_1848_9530" cx="0" cy="0" r="1" gradientUnits="userSpaceOnUse" gradientTransform="translate(-0.435281 24.2383) scale(34.5995 34.592)">
<stop stop-color="#D89E2B"/>
<stop offset="0.996" stop-color="#FFD37F"/>
</radialGradient>
<radialGradient id="paint1_radial_1848_9530" cx="0" cy="0" r="1" gradientUnits="userSpaceOnUse" gradientTransform="translate(-0.451387 24.235) scale(34.5995 34.5921)">
<stop stop-color="#D89E2B"/>
<stop offset="0.996" stop-color="#FFD37F"/>
</radialGradient>
</defs>
</svg>
