<svg width="108" height="25" viewBox="0 0 108 25" fill="none" xmlns="http://www.w3.org/2000/svg">
<path d="M36.3092 18.0706C35.6501 17.7866 35.1411 17.3884 34.7834 16.8772C34.4253 16.3656 34.2461 15.7632 34.2461 15.0697V14.6436C34.2461 14.5868 34.2661 14.5388 34.3058 14.4987C34.3455 14.459 34.394 14.439 34.4507 14.439H35.9681C36.0248 14.439 36.0729 14.459 36.1129 14.4987C36.1527 14.5388 36.1723 14.5868 36.1723 14.6436V14.9672C36.1723 15.4902 36.4052 15.9251 36.8715 16.2718C37.3373 16.6186 37.9737 16.7917 38.7807 16.7917C39.4742 16.7917 39.9971 16.6439 40.3492 16.3482C40.7016 16.0529 40.8782 15.6725 40.8782 15.2062C40.8782 14.8878 40.7814 14.6182 40.5882 14.3963C40.3946 14.1743 40.1189 13.9731 39.7612 13.7909C39.4031 13.6094 38.8661 13.3813 38.15 13.1087C37.343 12.8134 36.6892 12.5355 36.1893 12.2734C35.6894 12.0125 35.2716 11.6574 34.9362 11.2078C34.6008 10.7594 34.4333 10.1997 34.4333 9.52854C34.4333 8.52875 34.797 7.73807 35.5242 7.15877C36.2517 6.57909 37.2235 6.28906 38.4396 6.28906C39.2923 6.28906 40.0448 6.43691 40.6986 6.73223C41.3524 7.02794 41.8606 7.43972 42.2244 7.96835C42.5881 8.49736 42.77 9.10843 42.77 9.80117V10.0912C42.77 10.1479 42.7499 10.1963 42.7102 10.236C42.6705 10.2761 42.6222 10.2958 42.5654 10.2958H41.0313C40.9746 10.2958 40.9262 10.2761 40.8865 10.236C40.8468 10.1963 40.8268 10.1479 40.8268 10.0912V9.90364C40.8268 9.36934 40.6078 8.91785 40.1707 8.54804C39.7328 8.17898 39.1278 7.99406 38.3549 7.99406C37.7295 7.99406 37.2439 8.1249 36.8972 8.38582C36.5504 8.64786 36.3773 9.01692 36.3773 9.49413C36.3773 9.83558 36.4684 10.1139 36.6499 10.3294C36.8314 10.5457 37.1044 10.7416 37.4682 10.9182C37.8319 11.0944 38.3946 11.3186 39.1562 11.5916C39.9631 11.8983 40.6082 12.1774 41.0915 12.4269C41.5743 12.6773 41.9891 13.0263 42.3359 13.4755C42.6826 13.9247 42.8558 14.4844 42.8558 15.1548C42.8558 16.1776 42.4777 16.9906 41.7222 17.593C40.9663 18.1958 39.9347 18.4964 38.6279 18.4964C37.7416 18.4964 36.9683 18.3546 36.3092 18.0706Z" fill="#212121"/>
<path d="M46.4025 18.1915L43.9643 9.87142L43.9473 9.80335C43.9473 9.68991 44.01 9.63281 44.1348 9.63281H45.7547C45.8795 9.63281 45.9593 9.68953 45.9933 9.80335L47.4087 15.4981C47.4201 15.5317 47.4371 15.5491 47.4598 15.5491C47.4828 15.5491 47.4998 15.5321 47.5112 15.4981L48.9946 9.80335C49.029 9.68991 49.108 9.63281 49.2332 9.63281H50.6486C50.7734 9.63281 50.8531 9.68953 50.8875 9.80335L52.4046 15.4981C52.416 15.5317 52.433 15.5491 52.456 15.5491C52.4787 15.5491 52.4958 15.5321 52.5071 15.4981L54.0245 9.80335C54.0582 9.68991 54.1376 9.63281 54.2631 9.63281L55.8661 9.66723C55.9341 9.66723 55.9825 9.68688 56.0109 9.72659C56.0389 9.76667 56.0476 9.82075 56.0362 9.88881L53.581 18.1919C53.5473 18.3053 53.4732 18.3624 53.3598 18.3624H51.7228C51.5981 18.3624 51.5186 18.3057 51.4842 18.1919L49.9838 12.9918C49.9725 12.9574 49.9554 12.9404 49.9328 12.9404C49.9097 12.9404 49.8927 12.9574 49.8813 12.9918L48.5004 18.1919C48.4667 18.3053 48.3869 18.3624 48.2618 18.3624H46.6418C46.5159 18.3617 46.4369 18.3049 46.4025 18.1915Z" fill="#212121"/>
<path d="M62.309 9.88682C62.8547 10.1371 63.2752 10.4809 63.5709 10.9188C63.8662 11.3559 64.0141 11.8535 64.0141 12.4105V18.1559C64.0141 18.2126 63.994 18.261 63.9543 18.3007C63.9142 18.3404 63.8662 18.3604 63.8095 18.3604H62.241C62.1843 18.3604 62.1358 18.3404 62.0961 18.3007C62.0561 18.261 62.0364 18.2126 62.0364 18.1559V17.6102C62.0364 17.5758 62.0251 17.5565 62.0028 17.5505C61.9797 17.5452 61.9574 17.5535 61.9343 17.5758C61.3777 18.1899 60.5704 18.4966 59.5131 18.4966C58.6612 18.4966 57.959 18.281 57.408 17.8488C56.8567 17.417 56.5811 16.7749 56.5811 15.9222C56.5811 15.0359 56.8904 14.3454 57.5105 13.8508C58.1295 13.3562 59.0022 13.1089 60.1276 13.1089H61.9517C62.0084 13.1089 62.0368 13.0809 62.0368 13.0238V12.6151C62.0368 12.1719 61.9059 11.8282 61.6447 11.5831C61.383 11.3392 60.9909 11.2167 60.4683 11.2167C60.0365 11.2167 59.6867 11.2935 59.4197 11.447C59.1524 11.6002 58.9849 11.8134 58.9168 12.0861C58.8824 12.2226 58.8034 12.2797 58.6778 12.257L57.0242 12.0524C56.9675 12.0411 56.9191 12.021 56.8794 11.9927C56.8397 11.9643 56.8257 11.9276 56.8367 11.8819C56.9278 11.1884 57.2999 10.62 57.9537 10.1769C58.6071 9.73369 59.428 9.51172 60.4172 9.51172C61.1327 9.51172 61.7634 9.63726 62.309 9.88682ZM61.4397 16.4849C61.8375 16.1896 62.036 15.8145 62.036 15.3596V14.5583C62.036 14.5016 62.0077 14.4732 61.9509 14.4732H60.5189C59.9162 14.4732 59.4416 14.5867 59.0949 14.8139C58.7481 15.0416 58.5753 15.3652 58.5753 15.7861C58.5753 16.1499 58.7084 16.4312 58.9758 16.6297C59.2427 16.8286 59.5865 16.9281 60.007 16.9281C60.5643 16.9281 61.0415 16.7806 61.4397 16.4849Z" fill="#212121"/>
<path d="M71.3014 9.70873C71.3411 9.66902 71.3892 9.64898 71.4463 9.64898H73.0148C73.0715 9.64898 73.1195 9.66902 73.1596 9.70873C73.1993 9.74843 73.2193 9.79683 73.2193 9.85355V17.7811C73.2193 19.2018 72.8128 20.2163 71.9999 20.8244C71.1876 21.432 70.122 21.736 68.8031 21.736C68.4511 21.736 68.1043 21.7194 67.7636 21.685C67.6381 21.6733 67.576 21.5999 67.576 21.463L67.6271 20.0651C67.6271 19.9403 67.7065 19.8775 67.8657 19.8775C68.1954 19.9119 68.4911 19.9289 68.7524 19.9289C69.6051 19.9289 70.2328 19.761 70.6363 19.426C71.0398 19.0906 71.2417 18.5249 71.2417 17.7297V17.5932C71.2417 17.5588 71.2303 17.5395 71.2073 17.5335C71.1846 17.5282 71.1619 17.5365 71.1392 17.5588C70.673 18.0591 70.0139 18.309 69.1612 18.309C68.4223 18.309 67.7466 18.1215 67.1325 17.7463C66.5188 17.3712 66.093 16.798 65.854 16.0247C65.7062 15.4904 65.6328 14.8029 65.6328 13.9616C65.6328 13.0185 65.7236 12.2967 65.9055 11.7968C66.1327 11.1033 66.5245 10.5497 67.0818 10.1341C67.6384 9.71931 68.2922 9.51172 69.0425 9.51172C69.9402 9.51172 70.6389 9.77339 71.1392 10.2963C71.1619 10.33 71.1846 10.3417 71.2073 10.33C71.2303 10.3194 71.2417 10.2964 71.2417 10.2619V9.85318C71.2417 9.79683 71.261 9.74843 71.3014 9.70873ZM71.216 14.9084C71.233 14.7096 71.2413 14.3885 71.2413 13.9446C71.2413 13.5131 71.233 13.2031 71.216 13.0155C71.199 12.828 71.1615 12.6434 71.1048 12.4612C71.0137 12.0861 70.8291 11.7854 70.5508 11.5578C70.2721 11.3305 69.9171 11.2171 69.4853 11.2171C69.0757 11.2171 68.7294 11.3305 68.445 11.5578C68.161 11.7854 67.9565 12.0861 67.8313 12.4612C67.6948 12.7796 67.6267 13.2798 67.6267 13.9616C67.6267 14.6668 67.6834 15.1607 67.7973 15.445C67.9107 15.8088 68.1187 16.1075 68.4197 16.3401C68.7207 16.573 69.0818 16.6898 69.5023 16.6898C69.9454 16.6898 70.3035 16.5764 70.5762 16.3484C70.8488 16.1211 71.0307 15.8258 71.1218 15.462C71.1676 15.2919 71.199 15.1073 71.216 14.9084Z" fill="#212121"/>
<path d="M82.5967 13.9794L82.5797 14.5076C82.5797 14.6441 82.5113 14.7122 82.3751 14.7122H77.0389C76.9814 14.7122 76.9531 14.7406 76.9531 14.7973C76.9875 15.1724 77.0389 15.428 77.107 15.5645C77.3796 16.3828 78.0447 16.798 79.1016 16.809C79.8745 16.809 80.4882 16.4913 80.9428 15.8545C80.9881 15.7865 81.0452 15.7521 81.1137 15.7521C81.1587 15.7521 81.1988 15.7691 81.2328 15.8031L82.29 16.6728C82.3925 16.7526 82.4095 16.8434 82.3411 16.9455C81.9891 17.4461 81.5198 17.8318 80.9348 18.1052C80.3491 18.3778 79.6987 18.514 78.9829 18.514C78.0962 18.514 77.3429 18.3151 76.7235 17.9176C76.1041 17.5195 75.6523 16.9629 75.3687 16.2467C75.1066 15.6326 74.9766 14.7799 74.9766 13.689C74.9766 13.0299 75.0446 12.4956 75.1811 12.0861C75.4084 11.2908 75.8372 10.6624 76.4679 10.2022C77.0987 9.742 77.8576 9.51172 78.7439 9.51172C80.9828 9.51172 82.2447 10.6824 82.5287 13.0238C82.5736 13.3093 82.5967 13.6273 82.5967 13.9794ZM77.695 11.5332C77.4163 11.7438 77.2204 12.0361 77.107 12.4112C77.0389 12.6049 76.9935 12.8544 76.9705 13.1615C76.9474 13.2182 76.9705 13.2466 77.0389 13.2466H80.4996C80.5563 13.2466 80.5847 13.2182 80.5847 13.1615C80.5616 12.8775 80.528 12.6616 80.4822 12.5137C80.3797 12.1042 80.1782 11.7866 79.8768 11.5589C79.5758 11.3317 79.1977 11.2182 78.7432 11.2182C78.3227 11.2179 77.9733 11.323 77.695 11.5332Z" fill="#93969B"/>
<path d="M89.4497 9.88682C89.9953 10.1371 90.4158 10.4809 90.7115 10.9188C91.0068 11.3559 91.1547 11.8535 91.1547 12.4105V18.1559C91.1547 18.2126 91.1346 18.261 91.0949 18.3007C91.0548 18.3404 91.0068 18.3604 90.9501 18.3604H89.3816C89.3249 18.3604 89.2765 18.3404 89.2368 18.3007C89.1967 18.261 89.177 18.2126 89.177 18.1559V17.6102C89.177 17.5758 89.1657 17.5565 89.1434 17.5505C89.1203 17.5452 89.098 17.5535 89.0749 17.5758C88.5183 18.1899 87.711 18.4966 86.6537 18.4966C85.8018 18.4966 85.0996 18.281 84.5487 17.8488C83.9973 17.417 83.7217 16.7749 83.7217 15.9222C83.7217 15.0359 84.031 14.3454 84.6511 13.8508C85.2701 13.3562 86.1429 13.1089 87.2682 13.1089H89.0923C89.1491 13.1089 89.1774 13.0809 89.1774 13.0238V12.6151C89.1774 12.1719 89.0466 11.8282 88.7853 11.5831C88.5236 11.3392 88.1315 11.2167 87.6089 11.2167C87.1771 11.2167 86.8273 11.2935 86.5603 11.447C86.293 11.6002 86.1255 11.8134 86.0574 12.0861C86.023 12.2226 85.944 12.2797 85.8184 12.257L84.1649 12.0524C84.1081 12.0411 84.0597 12.021 84.02 11.9927C83.9803 11.9643 83.9663 11.9276 83.9773 11.8819C84.0684 11.1884 84.4405 10.62 85.0943 10.1769C85.7477 9.73369 86.5687 9.51172 87.5579 9.51172C88.2733 9.51172 88.904 9.63726 89.4497 9.88682ZM88.5803 16.4849C88.9781 16.1896 89.1767 15.8145 89.1767 15.3596V14.5583C89.1767 14.5016 89.1483 14.4732 89.0916 14.4732H87.6596C87.0568 14.4732 86.5823 14.5867 86.2355 14.8139C85.8888 15.0416 85.716 15.3652 85.716 15.7861C85.716 16.1499 85.8491 16.4312 86.1164 16.6297C86.3834 16.8286 86.7271 16.9281 87.1476 16.9281C87.7049 16.9281 88.1822 16.7806 88.5803 16.4849Z" fill="#93969B"/>
<path d="M92.5275 18.3005C92.4874 18.2608 92.4678 18.2124 92.4678 18.1557V16.7067C92.4678 16.6042 92.4961 16.5252 92.5529 16.4677L96.7471 11.5406C96.8038 11.4726 96.7868 11.4381 96.6957 11.4381H92.7578C92.7003 11.4381 92.6527 11.4185 92.613 11.3788C92.5729 11.3391 92.5532 11.2907 92.5532 11.234V9.85301C92.5532 9.79629 92.5729 9.74789 92.613 9.70819C92.6527 9.66848 92.7007 9.64844 92.7578 9.64844H98.9637C99.0205 9.64844 99.0685 9.66848 99.1086 9.70819C99.1483 9.74789 99.1683 9.79629 99.1683 9.85301V11.302C99.1683 11.3932 99.1339 11.4726 99.0658 11.5406L94.7865 16.4677C94.7411 16.5358 94.7581 16.5702 94.8375 16.5702H99.0144C99.0711 16.5702 99.1195 16.5902 99.1592 16.6299C99.1989 16.67 99.219 16.718 99.219 16.7748V18.1557C99.219 18.2124 99.1989 18.2608 99.1592 18.3005C99.1195 18.3402 99.0711 18.3603 99.0144 18.3603H92.6723C92.6152 18.3603 92.5672 18.3402 92.5275 18.3005Z" fill="#93969B"/>
<path d="M100.463 21.6942C100.44 21.6545 100.429 21.6061 100.429 21.5493V20.3223C100.429 20.2648 100.449 20.2172 100.489 20.1775C100.528 20.1374 100.577 20.1177 100.634 20.1177H100.65C101.116 20.106 101.48 20.058 101.742 19.9729C102.003 19.8878 102.219 19.7256 102.39 19.487C102.56 19.248 102.713 18.8899 102.85 18.4127C102.86 18.3896 102.86 18.356 102.85 18.3102L100.037 9.87104C100.025 9.84835 100.02 9.81999 100.02 9.78596C100.02 9.68348 100.076 9.63281 100.19 9.63281H101.861C101.986 9.63281 102.066 9.68953 102.1 9.80335L103.805 15.8043C103.816 15.8388 103.833 15.8558 103.856 15.8558C103.879 15.8558 103.896 15.8388 103.907 15.8043L105.612 9.80335C105.646 9.68991 105.726 9.63281 105.851 9.63281H107.471C107.539 9.63281 107.587 9.65286 107.615 9.69256C107.643 9.73226 107.647 9.79201 107.624 9.87142L104.623 18.8396C104.339 19.6462 104.061 20.2486 103.788 20.6467C103.515 21.0445 103.143 21.3289 102.671 21.4994C102.199 21.67 101.532 21.755 100.668 21.755H100.548C100.514 21.7539 100.486 21.7339 100.463 21.6942Z" fill="#93969B"/>
<path d="M10.199 24.2806L2.38714 18.0539C1.84224 17.6194 1.46789 17.0072 1.3295 16.3239L0.0309791 9.90433C-0.217077 8.67804 1.07274 7.71494 2.17803 8.30142L10.9046 12.9321C11.8734 13.4459 12.4792 14.4533 12.4792 15.5499V23.0324C12.4792 24.2027 11.1852 24.9114 10.199 24.2806Z" fill="#D7458F"/>
<path d="M12.2401 11.5202L2.63098 6.80637C1.44439 6.22442 1.55595 4.49748 2.80757 4.07283L11.4196 1.15099C13.311 0.509294 15.3669 0.546352 17.2338 1.25573L24.4913 4.01347C25.7028 4.47404 25.7811 6.15824 24.6176 6.72885L14.8504 11.5202C14.0276 11.924 13.0637 11.924 12.2401 11.5202Z" fill="#52E6CA"/>
<path d="M16.8924 24.2806L24.7043 18.0539C25.2492 17.6194 25.6236 17.0072 25.762 16.3239L27.0605 9.90433C27.3085 8.67804 26.0187 7.71494 24.9134 8.30142L16.1869 12.9321C15.2181 13.4459 14.6123 14.4533 14.6123 15.5499V23.0324C14.6127 24.2027 15.9063 24.9114 16.8924 24.2806Z" fill="#7567F8"/>
</svg>
