<svg width="112" height="113" viewBox="0 0 112 113" fill="none" xmlns="http://www.w3.org/2000/svg">
<path d="M72.3633 30.3447C53.0085 30.6399 27.7045 32.4867 26.1177 33.8018C22.9009 36.468 24.4336 80.9981 26.2895 81.721C31.285 83.6719 90.6519 83.5337 94.2195 80.2412C94.3758 80.0955 95.8796 34.2068 94.3698 31.9342C93.4516 30.551 83.9762 30.1687 72.3633 30.3447ZM34.0401 35.2191H87.4137C89.6976 35.2191 91.5357 37.1171 91.5357 39.4483V67.1431C91.5357 69.4763 89.6976 71.3742 87.4137 71.3742H34.0401C31.7562 71.3742 29.8965 69.4763 29.8965 67.1431V39.4483C29.8965 37.1171 31.7562 35.2191 34.0401 35.2191Z" fill="#DDDDDD"/>
<path d="M16 70.5594C16 70.5594 25.7789 71.5622 25.8319 69.5527C25.8851 67.5431 26.4745 35.216 26.6475 33.9899C26.8204 32.7618 93.4811 31.7797 94.3638 32.8015C95.2467 33.8215 95.2486 80.0357 93.4811 80.3725C91.3544 80.7774 28.3777 82.4388 27.2596 81.54C26.1413 80.6412 26.2607 73.2501 27.115 72.2378C27.9692 71.2254 90.2257 70.7788 90.7854 70.3266C91.3449 69.8762 91.6971 38.6334 91.4112 36.7753C91.1252 34.919 31.1268 36.1338 30.4495 37.4678C29.7725 38.8019 29.7473 60.8162 30.5672 61.2722C31.2749 61.6658 52.7161 60.9581 53.6908 60.555C54.6653 60.152 74.9698 40.8057 74.5681 39.5682C74.1416 38.255 35.1917 39.9958 34.4513 40.4348" stroke="#414141" stroke-width="2" stroke-miterlimit="10"/>
<path d="M38.8481 54.6679C41.3528 54.6679 43.5092 53.2071 43.5092 50.7036C43.5092 45.7365 37.5848 46.9778 37.5848 44.9967C37.5848 44.4309 38.0204 44.1678 38.543 44.1678C39.1964 44.1678 39.9153 44.5614 40.6122 45.3013L42.7903 43.1895C41.7666 41.9899 40.2201 41.25 38.5865 41.25C36.5174 41.25 34.2304 42.4478 34.2304 45.2369C34.2304 49.767 40.1766 48.677 40.1766 50.6601C40.1766 51.1824 39.741 51.5533 38.8916 51.5533C37.7589 51.5533 36.8442 50.9421 36.3868 49.9619L33.6641 51.6611C34.5354 53.3169 36.4521 54.6679 38.8481 54.6679Z" fill="#EF4B6E"/>
<path d="M51.5878 54.4955H55.16L50.4334 41.4258H46.7089L41.9824 54.4955H45.5764L46.295 52.2078H50.8691L51.5878 54.4955ZM47.1445 49.5075L48.582 44.8886L50.0415 49.5075H47.1445Z" fill="#EF4B6E"/>
<path d="M60.1904 41.4258H54.375V54.4955H57.7074V49.377H60.1904C62.4556 49.377 64.1982 47.7212 64.1982 45.4562C64.1982 43.2347 62.4556 41.4258 60.1904 41.4258ZM59.646 46.6748H57.7074V44.3228H59.646C60.43 44.3228 60.9963 44.8015 60.9963 45.4771C60.9963 46.1734 60.43 46.6748 59.646 46.6748Z" fill="#EF4B6E"/>
</svg>
