<svg width="112" height="113" viewBox="0 0 112 113" fill="none" xmlns="http://www.w3.org/2000/svg">
<path d="M59.6227 28.2327L26.2055 34.309C25.9696 34.3522 25.7567 34.4776 25.6046 34.6631C25.4525 34.8485 25.3712 35.0819 25.3751 35.3217V81.9065C25.3712 82.1463 25.4525 82.3797 25.6046 82.5652C25.7567 82.7506 25.9696 82.8761 26.2055 82.9192L59.6227 88.9955C59.6834 89.0005 59.7444 89.0005 59.805 88.9955C60.0736 88.9955 60.3312 88.8888 60.5211 88.6989C60.711 88.509 60.8177 88.2514 60.8177 87.9828V29.2455C60.8179 29.0967 60.7854 28.9497 60.7224 28.8149C60.6594 28.6801 60.5674 28.5609 60.4531 28.4657C60.3404 28.3681 60.2075 28.2966 60.064 28.2564C59.9204 28.2161 59.7698 28.208 59.6227 28.2327Z" fill="#F25D7D"/>
<path d="M57.6405 24.0146L22.8643 30.3379C22.6188 30.3828 22.3972 30.5134 22.2389 30.7064C22.0807 30.8994 21.9961 31.1423 22.0001 31.3918V79.8711C21.9961 80.1207 22.0807 80.3635 22.2389 80.5565C22.3972 80.7495 22.6188 80.8801 22.8643 80.925L57.6405 87.2484C57.7036 87.2536 57.7671 87.2536 57.8302 87.2484C58.1097 87.2484 58.3777 87.1373 58.5754 86.9397C58.773 86.7421 58.884 86.474 58.884 86.1945V25.0685C58.8843 24.9136 58.8504 24.7606 58.7848 24.6204C58.7193 24.4801 58.6236 24.356 58.5046 24.257C58.3873 24.1554 58.249 24.0811 58.0997 24.0392C57.9503 23.9973 57.7935 23.9889 57.6405 24.0146ZM56.7764 84.9298L24.1078 78.9911V32.2718L56.7764 26.3331V84.9298Z" fill="#414141"/>
<path d="M83.6024 61.9751C82.4341 61.9751 81.292 61.6286 80.3206 60.9795C79.3492 60.3304 78.592 59.4077 78.145 58.3283C77.6979 57.2488 77.5809 56.0611 77.8088 54.9151C78.0367 53.7692 78.5993 52.7166 79.4254 51.8904C80.2516 51.0642 81.3041 50.5016 82.45 50.2737C83.5958 50.0457 84.7835 50.1627 85.8629 50.6098C86.9423 51.057 87.8648 51.8141 88.5139 52.7856C89.163 53.7571 89.5094 54.8992 89.5094 56.0676C89.5094 57.6344 88.8871 59.1369 87.7793 60.2448C86.6715 61.3527 85.169 61.9751 83.6024 61.9751Z" fill="#CDCDCD"/>
<path d="M82.5946 48.7811C81.7115 48.7893 80.8384 48.9682 80.0233 49.308C78.4892 46.0131 75.9111 43.3163 72.6887 41.6356C72.966 40.8867 73.1087 40.0946 73.1102 39.296C73.1095 37.9242 72.6969 36.5842 71.926 35.4495C71.1551 34.3149 70.0613 33.4378 68.7862 32.932C67.5112 32.4261 66.1136 32.3148 64.7745 32.6123C63.4355 32.9099 62.2166 33.6026 61.2757 34.6009C61.0836 34.8049 60.9804 35.077 60.9888 35.3571C60.9972 35.6373 61.1165 35.9026 61.3205 36.0948C61.5246 36.2869 61.7966 36.3902 62.0767 36.3818C62.3568 36.3734 62.6222 36.254 62.8143 36.05C63.2543 35.5762 63.7877 35.1987 64.3807 34.9411C64.9738 34.6835 65.6138 34.5516 66.2603 34.5535C67.518 34.5535 68.7242 35.0531 69.6136 35.9425C70.5029 36.8319 71.0025 38.0382 71.0025 39.296C71.0025 40.5538 70.5029 41.7601 69.6136 42.6495C68.7242 43.5389 67.518 44.0385 66.2603 44.0385C65.6138 44.0404 64.9738 43.9085 64.3807 43.6509C63.7877 43.3933 63.2543 43.0158 62.8143 42.542C62.6222 42.338 62.3568 42.2186 62.0767 42.2102C61.7966 42.2018 61.5246 42.305 61.3205 42.4972C61.1165 42.6894 60.9972 42.9547 60.9888 43.2349C60.9804 43.515 61.0836 43.7871 61.2757 43.9911C61.956 44.7092 62.7837 45.2714 63.702 45.6391C64.6202 46.0069 65.6072 46.1713 66.595 46.1213C67.5829 46.0712 68.5482 45.8078 69.4245 45.3491C70.3009 44.8904 71.0675 44.2474 71.6717 43.4642C74.5677 44.9574 76.8712 47.3892 78.2054 50.3619C77.4112 51.0278 76.7785 51.8652 76.3549 52.8111C75.9312 53.757 75.7277 54.7867 75.7597 55.8226C75.7916 56.8586 76.0582 57.8738 76.5394 58.7918C77.0205 59.7097 77.7037 60.5065 78.5374 61.1222C77.3594 64.2571 75.1227 66.8815 72.2144 68.5416C71.6817 67.6158 70.9398 66.8275 70.048 66.2395C69.1563 65.6515 68.1395 65.2802 67.0787 65.1553C66.0179 65.0304 64.9426 65.1553 63.9387 65.52C62.9348 65.8847 62.0301 66.4792 61.2968 67.2559C61.1047 67.4599 61.0014 67.7319 61.0098 68.0121C61.0182 68.2923 61.1376 68.5576 61.3416 68.7498C61.5456 68.9419 61.8176 69.0452 62.0978 69.0368C62.3779 69.0284 62.6432 68.909 62.8354 68.705C63.2744 68.2367 63.8049 67.8636 64.3941 67.6089C64.9832 67.3541 65.6185 67.2232 66.2603 67.2243C67.518 67.2243 68.7242 67.7239 69.6136 68.6133C70.5029 69.5027 71.0025 70.709 71.0025 71.9668C71.0025 73.2246 70.5029 74.4309 69.6136 75.3203C68.7242 76.2097 67.518 76.7093 66.2603 76.7093C65.6138 76.7112 64.9738 76.5793 64.3807 76.3217C63.7877 76.0641 63.2543 75.6866 62.8143 75.2128C62.6222 75.0088 62.3568 74.8894 62.0767 74.881C61.7966 74.8726 61.5246 74.9758 61.3205 75.168C61.1165 75.3602 60.9972 75.6255 60.9888 75.9057C60.9804 76.1859 61.0836 76.4579 61.2757 76.6619C62.3014 77.7489 63.6543 78.4707 65.1283 78.7171C66.6023 78.9636 68.1165 78.7212 69.4399 78.0269C70.7633 77.3326 71.8233 76.2245 72.4584 74.8716C73.0935 73.5187 73.2687 71.9953 72.9574 70.5335C76.3563 68.6868 78.996 65.7017 80.4132 62.1023C81.3567 62.43 82.3603 62.5473 83.3539 62.4462C84.3475 62.3451 85.307 62.0278 86.1651 61.5168C87.0232 61.0058 87.7591 60.3132 88.3214 59.4878C88.8837 58.6623 89.2587 57.7239 89.4201 56.7382C89.5815 55.7525 89.5254 54.7435 89.2558 53.7818C88.9862 52.8201 88.5096 51.9289 87.8593 51.1709C87.209 50.4128 86.4009 49.8061 85.4914 49.3933C84.582 48.9804 83.5933 48.7715 82.5946 48.7811ZM82.5946 60.3739C81.6567 60.3739 80.7398 60.0958 79.96 59.5747C79.1801 59.0536 78.5723 58.3129 78.2134 57.4463C77.8545 56.5797 77.7605 55.6261 77.9435 54.7062C78.1265 53.7862 78.5782 52.9412 79.2414 52.2779C79.9046 51.6147 80.7496 51.163 81.6695 50.98C82.5894 50.797 83.5429 50.8909 84.4094 51.2499C85.2759 51.6088 86.0165 52.2167 86.5376 52.9966C87.0587 53.7765 87.3368 54.6934 87.3368 55.6314C87.3368 56.8892 86.8372 58.0955 85.9479 58.9849C85.0585 59.8743 83.8523 60.3739 82.5946 60.3739Z" fill="#414141"/>
<path d="M38.3344 65.6407C37.477 65.6095 36.6429 65.3533 35.9159 64.8977C35.7143 64.725 35.455 64.6348 35.1898 64.6451C34.9245 64.6553 34.673 64.7653 34.4853 64.953C34.2976 65.1406 34.1876 65.3923 34.1774 65.6575C34.1672 65.9227 34.2574 66.1821 34.43 66.3837C35.2309 67.1899 37.1331 67.7485 38.3344 67.7485C42.2389 67.7485 45.1843 65.0294 45.1843 61.4251C45.1843 57.9525 42.5497 56.2505 40.2261 54.7434C38.0815 53.3575 36.2268 52.1561 36.2268 49.8322C36.2211 49.3463 36.3127 48.8641 36.496 48.414C36.6794 47.9639 36.9509 47.555 37.2945 47.2114C37.6381 46.8677 38.047 46.5962 38.497 46.4129C38.9471 46.2295 39.4292 46.1379 39.9152 46.1436C40.4687 46.1298 41.0187 46.2362 41.5272 46.4554C42.0357 46.6747 42.4906 47.0015 42.8606 47.4135C43.0622 47.5862 43.3215 47.6764 43.5868 47.6662C43.852 47.6559 44.1036 47.546 44.2913 47.3583C44.4789 47.1706 44.5889 46.919 44.5991 46.6537C44.6094 46.3885 44.5192 46.1292 44.3465 45.9275C43.7813 45.3198 43.0948 44.8374 42.3315 44.5116C41.5682 44.1857 40.745 44.0236 39.9152 44.0358C38.378 44.0358 36.9037 44.6465 35.8168 45.7335C34.7298 46.8206 34.1191 48.2949 34.1191 49.8322C34.1191 53.3048 36.7537 55.0069 39.0774 56.5139C41.2219 57.8998 43.0767 59.1013 43.0767 61.4251C43.0767 64.1916 40.6897 65.6407 38.3344 65.6407Z" fill="white"/>
</svg>
