<svg width="117" height="34" viewBox="0 0 117 34" fill="none" xmlns="http://www.w3.org/2000/svg">
<path d="M34 16.9979C34.0004 20.3603 33.0037 23.6474 31.1359 26.4434C29.2681 29.2393 26.613 31.4186 23.5066 32.7055C20.4002 33.9925 16.9819 34.3293 13.684 33.6734C10.3861 33.0176 7.35681 31.3984 4.97919 29.0208C2.60157 26.6432 0.982434 23.6139 0.326554 20.316C-0.329327 17.0181 0.00750956 13.5998 1.29446 10.4934C2.58142 7.38697 4.76068 4.73195 7.55664 2.86413C10.3526 0.996306 13.6397 -0.000421994 17.0021 1.34027e-07C21.5102 1.34027e-07 25.8337 1.79084 29.0214 4.97856C32.2092 8.16628 34 12.4897 34 16.9979Z" fill="#0F535D"/>
<path fill-rule="evenodd" clip-rule="evenodd" d="M19.4668 14.0003C19.4817 15.537 18.8926 16.9222 17.8532 18.158C17.4477 18.6403 17.151 18.6275 16.7114 18.2028C15.762 17.2687 15.1233 16.0649 14.8824 14.755C14.6414 13.4451 14.8098 12.0928 15.3646 10.882C15.6707 10.2433 16.0699 9.65347 16.5491 9.13187C16.8394 8.80958 17.0422 8.7797 17.373 9.10412C18.7326 10.4253 19.4924 11.9919 19.4668 14.0003Z" fill="#FCA515"/>
<path fill-rule="evenodd" clip-rule="evenodd" d="M24.2625 22.9875C23.2764 24.1678 21.9297 24.8401 20.3374 25.1069C19.7142 25.2115 19.4986 25.0087 19.4389 24.4004C19.3225 23.0736 19.6173 21.743 20.2832 20.5895C20.9491 19.436 21.9539 18.5153 23.1612 17.9526C23.8077 17.6655 24.4931 17.4756 25.1952 17.3891C25.6221 17.3315 25.7992 17.4403 25.8355 17.9014C26.0212 19.786 25.5836 21.4764 24.2625 22.9875Z" fill="#FCA515"/>
<path fill-rule="evenodd" clip-rule="evenodd" d="M10.025 22.9875C11.0089 24.1678 12.3557 24.8401 13.9479 25.1069C14.5711 25.2115 14.7846 25.0087 14.8465 24.4004C14.9628 23.0736 14.6681 21.743 14.0021 20.5895C13.3362 19.436 12.3314 18.5153 11.1242 17.9526C10.4777 17.6655 9.79223 17.4756 9.09014 17.3891C8.66328 17.3315 8.48613 17.4403 8.44984 17.9014C8.26416 19.786 8.7017 21.4764 10.025 22.9875Z" fill="#FCA515"/>
<path d="M46.76 8.6233C46.5171 8.30759 46.2095 8.06473 45.8371 7.89473C45.4647 7.72473 45.0802 7.63973 44.6835 7.63973C44.1978 7.63973 43.7566 7.73283 43.36 7.91902C42.9714 8.09711 42.6354 8.34402 42.3521 8.65973C42.0769 8.97545 41.8624 9.34783 41.7085 9.77687C41.5547 10.1978 41.4778 10.6512 41.4778 11.1369C41.4778 11.5902 41.5507 12.0193 41.6964 12.424C41.8421 12.8288 42.0526 13.185 42.3278 13.4926C42.6031 13.8002 42.939 14.0431 43.3357 14.2212C43.7324 14.3993 44.1816 14.4883 44.6835 14.4883C45.1774 14.4883 45.6104 14.3871 45.9828 14.1847C46.3552 13.9824 46.6709 13.699 46.93 13.3347L47.9135 14.0754C47.8488 14.1645 47.7354 14.294 47.5735 14.464C47.4116 14.6259 47.1971 14.7919 46.93 14.9619C46.6628 15.1238 46.339 15.2654 45.9585 15.3869C45.5862 15.5164 45.1531 15.5812 44.6593 15.5812C43.9793 15.5812 43.364 15.4516 42.8135 15.1926C42.2712 14.9335 41.8057 14.5935 41.4171 14.1726C41.0366 13.7516 40.7452 13.2781 40.5428 12.7519C40.3404 12.2176 40.2393 11.6793 40.2393 11.1369C40.2393 10.4731 40.3485 9.86187 40.5671 9.3033C40.7857 8.73664 41.0893 8.25092 41.4778 7.84616C41.8745 7.4333 42.3481 7.11354 42.8985 6.88687C43.449 6.66021 44.0562 6.54688 44.72 6.54688C45.2866 6.54688 45.8412 6.65616 46.3835 6.87473C46.934 7.0933 47.3833 7.42926 47.7314 7.88259L46.76 8.6233Z" fill="#0F535E"/>
<path d="M53.2698 15.5812C52.6141 15.5812 52.011 15.4678 51.4605 15.2412C50.91 15.0064 50.4364 14.6866 50.0398 14.2819C49.6512 13.8771 49.3436 13.3995 49.1169 12.849C48.8983 12.2985 48.7891 11.7035 48.7891 11.064C48.7891 10.4245 48.8983 9.82949 49.1169 9.27902C49.3436 8.72854 49.6512 8.25092 50.0398 7.84616C50.4364 7.4414 50.91 7.12568 51.4605 6.89902C52.011 6.66426 52.6141 6.54688 53.2698 6.54688C53.9255 6.54688 54.5286 6.66426 55.0791 6.89902C55.6295 7.12568 56.0991 7.4414 56.4876 7.84616C56.8843 8.25092 57.1919 8.72854 57.4105 9.27902C57.6372 9.82949 57.7505 10.4245 57.7505 11.064C57.7505 11.7035 57.6372 12.2985 57.4105 12.849C57.1919 13.3995 56.8843 13.8771 56.4876 14.2819C56.0991 14.6866 55.6295 15.0064 55.0791 15.2412C54.5286 15.4678 53.9255 15.5812 53.2698 15.5812ZM53.2698 14.4883C53.7636 14.4883 54.2088 14.3993 54.6055 14.2212C55.0022 14.035 55.3422 13.7881 55.6255 13.4804C55.9088 13.1728 56.1274 12.8126 56.2812 12.3997C56.435 11.9788 56.5119 11.5335 56.5119 11.064C56.5119 10.5945 56.435 10.1533 56.2812 9.74045C56.1274 9.31949 55.9088 8.95521 55.6255 8.64759C55.3422 8.33997 55.0022 8.09711 54.6055 7.91902C54.2088 7.73283 53.7636 7.63973 53.2698 7.63973C52.776 7.63973 52.3307 7.73283 51.9341 7.91902C51.5374 8.09711 51.1974 8.33997 50.9141 8.64759C50.6307 8.95521 50.4122 9.31949 50.2584 9.74045C50.1045 10.1533 50.0276 10.5945 50.0276 11.064C50.0276 11.5335 50.1045 11.9788 50.2584 12.3997C50.4122 12.8126 50.6307 13.1728 50.9141 13.4804C51.1974 13.7881 51.5374 14.035 51.9341 14.2212C52.3307 14.3993 52.776 14.4883 53.2698 14.4883Z" fill="#0F535E"/>
<path d="M59.3416 6.76545H61.078L63.8102 13.274H63.8587L66.5666 6.76545H68.303V15.3626H67.1373V8.29545H67.113L64.2109 15.3626H63.4337L60.5316 8.29545H60.5073V15.3626H59.3416V6.76545Z" fill="#0F535E"/>
<path d="M70.3461 6.76545H72.0825L74.8146 13.274H74.8632L77.5711 6.76545H79.3075V15.3626H78.1418V8.29545H78.1175L75.2153 15.3626H74.4382L71.5361 8.29545H71.5118V15.3626H70.3461V6.76545Z" fill="#0F535E"/>
<path d="M82.4434 6.76545V12.0354C82.4434 12.3026 82.4798 12.5819 82.5527 12.8733C82.6255 13.1566 82.7469 13.4197 82.9169 13.6626C83.0869 13.9054 83.3096 14.1038 83.5848 14.2576C83.86 14.4114 84.2 14.4883 84.6048 14.4883C85.0096 14.4883 85.3496 14.4114 85.6248 14.2576C85.9 14.1038 86.1227 13.9054 86.2927 13.6626C86.4627 13.4197 86.5841 13.1566 86.6569 12.8733C86.7298 12.5819 86.7662 12.3026 86.7662 12.0354V6.76545H87.9319V12.2176C87.9319 12.7195 87.847 13.1769 87.6769 13.5897C87.507 13.9945 87.2722 14.3466 86.9727 14.6462C86.6731 14.9457 86.321 15.1764 85.9162 15.3383C85.5115 15.5002 85.0743 15.5812 84.6048 15.5812C84.1353 15.5812 83.6981 15.5002 83.2934 15.3383C82.8886 15.1764 82.5365 14.9457 82.2369 14.6462C81.9374 14.3466 81.7027 13.9945 81.5327 13.5897C81.3627 13.1769 81.2777 12.7195 81.2777 12.2176V6.76545H82.4434Z" fill="#0F535E"/>
<path d="M89.9853 6.76545H91.5153L96.251 13.8326H96.2753V6.76545H97.441V15.3626H95.9596L91.1753 8.29545H91.151V15.3626H89.9853V6.76545Z" fill="#0F535E"/>
<path d="M99.6498 6.76545H100.816V15.3626H99.6498V6.76545Z" fill="#0F535E"/>
<path d="M104.827 7.8583H102.058V6.76545H108.761V7.8583H105.992V15.3626H104.827V7.8583Z" fill="#0F535E"/>
<path d="M112.03 11.6954L108.776 6.76545H110.269L112.613 10.5419L115.029 6.76545H116.45L113.196 11.6954V15.3626H112.03V11.6954Z" fill="#0F535E"/>
<path d="M40.6157 18.9083H46.3835V20.6569H42.51V22.4054H46.0921V24.154H42.51V27.5054H40.6157V18.9083Z" fill="#0F535E"/>
<path d="M49.906 18.9083H51.4724L55.2124 27.5054H53.0753L52.3346 25.684H48.9953L48.2789 27.5054H46.1903L49.906 18.9083ZM50.6346 21.4097L49.5903 24.0812H51.691L50.6346 21.4097Z" fill="#0F535E"/>
<path d="M56.0772 18.9083H59.4043C59.8414 18.9083 60.2543 18.9528 60.6429 19.0419C61.0395 19.1228 61.3836 19.2645 61.675 19.4669C61.9745 19.6612 62.2093 19.9283 62.3793 20.2683C62.5574 20.6002 62.6464 21.0171 62.6464 21.519C62.6464 22.1262 62.4886 22.6443 62.1729 23.0733C61.8572 23.4943 61.3957 23.7614 60.7886 23.8747L62.9743 27.5054H60.7036L58.9064 24.069H57.9714V27.5054H56.0772V18.9083ZM57.9714 22.4662H59.0886C59.2586 22.4662 59.4367 22.4621 59.6229 22.454C59.8172 22.4378 59.9912 22.4014 60.145 22.3447C60.2988 22.28 60.4243 22.1828 60.5214 22.0533C60.6267 21.9238 60.6793 21.7416 60.6793 21.5069C60.6793 21.2883 60.6348 21.1143 60.5457 20.9847C60.4567 20.8552 60.3433 20.7581 60.2057 20.6933C60.0681 20.6204 59.9102 20.5719 59.7322 20.5476C59.5541 20.5233 59.38 20.5112 59.21 20.5112H57.9714V22.4662Z" fill="#0F535E"/>
<path d="M63.951 18.9083H66.8167L68.796 24.5183H68.8203L70.8118 18.9083H73.6653V27.5054H71.771V20.9119H71.7467L69.4882 27.5054H68.0432L65.8696 20.9119H65.8453V27.5054H63.951V18.9083Z" fill="#0F535E"/>
</svg>
